<?xml version="1.0" encoding="UTF-8"?>
<svg width="286px" height="249px" viewBox="0 0 286 249" version="1.1" xmlns="http://www.w3.org/2000/svg" xmlns:xlink="http://www.w3.org/1999/xlink">
    <!-- Generator: Sketch 53.2 (72643) - https://sketchapp.com -->
    <title>404-illustration</title>
    <desc>Created with Sketch.</desc>
    <defs>
        <linearGradient x1="50%" y1="100.004407%" x2="50%" y2="-3.13124773e-15%" id="linearGradient-1">
            <stop stop-color="#808080" stop-opacity="0.25" offset="0%"></stop>
            <stop stop-color="#808080" stop-opacity="0.12" offset="54%"></stop>
            <stop stop-color="#808080" stop-opacity="0.1" offset="100%"></stop>
        </linearGradient>
        <linearGradient x1="36.6783418%" y1="103.528257%" x2="64.2654623%" y2="4.65100432%" id="linearGradient-2">
            <stop stop-color="#808080" stop-opacity="0.25" offset="0%"></stop>
            <stop stop-color="#808080" stop-opacity="0.12" offset="54%"></stop>
            <stop stop-color="#808080" stop-opacity="0.1" offset="100%"></stop>
        </linearGradient>
        <linearGradient x1="36.7581217%" y1="102.990254%" x2="64.3452422%" y2="4.11300106%" id="linearGradient-3">
            <stop stop-color="#808080" stop-opacity="0.25" offset="0%"></stop>
            <stop stop-color="#808080" stop-opacity="0.12" offset="54%"></stop>
            <stop stop-color="#808080" stop-opacity="0.1" offset="100%"></stop>
        </linearGradient>
        <linearGradient x1="50%" y1="100%" x2="50%" y2="-9.17895279e-15%" id="linearGradient-4">
            <stop stop-color="#808080" stop-opacity="0.25" offset="0%"></stop>
            <stop stop-color="#808080" stop-opacity="0.12" offset="54%"></stop>
            <stop stop-color="#808080" stop-opacity="0.1" offset="100%"></stop>
        </linearGradient>
    </defs>
    <g id="Guidelines" stroke="none" stroke-width="1" fill="none" fill-rule="evenodd">
        <g id="export" transform="translate(-1696.000000, -1064.000000)" fill-rule="nonzero">
            <g id="404-illustration" transform="translate(1696.000000, 1064.000000)">
                <g id="Group" opacity="0.8" transform="translate(97.000000, 6.000000)" fill="url(#linearGradient-1)">
                    <ellipse id="Oval" cx="50" cy="38.604693" rx="49.8163265" ry="38.3176316"></ellipse>
                </g>
                <ellipse id="Oval" fill="#003595" cx="147" cy="45" rx="49" ry="38"></ellipse>
                <path d="M105.777502,49.3429399 C105.777502,28.3428434 127.656204,11.3186097 154.647103,11.3186097 C163.026979,11.2722862 171.323312,12.9922199 179,16.3672701 C170.41028,10.5405745 159.172319,7 146.873015,7 C119.882115,7 98,24.0242336 98,45.0243302 C98,59.1249336 107.866063,71.4329713 122.523531,78 C112.261597,71.0285301 105.777502,60.7769732 105.777502,49.3429399 Z" id="Path" fill="#FFFFFF" opacity="0.1"></path>
                <polygon id="Path" fill="#003595" opacity="0.2" points="147.5 61 201.75 155.001709 256 249 147.5 249 39 249 93.25 155.001709"></polygon>
                <g id="Group" opacity="0.3" transform="translate(116.000000, 153.000000)" fill="url(#linearGradient-2)">
                    <path d="M44.3689655,40.6280447 L48.6206897,28.1588268 C51.6224091,19.2437306 48.3749182,9.437102 40.6206897,4.00078212 L40.6551724,3.9803352 C38.982799,2.81678005 37.1488529,1.89851254 35.2103448,1.25407821 L35.2103448,1.25407821 L35.1517241,1.23363128 L35.0862069,1.21318436 L35.0862069,1.21318436 C33.2045618,0.5842338 31.2428916,0.219445244 29.2586207,0.129497207 C28.5567888,0.0937050042 27.8535561,0.0937050042 27.1517241,0.129497207 C25.9339748,0.192485292 24.7238599,0.357793304 23.5344828,0.623631285 C23.1896552,0.698603352 22.8448276,0.783798883 22.5310345,0.875810056 C22.2172414,0.967821229 21.8655172,1.06664804 21.537931,1.1722905 C20.8827586,1.38698324 20.237931,1.62893855 19.6068966,1.90497207 C19.2896552,2.04128492 18.9758621,2.18441341 18.6689655,2.33776536 C17.7409679,2.79058292 16.8477742,3.309961 15.9965517,3.89173184 C15.7103448,4.08597765 15.4310345,4.28703911 15.1551724,4.49150838 C11.7467073,7.05314171 9.19514552,10.5672739 7.83103448,14.5786592 L1.14827586,34.2247486 C0.0965125125,37.3058257 -0.219778848,40.5855901 0.224137931,43.8075419 C0.293103448,44.301676 0.379310345,44.7924022 0.479310345,45.2797207 C0.579310345,45.7670391 0.703448276,46.2475419 0.824137931,46.7246369 C0.917241379,47.0415642 1.0137931,47.3584916 1.12068966,47.6720112 C1.27931034,48.1388827 1.46551724,48.6057542 1.64137931,49.0624022 C1.76896552,49.3656983 1.90344828,49.6689944 2.04482759,49.9688827 C2.32413793,50.5652514 2.63448276,51.1479888 2.96896552,51.717095 C3.30344828,52.2862011 3.65862069,52.841676 4.05862069,53.3801117 C4.34827586,53.7822346 4.65517241,54.1775419 4.97241379,54.5592179 C5.4,55.0703911 5.84827586,55.5815642 6.32413793,56.0348045 C8.38374747,58.0869161 10.8486718,59.6981602 13.5655172,60.7682682 L13.5655172,60.7682682 L13.5655172,60.7682682 L13.6827586,60.8159777 C13.8286528,60.5602092 13.9898588,60.3132714 14.1655172,60.0764804 C15.2,58.6758659 17,57.6910056 18.7137931,58.0590503 C18.837931,58.0863128 18.962069,58.1237989 19.0862069,58.1612849 C19.9551724,58.464581 20.8103448,59.0064246 21.6482759,59.2722346 C22.2651989,59.5461836 22.9729442,59.5374562 23.5827586,59.2483799 C25.2586207,58.3657542 24.637931,55.5815642 26.0758621,54.3615642 C26.1428063,54.3052804 26.2130426,54.2529367 26.2862069,54.2048045 C26.265869,54.1800704 26.247427,54.1538711 26.2310345,54.1264246 C27.3413793,53.4448603 28.8793103,53.8981006 30.1586207,54.3377095 C31.537931,54.8182123 33.337931,55.1419553 34.2965517,54.0275978 C34.9448276,53.2642458 34.8965517,52.1021788 35.5137931,51.3013408 C36.2310345,50.3812291 37.5827586,50.2789944 38.7517241,50.4425698 L38.8103448,50.4596089 C41.0517241,51.372905 43.5,49.8564246 43.3275862,47.4675419 C43.1241379,44.2812291 44.137931,41.2789385 44.3689655,40.6280447 Z" id="Path"></path>
                </g>
                <path d="M131.287768,212.278208 C132.274504,210.903365 133.967498,209.940975 135.589528,210.31562 C137.211559,210.690265 138.749108,212.261022 140.19204,211.473925 C142.16551,210.401548 140.766509,206.459187 143.970019,206.167033 C144.637588,206.122157 145.306046,206.239992 145.919835,206.510743 C147.271527,207.070992 149.386925,207.703419 150.427728,206.442001 C151.039368,205.699586 150.995438,204.568778 151.580045,203.798866 C152.255891,202.905219 153.543378,202.791794 154.641627,202.96365 L154.695695,202.980835 C156.814472,203.871046 159.132624,202.39309 158.967042,200.069606 C158.75415,196.97621 159.72061,194.061544 159.930122,193.429117 L163.944648,181.292694 C167.499489,170.461563 161.783993,158.744174 151.154262,155.07101 L151.154262,155.07101 C140.506584,151.460065 128.990826,157.274327 125.380874,168.083895 L119.051576,187.170146 C115.636722,197.59049 120.79449,208.912856 130.818055,213 C130.960607,212.750262 131.117447,212.50925 131.287768,212.278208 L131.287768,212.278208 Z" id="Path" fill="#FFFFFF"></path>
                <circle id="Oval" fill="#000000" opacity="0.2" cx="138.5" cy="166.5" r="2.5"></circle>
                <circle id="Oval" fill="#000000" opacity="0.2" cx="149.5" cy="170.5" r="2.5"></circle>
                <ellipse id="Oval" fill="#E0E0E0" transform="translate(141.495544, 177.090582) rotate(-71.400000) translate(-141.495544, -177.090582) " cx="141.495544" cy="177.090582" rx="3.34082307" ry="2.21785088"></ellipse>
                <circle id="Oval" fill="#FFFFFF" cx="189" cy="168" r="3"></circle>
                <circle id="Oval" fill="#FFFFFF" cx="197.5" cy="161.5" r="1.5"></circle>
                <g id="Group" opacity="0.5" transform="translate(120.000000, 19.000000)">
                    <g opacity="0.3" fill="url(#linearGradient-3)" id="Path">
                        <path d="M44.3689655,40.6280447 L48.6206897,28.1588268 C51.6224091,19.2437306 48.3749182,9.437102 40.6206897,4.00078212 L40.6551724,3.9803352 C38.982799,2.81678005 37.1488529,1.89851254 35.2103448,1.25407821 L35.2103448,1.25407821 L35.1517241,1.23363128 L35.0862069,1.21318436 L35.0862069,1.21318436 C33.2045618,0.5842338 31.2428916,0.219445244 29.2586207,0.129497207 C28.5567888,0.0937050042 27.8535561,0.0937050042 27.1517241,0.129497207 C25.9339748,0.192485292 24.7238599,0.357793304 23.5344828,0.623631285 C23.1896552,0.698603352 22.8448276,0.783798883 22.5310345,0.875810056 C22.2172414,0.967821229 21.8655172,1.06664804 21.537931,1.1722905 C20.8827586,1.38698324 20.237931,1.62893855 19.6068966,1.90497207 C19.2896552,2.04128492 18.9758621,2.18441341 18.6689655,2.33776536 C17.7409679,2.79058292 16.8477742,3.309961 15.9965517,3.89173184 C15.7103448,4.08597765 15.4310345,4.28703911 15.1551724,4.49150838 C11.7467073,7.05314171 9.19514552,10.5672739 7.83103448,14.5786592 L1.14827586,34.2247486 C0.0965125125,37.3058257 -0.219778848,40.5855901 0.224137931,43.8075419 C0.293103448,44.301676 0.379310345,44.7924022 0.479310345,45.2797207 C0.579310345,45.7670391 0.703448276,46.2475419 0.824137931,46.7246369 C0.917241379,47.0415642 1.0137931,47.3584916 1.12068966,47.6720112 C1.27931034,48.1388827 1.46551724,48.6057542 1.64137931,49.0624022 C1.76896552,49.3656983 1.90344828,49.6689944 2.04482759,49.9688827 C2.32413793,50.5652514 2.63448276,51.1479888 2.96896552,51.717095 C3.30344828,52.2862011 3.65862069,52.841676 4.05862069,53.3801117 C4.34827586,53.7822346 4.65517241,54.1775419 4.97241379,54.5592179 C5.4,55.0703911 5.84827586,55.5645251 6.32413793,56.0348045 C8.38374747,58.0869161 10.8486718,59.6981602 13.5655172,60.7682682 L13.5655172,60.7682682 L13.5655172,60.7682682 L13.6827586,60.8159777 C13.8286528,60.5602092 13.9898588,60.3132714 14.1655172,60.0764804 C15.2,58.6758659 17,57.6910056 18.7137931,58.0590503 C18.837931,58.0863128 18.962069,58.1237989 19.0862069,58.1612849 C19.9551724,58.464581 20.8103448,59.0064246 21.6482759,59.2722346 C22.2651989,59.5461836 22.9729442,59.5374562 23.5827586,59.2483799 C25.2586207,58.3657542 24.637931,55.5815642 26.0758621,54.3615642 C26.1428063,54.3052804 26.2130426,54.2529367 26.2862069,54.2048045 C26.265869,54.1800704 26.247427,54.1538711 26.2310345,54.1264246 C27.3413793,53.4448603 28.8793103,53.8981006 30.1586207,54.3377095 C31.537931,54.8182123 33.337931,55.1419553 34.2965517,54.0275978 C34.9448276,53.2642458 34.8965517,52.1021788 35.5137931,51.3013408 C36.2310345,50.3812291 37.5827586,50.2789944 38.7517241,50.4425698 L38.8103448,50.4425698 C41.0517241,51.3558659 43.5,49.8393855 43.3275862,47.4505028 C43.1241379,44.2812291 44.137931,41.2789385 44.3689655,40.6280447 Z"></path>
                    </g>
                    <path d="M14.5551724,59.0268715 C15.562069,57.663743 17.2896552,56.7095531 18.9448276,57.0810056 C20.6,57.4524581 22.1689655,59.0098324 23.6413793,58.2294413 C25.6551724,57.1662011 24.2275862,53.2574302 27.4965517,52.9677654 C28.1777606,52.9232725 28.8598771,53.0401033 29.4862069,53.3085475 C30.8655172,53.8640223 33.0241379,54.4910615 34.0862069,53.2403911 C34.7103448,52.5043017 34.6655172,51.3831285 35.262069,50.6197765 C35.9517241,49.733743 37.2655172,49.6212849 38.3862069,49.791676 L38.4413793,49.8087151 C40.6034483,50.6913408 42.9689655,49.2259777 42.8,46.9222905 C42.5827586,43.8552514 43.5689655,40.965419 43.7827586,40.3383799 L47.8793103,28.3053631 C51.5067853,17.5665157 45.6745085,5.94896276 34.8275862,2.30709497 L34.8275862,2.30709497 C23.9623507,-1.2730838 12.2112981,4.49163909 8.52758621,15.2091061 L2.06896552,34.1327374 C-1.41566224,44.464297 3.84749101,55.6901935 14.0758621,59.742514 C14.2213259,59.4949037 14.3813713,59.2559452 14.5551724,59.0268715 Z" id="Path" fill="#FFFFFF"></path>
                    <ellipse id="Oval" fill="#000000" opacity="0.2" cx="22.1896552" cy="13.3177654" rx="2.24482759" ry="2.21849162"></ellipse>
                    <ellipse id="Oval" fill="#000000" opacity="0.2" cx="34.9551724" cy="17.5605028" rx="2.24482759" ry="2.21849162"></ellipse>
                </g>
                <path d="M192.935265,34 C193.564526,36.462119 193.881861,38.9952695 193.879628,41.5384615 C193.879628,62.5330769 172.179607,79.5528671 145.409139,79.5528671 C123.49926,79.5391608 104.98773,68.1423776 99,52.5034965 C103.447641,69.9002098 123.032156,83 146.526127,83 C173.296594,83 195,65.9802098 195,44.9855944 C194.993103,41.2255579 194.292863,37.4998701 192.935265,34 L192.935265,34 Z" id="Path" fill="#000000" opacity="0.1"></path>
                <g id="Group" opacity="0.8" transform="translate(45.000000, 36.000000)" fill="url(#linearGradient-4)">
                    <ellipse id="Oval" cx="101.5" cy="26.3912821" rx="101.219764" ry="26.2995513"></ellipse>
                </g>
                <path d="M147.5,36 C93.6540744,36 50,47.1908897 50,61 L245,61 C245,47.1908897 201.345926,36 147.5,36 Z" id="Path" fill="#FFFFFF"></path>
                <path d="M147.5,87 C201.345926,87 245,75.8076152 245,62 L50,62 C50,75.8076152 93.6540744,87 147.5,87 Z" id="Path" fill="#FFFFFF"></path>
                <path d="M147.5,87 C201.345926,87 245,75.8076152 245,62 L50,62 C50,75.8076152 93.6540744,87 147.5,87 Z" id="Path" fill="#000000" opacity="0.05"></path>
                <rect id="Rectangle" fill="#000000" opacity="0.05" x="101" y="55" width="92" height="14" rx="7"></rect>
                <path d="M45.589697,19.540865 C44.9509773,19.2623633 44.6219437,18.5503094 44.824035,17.883914 C44.8397134,17.8341946 44.8497364,17.7828687 44.8539145,17.7309072 L44.8539145,17.7309072 C44.8734918,17.4276067 44.6911906,17.1475297 44.4057798,17.0424194 C44.1203691,16.937309 43.7997579,17.0321746 43.6176505,17.2756189 L43.6176505,17.2756189 C43.587744,17.3174333 43.562684,17.3625042 43.5429518,17.4099663 C43.265515,18.0494259 42.5517066,18.3787292 41.8846399,18.175 C41.8347787,18.1597347 41.7834547,18.1497284 41.7315075,18.145145 L41.7315075,18.145145 C41.4279579,18.1255837 41.1476509,18.3077354 41.0424542,18.5929119 C40.9372575,18.8780885 41.032201,19.1984365 41.2758453,19.3803945 L41.2758453,19.3803945 C41.3171005,19.4121932 41.3622936,19.4385342 41.410303,19.4587638 C42.0490227,19.7372654 42.3780563,20.4493194 42.175965,21.1157148 C42.1606445,21.1642503 42.1506263,21.2143 42.1460855,21.2649896 L42.1460855,21.2649896 C42.1246312,21.5690122 42.3063059,21.8507841 42.5922304,21.9569469 C42.878155,22.0631096 43.1998994,21.9682553 43.3823495,21.7240098 L43.3823495,21.7240098 C43.4130422,21.6813558 43.4381457,21.6349525 43.4570482,21.5859306 C43.7412267,20.9537673 44.4532123,20.6333162 45.1153601,20.8395563 C45.1652213,20.8548216 45.2165453,20.8648278 45.2684925,20.8694112 L45.2684925,20.8694112 C45.5720421,20.8889725 45.8523491,20.7068208 45.9575458,20.4216443 C46.0627425,20.1364678 45.967799,19.8161197 45.7241547,19.6341617 L45.7241547,19.6341617 C45.6837722,19.5971205 45.6385391,19.5657344 45.589697,19.540865 Z" id="Path" fill="#4D8AF0" opacity="0.5"></path>
                <path d="M218.588159,124.540865 C217.954371,124.255659 217.632976,123.545409 217.838371,122.883914 C217.854108,122.834195 217.864169,122.782869 217.868363,122.730907 L217.868363,122.730907 C217.888013,122.427607 217.705029,122.14753 217.418548,122.042419 C217.132067,121.937309 216.810254,122.032175 216.627464,122.275619 L216.627464,122.275619 C216.597445,122.317433 216.572291,122.362504 216.552485,122.409966 C216.274008,123.049426 215.557524,123.378729 214.887956,123.175 C214.837908,123.159735 214.786392,123.149728 214.73425,123.145145 L214.73425,123.145145 C214.429562,123.125584 214.148204,123.307735 214.042613,123.592912 C213.937022,123.878088 214.032322,124.198436 214.276879,124.380394 L214.276879,124.380394 C214.318289,124.412193 214.363652,124.438534 214.411841,124.458764 C215.045629,124.74397 215.367024,125.454219 215.161629,126.115715 C215.146251,126.16425 215.136195,126.2143 215.131637,126.26499 L215.131637,126.26499 C215.110103,126.569012 215.292458,126.850784 215.579455,126.956947 C215.866451,127.06311 216.189402,126.968255 216.372536,126.72401 L216.372536,126.72401 C216.403344,126.681356 216.428541,126.634952 216.447515,126.585931 C216.732759,125.953767 217.447414,125.633316 218.112044,125.839556 C218.162092,125.854822 218.213608,125.864828 218.26575,125.869411 L218.26575,125.869411 C218.570438,125.888972 218.851796,125.706821 218.957387,125.421644 C219.062978,125.136468 218.967678,124.81612 218.723121,124.634162 L218.723121,124.634162 C218.682587,124.59712 218.637184,124.565734 218.588159,124.540865 L218.588159,124.540865 Z" id="Path" fill="#4D8AF0" opacity="0.5"></path>
                <path d="M27.589697,173.540865 C26.9509773,173.262363 26.6219437,172.550309 26.824035,171.883914 C26.8397134,171.834195 26.8497364,171.782869 26.8539145,171.730907 L26.8539145,171.730907 C26.8734918,171.427607 26.6911906,171.14753 26.4057798,171.042419 C26.1203691,170.937309 25.7997579,171.032175 25.6176505,171.275619 L25.6176505,171.275619 C25.587744,171.317433 25.562684,171.362504 25.5429518,171.409966 C25.265515,172.049426 24.5517066,172.378729 23.8846399,172.175 C23.8347787,172.159735 23.7834547,172.149728 23.7315075,172.145145 L23.7315075,172.145145 C23.4279579,172.125584 23.1476509,172.307735 23.0424542,172.592912 C22.9372575,172.878088 23.032201,173.198436 23.2758453,173.380394 L23.2758453,173.380394 C23.3171005,173.412193 23.3622936,173.438534 23.410303,173.458764 C24.0490227,173.737265 24.3780563,174.449319 24.175965,175.115715 C24.1606445,175.16425 24.1506263,175.2143 24.1460855,175.26499 L24.1460855,175.26499 C24.1246312,175.569012 24.3063059,175.850784 24.5922304,175.956947 C24.878155,176.06311 25.1998994,175.968255 25.3823495,175.72401 L25.3823495,175.72401 C25.4130422,175.681356 25.4381457,175.634952 25.4570482,175.585931 C25.7412267,174.953767 26.4532123,174.633316 27.1153601,174.839556 C27.1652213,174.854822 27.2165453,174.864828 27.2684925,174.869411 L27.2684925,174.869411 C27.5720421,174.888972 27.8523491,174.706821 27.9575458,174.421644 C28.0627425,174.136468 27.967799,173.81612 27.7241547,173.634162 L27.7241547,173.634162 C27.6837722,173.59712 27.6385391,173.565734 27.589697,173.540865 Z" id="Path" fill="#4D8AF0" opacity="0.5"></path>
                <path d="M8.57102233,59.540865 C7.93960164,59.2556592 7.61940657,58.5454094 7.82403502,57.883914 C7.83971336,57.8341946 7.84973639,57.7828687 7.85391451,57.7309072 L7.85391451,57.7309072 C7.87349182,57.4276067 7.69119055,57.1475297 7.40577981,57.0424194 C7.12036907,56.937309 6.79975794,57.0321746 6.6176505,57.2756189 L6.6176505,57.2756189 C6.58774399,57.3174333 6.56268403,57.3625042 6.54295177,57.4099663 C6.26551504,58.0494259 5.55170659,58.3787292 4.88463993,58.175 C4.83477872,58.1597347 4.78345471,58.1497284 4.73150753,58.145145 L4.73150753,58.145145 C4.42795791,58.1255837 4.14765091,58.3077354 4.0424542,58.5929119 C3.9372575,58.8780885 4.03220102,59.1984365 4.27584527,59.3803945 L4.27584527,59.3803945 C4.31710045,59.4121932 4.36229359,59.4385342 4.41030298,59.4587638 C5.04902268,59.7372654 5.37805633,60.4493194 5.17596498,61.1157148 C5.16064447,61.1642503 5.1506263,61.2143 5.14608549,61.2649896 L5.14608549,61.2649896 C5.12463118,61.5690122 5.30630589,61.8507841 5.59223045,61.9569469 C5.878155,62.0631096 6.19989943,61.9682553 6.3823495,61.7240098 L6.3823495,61.7240098 C6.41304219,61.6813558 6.43814566,61.6349525 6.45704823,61.5859306 C6.74122665,60.9537673 7.45321232,60.6333162 8.11536007,60.8395563 C8.16522128,60.8548216 8.21654529,60.8648278 8.26849247,60.8694112 L8.26849247,60.8694112 C8.57204209,60.8889725 8.85234909,60.7068208 8.9575458,60.4216443 C9.0627425,60.1364678 8.96779898,59.8161197 8.72415473,59.6341617 L8.72415473,59.6341617 C8.67803269,59.5956344 8.62642167,59.5641901 8.57102233,59.540865 Z" id="Path" fill="#4D8AF0" opacity="0.5"></path>
                <path d="M216.589268,2.52044974 C215.968488,2.2375355 215.653689,1.53299245 215.854869,0.87681194 C215.870283,0.827492034 215.880137,0.776578571 215.884245,0.725034575 L215.884245,0.725034575 C215.903492,0.424171005 215.724263,0.146344383 215.443662,0.0420785368 C215.163061,-0.0621873091 214.847853,0.0319160758 214.668814,0.27340437 L214.668814,0.27340437 C214.639412,0.314882766 214.614774,0.359591557 214.595375,0.406672299 C214.315985,1.03375631 213.615998,1.35163264 212.965009,1.14704969 C212.915988,1.13190704 212.865529,1.12198122 212.814457,1.11743459 L212.814457,1.11743459 C212.487353,1.04825802 212.159232,1.23058486 212.042583,1.54634181 C211.925934,1.86209875 212.055814,2.21638936 212.348114,2.37977803 L212.348114,2.37977803 C212.388674,2.41132124 212.433105,2.43745063 212.480306,2.45751766 C213.101086,2.7404319 213.415885,3.44497494 213.214705,4.10115546 C213.199642,4.14930097 213.189793,4.19894856 213.185329,4.24923093 L213.185329,4.24923093 C213.153377,4.56303283 213.33933,4.85789591 213.634748,4.9618697 C213.930166,5.0658435 214.257748,4.95172118 214.426463,4.68605359 L214.426463,4.68605359 C214.456638,4.64374224 214.481319,4.59771177 214.499903,4.54908378 C214.779292,3.92199977 215.479279,3.60412344 216.130268,3.80870639 C216.179289,3.82384903 216.229748,3.83377486 216.28082,3.83832148 L216.28082,3.83832148 C216.579254,3.85772556 216.854837,3.67703744 216.958261,3.39415223 C217.061685,3.11126703 216.968342,2.79349292 216.728803,2.61299691 L216.728803,2.61299691 C216.68684,2.57568566 216.639865,2.54452956 216.589268,2.52044974 L216.589268,2.52044974 Z" id="Path" fill="#4D8AF0" opacity="0.5"></path>
                <g id="Group" opacity="0.5" transform="translate(36.000000, 88.000000)" fill="#47E6B1">
                    <rect id="Rectangle" x="2.47058824" y="0.283333333" width="1.05882353" height="5.66666667"></rect>
                    <polygon id="Rectangle" transform="translate(3.000000, 3.116667) rotate(90.000000) translate(-3.000000, -3.116667) " points="2.5 0.116666667 3.5 0.116666667 3.5 6.11666667 2.5 6.11666667"></polygon>
                </g>
                <g id="Group" opacity="0.5" transform="translate(280.000000, 60.000000)" fill="#47E6B1">
                    <rect id="Rectangle" x="2.47058824" y="0.283333333" width="1.05882353" height="5.66666667"></rect>
                    <polygon id="Rectangle" transform="translate(3.000000, 3.116667) rotate(90.000000) translate(-3.000000, -3.116667) " points="2.5 0.116666667 3.5 0.116666667 3.5 6.11666667 2.5 6.11666667"></polygon>
                </g>
                <g id="Group" opacity="0.5" transform="translate(246.000000, 157.000000)" fill="#47E6B1">
                    <rect id="Rectangle" x="2.47058824" y="0.283333333" width="1.05882353" height="5.66666667"></rect>
                    <polygon id="Rectangle" transform="translate(3.000000, 3.116667) rotate(90.000000) translate(-3.000000, -3.116667) " points="2.5 0.116666667 3.5 0.116666667 3.5 6.11666667 2.5 6.11666667"></polygon>
                </g>
                <circle id="Oval" fill="#F55F44" opacity="0.5" cx="246.5" cy="27.5" r="2.5"></circle>
                <circle id="Oval" fill="#F55F44" opacity="0.5" cx="2.5" cy="3.5" r="2.5"></circle>
                <circle id="Oval" fill="#F55F44" opacity="0.5" cx="63.5" cy="122.5" r="2.5"></circle>
                <ellipse id="Oval" fill="#000000" opacity="0.05" cx="80.5" cy="53.5" rx="11.5" ry="2.5"></ellipse>
                <ellipse id="Oval" fill="#000000" opacity="0.05" cx="80.5" cy="71.5" rx="11.5" ry="2.5"></ellipse>
                <ellipse id="Oval" fill="#000000" opacity="0.05" cx="212.5" cy="53.5" rx="11.5" ry="2.5"></ellipse>
                <ellipse id="Oval" fill="#000000" opacity="0.05" cx="212.5" cy="71.5" rx="11.5" ry="2.5"></ellipse>
                <ellipse id="Oval" fill="#000000" opacity="0.05" cx="146.5" cy="43.5" rx="11.5" ry="2.5"></ellipse>
                <ellipse id="Oval" fill="#000000" opacity="0.05" cx="155.5" cy="17.5" rx="11.5" ry="2.5"></ellipse>
                <ellipse id="Oval" fill="#000000" opacity="0.05" cx="133.5" cy="27.5" rx="11.5" ry="2.5"></ellipse>
                <ellipse id="Oval" fill="#000000" opacity="0.05" cx="176.5" cy="32.5" rx="11.5" ry="2.5"></ellipse>
                <ellipse id="Oval" fill="#000000" opacity="0.05" cx="146.5" cy="78.5" rx="11.5" ry="2.5"></ellipse>
            </g>
        </g>
    </g>
</svg>