<?xml version="1.0" encoding="UTF-8"?>
<svg width="266px" height="220px" viewBox="0 0 266 220" version="1.1" xmlns="http://www.w3.org/2000/svg" xmlns:xlink="http://www.w3.org/1999/xlink">
    <!-- Generator: Sketch 53.2 (72643) - https://sketchapp.com -->
    <title>503-illustration</title>
    <desc>Created with Sketch.</desc>
    <defs>
        <linearGradient x1="-0.0103373456%" y1="50.0146235%" x2="100.004589%" y2="50.0146235%" id="linearGradient-1">
            <stop stop-color="#808080" stop-opacity="0.25" offset="0%"></stop>
            <stop stop-color="#808080" stop-opacity="0.12" offset="54%"></stop>
            <stop stop-color="#808080" stop-opacity="0.1" offset="100%"></stop>
        </linearGradient>
        <linearGradient x1="100.028957%" y1="49.9753114%" x2="-0.000520432209%" y2="49.9753114%" id="linearGradient-2">
            <stop stop-color="#808080" stop-opacity="0.25" offset="0%"></stop>
            <stop stop-color="#808080" stop-opacity="0.12" offset="54%"></stop>
            <stop stop-color="#808080" stop-opacity="0.1" offset="100%"></stop>
        </linearGradient>
    </defs>
    <g id="Guidelines" stroke="none" stroke-width="1" fill="none" fill-rule="evenodd">
        <g id="export" transform="translate(-1341.000000, -1099.000000)">
            <g id="503-illustration" transform="translate(1341.000000, 1099.000000)">
                <ellipse id="Oval" fill="#003595" fill-rule="nonzero" opacity="0.1" cx="135.5" cy="110" rx="120.5" ry="110"></ellipse>
                <ellipse id="Oval" fill="#003595" fill-rule="nonzero" opacity="0.1" cx="44.5" cy="166" rx="44.5" ry="7"></ellipse>
                <ellipse id="Oval" fill="#003595" fill-rule="nonzero" opacity="0.1" cx="66" cy="203" rx="17" ry="4"></ellipse>
                <ellipse id="Oval" fill="#003595" fill-rule="nonzero" opacity="0.1" cx="184" cy="190" rx="17" ry="4"></ellipse>
                <ellipse id="Oval" fill="#003595" fill-rule="nonzero" opacity="0.1" cx="125.5" cy="185" rx="28.5" ry="5"></ellipse>
                <ellipse id="Oval" fill="#003595" fill-rule="nonzero" opacity="0.1" cx="207.5" cy="161" rx="58.5" ry="10"></ellipse>
                <path d="M11.832687,145.067998 C9.11017019,150.436792 9.43974488,156.873717 12.6959283,161.927968 C13.220695,162.725884 13.7034804,163.300383 14.089184,163.451988 C15.9389867,164.18873 19.6438398,166 19.6438398,166 L28.5648743,162.446613 C28.5648743,162.446613 30.0132305,154.680228 31.3828717,148.012309 L31.3828717,148.012309 C32.3169565,143.464186 33.2195553,139.42939 33.5895158,138.721904 C34.5131053,136.979787 33.5895158,118.013318 33.5895158,118.013318 C33.5895158,118.013318 24.6684813,117.406902 22.2151968,124.37803 L21.1420489,126.505807 L11.832687,145.067998 Z" id="Path" fill="#A8A8A8" fill-rule="nonzero"></path>
                <path d="M23.9705874,144.979482 C29.2369632,151.241098 31.4586757,145.825289 31.4586757,145.825289 L31.4586757,145.825289 L31.4586757,145.825289 C32.3657051,141.305508 33.2421605,137.295854 33.6014053,136.592777 C34.4982434,134.861516 33.6014053,116.013235 33.6014053,116.013235 C33.6014053,116.013235 24.9387649,115.410598 22.5565387,122.338286 L21.5144741,124.452803 C20.8469412,129.995483 20.1870518,140.472917 23.9705874,144.979482 Z" id="Path" fill="#FFFFFF" fill-rule="nonzero" opacity="0.1"></path>
                <path d="M25,164 L55.5494661,160.326101 L61,122.982751 L56.8783679,113.283764 C55.1370615,109.153249 52.7257738,105.365715 49.7501591,102.087121 C47.6753412,99.8101518 45.1677392,97.6206567 42.530302,96.5206076 C42.1698822,96.3693511 41.8019083,96.238393 41.4279754,96.128301 C40.556105,95.8525475 39.6101823,96.0268769 38.8821865,96.5974785 C35.1144191,99.3780844 33.7676968,111.200298 33.3323669,116.891395 C33.1532642,119.230004 32.8498502,121.556485 32.4235203,123.860139 L25,164 Z" id="Path" fill="#A8A8A8" fill-rule="nonzero"></path>
                <path d="M45.0620032,122.03427 L39.100159,138 C42.2241653,135.512981 46.8529412,121.969369 46.8529412,121.969369 L51,137.410696 L47.6947536,121.136036 C48.1786251,117.601886 48.3193053,114.022095 48.1144674,110.455871 C47.8521463,106.369683 44.3298887,99.8120511 42.4173291,96.5098709 C42.0797101,96.3617338 41.7350149,96.2334765 41.3847377,96.125655 C40.5680234,95.8555885 39.6819414,96.0263226 39,96.5851565 C40.5023847,99.8691643 44.2583466,108.080482 45.4030207,110.520772 C46.8553259,113.5945 45.0620032,122.03427 45.0620032,122.03427 Z" id="Path" fill="#FFFFFF" fill-rule="nonzero" opacity="0.1"></path>
                <path d="M50,165 L66.8787357,165 C68.2818426,165.000391 69.6236215,164.406805 70.5904614,163.35798 C71.5573012,162.309155 72.064469,160.897008 71.9934255,159.451599 C71.6201284,151.985992 70.6739237,138.675178 68.4237713,130.225566 C67.2079631,125.666518 65.7951369,123.273353 64.4989662,122.09415 C63.8911449,121.489097 63.106405,121.108351 62.2669601,121.01121 C61.6302011,120.954484 60.9929279,121.114121 60.4523211,121.465777 C57.3181801,124.56486 53.6577939,140.873147 53.6577939,140.873147 L50,165 Z" id="Path" fill="#A8A8A8" fill-rule="nonzero"></path>
                <path d="M65.3893001,150.690643 C66.0645825,152.649353 66.3316718,154.908591 65.3893001,157.109832 L61.7332002,159 C61.7332002,159 51.9063294,154.642333 53.1006722,145.710829 C53.1006722,145.710829 53.4231951,143.865476 56.8071663,144.007832 C60.6998001,144.204667 64.0917136,146.845912 65.3893001,150.690643 Z" id="Path" fill="#FFFFFF" fill-rule="nonzero" opacity="0.1"></path>
                <path d="M62.9502019,127.002299 C62.8290713,123.663942 64.5652759,122.506195 66,122.138076 C65.3688612,121.502218 64.5540168,121.102087 63.6823688,121 C62.683717,121.872415 61.9759234,123.05307 61.6608345,124.372078 L58,143 C58,143 63.1547779,132.597139 62.9502019,127.002299 Z" id="Path" fill="#FFFFFF" fill-rule="nonzero" opacity="0.1"></path>
                <path d="M46.3323632,142 L54.5714489,153.248506 L56,162.532988 L50.7049052,165.142335 L43.0714843,166.825785 C42.3363156,166.988764 41.5803893,167.037801 40.830269,166.971174 L20,165.142335 L22.8341024,158.584532 L32.6218499,144.869517 L46.3323632,142 Z" id="Path" fill="#A8A8A8" fill-rule="nonzero"></path>
                <path d="M43.9005532,137.004788 C43.9005532,137.004788 49.6836267,137.419222 47.5123455,147.793804 C45.3410643,158.168387 23,159 23,159 C23,159 27.7473776,150.217285 35.0498222,143.92392 C35.8699671,143.218559 36.6611967,142.483006 37.4156249,141.698051 C39.0953449,139.944253 42.3075794,136.862068 43.9005532,137.004788 Z" id="Path" fill="#FFFFFF" fill-rule="nonzero" opacity="0.1"></path>
                <path d="M47,145 C47,145 55.7718806,152.483595 54.945011,164" id="Path" fill="#000000" fill-rule="nonzero" opacity="0.1"></path>
                <path d="M62,122 C62,122 53.0089106,132.635357 52,149" id="Path" fill="#000000" fill-rule="nonzero" opacity="0.1"></path>
                <path d="M34.0660658,116 C34.0660658,116 38.7871706,134.246662 27,148" id="Path" fill="#000000" fill-rule="nonzero" opacity="0.1"></path>
                <path d="M104.366239,184 L146.64411,184 C147.475357,183.995423 148.243425,183.54545 148.667901,182.81436 C149.092377,182.08327 149.111131,181.178072 148.717317,180.429242 L127.588747,140.273459 C127.176187,139.489154 126.375856,139 125.505174,139 C124.634492,139 123.834161,139.489154 123.421601,140.273459 L102.282666,180.429242 C101.887992,181.179734 101.907772,182.087139 102.334756,182.81889 C102.76174,183.550641 103.533141,183.999136 104.366239,184 L104.366239,184 Z M128.19516,176.662318 L122.815188,176.662318 L122.815188,171.161707 L128.19516,171.161707 L128.19516,176.662318 Z M128.19516,167.492866 L122.815188,167.492866 L122.815188,156.488994 L128.19516,156.488994 L128.19516,167.492866 Z" id="Shape" fill="#464353" fill-rule="nonzero"></path>
                <path d="M104.366239,184 L146.64411,184 C147.475357,183.995423 148.243425,183.54545 148.667901,182.81436 C149.092377,182.08327 149.111131,181.178072 148.717317,180.429242 L127.588747,140.273459 C127.176187,139.489154 126.375856,139 125.505174,139 C124.634492,139 123.834161,139.489154 123.421601,140.273459 L102.282666,180.429242 C101.887992,181.179734 101.907772,182.087139 102.334756,182.81889 C102.76174,183.550641 103.533141,183.999136 104.366239,184 L104.366239,184 Z M128.19516,176.662318 L122.815188,176.662318 L122.815188,171.161707 L128.19516,171.161707 L128.19516,176.662318 Z M128.19516,167.492866 L122.815188,167.492866 L122.815188,156.488994 L128.19516,156.488994 L128.19516,167.492866 Z" id="Shape" fill="#000000" fill-rule="nonzero" opacity="0.1"></path>
                <path d="M104.366239,186 L146.64411,186 C147.475357,185.995423 148.243425,185.54545 148.667901,184.81436 C149.092377,184.08327 149.111131,183.178072 148.717317,182.429242 L127.588747,142.273459 C127.176187,141.489154 126.375856,141 125.505174,141 C124.634492,141 123.834161,141.489154 123.421601,142.273459 L102.282666,182.429242 C101.887992,183.179734 101.907772,184.087139 102.334756,184.81889 C102.76174,185.550641 103.533141,185.999136 104.366239,186 L104.366239,186 Z M128.19516,178.662318 L122.815188,178.662318 L122.815188,173.161707 L128.19516,173.161707 L128.19516,178.662318 Z M128.19516,169.492866 L122.815188,169.492866 L122.815188,158.488994 L128.19516,158.488994 L128.19516,169.492866 Z" id="Shape" fill="#464353" fill-rule="nonzero"></path>
                <path d="M81.2856613,163.617376 C81.0998575,163.495711 80.9010867,163.396454 80.6932652,163.32156 C80.0059831,163.057438 79.2725403,162.988767 78.5852583,162.73521 C78.1930031,162.597549 77.8324726,162.378175 77.5261258,162.090753 C77.4748361,162.037929 77.4261109,161.985104 77.3799502,161.929639 C77.6363987,161.763242 77.8697669,161.596845 78.1236509,161.441014 C77.3669996,160.134212 76.3034763,159.044317 75.0308817,158.271554 C75.4437638,157.645585 76.3746719,157.695769 76.9183428,157.191296 C77.1934219,156.911242 77.373317,156.547171 77.4312399,156.153298 C77.6338342,155.1153 77.3825147,154.040325 77.1311951,153.018174 C76.6439429,151.018773 76.1515617,149.006166 75.3617003,147.115055 C74.999112,146.336363 74.6789104,145.537479 74.4025828,144.722113 C73.7383811,142.445384 74.2025529,139.967923 73.6999138,137.641011 C73.5383512,136.893547 73.2767737,136.122312 73.4588522,135.382771 C73.7383811,134.236483 74.9821564,133.55769 75.2539919,132.411402 C76.2387542,128.330723 76.4157037,124.096853 76.9747615,119.931654 C77.1020384,119.139596 77.1714741,118.338823 77.1824848,117.536071 C77.1824848,116.693523 77.0363092,115.858898 76.977326,115.018991 C76.8183279,112.660385 77.2773708,110.30442 77.4748361,107.948455 C77.9157417,108.674935 78.2307293,109.474794 78.4057443,110.312343 C78.5172926,111.088886 78.5353806,111.876638 78.4595985,112.657744 C78.4418532,113.181358 78.387862,113.703002 78.2980359,114.218703 C78.1723761,114.831465 77.9518304,115.417815 77.8056547,116.030577 C77.491462,117.236138 77.5772066,118.515239 78.0492808,119.664891 C78.3980508,120.457256 79.1648319,121.191514 79.9623869,120.953805 C80.5137512,120.790049 80.8471343,120.224829 81.0933249,119.688662 C81.8626705,118.008848 82.2909395,116.062272 81.7729135,114.276809 C81.4318369,113.088262 80.6830072,112.013287 80.6137661,110.771915 C80.6119107,110.275658 80.6496501,109.780083 80.7266035,109.290193 C81.0471642,106.421831 80.3547531,103.540264 80.200884,100.656056 C80.1598522,99.892744 80.2265289,98.9445473 80.0598373,98.1336938 C80.0393214,98.0359688 80.0162411,97.9382438 79.9880317,97.8458012 C80.053941,97.8638379 80.1163828,97.8933134 80.1726747,97.9329614 C80.3766238,97.4602402 80.3634414,96.9181351 80.1367719,96.4565213 C80.0459415,96.3075787 79.9653891,96.1522445 79.8957103,95.9916672 C79.7982598,95.7275455 79.8162112,95.4211644 79.6956804,95.1676076 C79.6185019,95.034257 79.5328315,94.9063181 79.4392319,94.7846312 C79.1084133,94.2907237 79.0904619,93.6515493 79.0827684,93.0519931 C79.0434463,89.9247927 78.9579635,86.8011139 78.8263199,83.6809568 C78.7570788,82.0962268 78.6698863,80.4745199 78.1313444,78.9875149 C77.6652901,77.6662928 76.8256706,76.5191304 75.7207282,75.6939179 C75.5469222,75.5672339 75.3662618,75.4508325 75.1796218,75.3452773 C75.2744463,75.1197982 75.326668,74.877769 75.3334909,74.6321488 C75.3386206,74.5547632 75.3386206,74.4771074 75.3334909,74.3997218 L75.318104,74.2676609 L75.318104,74.2676609 C75.2254142,73.7158784 75.0525066,73.181635 74.8052069,72.682931 C74.5288314,72.1458672 74.362137,71.5562156 74.3153903,70.9502929 C74.3149028,70.8408483 74.3208978,70.7314749 74.3333417,70.6227821 L74.3333417,70.6227821 C74.4205342,69.8621117 74.8052069,69.1489832 74.9411247,68.3883129 C74.9816416,68.1520676 75.0005307,67.9124259 74.9975433,67.6725432 C74.9975433,67.5906655 74.9975433,67.5061465 74.9975433,67.4216276 C74.8952286,66.4855164 74.6155442,65.5791822 74.1743436,64.7539989 C74.0461193,64.4898772 73.917895,64.2257556 73.7742839,63.9616339 C73.7076072,63.4677264 73.6332372,62.9738189 73.5588671,62.4825526 C73.5178353,62.1973013 73.4742391,61.9120499 73.4152559,61.6294397 C73.3861918,61.4885748 73.3528534,61.3512315 73.315241,61.2174099 C73.7127362,60.8317923 73.4819325,60.2665719 73.2280485,59.7436111 C72.7382318,58.7505136 72.8408112,57.5646074 72.6330879,56.4711437 C72.4667528,55.7105979 72.213676,54.9729787 71.8791292,54.2736516 C71.682952,53.7687329 71.4064778,53.3009988 71.0610584,52.8896541 C70.7431365,52.5790171 70.3870609,52.3126276 70.001926,52.0972891 C69.6812952,51.8734291 69.3256133,51.7081365 68.950487,51.6086641 C68.7171189,51.5611222 68.4786217,51.5637634 68.2478181,51.5082978 C68.0992066,51.4700048 67.9548302,51.4160139 67.8169845,51.3471836 C67.5311286,51.1794561 67.2198961,51.0624885 66.8963343,51.0011842 C66.5916621,50.9906746 66.288545,51.0502247 66.0090224,51.1755045 C65.7058755,51.3128742 65.3841974,51.4019342 65.0550339,51.4396262 C64.939632,51.4396262 64.8165367,51.4396262 64.6934414,51.4396262 C64.5217401,51.4249338 64.3500051,51.4675316 64.2036247,51.5611222 C64.127798,51.629075 64.0574697,51.7032743 63.993337,51.7829843 C63.8069161,51.9557271 63.5990941,52.1022692 63.375296,52.2187851 C61.5331494,53.3408041 60.3979669,55.3762846 60.3851061,57.5804547 C60.4069668,57.8723498 60.3818382,58.1659593 60.3107361,58.4494149 C60.236366,58.6712771 60.0901903,58.864086 60.0286427,59.0912306 C59.9864581,59.2889054 59.9769214,59.4924887 60.0004333,59.693428 C60.0209492,60.0024503 60.0517231,60.3088314 60.0850614,60.6178537 L60.0850614,60.6178537 C59.8946388,60.8665632 59.7661064,61.1594272 59.7106465,61.4709667 L59.7106465,61.4709667 C59.6991934,61.5249193 59.6914805,61.5796425 59.6875661,61.6347221 L59.6875661,61.6558519 L59.6875661,61.6558519 C59.6593568,62.2078661 59.9234988,62.7123385 60.0773679,63.2405818 C60.3355539,64.2637143 60.3088922,65.3410363 60.0004333,66.3492937 C59.8132259,67.0439336 59.5465195,67.7623446 59.4875363,68.4622669 L59.4875363,68.4622669 C59.4875363,68.4781142 59.4875363,68.4939615 59.4875363,68.5098088 C59.4544482,68.8665949 59.4946414,69.2265589 59.6055026,69.5662955 C59.6901306,69.8066462 59.8157904,70.0311496 59.892725,70.2741415 C60.1645604,71.1351781 59.7696297,72.0384742 59.2464747,72.7938621 L59.2464747,72.7938621 C59.1644111,72.9127169 59.0797831,73.0262892 58.9900261,73.1372203 L59.0028486,73.1372203 L58.9900261,73.1504263 L59.5234391,73.5386852 C59.3670055,73.6232041 59.2105719,73.7156467 59.0515738,73.8028068 C58.4360128,73.9066277 57.8456633,74.1317182 57.3128528,74.4657522 C56.8067631,74.7285678 56.333206,75.0531275 55.9023858,75.4324375 C55.4518386,75.8962853 55.0761112,76.4312661 54.7893992,77.0171674 C54.4372732,77.681343 54.1221855,78.3656471 53.8456686,79.0667514 C53.6026523,79.6322481 53.440266,80.2309495 53.3635454,80.8442902 C53.1429997,81.3276328 52.9609212,81.8479525 52.7583269,82.3154478 C52.6557475,82.5557985 52.5557325,82.7961492 52.4557176,83.0364999 L43.6287592,60.7763267 L42.2593241,61.3626768 L42.3670325,61.6267985 L42.0823746,61.7509357 L42.4696119,62.7229033 C42.4131932,62.7625216 42.3567745,62.8021398 42.3029203,62.8443993 L42.2311148,62.9025061 L42.0875036,63.0187196 L42.015698,63.0794676 L41.8695223,63.206246 L41.8156681,63.2537879 L41.6335897,63.425467 L41.6335897,63.425467 C41.4386888,63.6077109 41.2514814,63.8005197 41.0694029,63.9933285 L40.6001021,64.4925184 L40.5103451,64.5902435 L40.3539115,64.7539989 L40.266719,64.8464415 L40.0436088,65.0762273 L40.0282219,65.0920746 L39.8897397,65.2294179 L39.8025472,65.3139368 C39.7666444,65.3509138 39.7281771,65.3852496 39.6897098,65.4195855 L39.5820014,65.5225929 L39.4076164,65.6757835 L39.3563267,65.7233254 L39.1178296,65.9187754 C38.7966866,66.1767468 38.4533278,66.4039556 38.0920355,66.597568 C36.689262,67.3450323 35.204425,67.9710007 33.8349899,68.7712893 C33.0824288,69.2008051 32.3758655,69.7107292 31.726983,70.29263 C30.8217197,71.1193308 30.0549386,72.1414816 29.0060641,72.7410378 L28.8906623,72.804427 C27.0339749,73.7869595 24.8464689,73.1979682 22.7358976,73.1557088 C22.4204659,73.1557088 22.1101631,73.1557088 21.8024249,73.1768385 C20.0893487,73.3141818 18.5224482,74.0299515 17.0068374,74.9015529 C15.9400115,75.5169564 14.8988305,76.2089551 13.8525205,76.8349234 C13.1908833,77.2284647 12.5266816,77.6563418 11.8599154,78.0947837 C10.1673551,79.2014535 8.45427895,80.3635888 6.68221962,81.2008544 C5.03582006,81.9773721 3.34838873,82.4712796 1.55324903,82.3761958 L1.53016866,82.3761958 C1.35834815,82.3761958 1.18652763,82.3524248 1.0172716,82.3312951 C0.850580059,83.7179338 1.92766388,84.8351684 2.64571976,86.0554105 C2.98896335,86.5816202 3.1979874,87.1883958 3.25350278,87.8197431 C3.26219437,88.0569254 3.24498994,88.2943627 3.20221307,88.5275892 C3.0586019,89.3833433 2.6739291,90.2232502 2.779073,91.0842868 C2.84244213,91.587967 3.03054802,92.0663903 3.32530837,92.4735667 C3.78178675,93.1444357 4.41521462,93.7413507 4.84604815,94.4412731 C5.49742741,95.4977597 5.66668344,96.7840322 5.92056748,98.0280452 C6.05821524,98.9010282 6.34380005,99.7422928 6.76428315,100.51343 C7.31821197,101.432573 8.16449212,102.09816 8.95948256,102.803365 C9.10565822,102.932784 9.24926939,103.067486 9.3877516,103.199547 C9.49033101,103.294631 9.59034594,103.394997 9.68523189,103.498005 C10.6161401,104.477896 11.3085511,105.988672 10.7469288,107.214196 C10.7289774,107.256456 10.7084615,107.293433 10.6879456,107.333051 C10.7326201,107.365946 10.7797872,107.395093 10.8289923,107.420211 C11.5444837,107.779417 12.4420536,107.203631 13.0293207,106.59351 C13.3191076,106.295053 13.5935075,105.978107 13.860214,105.655879 C14.5757053,104.837101 15.2322136,103.949653 15.9118022,103.099181 C16.0964451,102.869395 16.2810881,102.644892 16.47086,102.42303 C17.1907418,101.573427 18.0479627,100.858553 19.0045715,100.310056 C19.5025537,100.045743 20.0226915,99.8282806 20.5586495,99.660317 C21.35364,99.3961953 22.1742753,99.2007453 22.9718302,98.9419061 C24.067658,98.5799384 25.1308049,98.1203923 26.1492275,97.5684735 C27.922766,96.5866434 29.6356884,95.4928553 31.2781981,94.2933649 L31.5346466,94.1216859 C32.0869221,93.7631427 32.5987006,93.3423555 33.0605153,92.867108 C33.1425789,92.7746654 33.2220779,92.6795816 33.296448,92.5818566 C33.6965077,92.0536133 33.9555207,91.427645 34.3222421,90.8782719 C34.7098675,90.3126606 35.1980353,89.8278107 35.7609184,89.4493738 C37.3432058,88.3532689 39.4435192,87.9359567 41.323287,87.3364005 L41.3438028,87.3364005 C44.6376754,86.294801 47.6420997,84.4574076 50.1066491,81.9773721 L51.511987,85.5218847 C51.3666662,85.9409578 51.2290388,86.3644328 51.0991049,86.7923099 C50.7862377,87.8487965 50.5297892,88.9369777 49.9168772,89.8297089 C49.7145777,90.0667827 49.5625918,90.3447646 49.4706567,90.6458449 C49.4624988,90.8678711 49.4271719,91.0879499 49.3655128,91.3008666 C49.2783203,91.4804693 49.0962419,91.599324 49.0218718,91.7842092 C48.9141634,92.0483309 49.0552101,92.3890478 48.9115989,92.6373221 C48.8424269,92.7363607 48.7604629,92.8252202 48.6679728,92.9014438 C48.3012514,93.2368783 48.203801,93.7651216 48.203801,94.245823 C48.2393007,94.735031 48.2003638,95.2269478 48.0883992,95.7037746 C48.1954197,95.6385505 48.3058613,95.5794731 48.4192178,95.5268131 C48.4026521,95.613885 48.3932158,95.7022361 48.3910084,95.7909347 C48.3901518,96.0412538 48.4203145,96.2906622 48.4807654,96.5331166 C48.6551613,97.0824897 48.9075022,97.6022721 49.2295951,98.075587 C49.4714316,98.4895555 49.7395777,98.8866039 50.032279,99.2641345 C50.5415364,99.847106 51.1107713,100.371381 51.7299683,100.827735 L54.3149695,102.882601 L54.0585209,103.994553 C53.4943342,106.324106 52.9250184,108.682713 52.8968091,111.08622 C52.9044479,112.224161 52.973797,113.360774 53.1045324,114.490748 L53.3276426,116.809736 C53.5071566,118.677076 53.6866706,120.544416 53.8841359,122.411756 C54.0097957,123.59238 54.1405845,124.788851 54.5457731,125.903445 C55.1561206,127.596465 54.481661,129.508705 54.740674,131.29945 C54.9458328,132.701936 55.3510215,134.151964 54.9432684,135.506908 C54.7791413,136.035151 54.4919189,136.542265 54.2816311,137.065226 C53.7559117,138.364705 53.7020575,139.80945 53.6584612,141.217218 C53.5761169,142.451101 53.6199541,143.69048 53.78925,144.914922 C54.0097957,146.177423 54.4970479,147.416154 54.402162,148.697144 C54.2688087,150.516942 52.9763081,152.072618 52.8198745,153.892417 C52.6942147,155.342445 53.3071267,156.744931 53.9661995,158.031203 C54.4508872,158.9794 53.7738631,160.204924 53.5174145,161.248205 C53.0045175,163.295148 53.8559266,165.434533 54.8945431,167.249049 C54.9211181,167.310529 54.9672527,167.360839 55.0253319,167.391675 C55.1432982,167.436575 55.2535711,167.315079 55.3305056,167.212072 C55.4074402,167.109064 55.4305206,167.085293 55.4843747,167.024545 C55.4843747,167.106423 55.4997617,167.188301 55.5048906,167.267537 C55.5048906,167.439216 55.5177131,167.610896 55.5177131,167.795781 C55.513484,168.464083 55.6318133,169.127198 55.8664831,169.750281 C55.9079474,169.870905 55.9558918,169.989062 56.0100942,170.104204 C56.0738393,170.258687 56.1603391,170.402118 56.2665428,170.52944 C56.5442584,170.801606 56.909215,170.959474 57.2923369,170.973164 C58.143746,171.068248 59.0002841,170.886004 59.8568222,170.809409 C60.759521,170.730172 61.6647843,170.764508 62.5700476,170.743378 C62.6402657,170.747381 62.7102378,170.731873 62.772642,170.698478 C62.8299665,170.649521 62.870436,170.582832 62.8880438,170.50831 C62.9866636,170.170612 63.001651,169.812863 62.93164,169.467671 C62.8830051,169.188526 62.8187864,168.912502 62.7393036,168.64097 C62.6187728,168.205169 62.5085,167.766727 62.4033561,167.320362 C62.3828402,167.238484 62.3648888,167.156606 62.3469374,167.074729 L62.3879692,167.093217 C62.9401883,165.814868 63.4932623,164.536519 64.0471911,163.258171 C64.32672,162.611073 64.6113779,161.91115 64.4728957,161.21651 C64.3728808,160.719961 64.0651425,160.300008 63.8471613,159.845719 C63.3342642,158.773385 63.3137483,157.521448 63.3060549,156.322336 L63.2752811,149.529127 C64.5575237,147.849313 65.3499497,145.849912 65.8397664,143.763351 C66.5997498,146.699339 66.6516908,149.78211 65.991071,152.743487 C65.8731227,153.19178 65.7916323,153.649412 65.7474449,154.111638 C65.64743,155.994825 67.0707193,157.59012 67.4502631,159.433689 C67.4851772,159.575105 67.4947369,159.721897 67.4784725,159.866849 C67.4364016,160.045158 67.3652993,160.214837 67.2681847,160.36868 C66.5860316,161.654952 66.6604017,163.207988 66.7552876,164.671221 L67.0553324,164.721405 C67.1292985,164.85787 67.2396421,164.969683 67.3733286,165.043633 L67.3733286,165.043633 C67.4976684,165.118497 67.6314222,165.175376 67.7708238,165.212671 C68.2625587,165.330611 68.7624145,165.409202 69.2659187,165.447739 C69.9891036,165.521693 70.7148529,165.595647 71.4406022,165.643189 C71.7278246,165.661678 72.0150469,165.677525 72.3022693,165.685449 C72.7055254,165.685375 73.1082877,165.7145 73.5075774,165.772609 C73.9438669,165.866329 74.3725374,165.994363 74.78982,166.155585 C76.6593298,166.800042 78.7519498,167.167171 80.5624764,166.364241 C80.9709744,166.203402 81.3334882,165.939052 81.6164799,165.595647 C81.8752837,165.307313 81.9910679,164.912476 81.9305013,164.524799 C81.8699347,164.137123 81.6397373,163.799621 81.3061772,163.609452 L81.2856613,163.617376 Z M56.4819595,88.3242155 C56.753795,88.8815122 57.0256304,89.4361677 57.2513051,90.0145941 C57.6949611,91.1344699 57.964232,92.391689 57.6821386,93.5591067 C57.6000751,93.9024649 57.0640977,94.1665865 57.0666622,94.5205096 C57.0514544,94.5469593 57.037754,94.5742981 57.0256304,94.6023873 L55.3510215,90.3764408 C55.675361,89.6629842 56.0534984,88.9768078 56.4819595,88.3242155 L56.4819595,88.3242155 Z M54.6432236,97.3043518 C54.2749368,96.8085634 53.9698438,96.2662203 53.7353958,95.6905685 C53.704622,95.6192556 53.6712836,95.550584 53.6405098,95.4792712 C53.7356721,95.4387378 53.8194384,95.3742604 53.8841359,95.2917448 C54.1405845,94.9589515 54.0021022,94.4729677 54.0405695,94.0450906 C54.1019704,93.6670646 54.240983,93.3068835 54.4483227,92.9886039 L56.0203522,96.9504288 C55.8613541,97.3800667 55.7126139,97.8141066 55.5741317,98.2525486 C55.2418306,97.9602443 54.9307004,97.6433359 54.6432236,97.3043518 L54.6432236,97.3043518 Z" id="Shape" fill="url(#linearGradient-1)" fill-rule="nonzero"></path>
                <path d="M60.6889914,60.8411944 C60.6616307,61.4190457 60.9203134,61.9471298 61.0720407,62.5000975 C61.3230465,63.5680869 61.2980457,64.6931067 60.999908,65.7460178 C60.7213267,66.8519531 60.253708,68.0214798 60.6093967,69.1025316 C60.6914787,69.3568967 60.8158454,69.5891432 60.8904654,69.8435083 C61.1988947,70.8941469 60.626808,72.0000823 60,72.859947 L62.4599727,74.77598 C62.819152,75.1068937 63.2463979,75.333902 63.7036394,75.4367764 C64.1637961,75.4976028 64.6985728,75.2238838 64.7930915,74.7206832 C64.8254268,74.5492633 64.7930915,74.3695488 64.8229395,74.1953639 C64.8843553,73.7383133 65.1411284,73.3426401 65.5119308,73.133666 C65.881413,72.9322599 66.2934562,72.8471592 66.7033635,72.8875954 C68.2131749,72.978835 69.4966389,74.0820056 70.869647,74.7898042 C71.7748578,75.2255153 72.7129077,75.5715418 73.6728717,75.8238538 C74.2175977,75.9814496 74.8220197,76.1252212 75.3145117,75.8238538 C75.8070038,75.5224864 76.0333511,74.8229823 75.9960411,74.1898343 C75.9195728,73.5601188 75.7426905,72.9506076 75.4737011,72.3899245 C75.2022389,71.8298934 75.0387452,71.2131271 74.9936457,70.5789553 C74.9936457,69.6499696 75.4513151,68.8039291 75.6055297,67.8915324 C75.8219278,66.5948232 75.3816697,65.2759952 74.8444057,64.0981741 C74.3071417,62.9203529 73.6554604,61.7867692 73.3942904,60.5038842 C73.3424525,60.1150183 73.2515101,59.7338492 73.123171,59.3675356 C72.9987075,59.0893527 72.8301966,58.8383556 72.6257043,58.6265589 C71.7029036,57.6118632 70.3871043,57.1307813 69.0986656,57.0257174 C67.8102269,56.9206536 66.5093515,57.1556648 65.2308621,57.4017355 C64.7430822,57.4791291 64.2626869,57.6059175 63.7956708,57.7805183 C63.1283057,58.0753222 62.494617,58.4567495 61.9077847,58.9168669 C61.3257487,59.3647707 60.7263014,60.0200374 60.6889914,60.8411944 Z" id="Path" fill="#464353" fill-rule="nonzero"></path>
                <g id="Group" opacity="0.1" transform="translate(59.000000, 62.000000)" fill="#000000" fill-rule="nonzero">
                    <path d="M14.8406154,9.07767857 C14.8406154,9.15803571 14.8406154,9.23839286 14.8553846,9.31607143 C14.9316923,8.53125 15.3107692,7.79464286 15.4461538,7.00982143 C15.4984431,6.69535783 15.5141563,6.37498352 15.4929231,6.05625 C15.4929231,6.19553571 15.4683077,6.32410714 15.4461538,6.47410714 C15.2910769,7.35803571 14.8307692,8.17767857 14.8406154,9.07767857 Z" id="Path"></path>
                    <path d="M1.23569231,2.87142857 C1.26468797,2.32941862 1.20892148,1.78598514 1.07076923,1.26428571 C0.925081974,0.857822093 0.805814065,0.440724075 0.713846154,0.0160714286 C0.713846154,0.0723214286 0.694153846,0.125892857 0.691692308,0.182142857 C0.664615385,0.741964286 0.920615385,1.25357143 1.07076923,1.78928571 C1.16587534,2.14138577 1.22125668,2.50477041 1.23569231,2.87142857 L1.23569231,2.87142857 Z" id="Path"></path>
                    <path d="M15.8178462,12.9776786 C15.7829413,13.4631297 15.5380568,13.9016217 15.1581538,14.1589286 C14.6658462,14.4508929 14.0726154,14.3116071 13.5335385,14.1589286 C12.5831455,13.9147925 11.6547275,13.5786314 10.7593846,13.1544643 C9.40061538,12.4714286 8.13046154,11.4026786 6.63630769,11.3142857 C6.23065133,11.2751112 5.82288127,11.3575566 5.45723077,11.5526786 C5.09027373,11.7551324 4.83616357,12.13846 4.77538462,12.58125 C4.75815385,12.75 4.77538462,12.9241071 4.74584615,13.0901786 C4.64984615,13.5776786 4.12307692,13.8428571 3.66769231,13.7839286 C3.21519264,13.684264 2.79237744,13.4643387 2.43692308,13.14375 L0.248615385,11.4723214 C0.167384615,11.5928571 0.0861538462,11.7107143 0.00246153846,11.8205357 L2.43692308,13.6794643 C2.79237744,14.000053 3.21519264,14.2199783 3.66769231,14.3196429 C4.12307692,14.3785714 4.65230769,14.1133929 4.74584615,13.6258929 C4.77784615,13.4598214 4.74584615,13.2857143 4.77538462,13.1169643 C4.83616357,12.6741743 5.09027373,12.2908466 5.45723077,12.0883929 C5.82288127,11.8932709 6.23065133,11.8108255 6.63630769,11.85 C8.13046154,11.9383929 9.40061538,13.0071429 10.7593846,13.6901786 C11.6547275,14.1143457 12.5831455,14.4505068 13.5335385,14.6946429 C14.0726154,14.8473214 14.6707692,14.9866071 15.1581538,14.6946429 C15.6455385,14.4026786 15.8695385,13.725 15.8326154,13.1116071 C15.8301538,13.0660714 15.8227692,13.0232143 15.8178462,12.9776786 Z" id="Path"></path>
                    <path d="M0.891076923,8.90089286 C0.921417634,9.00856764 0.943645028,9.11875366 0.957538462,9.23035714 C0.995670296,8.94020196 0.972948681,8.64441804 0.891076923,8.36517857 C0.817230769,8.11875 0.694153846,7.89375 0.612923077,7.64732143 C0.553704622,7.46847917 0.515655027,7.28215931 0.499692308,7.09285714 C0.463335926,7.4608892 0.501997202,7.83311749 0.612923077,8.18303571 C0.694153846,8.42946429 0.817230769,8.65714286 0.891076923,8.90089286 Z" id="Path"></path>
                </g>
                <path d="M62.8935938,171.414119 C62.8752013,171.503339 62.8317547,171.582788 62.7701895,171.639783 C62.7049087,171.679413 62.6317111,171.697815 62.5582562,171.693065 C61.6032148,171.718139 60.6481734,171.693065 59.6958147,171.771421 C58.7944273,171.862314 57.8903572,172.084844 56.9916525,171.965743 C56.4023788,171.990084 55.8643493,171.576474 55.6503023,170.934581 C55.5936013,170.797947 55.5434468,170.657735 55.500071,170.514594 C55.2524742,169.77581 55.1277362,168.98864 55.1325411,168.195262 C55.1325411,167.985269 55.1325411,167.781544 55.1325411,167.568416 C55.1207915,167.338763 55.0947905,167.110409 55.0547427,166.885154 C54.9733808,166.627125 54.9830299,166.341914 55.0815697,166.092193 C55.4625132,165.280427 56.3826795,165.117447 57.0909125,165.054762 C58.7316854,164.910369 60.3817166,165.051913 61.986841,165.474749 C62.1129279,166.195623 62.255111,166.910227 62.4053423,167.624832 C62.5162272,168.149294 62.634266,168.671666 62.7594587,169.191948 C62.8434762,169.514111 62.9115506,169.841658 62.963344,170.172963 C63.0296896,170.586959 63.0057014,171.013811 62.8935938,171.414119 Z" id="Path" fill="#464353" fill-rule="nonzero"></path>
                <path d="M62.8959856,171.356995 C62.8763433,171.454914 62.829944,171.54211 62.7641949,171.604662 C62.6944776,171.648155 62.6163055,171.668352 62.5378585,171.663139 C61.5179127,171.690658 60.4979668,171.663139 59.4808859,171.749135 C58.5182403,171.848889 57.5527297,172.093116 56.5929492,171.962403 C55.9636285,171.989117 55.3890346,171.53518 55.1604409,170.830703 C55.0998865,170.680746 55.0463236,170.526864 55,170.369767 L55.3667221,170.369767 C56.5728941,170.369767 57.7819311,170.31817 58.988103,170.31817 C59.3519601,170.31817 59.7186823,170.297531 60.0796743,170.245934 C60.4406664,170.194336 60.7357631,170.1221 61.06524,170.073943 C61.5584544,170.017191 62.0538966,169.993076 62.5493186,170.001706 L62.956151,170.001706 C63.0306542,170.452415 63.00997,170.918348 62.8959856,171.356995 L62.8959856,171.356995 Z" id="Path" fill="#000000" fill-rule="nonzero" opacity="0.06"></path>
                <path d="M82.6818944,165.870622 C82.3970665,166.187994 82.0332642,166.432013 81.623878,166.580283 C79.8042942,167.311893 77.7010394,166.982669 75.8226769,166.387626 C75.4025049,166.238695 74.971068,166.120483 74.5321013,166.034015 C74.1316226,165.980379 73.7277086,165.953487 73.3233048,165.953538 C73.0345225,165.953538 72.7457403,165.931589 72.456958,165.914518 C71.7260578,165.870622 70.9977132,165.802338 70.2719241,165.734055 C69.7659271,165.698661 69.2635422,165.626098 68.7692342,165.51701 C68.6286831,165.482617 68.4936986,165.430108 68.3680057,165.360934 L68.3680057,165.360934 C68.149074,165.269152 68.0056025,165.06474 68,164.836613 C68.0204448,164.526898 68.3577833,164.348873 68.6542324,164.214745 C71.2839398,163.129523 74.1410952,162.658854 76.9778059,162.280856 C77.2663691,162.234895 77.5473404,162.152901 77.8134855,162.036986 C78.1329349,161.915051 78.1661577,162.115024 78.3246046,162.339385 C78.3994673,162.443239 78.4850846,162.539646 78.5801641,162.627151 C78.8882647,162.892663 79.2500696,163.095169 79.6432917,163.222194 C80.3333024,163.466064 81.0718694,163.531909 81.7618801,163.763585 C81.9706181,163.832692 82.1703982,163.924331 82.3573338,164.03672 C82.6917349,164.210507 82.9231129,164.522104 82.9840906,164.880775 C83.0450683,165.239445 82.9287902,165.604864 82.6691164,165.870622 L82.6818944,165.870622 Z" id="Path" fill="#464353" fill-rule="nonzero"></path>
                <path d="M82.6912317,164.856627 C82.4212708,165.177931 82.0764577,165.424975 81.6884399,165.575082 C79.9638319,166.315758 77.9703593,165.982454 76.1900405,165.380038 C75.7918,165.229261 75.3828826,165.109584 74.9668283,165.022045 C74.5872532,164.967744 74.204422,164.94052 73.8211266,164.94057 C73.5474177,164.94057 73.2737089,164.91835 73,164.901068 C73.2228426,164.686272 73.4505296,164.476414 73.6830611,164.273962 C73.8516045,164.113328 74.0457271,163.983087 74.257123,163.888811 C74.5203206,163.80083 74.8009208,163.78131 75.0734052,163.832026 C76.458905,164.02707 77.703917,165.017107 79.1015278,164.930695 C79.7526758,164.854319 80.3824921,164.647045 80.9545126,164.320872 C81.419707,164.127747 81.8343659,163.826816 82.1656138,163.441936 C82.2655783,163.309249 82.3418316,163.159652 82.3908786,163 C82.7078252,163.175941 82.9271262,163.491399 82.984921,163.854514 C83.0427159,164.217629 82.9325071,164.587576 82.6863873,164.856627 L82.6912317,164.856627 Z" id="Path" fill="#000000" fill-rule="nonzero" opacity="0.06"></path>
                <path d="M81.9376555,120.682158 C81.6387609,121.213517 81.2561757,121.790041 80.6105632,121.954762 C79.6720339,122.193874 78.769372,121.444658 78.3598862,120.658247 C77.8017572,119.50396 77.6964849,118.216386 78.0609916,117.002498 C78.2313615,116.388779 78.4913999,115.798971 78.6378583,115.182595 C78.7435445,114.663915 78.8074709,114.139195 78.8291509,113.612429 C78.9174761,112.826717 78.8963942,112.034319 78.766383,111.253196 C78.2851626,108.97101 76.0763309,107.268006 75.34105,105.025671 C74.9704206,103.907161 74.9883543,102.716918 75.0092769,101.550585 C75.0023189,101.25573 75.0364532,100.961243 75.1109011,100.673843 C75.1331401,100.595477 75.1631469,100.519017 75.2005695,100.445359 C75.6937457,99.4729722 77.1553407,99.3401325 78.1715826,98.7742354 C78.7335046,98.4633905 80.0097849,97.4617792 80.4820385,98.3757163 C80.5840067,98.5792343 80.660195,98.7922012 80.7091984,99.01069 C80.9034799,99.823669 80.8257673,100.777458 80.8735905,101.545271 C81.0559162,104.44649 81.8689098,107.342396 81.4923025,110.227674 C81.4024933,110.719549 81.3585061,111.217172 81.3607888,111.715479 C81.4414904,112.964172 82.3202407,114.045487 82.7237485,115.241044 C83.3454495,117.039694 82.8462953,118.997751 81.9376555,120.682158 Z" id="Path" fill="#FBBEBE" fill-rule="nonzero"></path>
                <path d="M80,98.7639321 C79.8016699,98.7103326 79.5843419,98.7103326 79.3860117,98.7639321 L77.5787507,99.1613816 C76.9454363,99.2871123 76.3281851,99.4540204 75.7341164,99.6601807 C75.4747874,99.7549286 75.2288551,99.8687696 75,100 C75.0198623,99.9413833 75.0466622,99.8841919 75.0800854,99.8290967 C75.5205553,99.1017641 76.8259477,99.0024018 77.7335825,98.579118 C78.2354511,98.3466101 79.3753337,97.5974178 79.7971169,98.2810309 C79.8889452,98.4358002 79.9570041,98.5977934 80,98.7639321 L80,98.7639321 Z" id="Path" fill="#000000" fill-rule="nonzero" opacity="0.1"></path>
                <path d="M80.852204,98.3020853 C80.6273932,98.16939 80.3512218,98.1478462 80.1074991,98.2439918 L78.26748,98.7721146 C77.6226864,98.9391831 76.994247,99.1609671 76.3894103,99.4349086 C76.0684433,99.5866242 75.7680867,99.7764373 75.4952209,100 C74.6363641,98.550303 74.4080604,96.8312634 74.2504221,95.1676768 C74.1634493,94.1985715 74.0982197,93.2268256 74.0601691,92.2630016 C74.0175304,91.5693834 74.0320722,90.8735628 74.1036555,90.1821979 C74.2069357,89.3900138 74.4433931,88.6163139 74.5901598,87.829411 C74.6775751,87.3687321 74.7338654,86.9029888 74.7586697,86.435167 C74.8291586,85.4129918 74.7808373,84.3863542 74.6146209,83.3746956 C74.4566016,82.2993812 74.2038138,81.2392398 73.8590444,80.205959 C73.6850987,79.7332891 73.4758203,79.276463 73.2855672,78.8117149 L73.2203376,78.6479969 C72.8767463,77.7962114 72.5960912,76.9217122 72.3805062,76.0311486 C72.2935333,75.6667439 72.2880975,75.2838549 72,75.0356372 C72.2704878,75.0039948 72.5431454,74.9933987 72.8153703,75.0039498 C72.8697284,75.0039498 72.9240864,75.0039498 72.9784444,75.0039498 C74.094992,75.0721752 75.1706859,75.4375965 76.0877233,76.0601954 C77.2687865,76.8881057 78.1664726,78.0417846 78.6642936,79.3715251 C79.2377707,80.8581906 79.3328973,82.4742463 79.4062806,84.0612552 C79.5530473,87.1807002 79.643644,90.3019057 79.6780707,93.4248717 C79.6780707,94.024291 79.7052497,94.6633195 80.0585769,95.1571143 C80.157725,95.27881 80.2485181,95.4067164 80.330367,95.5400033 C80.4581083,95.8040647 80.439083,96.0971728 80.5423633,96.3638748 C80.6182222,96.5239426 80.7044624,96.6791707 80.8005639,96.8286228 C81.0470188,97.2867175 81.0660158,97.8287642 80.852204,98.3020853 L80.852204,98.3020853 Z" id="Path" fill="#464353" fill-rule="nonzero"></path>
                <path d="M64,67 C63.6666667,66.67 63.3333333,66.32 63,66 L63.6933333,66.16 C63.8089063,66.3927089 63.9122653,66.6758226 64,67 Z" id="Path" fill="#FBBEBE" fill-rule="nonzero"></path>
                <path d="M73.9000456,77.7989382 C73.8513874,77.9836701 73.8027292,78.1684019 73.7492052,78.3422672 C73.6256751,78.7886472 73.475304,79.2252081 73.2991169,79.6489734 C73.0233904,80.3451429 72.633037,80.9773041 72.1483507,81.5125918 C71.9883189,81.7007808 71.791948,81.8457236 71.5741841,81.9363884 C71.3899771,81.9890274 71.1995336,82.0091929 71.0097491,81.9961546 C70.3609732,81.9961546 69.7121973,81.985288 69.0634214,81.9635549 C68.5583257,81.9698078 68.0541372,81.9142377 67.5598834,81.7978395 C67.0158602,81.63213 66.4986099,81.3717633 66.0271504,81.0263124 C64.209767,79.7712224 62.7159605,77.8587044 62.0761053,75.5930225 C61.9958193,75.3050582 61.9398624,74.9600443 62.1174648,74.7345627 C62.2922332,74.575346 62.512382,74.4914768 62.7378567,74.4982146 L62.7670516,74.4982146 C63.2901161,74.4222101 63.7940599,74.2290942 64.2486935,73.9304359 C64.5432072,73.7621174 64.7806259,73.4912884 64.9250424,73.1589087 C65.0235884,72.7649521 65.0159724,72.3473023 64.9031462,71.9581516 L64.3630403,69.2197736 C64.3067894,68.7812065 64.1593073,68.3634536 63.9324153,68 C64.0905544,68.0624828 64.2486935,68.1195324 64.4189972,68.168432 C65.9225353,68.6221117 67.5671821,68.3477305 69.0415253,68.9426758 C69.6059603,69.1735906 70.1703953,69.5892373 70.3406989,70.2357988 C70.6253494,71.3224567 69.6740817,72.4498644 69.9465676,73.5365223 C70.1290358,74.2754498 70.8029517,74.701963 71.4063133,75.0469769 L71.8126092,75.2778917 L72.9390463,75.9163033 L73.0947525,76.0032359 L73.1190816,76.0168192 C73.4742864,76.2178509 73.8489545,76.4677822 73.9730329,76.8942955 C74.0259583,77.197474 74.0006463,77.5112039 73.9000456,77.7989382 L73.9000456,77.7989382 Z" id="Path" fill="#FBBEBE" fill-rule="nonzero"></path>
                <path d="M75.9721351,83.4581804 C75.9306269,84.1158139 75.7779851,84.7604407 75.5213503,85.3619046 C75.029514,86.4022002 74.7658181,87.5449656 74.7496264,88.7062849 C74.5609827,92.1792953 73.3041751,96.3134638 75.1048644,99.2307925 C75.1489629,99.3028253 75.1930614,99.3748581 75.23471,99.4494635 C74.9453901,99.5972714 74.6746486,99.7821956 74.4286872,100 C73.6545133,98.5876425 73.4487202,96.9128797 73.306625,95.2921416 C73.2282277,94.3479973 73.1694296,93.4012804 73.1351308,92.4622813 C73.0966963,91.7865285 73.1098043,91.1086299 73.1743295,90.4350723 C73.2674263,89.6632922 73.4805691,88.9095203 73.6128647,88.1428855 C73.6916609,87.6940721 73.742401,87.2403249 73.7647596,86.7845525 C73.8282983,85.7887052 73.7847415,84.7885105 73.6349139,83.8029089 C73.4924753,82.7552911 73.2646122,81.7224554 72.9538369,80.7157886 C72.7970422,80.2552931 72.6083985,79.8102333 72.4369043,79.3574556 L72.3781063,79.1979544 C72.1004523,79.8572109 71.70737,80.455853 71.2192954,80.9627582 C71.0581448,81.1409688 70.8604012,81.2782263 70.6411149,81.3640838 C70.4556201,81.4139317 70.2638453,81.433028 70.072734,81.420681 C69.4194227,81.420681 68.7661114,81.4103906 68.1128001,81.3898098 C67.6041734,81.3957312 67.0964602,81.3431076 66.5987512,81.2328812 C66.0509249,81.0759581 65.5300586,80.8293968 65.0553032,80.5022627 C63.2252149,79.3137214 61.7209656,77.5026109 61.0766373,75.3570623 C60.9957901,75.0843666 60.939442,74.7576464 61.1182859,74.5441206 C61.2942761,74.3933459 61.5159639,74.3139238 61.7430149,74.3203044 L61.7724139,74.3203044 L63.9773395,77.1836084 C64.230225,77.486667 64.4443598,77.8230889 64.6143181,78.1843499 C64.6472249,78.3055686 64.7158341,78.4127354 64.8103115,78.4904894 C64.8869809,78.5272687 64.9712326,78.5431934 65.0553032,78.5367962 C67.1254834,78.5367962 69.8840904,78.5367962 71.9542706,78.5367962 C71.9610416,78.1516223 71.8549977,77.7735569 71.6504808,77.4537315 C71.586783,77.4691671 71.5010359,77.4743123 71.6333314,77.4331507 C71.5136201,76.5980271 71.2566405,75.7910939 70.873857,75.0483502 C70.8509739,74.9972895 70.8256252,74.9474879 70.7979096,74.8991394 C70.6333832,74.6446193 70.5108098,74.3628456 70.4353218,74.0656169 C70.6967005,73.9781277 70.977516,73.9781277 71.2388947,74.0656169 C71.5402346,74.2019647 71.6970293,74.5441206 71.8293248,74.8605504 C71.942021,75.1178104 72.0547172,75.3930787 72.1551638,75.6632017 C72.1551638,75.6915003 72.179663,75.7223715 72.1894627,75.7506701 C72.403119,76.2829536 72.5401812,76.8456511 72.596149,77.4202877 C72.6108485,77.6312409 72.6598468,77.8987913 72.8264412,77.9682515 C72.8526398,77.9808218 72.8809507,77.9878168 72.9097384,77.9888323 C73.2625181,77.8532295 73.6583591,77.9548586 73.9117546,78.2460923 C74.1527551,78.5359566 74.3211579,78.8843232 74.4017381,79.2596968 C74.4813844,79.6349697 74.597974,80.0005293 74.7496264,80.3504793 C75.0656657,80.983339 74.583032,81.266325 75.1538627,81.6547877 C75.4208213,81.8089784 75.6504852,82.0254984 75.8251401,82.2876473 C75.9866092,82.6529723 76.0378982,83.0613902 75.9721351,83.4581804 L75.9721351,83.4581804 Z" id="Path" fill="#000000" fill-rule="nonzero" opacity="0.1"></path>
                <path d="M62.5478926,167.355789 C62.6841044,167.89603 62.837705,168.431573 63,168.967116 L62.9826113,169 C61.6581683,168.530225 60.301846,168.039311 58.8556819,167.935961 C57.5138502,167.842006 56.0560935,168.135615 55.1431843,168.924836 C55.1304913,168.752728 55.1024023,168.581594 55.0591387,168.412782 C54.9712432,168.219409 54.9816672,168.005664 55.0881199,167.818517 C55.4996536,167.210159 56.4937103,167.088018 57.2588152,167.04104 C59.0313442,166.932828 60.8138748,167.038905 62.5478926,167.355789 L62.5478926,167.355789 Z" id="Path" fill="#000000" fill-rule="nonzero" opacity="0.1"></path>
                <path d="M72.4884936,76.4337258 C72.9584936,76.4337258 72.7884936,76.4337258 72.5584936,76.5137258 C72.3284936,76.5937258 71.9484936,76.5937258 72.4884936,76.4337258 Z" id="Path" fill="#000000" fill-rule="nonzero" opacity="0.1"></path>
                <path d="M77,161.654919 C75.9240992,162.378719 74.9130651,163.204725 73.9794934,164.122646 C73.708425,164.428947 73.3851405,164.678627 73.026538,164.858635 C72.6562115,164.98447 72.265012,165.02698 71.8781665,164.983422 C70.3604765,164.918599 68.8476569,164.760437 67.3474065,164.509741 L67.3474065,164.509741 C67.1407296,164.413896 67.0052889,164.200433 67,163.962206 C67.0193004,163.638778 67.3377563,163.452871 67.6176116,163.312804 C70.1001206,162.179534 72.7973462,161.688026 75.4752714,161.293291 C75.7476822,161.245295 76.0129261,161.159671 76.2641737,161.038624 C76.5657419,160.91129 76.5971049,161.120117 76.7466828,161.354411 C76.8211533,161.463471 76.9060377,161.564168 77,161.654919 L77,161.654919 Z" id="Path" fill="#000000" fill-rule="nonzero" opacity="0.1"></path>
                <path d="M58.9991264,73.9374052 C59.368051,74.2856214 59.7896792,74.5673841 60.1636232,74.9049678 C61.1674998,75.8060769 61.799942,77.0660347 62.4223455,78.294095 C62.0532508,78.4354068 61.65408,78.4639607 61.2703971,78.3764973 C61.0730599,79.5557533 61.1063734,80.7653613 61.3682751,81.9304291 C60.8660984,82.2953321 60.476044,82.8082739 60.246443,83.4056962 C60.0680244,84.0119862 59.9453162,84.6351121 59.8800281,85.2663935 C59.5186325,88.0326302 59.1555638,90.7988668 58.790822,93.5651034 C58.7834893,93.8358564 58.6956613,94.0972512 58.5398529,94.3120405 C58.4702008,94.3716438 58.4063086,94.4384249 58.3491163,94.5114009 C58.272313,94.6902184 58.2419886,94.8875152 58.2612771,95.0829008 C58.246219,95.276945 58.1257538,95.508203 57.9425463,95.4816217 C57.8535234,95.4590759 57.7746061,95.4046046 57.7191838,95.3274496 C57.5359169,95.1218908 57.3680935,94.9014806 57.2172455,94.6682311 C55.7365276,97.6772445 55.0237752,100.920174 54.2407515,104.21095 C53.6810903,106.555429 53.1214291,108.926489 53.0938225,111.345395 C53.1013811,112.48974 53.1692484,113.632746 53.2971075,114.769078 L53.5179604,117.102924 C53.6961485,118.97957 53.8743366,120.858875 54.0675828,122.735521 C54.1930674,123.926367 54.3185519,125.127846 54.7226123,126.24958 C55.3249382,127.953448 54.6573603,129.875282 54.9133488,131.6775 C55.1141241,133.088972 55.513165,134.54829 55.1116144,135.909258 C54.9509942,136.454176 54.6699087,136.951248 54.4590947,137.47756 C53.9420982,138.785364 53.8893947,140.239366 53.8442203,141.656154 C53.7629436,142.89801 53.8066914,144.145501 53.9747242,145.377549 C54.1905577,146.650797 54.6749281,147.897464 54.5795598,149.184004 C54.4465462,151.015461 53.171623,152.581105 53.0160221,154.409905 C52.8930472,155.869223 53.4978829,157.278037 54.1478929,158.572551 C54.627244,159.526822 53.9596661,160.760199 53.7061872,161.810164 C53.204249,163.867563 54.0399762,166.020656 55.0639303,167.846797 C55.09004,167.909482 55.1362778,167.960338 55.1944342,167.990337 C55.3123897,168.035525 55.4177968,167.913251 55.4955972,167.809584 C56.2660725,166.762277 57.6313446,166.366214 58.8836806,166.480514 C60.1360166,166.594814 61.3080425,167.142391 62.4574812,167.684651 L64.0862709,163.84364 C64.3623369,163.192396 64.6434224,162.487989 64.5053893,161.788899 C64.4075114,161.289169 64.1038387,160.866524 63.8880053,160.409325 C63.386067,159.33012 63.3609701,158.07282 63.3559507,156.863367 L63.3258344,150.03195 C64.5957382,148.341374 65.3712329,146.331821 65.8606227,144.231891 C66.6114259,147.185544 66.6631457,150.289691 66.0112042,153.269563 C65.8905807,153.720103 65.8066174,154.180759 65.760235,154.646479 C65.6623571,156.541732 67.0652746,158.14459 67.4392186,159.999971 C67.4754556,160.141911 67.4856787,160.289891 67.4693349,160.435906 C67.427249,160.615478 67.3568233,160.786229 67.2610305,160.940952 C66.5884332,162.232808 66.6612143,163.798452 66.7590922,165.271061 C68.5190345,165.595585 70.2972244,165.797153 72.0821477,165.874458 C72.4845708,165.917014 72.8909625,165.872705 73.2767608,165.74421 C73.649917,165.555367 73.9862063,165.293867 74.2680889,164.973349 C75.4075972,163.838171 76.6587151,162.835642 78,161.982943 C77.2509952,160.666689 76.2026789,159.570073 74.9507249,158.793176 C75.3547853,158.163197 76.275842,158.213702 76.812916,157.708655 C77.0825963,157.426105 77.2586849,157.058691 77.3148542,156.661349 C77.5156296,155.619358 77.2671701,154.534837 77.0187107,153.511454 C76.5368499,151.496585 76.0524795,149.473741 75.2619267,147.570513 C74.9044031,146.788319 74.5893422,145.98514 74.3182827,145.164897 C73.6607436,142.873582 74.1200171,140.380247 73.6230982,138.038427 C73.4624779,137.288832 73.2039797,136.515313 73.3846775,135.768376 C73.6607436,134.617402 74.8904924,133.93426 75.161539,132.780628 C76.1327896,128.673803 76.3059583,124.418123 76.8580904,120.226238 C76.9815898,119.42548 77.0478665,118.615994 77.056356,117.804673 C77.056356,116.956727 76.9133036,116.116755 76.8555807,115.271466 C76.6297085,111.887655 77.6511529,108.511819 77.390145,105.130666 C77.2230161,103.04701 76.574909,101.038801 75.5028571,99.2827604 C73.6582339,96.2657727 74.9457056,91.9968014 75.1389518,88.4083138 C75.1534781,87.2084146 75.4228154,86.0273666 75.9269949,84.9527331 C76.1920906,84.3319321 76.3493692,83.6656057 76.3912878,82.9857103 C76.4686823,82.5665619 76.4195099,82.1322437 76.2507451,81.7443594 C76.0741401,81.4723135 75.8393914,81.2482696 75.5655993,81.0904572 C74.9808412,80.68642 75.4752505,80.3940248 75.1515003,79.7401226 C74.9957722,79.3786935 74.8763246,79.0009367 74.7951241,78.6130716 C74.712993,78.2258507 74.5404068,77.8666592 74.2931858,77.568423 C74.0336078,77.2675058 73.628109,77.1624975 73.266722,77.3026091 C73.0283013,77.3026091 72.9630494,76.9676836 72.9429718,76.7151604 C72.8752102,75.790128 72.5138146,74.9209166 72.1599481,74.0703121 C72.0244248,73.743361 71.8638045,73.3898285 71.5551125,73.2489472 C71.2863054,73.1598868 70.9982311,73.1598868 70.729424,73.2489472 C70.8071277,73.557208 70.9335637,73.8493036 71.103368,74.1128423 C71.5383878,74.9211678 71.8277354,75.8081062 71.9566631,76.7284511 C71.705694,76.8081953 72.2076322,76.7284511 71.9566631,76.7284511 C72.1813849,77.0600787 72.2969084,77.4607733 72.2854327,77.8687927 C70.1672531,77.8687927 67.3413406,77.8687927 65.2206514,77.8687927 C65.1345011,77.8759922 65.048055,77.8595116 64.9696822,77.8209462 C64.8729583,77.7400212 64.8020041,77.6296141 64.7663972,77.5046277 C64.593827,77.1312308 64.3743275,76.7842948 64.1138775,76.4732698 L61.629283,73.227682 C61.5741112,73.1428693 61.5010817,73.0728 61.4159592,73.0230053 C61.3133939,72.9923316 61.2048131,72.9923316 61.1022478,73.0230053 C60.2966369,73.1479379 59.70184,73.5041285 58.9991264,73.9374052 Z" id="Path" fill="#003595" fill-rule="nonzero"></path>
                <path d="M69.0095352,120.000223 C69.4164063,119.994374 69.8173126,120.103811 70.170441,120.317121 C70.5270048,120.538477 70.7463246,120.94199 70.7473182,121.37848 C70.7210965,121.853828 70.375447,122.231088 70.125149,122.636014 C69.970234,122.882777 69.8468043,123.149997 69.7580453,123.430776 C69.7306773,123.494636 69.7239762,123.566221 69.738975,123.634496 C69.7675805,123.730069 69.8653159,123.777855 69.9487485,123.820611 C70.5673296,124.115775 70.9744405,124.754715 71,125.470496 C70.9785459,126.451373 70.0703218,127.246134 70.1203814,128.237071 C70.1431108,128.443405 70.1765339,128.64827 70.2205006,128.850748 C70.3295503,129.695331 70.2182903,130.555301 69.8986889,131.33815 C69.6102503,132.127881 69.2169249,132.869826 68.9070322,133.652013 C68.0703218,135.777245 67.8891538,138.131349 67.9535161,140.442697 C68.0035757,142.012099 67.476758,143.50605 67,145 C67.2694149,141.990755 67.3410999,138.965444 67.2145411,135.945755 C67.1811681,135.125843 67.0834327,134.351202 67.1191895,133.528774 C67.1764005,132.223454 67.8676996,131.036342 68.0441001,129.756172 C68.1442193,129.024287 68.0774732,128.279827 68.0941597,127.540397 C68.1275328,126.031356 68.5160906,124.542436 68.5423123,123.028365 C68.5756853,121.959461 68.4827175,120.857861 69.0095352,120.000223 Z" id="Path" fill="#000000" fill-rule="nonzero" opacity="0.1"></path>
                <path d="M58.0418277,74.6969473 C57.5265971,74.9566155 57.0444879,75.2786211 56.6061014,75.6558836 C56.148019,76.1160249 55.7649056,76.6466054 55.4709965,77.2279103 C55.1131129,77.886898 54.7921175,78.5656848 54.5095264,79.2610648 C54.1441159,80.1623601 53.8409029,81.1605971 54.0922846,82.1011931 C54.3203422,82.9527075 54.9656416,83.6155788 55.4113905,84.3727716 C55.8571395,85.1299645 56.1188874,86.0181596 56.4609739,86.8487137 C56.9170891,87.9569925 57.5416559,88.98929 57.992588,90.1001889 C58.4435201,91.2110878 58.7156343,92.458229 58.4305623,93.6136686 C58.3476323,93.9542744 57.8008123,94.2188989 57.8008123,94.5673648 C57.8008123,95.1437746 58.6249296,95.7699652 59.1717495,95.937648 C59.8014995,96.1341514 60.4882639,95.8407064 61.0039851,95.4136392 C61.9499059,94.6564463 62.525233,93.521967 62.9502495,92.3796276 C63.6344223,90.5455965 63.9998328,88.5989034 64.3289614,86.6653106 C64.5673852,85.2452465 64.7902597,83.8225623 64.9172464,82.392018 C65.0338667,81.1029561 65.0701486,79.7719735 64.7332453,78.5353125 C64.4188746,77.4002479 63.8073669,76.3719798 62.9632073,75.558942 C62.2894007,74.9039308 61.1853946,74.0235959 60.2057835,74.0000155 C59.4309059,73.9973954 58.7052681,74.3275211 58.0418277,74.6969473 Z" id="Path" fill="#464353" fill-rule="nonzero"></path>
                <path d="M64.999265,108.371223 C64.9438888,108.748081 64.7383872,109.079737 64.4370488,109.278577 C64.1395364,109.473975 63.8153664,109.617427 63.476491,109.703644 C62.8008231,109.916177 62.0848168,110.112362 61.4015854,109.924351 C60.8646363,109.73539 60.3688495,109.430392 59.9443613,109.027897 L52.3103222,102.711843 C51.6970469,102.242022 51.1331585,101.701115 50.6287158,101.098769 C50.3391063,100.709885 50.0729934,100.301228 49.8320327,99.8753405 C49.513003,99.3877777 49.263172,98.8514309 49.0908149,98.2840655 C49.0292657,98.0343259 48.9987439,97.7768438 49.0000535,97.5184006 C48.9980275,97.2739667 49.0535521,97.032991 49.1614071,96.8181306 C49.3454509,96.4857067 49.7387502,96.4175871 50.0614572,96.3249443 C51.1445735,96.0222916 52.2688296,95.9300316 53.3818105,96.0524657 C53.5826555,96.0420409 53.7656532,96.1764859 53.830575,96.3821649 C53.999492,96.7173135 54.1457186,97.0660861 54.2969876,97.4148588 C54.5291576,98.0095213 54.8316969,98.5691354 55.1970377,99.079703 C55.5490332,99.4932546 55.9236772,99.8836008 56.318949,100.248636 C57.1257167,101.066072 57.7862578,102.046995 58.6459696,102.799036 C59.6418234,103.668243 60.8519749,104.188677 61.986492,104.829002 C63.121009,105.469326 64.2403992,106.300386 64.8101789,107.540164 C64.942365,107.793272 65.0077674,108.080725 64.999265,108.371223 L64.999265,108.371223 Z" id="Path" fill="#FBBEBE" fill-rule="nonzero"></path>
                <path d="M73.9999997,65.4991836 C74.0005825,68.9395941 71.5261205,71.7845213 68.3558019,71.9884052 C65.1854833,72.1922891 62.4176836,69.6844929 62.0425066,66.2681726 C61.6673296,62.8518523 63.8147575,59.7106122 66.9407464,59.1030672 C70.0667353,58.4955223 73.088268,60.63216 73.8328015,63.9766948 C73.9440146,64.4752237 74.0001409,64.986304 73.9999997,65.4991836 L73.9999997,65.4991836 Z" id="Path" fill="#000000" fill-rule="nonzero" opacity="0.1"></path>
                <path d="M73.9999997,65.4991836 C74.0005825,68.9395941 71.5261205,71.7845213 68.3558019,71.9884052 C65.1854833,72.1922891 62.4176836,69.6844929 62.0425066,66.2681726 C61.6673296,62.8518523 63.8147575,59.7106122 66.9407464,59.1030672 C70.0667353,58.4955223 73.088268,60.63216 73.8328015,63.9766948 C73.9440146,64.4752237 74.0001409,64.986304 73.9999997,65.4991836 L73.9999997,65.4991836 Z" id="Path" fill="#FBBEBE" fill-rule="nonzero"></path>
                <path d="M53,96.8298274 C52.7287034,97.0890726 52.326518,97.0038413 51.9909669,96.8901995 C50.6678008,96.4498378 49.2066066,96.1337717 48.0000505,96.9789821 C47.9981381,96.6604032 48.0505496,96.3463317 48.1523574,96.0662969 C48.3260824,95.6330378 48.6973305,95.5442552 49.0019443,95.4235108 C50.0243331,95.0290534 51.0855553,94.9088079 52.1361344,95.0683804 C52.3257186,95.0547933 52.4984561,95.23002 52.5597379,95.4980882 C52.7191842,95.9206934 52.8572123,96.3752604 53,96.8298274 Z" id="Path" fill="#000000" fill-rule="nonzero" opacity="0.1"></path>
                <path d="M51.2033806,87.9794526 C50.868048,89.0482378 50.5926936,90.1464147 49.9356598,91.0522101 C49.7184415,91.2904045 49.5549396,91.5708321 49.4558342,91.8751748 C49.4483694,92.0999038 49.4107881,92.3226955 49.3440567,92.5378216 C49.2513631,92.7195151 49.0550709,92.8397535 48.9760087,93.0267909 C48.8587786,93.2939872 49.0114504,93.6386704 48.8560523,93.889835 C48.7832953,93.9906563 48.6960627,94.0806506 48.5970556,94.1570313 C48.2262814,94.4936986 48.1335878,95.0307632 48.1254089,95.5277483 C48.1172301,96.0247335 48.1663032,96.5324065 48,97 C49.4394766,96.1583316 51.2715376,96.4094962 52.9073064,96.7675392 C53.3625954,96.8664018 53.9269357,96.9412168 54.221374,96.5831738 C54.5158124,96.2251307 54.346783,95.7548652 54.3876772,95.3246791 C54.4422028,94.7635669 54.8347874,94.2986453 55.0774264,93.7883004 C55.3500545,93.2138283 55.4427481,92.5725571 55.6526718,91.9740374 C56.0861505,90.7155428 57.0158124,89.689509 57.612868,88.5004854 C57.8338896,88.0915659 57.9657248,87.6420657 58,87.1805356 C57.979413,86.5823241 57.8199772,85.9965803 57.5338059,85.4678073 C56.9664301,84.2364389 56.2914311,83.0554821 55.5163577,81.938144 C55.17012,81.4384869 54.5730643,80.5139877 54.0359869,81.3129046 C53.5997819,81.9568478 53.3271538,82.7771404 53.0054526,83.4825387 C52.3121943,84.9442747 51.7103901,86.4460246 51.2033806,87.9794526 L51.2033806,87.9794526 Z" id="Path" fill="#464353" fill-rule="nonzero"></path>
                <path d="M75,77.9865739 C73.4929387,78.1040901 72.0195157,77.4454945 70.9900867,76.194209 C70.9044891,76.106016 70.8426361,75.9922577 70.8116481,75.8660296 C70.7974856,75.7019523 70.8381605,75.5378245 70.9256506,75.4060173 C71.2230483,74.887101 71.7360595,74.5448968 71.9739777,73.9867112 C72.2118959,73.4285256 72.1301115,72.7861914 72.1524164,72.1747117 C72.1920694,71.0779752 72.5737299,69.9924584 72.605948,68.9125516 C72.6174173,68.6361804 72.5991082,68.3592569 72.551425,68.0878955 C72.4373581,67.6849022 72.3674422,67.2675818 72.3432466,66.8453014 C72.3754647,66.0234502 73.0297398,65.383921 73.1387856,64.5732896 C73.2800496,63.541067 72.5241636,62.6434821 71.7633209,62.0488321 C71.1831327,61.5934385 70.553383,61.2248073 69.889715,60.9520956 C69.4820644,60.7868372 69.0600235,60.671182 68.6307311,60.6070864 C67.8303726,60.484704 67.0156977,60.5877961 66.2589839,60.9072163 C65.9457792,61.040969 65.6492149,61.2201086 65.3767038,61.4401574 C65.2143917,61.5563361 65.0792216,61.7150944 64.9826518,61.9029746 C64.9032156,62.1145198 64.8676103,62.3438353 64.8785626,62.5733583 C64.8636927,63.720584 64.9776952,64.9407384 64.4944238,65.9393016 C64.2465923,66.4750476 63.8252788,66.9098153 63.6195787,67.4764158 C63.5353955,67.7121553 63.4827712,67.9607952 63.4634449,68.2141184 C63.4386404,68.4768487 63.4262312,68.7408891 63.4262701,69.005115 C63.4114002,70.4833252 63.4262701,72.0428789 64.0904585,73.3247423 C64.3248317,73.7122955 64.537556,74.1160621 64.7273854,74.533677 C64.9145673,74.9632578 64.8911044,75.4720565 64.6654275,75.8772494 C64.5312435,76.059071 64.3615586,76.2031078 64.1697646,76.2979923 C63.1750487,76.8382297 62.0264361,76.8849849 61,76.4270201 C62.2159114,75.1229462 62.5892584,73.1018436 61.936803,71.3556655 C61.7577656,71.0112624 61.6414769,70.6297685 61.5947955,70.2336844 C61.6196581,69.8768915 61.7037372,69.5286034 61.842627,69.2070716 C62.1823421,68.1530354 62.2350021,67.0079234 61.9938042,65.919667 C61.842627,65.2520882 61.5799257,64.6069491 61.5328377,63.9197356 C61.4935089,63.4010154 61.5135006,62.8787192 61.5923172,62.3657918 C61.8692579,60.4946248 63.0496526,58.9571229 64.6480793,58.3855638 C64.7744734,58.3378796 64.8959108,58.2930003 65.0346964,58.253731 C65.6359563,58.1026583 66.2502822,58.0283307 66.866171,58.0321397 C68.2416357,57.9816506 69.6369269,57.9367713 70.9628253,58.3434895 C71.7412621,58.574182 72.4654558,58.995493 73.0842627,59.5776687 C73.5235375,59.9956213 73.8741876,60.519982 74.110285,61.1119779 C74.2392808,61.4530165 74.336462,61.8083671 74.4002478,62.17225 C74.4572491,62.47238 74.4993804,62.7753149 74.5415118,63.0782498 C74.8413879,65.2352585 75.1412639,67.4343415 74.8215613,69.5885452 C74.6951673,70.4300311 74.4745973,71.2715169 74.3754647,72.1298324 C74.1350682,74.1073242 74.5687732,76.0735961 75,77.9865739 Z" id="Path" fill="#464353" fill-rule="nonzero"></path>
                <circle id="Oval" fill="#FFFFFF" fill-rule="nonzero" cx="65.5" cy="80.5" r="1"></circle>
                <circle id="Oval" fill="#FFFFFF" fill-rule="nonzero" cx="73.5" cy="78.5" r="1"></circle>
                <path d="M65,55 L64,53.2959541 C64.0633902,53.2278091 64.1327832,53.1644059 64.2075,53.1063649 C64.3518849,53.0260385 64.5210047,52.9896479 64.69,53.0025422 L65,55 Z" id="Path" fill="#000000" fill-rule="nonzero" opacity="0.1"></path>
                <path d="M69,51.3279624 L67.7257384,53 L67,51.1657498 C67.3096912,51.0477189 67.6448293,50.9914908 67.9817159,51.0010416 C68.3392993,51.0589366 68.6834659,51.1694315 69,51.3279624 L69,51.3279624 Z" id="Path" fill="#000000" fill-rule="nonzero" opacity="0.1"></path>
                <g id="Group" opacity="0.1" transform="translate(60.000000, 59.000000)" fill="#000000" fill-rule="nonzero">
                    <path d="M4.00862069,14.3057576 C3.86859502,14.4727224 3.69152296,14.6049898 3.49137931,14.6921212 C2.57425383,15.1291599 1.52809104,15.216217 0.550862069,14.9368182 C0.437258577,15.0744451 0.314572989,15.2043795 0.18362069,15.3257576 C1.25474216,15.7463016 2.45335902,15.7033668 3.49137931,15.2072727 C3.69152296,15.1201414 3.86859502,14.9878739 4.00862069,14.8209091 C4.18858168,14.560818 4.2487789,14.2366917 4.17413793,13.929697 C4.14830329,14.0659266 4.09170404,14.1945219 4.00862069,14.3057576 L4.00862069,14.3057576 Z" id="Path"></path>
                    <path d="M1.20258621,5.67954545 C1.28704926,6.01704019 1.33644693,6.3622899 1.35,6.70984848 C1.37980765,6.19023293 1.33010149,5.66912421 1.20258621,5.16439394 C1.04482759,4.55136364 0.770689655,3.95893939 0.721551724,3.32787879 C0.721551724,3.2480303 0.721551724,3.16818182 0.70862069,3.08575758 C0.696206117,3.33819038 0.700525842,3.59116392 0.721551724,3.8430303 C0.770689655,4.47409091 1.04482759,5.06651515 1.20258621,5.67954545 Z" id="Path"></path>
                    <path d="M14.5887931,9.04863636 C14.6985776,8.36747328 14.7453256,7.67770851 14.7284483,6.9880303 C14.7193864,7.50586243 14.6727128,8.0223627 14.5887931,8.53348485 C14.4568966,9.30621212 14.2267241,10.0789394 14.1232759,10.8671212 C14.0699265,11.2899116 14.0500376,11.7162254 14.0637931,12.1421212 C14.0708547,11.8880073 14.0907073,11.634406 14.1232759,11.3822727 C14.2267241,10.5940909 14.4568966,9.82909091 14.5887931,9.04863636 Z" id="Path"></path>
                    <path d="M1.15086207,10.1536364 C1.01541749,9.90002794 0.906234485,9.63335147 0.825,9.35772727 C0.803043196,9.4505494 0.792620286,9.54570671 0.793965517,9.64106061 C0.842679114,10.0047804 0.964030399,10.3551021 1.15086207,10.6713636 C1.34074009,11.1031607 1.45027712,11.5657212 1.47413793,12.0365152 C1.52094345,11.3920822 1.41000976,10.7459631 1.15086207,10.1536364 L1.15086207,10.1536364 Z" id="Path"></path>
                    <path d="M12.237931,7.65257576 C12.260643,7.77010641 12.2770456,7.88875974 12.287069,8.0080303 C12.287069,7.96939394 12.287069,7.93333333 12.287069,7.89469697 C12.2990376,7.64090834 12.2799315,7.38661246 12.2301724,7.13742424 C12.1732759,6.8669697 12.0801724,6.59909091 12.0362069,6.32606061 C12.0233695,6.38714088 12.0155848,6.44916707 12.012931,6.51151515 C12.0406961,6.8996149 12.1162629,7.28284295 12.237931,7.65257576 Z" id="Path"></path>
                    <path d="M10.6086207,14.5813636 C10.5688035,14.5399587 10.5316602,14.4960829 10.4974138,14.45 C10.4337737,14.5532252 10.4073221,14.6749562 10.4224138,14.7951515 C10.4547509,14.9110655 10.5192966,15.0155285 10.6086207,15.0965152 C11.6828653,16.2455569 13.220433,16.8503381 14.7931034,16.7424242 C14.7491379,16.5724242 14.7051724,16.405 14.6637931,16.2272727 C13.1351604,16.2972723 11.6527003,15.695573 10.6086207,14.5813636 L10.6086207,14.5813636 Z" id="Path"></path>
                    <path d="M12.8456897,3.94606061 C12.8444717,3.93665511 12.8444717,3.92713277 12.8456897,3.91772727 C12.9931034,2.96984848 12.2043103,2.14560606 11.4103448,1.59954545 C10.8048984,1.18136245 10.1477329,0.842852469 9.45517241,0.592424242 C9.02977498,0.440669258 8.58936069,0.334464366 8.14137931,0.275606061 C7.30617762,0.163223698 6.45603631,0.25789202 5.66637931,0.551212121 C5.33953947,0.674035732 5.03006436,0.838537678 4.74568966,1.04060606 C4.57631131,1.14729174 4.43525668,1.29307777 4.33448276,1.46560606 C4.25158839,1.65986578 4.21443294,1.8704437 4.22586207,2.08121212 C4.22586207,2.25893939 4.22586207,2.43666667 4.22586207,2.6169697 L4.22586207,2.59636364 C4.21443294,2.38559522 4.25158839,2.17501729 4.33448276,1.98075758 C4.43525668,1.80822929 4.57631131,1.66244326 4.74568966,1.55575758 C5.03006436,1.35368919 5.33953947,1.18918725 5.66637931,1.06636364 C6.45603631,0.773043535 7.30617762,0.678375213 8.14137931,0.790757576 C8.58936069,0.849615881 9.02977498,0.955820773 9.45517241,1.10757576 C10.1477329,1.35800398 10.8048984,1.69651397 11.4103448,2.11469697 C12.0698276,2.55772727 12.7189655,3.19651515 12.8456897,3.94606061 Z" id="Path"></path>
                    <path d="M3.83017241,5.17984848 C3.57155172,5.67181818 3.13189655,6.07106061 2.91724138,6.59136364 C2.82939331,6.80784064 2.77447801,7.03616396 2.75431034,7.26878788 C2.72842607,7.51005029 2.71547665,7.75251569 2.71551724,7.99515152 C2.71551724,8.21409091 2.71551724,8.43560606 2.71551715,8.65712121 C2.71551724,8.60818182 2.71551724,8.55924242 2.71551724,8.51030303 C2.71547665,8.26766721 2.72842607,8.02520181 2.75431034,7.78393939 C2.77447801,7.55131548 2.82939331,7.32299215 2.91724138,7.10651515 C3.13189655,6.59136364 3.5612069,6.1869697 3.83017241,5.695 C4.24655172,4.92227273 4.2387931,4.03363636 4.23103448,3.15015152 C4.26538398,3.84913555 4.12777489,4.54589575 3.83017241,5.17984848 L3.83017241,5.17984848 Z" id="Path"></path>
                </g>
                <path d="M74,63.6312345 C73.9653861,63.6804396 73.9248323,63.7251906 73.879257,63.7644744 C73.790488,63.83748 73.6912854,63.8967962 73.5849458,63.9404516 C72.8529412,64.2572107 72.8831269,63.2239728 72.500774,62.8695044 C72.2555792,62.6887577 71.9546687,62.5997847 71.6505418,62.6181083 C70.9143447,62.5812369 70.1773091,62.5485554 69.439435,62.5200638 C68.2093653,62.4748125 66.9818111,62.4521869 65.754257,62.4798405 C65.1656347,62.4898963 64.5786894,62.5141979 63.9934211,62.5527453 C63.3142415,62.5979966 62.5847523,62.6859852 62.006192,63.0077722 C61.8081361,63.1166681 61.6289197,63.256729 61.4754257,63.4225757 C61.3370743,63.5734134 61.1911765,63.7644744 61,63.7996698 C61.2810937,62.1226219 62.4791898,60.7446239 64.1015867,60.2323596 C66.7781779,58.2399028 70.550731,58.7111871 72.6542183,61.3007929 C73.1000805,61.6753861 73.455989,62.1453485 73.6956269,62.6759294 C73.8303354,62.982812 73.9323549,63.3030104 74,63.6312345 Z" id="Path" fill="#000000" fill-rule="nonzero" opacity="0.1"></path>
                <path d="M73.4840066,62.9343204 C72.7724799,63.2836936 72.8018212,62.1440715 72.4301646,61.7531062 C72.1918292,61.5537495 71.8993367,61.4556156 71.6037178,61.4758259 C69.1259843,61.2910163 66.6409616,61.2669461 64.1608059,61.403733 C63.2781215,61.4702803 62.3098584,61.6200117 61.7156969,62.3631229 C61.5641001,62.5516735 61.405168,62.7956802 61.1777729,62.7873618 C61.1019745,62.2328012 61.0481821,61.6560581 61.0115055,61.0876334 C60.9893338,60.8747028 60.9992556,60.6590468 61.0408468,60.4498887 C61.1019745,60.2114276 61.2413457,60.009013 61.3122539,59.7760975 C61.3820561,59.4798582 61.4068618,59.1723019 61.3856071,58.8666181 C61.4074159,56.5657724 62.4888228,54.4454498 64.2366043,53.2766468 C64.4522912,53.1570379 64.6522607,53.0039919 64.8307658,52.821907 C64.8927641,52.7381891 64.9606335,52.6602965 65.0337098,52.5889916 C65.1749245,52.4903084 65.3403311,52.4456016 65.5056159,52.4614426 C65.6229811,52.4614426 65.7501268,52.4614426 65.8528213,52.4614426 C66.1690347,52.4219396 66.4781657,52.3284567 66.7697372,52.1841623 C67.038932,52.0530198 67.3302462,51.9905455 67.6230803,52.0011573 C67.9339047,52.0654836 68.2330668,52.188253 68.5082097,52.3643945 C68.6404814,52.4366689 68.778949,52.4933466 68.9214332,52.5335355 C69.1439381,52.5917644 69.3737783,52.5889916 69.5962833,52.638902 C69.9566889,52.7429367 70.298954,52.9154414 70.6085584,53.1490978 C70.9780558,53.3750622 71.3199935,53.6546999 71.6257238,53.9809388 C71.9581513,54.4117647 72.2243062,54.9029335 72.4130489,55.4338877 C72.7368863,56.1674044 72.9831065,56.9417708 73.1465816,57.74086 C73.3446354,58.8888005 73.246831,60.1310163 73.716292,61.1735903 C74.0023697,61.8279719 74.2639964,62.5544463 73.4840066,62.9343204 Z" id="Path" fill="#FED253" fill-rule="nonzero"></path>
                <path d="M61,62 C61,62 66.2226744,57.9976205 74,61.3166669 C74,61.3166669 65.2199612,59.6338 61,62 Z" id="Path" fill="#000000" fill-rule="nonzero" opacity="0.1"></path>
                <path d="M2.65907209,87.7218412 C1.93581193,86.4798376 0.848356945,85.3426784 1.0176306,83.933999 C3.0078784,84.1732595 4.89553611,83.6651671 6.71907501,82.7807099 C8.54261392,81.8962528 10.2353504,80.7483404 11.9434755,79.6219345 C12.6154406,79.1783618 13.284841,78.742854 13.9516766,78.3396061 C15.0083545,77.7051627 16.0573382,76.9954463 17.1319694,76.3744445 C18.6708208,75.4872991 20.2404493,74.7614528 21.9690923,74.6216602 C22.2822125,74.5960402 22.5964145,74.5879637 22.9103564,74.5974653 C25.0391009,74.6404784 27.2447879,75.2399737 29.1170571,74.2399188 L29.2324709,74.1753991 C30.2942784,73.5651506 31.0662688,72.5274593 31.9767559,71.6860153 C32.6313411,71.0926272 33.3440426,70.573575 34.1029356,70.1375432 C35.4853371,69.3310473 36.9831524,68.6858507 38.396331,67.9250562 C38.75806,67.7297528 39.1015291,67.4993419 39.4222319,67.2368464 L39.6633186,67.0352225 L39.7171784,66.9868327 C39.7761677,66.9357546 39.835157,66.8846766 39.8915816,66.8309102 L40.0018659,66.728754 L40.114715,66.6212213 L40.2019166,66.535195 L40.342978,66.3954024 L40.3583665,66.3765842 L40.5814999,66.1453887 L40.6712663,66.0512975 L40.8277162,65.8819334 L40.9200472,65.7851539 C41.0764971,65.6157898 41.232947,65.4437373 41.3919617,65.2770615 C41.5509763,65.1103857 41.7664155,64.8845669 41.9587719,64.6990728 L41.9587719,64.6990728 L42.1434341,64.5270204 L42.1972939,64.4786306 L42.3460495,64.3495913 L42.4152979,64.2877599 L42.5614887,64.1694739 L42.6333018,64.1103308 C42.7051149,64.0538761 42.7794927,64.0001097 42.8538705,63.9463433 C42.9223162,63.896645 42.9943465,63.8526029 43.0693097,63.8146157 L42.589701,62.5968069 L43.9695378,62 L63,110.403193 L61.6175985,111 L50.7327896,83.3103089 L50.6558471,83.3909585 C48.1343617,85.9989988 45.0457625,87.9253885 41.6561312,89.0041696 L41.6356131,89.0041696 C39.7402612,89.6036649 37.619211,90.0284194 36.0239351,91.1413837 C35.4582677,91.5267686 34.966713,92.0201197 34.57485,92.5957645 C34.2003962,93.154935 33.9387914,93.7920667 33.5489491,94.3297306 C33.4745713,94.4291984 33.3924992,94.5259779 33.3104271,94.6173808 C32.843997,95.1020227 32.3279165,95.5311722 31.7715757,95.8970209 L31.5279242,96.0717617 C29.8754871,97.2904545 28.153931,98.40278 26.3727721,99.4025896 C25.3449216,99.963364 24.2732305,100.431041 23.1693964,100.800516 C22.3666289,101.069348 21.5382139,101.265595 20.7354465,101.531739 C20.1954462,101.703126 19.6710321,101.924438 19.1683828,102.193065 C17.8090641,102.93773 16.7652099,104.10446 15.7777802,105.349152 C14.9134587,106.44061 14.0927379,107.596587 13.1437796,108.591266 C12.548757,109.209579 11.6433995,109.795633 10.9252688,109.43271 L10.7790779,109.343995 C10.8021607,109.30367 10.820114,109.263346 10.840632,109.220332 C11.4074423,107.975641 10.7098296,106.437922 9.77113028,105.440555 C9.67366969,105.335711 9.57364435,105.233555 9.47105426,105.136775 C9.36846416,105.039996 9.183802,104.867943 9.03761111,104.733527 C8.23484364,104.010369 7.38078111,103.338289 6.82422986,102.405442 C6.39944096,101.621845 6.1111114,100.765249 5.97273209,99.8757338 C5.71625685,98.6095353 5.54441845,97.3057003 4.88784185,96.2276842 C4.45696346,95.5152795 3.81577538,94.9077193 3.34899046,94.2248862 C3.05392646,93.8208094 2.85995982,93.3457992 2.78474495,92.8430899 C2.6795901,91.9693861 3.0668677,91.1145005 3.21305859,90.2434849 C3.25654986,90.0061797 3.27461514,89.7645248 3.26691839,89.5230153 C3.21334238,88.8782998 3.00416674,88.2584692 2.65907209,87.7218412 L2.65907209,87.7218412 Z" id="Path" fill="url(#linearGradient-2)" fill-rule="nonzero"></path>
                <polygon id="Rectangle" fill="#D6D8E1" fill-rule="nonzero" transform="translate(52.440656, 85.737018) rotate(157.600000) translate(-52.440656, -85.737018) " points="51.9228852 60.5513283 53.4038685 60.5379979 52.9584273 110.922708 51.477444 110.936038"></polygon>
                <path d="M5.79224837,95.9254427 C6.43202467,96.9857958 6.60280161,98.2635883 6.85004583,99.5064832 C6.98717795,100.380182 7.26931679,101.221626 7.68353926,101.992273 C8.2290059,102.907666 9.06249933,103.568038 9.84501456,104.27673 C9.98775349,104.408267 10.1304924,104.545174 10.2681335,104.674027 C10.367541,104.767982 10.4669485,104.869991 10.5612581,104.969315 C11.4788656,105.949135 12.1594244,107.460473 11.6063111,108.681893 C11.5893295,108.723481 11.5697448,108.763837 11.5476861,108.802692 C11.5924643,108.834722 11.6393078,108.863426 11.6878762,108.888594 C12.3913752,109.248309 13.2758468,108.673839 13.8569982,108.064472 C14.7848013,107.087336 15.5877078,105.954504 16.4313968,104.883413 C17.3948847,103.659309 18.4169974,102.513054 19.7449793,101.782887 C20.235215,101.51844 20.7470633,101.301018 21.274325,101.133253 C22.0568402,100.864809 22.8673935,100.674214 23.6524576,100.416508 C24.7307676,100.053304 25.7778761,99.5944092 26.7825186,99.0447598 C28.5258601,98.0620616 30.211213,96.9692926 31.8293595,95.7724297 L32.068957,95.6006257 C32.6123196,95.2420075 33.1166301,94.8216083 33.5728136,94.3469931 C33.6543787,94.2557222 33.7333949,94.1617669 33.8073133,94.0624427 C34.1998454,93.525555 34.4572852,92.9108187 34.8268771,92.3605089 C35.2101845,91.7951973 35.6909197,91.3107553 36.2440708,90.9323878 C37.8040035,89.8398215 39.873718,89.4210491 41.7267753,88.8331572 L41.7471666,88.8331572 C45.0585311,87.7722584 48.0760769,85.8811227 50.5409045,83.3220057 C50.745188,83.1422851 50.8978847,82.9061741 50.9818659,82.6401584 C51.0608821,82.2616527 50.8671649,81.8858313 50.6810945,81.552961 C50.4644372,81.161033 50.2528777,80.7691051 50.0438672,80.3718082 C49.1038695,78.5700282 48.2646962,76.7119113 47.5306423,74.806968 C47.370061,74.3881956 47.2145775,73.9721077 47.0641919,73.5506509 C46.6784569,72.4768757 46.3267074,71.3878886 46.0089433,70.2836897 C45.904438,69.9186062 45.8024817,69.5508381 45.7056231,69.1830701 C45.6877807,69.1132747 45.6673894,69.0381105 45.6495471,68.9575773 C45.2264281,67.1670571 44.6605702,62.9766492 42.917116,64.2302818 C42.3986036,64.6207217 41.916402,65.0620488 41.4769821,65.5483409 C41.1379772,65.91074 40.8066189,66.2838769 40.4574183,66.6435917 C40.1729904,66.938193 39.8725633,67.215156 39.5576532,67.473083 C39.2380668,67.7308024 38.8967941,67.957236 38.5380894,68.1495614 C37.1540315,68.8958352 35.6909574,69.5213093 34.3425843,70.3212719 C33.6000663,70.7485963 32.9028369,71.2579283 32.2626741,71.8406639 C31.3731047,72.6674708 30.6186274,73.6875573 29.5812212,74.286187 L29.4690692,74.3506135 C27.6389522,75.3304334 25.4851236,74.7425415 23.4026645,74.6995905 C23.0966042,74.6914765 22.79035,74.69954 22.485057,74.7237504 C20.79513,74.8579723 19.2504908,75.5720329 17.7568298,76.4444752 C16.7066791,77.0565271 15.6820174,77.7491122 14.6497091,78.3745863 C13.9971882,78.7691987 13.3446674,79.1960243 12.6870487,79.6335877 C11.0200619,80.7395762 9.33013483,81.8992535 7.5892296,82.7367982 C5.80499292,83.5904495 3.96213131,84.1004928 2.01731332,83.8669467 C1.8516342,85.2494323 2.91198057,86.3661586 3.62057743,87.5848935 C3.96091287,88.1087632 4.16722027,88.7162143 4.21957117,89.3485693 C4.2289382,89.5850784 4.21269034,89.8219414 4.17114189,90.0545765 C4.02840296,90.9109123 3.66135998,91.748457 3.75312072,92.6101616 C3.825451,93.1015109 4.01389701,93.5658288 4.30113628,93.960434 C4.74464654,94.6288591 5.36912938,95.2274888 5.79224837,95.9254427 Z" id="Path" fill="#F86D70" fill-rule="nonzero"></path>
                <path d="M56.0826849,102 C56.0826849,102 58.7699914,103.997265 61.4941103,105.061254 C64.2182292,106.125242 62.4144207,109.942006 62.4144207,109.942006 C62.4144207,109.942006 59.5277136,110.506678 57.5060983,108.112051 C55.4844831,105.717423 56.0826849,102 56.0826849,102 Z" id="Path" fill="#FBBEBE" fill-rule="nonzero"></path>
                <path d="M180.370626,134.048718 C180.370626,134.048718 174.363033,142.479254 169.378285,142.548289 C164.393536,142.617324 161.467424,146.099442 163.834209,148.275421 C166.200993,150.451399 191.992212,147.032793 191.992212,147.032793 C191.992212,147.032793 192.235623,136.672042 190.000902,135.158798 C187.766181,133.645554 180.370626,134.048718 180.370626,134.048718 Z" id="Path" fill="#444176" fill-rule="nonzero"></path>
                <path d="M243.490309,144.058296 C243.490309,144.058296 244.394006,150.802144 241.601453,155.401237 C238.8089,160.00033 246.646887,161.774146 246.646887,161.774146 C246.646887,161.774146 252.341455,163.511705 252.756392,157.347972 C253.17133,151.18424 253.036411,146.470798 252.50183,145.968774 C251.967248,145.466751 251.521763,142 251.521763,142 L243.490309,144.058296 Z" id="Path" fill="#444176" fill-rule="nonzero"></path>
                <path d="M153.000088,156.045853 C153.000088,156.045853 152.789821,135.712147 172.879451,127.44711 L177.544274,118.558101 L179.781935,113.098341 C181.4265,109.084958 184.92397,106.12855 189.150519,105.179089 L192.769196,104.365325 L193.888027,99.6439322 C195.106357,94.4858533 199.270486,90.5473023 204.481874,89.6239726 C206.682345,89.2148587 208.915267,89.0060162 211.153323,89 C213.167538,89.0303885 215.018552,90.1156708 216.03101,91.8598743 L216.03101,91.8598743 C216.03101,91.8598743 235.06411,91.6492836 235.907776,102.028027 C235.907776,102.028027 237.813163,111.556609 240.562215,113.251734 C240.562215,113.251734 245.214059,112.193581 249.865902,118.971483 L254.940876,136.338719 C254.940876,136.338719 268.263008,148.83377 264.244563,160.257668 C264.244563,160.257668 258.746458,168.093724 230.832802,162.797756 C230.832802,162.797756 201.016354,171.897356 185.145053,159.417905 C185.142458,159.433504 158.711057,164.516281 153.000088,156.045853 Z" id="Path" fill="#A8A8A8" fill-rule="nonzero"></path>
                <path d="M166,152 C166,152 170.218427,146.004311 170.006211,141.719798 C169.793996,137.435285 171,127 171,127" id="Path" stroke="#000000" opacity="0.1"></path>
                <path d="M182,138 C182,138 185.999777,129.571054 185.599554,125.015397 C185.599554,125.015397 189.80067,116.345944 193,117.0395" id="Path" stroke="#000000" opacity="0.1"></path>
                <path d="M205,115 C205,115 216.377778,110.555252 217,107" id="Path" stroke="#000000" opacity="0.1"></path>
                <path d="M209,124.684897 C209,124.684897 221.121809,119.419515 221.121809,118 L227.178865,118 C227.178865,118 235.957876,129.139838 234.913733,134" id="Path" stroke="#000000" opacity="0.1"></path>
                <path d="M223,134.092157 C223,134.092157 211.308875,133.26274 207.131643,136.580409 C202.954411,139.898079 195.440518,141.554369 195.440518,141.554369 C195.440518,141.554369 191.055705,150.881498 189.384813,152.537788 C187.71392,154.194079 185,160 185,160" id="Path" stroke="#000000" opacity="0.1"></path>
                <path d="M223,144 C223,144 224.409895,148.771205 226.293608,151.5 C228.17732,154.228795 231,164 231,164" id="Path" stroke="#000000" opacity="0.1"></path>
                <path d="M242,157 C242,157 244.660834,164.922892 247,165" id="Path" stroke="#000000" opacity="0.1"></path>
                <path d="M226,125 C226,125 232.745515,126.989382 235.565774,131.809385 C238.386032,136.629389 247,141 247,141" id="Path" stroke="#000000" opacity="0.1"></path>
                <path d="M228,102 C228,102 228,111.922244 230.599643,111.922244 C233.199286,111.922244 239,113 239,113" id="Path" stroke="#000000" opacity="0.1"></path>
                <path d="M215,90 C215,90 214.345411,107.475273 211,112" id="Path" stroke="#000000" opacity="0.1"></path>
                <g id="Group" opacity="0.05" transform="translate(166.000000, 88.000000)" fill="#000000" fill-rule="nonzero">
                    <path d="M87.8095515,47.3977778 L82.7544063,30.0792593 C78.1207388,23.3203704 73.4870712,24.3755556 73.4870712,24.3755556 C70.7487599,22.6851852 68.8534037,13.1807407 68.8534037,13.1807407 C68.0104485,2.83111111 49.051715,3.0437037 49.051715,3.0437037 L49.051715,3.0437037 C48.0413237,1.30125343 46.1927974,0.218535315 44.1827441,0.191851852 C43.2880739,0.191851852 42.3727177,0.22037037 41.4573615,0.295555556 C41.9745119,0.347407407 42.4701143,0.420864198 42.9441689,0.515925926 L44.4180475,3.05148148 C44.4180475,3.05148148 63.3741953,2.83888889 64.2171504,13.1885185 C64.2171504,13.1885185 66.1150923,22.692963 68.8534037,24.3833333 C68.8534037,24.3833333 73.4870712,23.3255556 78.1207388,30.087037 L83.1758839,47.4055556 C83.1758839,47.4055556 96.4459631,59.8655556 92.443219,71.2574074 C92.443219,71.2574074 89.7411082,75.1125926 78.5008443,75.5792593 C93.6559367,76.1366667 97.0768865,71.2574074 97.0768865,71.2574074 C101.079631,59.8577778 87.8095515,47.3977778 87.8095515,47.3977778 Z" id="Path"></path>
                    <path d="M13.6631135,70.4174074 C9.20414075,71.2219071 4.69505665,71.7165418 0.168073879,71.8977778 C5.44559367,72.1 10.9351451,71.527037 14.4724538,71.0396296 C14.1983641,70.8296296 13.9294459,70.6274074 13.6631135,70.4174074 Z" id="Path"></path>
                    <path d="M59.1620053,73.7981481 C52.6771341,75.6216996 46.00206,76.6797292 39.2724011,76.9507407 C48.9818997,77.3033333 58.1794195,75.2733333 61.9701319,74.2985185 C61.0547757,74.1455556 60.1264908,73.9718519 59.1620053,73.7981481 Z" id="Path"></path>
                </g>
                <path d="M58,196.432295 C58,196.432295 63.6447987,196.236722 65.3450393,194.873379 C67.0452799,193.510036 74.0250823,191.883094 74.4482533,194.068411 C74.8714243,196.253729 82.9293052,204.93831 76.5565516,204.997832 C70.1837981,205.057354 61.7531237,203.881081 60.0554019,202.716145 C58.3576802,201.55121 58,196.432295 58,196.432295 Z" id="Path" fill="#A8A8A8" fill-rule="nonzero"></path>
                <path d="M76.6735547,204.283566 C70.3004138,204.339146 61.866708,203.240788 60.1688831,202.16625 C58.8766217,201.337851 58.360221,198.368315 58.1889271,197 L58,197 C58,197 58.357702,201.782487 60.0555269,202.867611 C61.7533517,203.952736 70.1870575,205.051093 76.5576794,204.99816 C78.3990889,204.98228 79.0338839,204.294153 78.9986175,203.275195 C78.7441957,203.889216 78.0413869,204.27298 76.6735547,204.283566 Z" id="Path" fill="#000000" fill-rule="nonzero" opacity="0.2"></path>
                <path d="M197,181.926777 C197,181.926777 190.37644,180.515791 188.611999,178.634477 C186.847557,176.753162 178.898783,173.466207 178.015307,175.815178 C177.131831,178.164148 166.095912,186.157062 173.600437,187.573392 C181.104963,188.989722 191.259916,189.444017 193.468606,188.514049 C195.677296,187.584081 197,181.926777 197,181.926777 Z" id="Path" fill="#A8A8A8" fill-rule="nonzero"></path>
                <path d="M173.598953,187.414148 C181.106465,188.996652 191.259552,189.516146 193.468382,188.46815 C195.147595,187.663385 196.317271,183.79871 196.779117,182 L197,182.057054 C197,182.057054 195.674702,188.393078 193.468382,189.450083 C191.262062,190.507088 181.106465,189.978586 173.598953,188.393078 C171.432794,187.936644 170.812816,186.861622 171.046249,185.504332 C171.231991,186.399183 171.987512,187.080831 173.598953,187.414148 Z" id="Path" fill="#000000" fill-rule="nonzero" opacity="0.2"></path>
                <path d="M132.85898,30.6676772 L131.304517,30.6676772 C131.906018,30.6676772 132.393631,30.0704973 132.393631,29.3338386 C132.393631,28.5971799 131.906018,28 131.304517,28 L118.710403,28 C118.108903,28 117.62129,28.5971799 117.62129,29.3338386 C117.62129,30.0704973 118.108903,30.6676772 118.710403,30.6676772 L120.264866,30.6676772 C119.684205,30.7016081 119.227659,31.2880556 119.227659,32 C119.227659,32.7119444 119.684205,33.2983919 120.264866,33.3323228 L118.089114,33.3323228 C117.487613,33.3323228 117,33.9295027 117,34.6661614 C117,35.4028201 117.487613,36 118.089114,36 L130.683228,36 C131.284729,36 131.772341,35.4028201 131.772341,34.6661614 C131.772341,33.9295027 131.284729,33.3323228 130.683228,33.3323228 L132.85898,33.3323228 C133.260021,33.3557577 133.639064,33.1070683 133.845313,32.6851924 C134.051562,32.2633165 134.051562,31.7366835 133.845313,31.3148076 C133.639064,30.8929317 133.260021,30.6442423 132.85898,30.6676772 L132.85898,30.6676772 Z" id="Path" fill="#003595" fill-rule="nonzero" opacity="0.1"></path>
                <path d="M183.85981,70.6666706 L182.306478,70.6666706 C182.886716,70.6327332 183.342931,70.0461751 183.342931,69.3340963 C183.342931,68.6220174 182.886716,68.0354593 182.306478,68.0015219 L169.709159,68.0015219 C169.30841,67.9780826 168.929642,68.226819 168.723543,68.6487745 C168.517444,69.07073 168.517444,69.5974625 168.723543,70.019418 C168.929642,70.4413735 169.30841,70.6901099 169.709159,70.6666706 L171.26249,70.6666706 C170.682252,70.700608 170.226038,71.2871661 170.226038,71.9992449 C170.226038,72.7113238 170.682252,73.2978819 171.26249,73.3318193 L169.088321,73.3318193 C168.487258,73.3318193 168,73.9291119 168,74.6659096 C168,75.4027074 168.487258,76 169.088321,76 L181.6708,76 C182.271863,76 182.759121,75.4027074 182.759121,74.6659096 C182.759121,73.9291119 182.271863,73.3318193 181.6708,73.3318193 L183.85981,73.3318193 C184.260559,73.3552586 184.639327,73.1065222 184.845426,72.6845667 C185.051525,72.2626112 185.051525,71.7358787 184.845426,71.3139232 C184.639327,70.8919677 184.260559,70.6432313 183.85981,70.6666706 L183.85981,70.6666706 Z" id="Path" fill="#003595" fill-rule="nonzero" opacity="0.1"></path>
                <path d="M108.86393,64.6666706 L107.309468,64.6666706 C107.710509,64.6901099 108.089553,64.4413735 108.295802,64.019418 C108.502051,63.5974625 108.502051,63.07073 108.295802,62.6487745 C108.089553,62.226819 107.710509,61.9780826 107.309468,62.0015219 L94.7128787,62.0015219 C94.3118378,61.9780826 93.932794,62.226819 93.7265451,62.6487745 C93.5202961,63.07073 93.5202961,63.5974625 93.7265451,64.019418 C93.932794,64.4413735 94.3118378,64.6901099 94.7128787,64.6666706 L96.2673409,64.6666706 C95.8663,64.6432313 95.4872562,64.8919677 95.2810073,65.3139232 C95.0747583,65.7358787 95.0747583,66.2626112 95.2810073,66.6845667 C95.4872562,67.1065222 95.8663,67.3552586 96.2673409,67.3318193 L94.0891136,67.3318193 C93.4876128,67.3318193 93,67.9291119 93,68.6659096 C93,69.4027074 93.4876128,70 94.0891136,70 L106.683228,70 C107.284729,70 107.772341,69.4027074 107.772341,68.6659096 C107.772341,67.9291119 107.284729,67.3318193 106.683228,67.3318193 L108.85898,67.3318193 C109.260021,67.3552586 109.639064,67.1065222 109.845313,66.6845667 C110.051562,66.2626112 110.051562,65.7358787 109.845313,65.3139232 C109.639064,64.8919677 109.260021,64.6432313 108.85898,64.6666706 L108.86393,64.6666706 Z" id="Path" fill="#003595" fill-rule="nonzero" opacity="0.1"></path>
            </g>
        </g>
    </g>
</svg>