<svg id="Layer_1" data-name="Layer 1" xmlns="http://www.w3.org/2000/svg" viewBox="0 0 217.45 268.3"><defs><style>.cls-1{fill:#fd0;}.cls-2{fill:#003595;}</style></defs><path class="cls-1" d="M353.15,384,249.63,363.13,146.11,384a4.35,4.35,0,0,1-5.2-4.27V120.09a4.35,4.35,0,0,1,4.35-4.35H354a4.35,4.35,0,0,1,4.35,4.35v259.6A4.35,4.35,0,0,1,353.15,384Z" transform="translate(-140.91 -115.74)"/><path class="cls-2" d="M253.67,186.87c0,4.25-1.38,10.4-6.92,9.53-3.67-.58-5.58-4-6.59-7.62L257,179.57c.57-.32,1.64-.89,1.64-1.7,0-6.36-3.92-12.3-10.6-13.05a12.24,12.24,0,0,0-12.87,7.62c-4.25,10.45-1.06,30,13.77,27.45,6.88-1.17,10.43-6.91,10.38-13.57C259.28,183.66,253.66,184.68,253.67,186.87Zm-10.31-18.06c5.15-2.76,9.11,4.49,9.58,8.85l-13.54,7.41c-.08-.56-.15-1.1-.2-1.6C238.78,179.37,239,171.13,243.36,168.81Z" transform="translate(-140.91 -115.74)"/><path class="cls-2" d="M234.33,201.21c-1.12,1.72-3.3,1.54-3.86-.39a14.53,14.53,0,0,1-.33-3.15l-.54-13.84q-.67-17.25-1.36-34.48l-.33-8.49c-.06-1.57-2-1.84-3.26-1.4l-6.53,2.31c-1,.34-2.7,1.11-2.34,2.43s2.32,1.25,3.24.92l3.37-1.19q1.11,28.51,2.23,57a4.9,4.9,0,0,0,3.13,4.49c4.31,2,9.36,0,11.86-3.84C241.18,199.23,235.52,199.42,234.33,201.21Z" transform="translate(-140.91 -115.74)"/><path class="cls-2" d="M291.47,189.25a4.12,4.12,0,0,0-3.66,1.62l-1.29,1.74-8.41-14.45,9.42-12.94c.82-1.13-.71-1.92-1.62-2a4.09,4.09,0,0,0-3.66,1.63l-6.62,9.08-.39-.67c-1.66-2.85-3.2-5.85-5-8.61a6.91,6.91,0,0,0-7.89-3.18c-2.74.78-5.12,3.31-4.06,6.27.81,2.27,6.36.69,5.59-1.5a1.82,1.82,0,0,1-.12-.88,4.62,4.62,0,0,1,.77.82,8.14,8.14,0,0,1,.68,1c.53.85,1,1.73,1.51,2.6l5.31,9.11-10.88,14.94c-.83,1.13.71,1.93,1.61,2a4.1,4.1,0,0,0,3.66-1.62l8.08-11.1q4.44,7.6,8.86,15.22c1,1.78,4.37.17,5.21-1l4.53-6.1C293.92,190.14,292.37,189.34,291.47,189.25Z" transform="translate(-140.91 -115.74)"/><path class="cls-2" d="M295.38,151.73c-2.67-.7-6.13.6-6.42,3.6s1.5,4.91,4.28,4.79a2.83,2.83,0,0,1-1.46,2.33c-.95.36-2.15,1.54-1.4,2.59s2.76.62,3.75.25a7.66,7.66,0,0,0,4.83-6.92C299.14,155.62,298.41,152.52,295.38,151.73Z" transform="translate(-140.91 -115.74)"/><path class="cls-2" d="M303.24,187.7c-7.69.49-11.37,9.48-4.31,13.92,5.68,3.57,15.69,2.31,20-3a9,9,0,0,0-1.51-13.09c-2.87-2.05-6.69-2.76-10-3.86s-7.48-2.41-7.86-6.61,2.19-6.17,6.12-6.26a7.66,7.66,0,0,1,5.62,1.79c1.13,1.12,2.44,5.47,0,5.95-1,.2-2.67,1.2-2.34,2.42s2.29,1.12,3.24.93a7.09,7.09,0,0,0,6-7.46c-.27-3.39-2.77-5.61-5.88-6.61-5.8-1.86-15.3-.48-17.77,5.91a9.14,9.14,0,0,0,.42,7.78c1.93,3.34,5.68,4.44,9.12,5.58,5.1,1.71,13.56,3.56,10.88,10.89-1.2,3.26-4.8,4.11-8,3.88a7.3,7.3,0,0,1-5.88-3.38c-.85-1.57-.75-5,1.48-5.12,3-.19,4.46-3.87.62-3.63Z" transform="translate(-140.91 -115.74)"/><path class="cls-2" d="M180.38,235.55c-1,2.32-2.41,5-5.21,5.16a4.74,4.74,0,0,1-2.68-.4,3.38,3.38,0,0,1-.76-2.39V204.68c0-1.78-2.45-1.48-3.55-1l-5.34,2.25c-.87.36-1.86,1.32-1.24,2.29s2.52.57,3.33.22l1.8-.75v28.56c0,.89,0,2.64-.75,3.28-.59.5-2.39.59-3.14.81-1.7.49-3.27,2.92-.51,3.11L179,244.52c1,.06,2.84-.36,3.26-1.45q1.38-3.57,2.77-7.16C186,233.41,181.13,233.79,180.38,235.55Z" transform="translate(-140.91 -115.74)"/><path class="cls-2" d="M338.37,228.68c-.21-1.88-4.92-.78-4.7,1.26.38,3.36-2,7.46-5.77,5.11a7.38,7.38,0,0,1-2.93-4.57l.17-.09,11.06-6.53c.29-.17.86-.73.85-1.13-.18-5.95-4.3-10.8-10.65-9.33-5.94,1.37-7.17,7.27-6.89,12.6.31,5.86,2.09,12.35,9,12.8A9.06,9.06,0,0,0,338.37,228.68Zm-11.76-12.32c3.4-1.52,5.34,3.57,5.66,6.24l-7.87,4.65c-.06-.58-.1-1.13-.14-1.65C324.1,223.29,323.8,217.61,326.61,216.36Z" transform="translate(-140.91 -115.74)"/><path class="cls-2" d="M284.11,245.3c-5.65.23-8.72-5.7-9.16-10.56-.37-4.19-.05-8.52,0-12.72,0-2.87.15-5.72-2.77-7.26s-6-.77-8.68.86V215c0-1.69-2.32-1.39-3.36-1l-3.16,1.32c-2.9,1.21-.45,3.22,1.79,2.45q0,9.36,0,18.71c-.08,1-.37,1.85-1.57,2-.91.1-2.25.57-2.55,1.55s.57,1.51,1.43,1.51h8.49a4.45,4.45,0,0,0,2.32-.58,2,2,0,0,0,.76-.79,1,1,0,0,0-.07-1.12,1.63,1.63,0,0,0-1.29-.58c-.73,0-1.53.06-2.05-.52-.69-.75-.68-2.18-.7-3.12a1,1,0,0,0,0-.24V220.05c1.6-1.88,4.78-4.66,6.38-1.49a6.85,6.85,0,0,1,.35,3c0,3.54,0,7.08,0,10.61,0,4.24.41,8.48,3.18,11.9a12.07,12.07,0,0,0,10.24,4.29C286.1,248.25,287.33,245.17,284.11,245.3Z" transform="translate(-140.91 -115.74)"/><path class="cls-2" d="M236.44,237.57l-1.71.71V222.09c0-2.51.4-5.17-1.92-6.85-3.3-2.39-7.32-1.21-10.44,1.06a4.69,4.69,0,0,0-1.84-1.57c-2.86-1.49-6-.74-8.68.91V215c0-1.67-2.32-1.42-3.36-1l-3.7,1.64c-2.95,1.31-.3,3.39,2,2.38l.35-.15v20.54c-.06,1.32-.31,2.37-1.83,2.55-.9.1-2.28.57-2.55,1.55s.55,1.51,1.43,1.51h8.93a4.2,4.2,0,0,0,2.3-.56,2,2,0,0,0,.78-.81,1,1,0,0,0-.07-1.11,1.62,1.62,0,0,0-1.29-.59,3.37,3.37,0,0,1-2.22-.58c-.71-.71-.71-2.14-.73-3.06,0,0,0-.08,0-.12V220.12c1.31-1.65,3.56-4,5.58-2.57,1.31.94,1.1,2.25,1.11,3.63s.07,2.87.11,4.3l.3,12.9c0,1.87,2.85,1.38,3.88.67l2.92-2c2.22-1.54-.3-2.62-2.15-2.17-.11-4.52-.23-9-.31-13.55l0-1.12c1.42-1.77,3.9-4.3,5.93-2.33,1,.94.81,2.13.81,3.37v19.86c0,1.69,2.31,1.39,3.35,1l5.07-2.07C241.42,238.73,238.73,236.64,236.44,237.57Z" transform="translate(-140.91 -115.74)"/><path class="cls-2" d="M295.49,234.8c0-5,.14-10,0-14.92-.33-10.46-20.07-7.71-15.85,2.43.78,1.88,5.43.51,4.69-1.26s-1.14-4,1.11-4.66c2.08-.64,4.62,1.07,5.19,3.1a8.18,8.18,0,0,1,.23,1.94c-4.88,2-12.44,4.29-13.61,9.5-1,4.36,1,8.36,5.75,8.61a10.43,10.43,0,0,0,7.77-3v1.71c0,1.9,2.87,1.33,3.87.66l2.93-1.93C299.78,235.5,297.35,234.42,295.49,234.8Zm-12.64,1c-1.33-1.18-1.28-3.39-1-5,.37-1.88,1.4-2.59,3-3.38,1.92-.92,3.87-1.79,5.82-2.65v6.4C289,233.52,285.75,238.35,282.85,235.77Z" transform="translate(-140.91 -115.74)"/><path class="cls-2" d="M316.8,235.64V207c0-1.73-2.31-1.34-3.35-1l-4.36,1.56c-.85.31-1.75,1.28-1.18,2.18s2.36.49,3.15.21l1-.37v6.49a9.31,9.31,0,0,0-5.43-.57c-5.6,1-7.75,5.69-8.16,10.9-.35,4.43.48,10.12,4.82,12.44a8.77,8.77,0,0,0,8.78-.49v.74c0,1.91,2.87,1.33,3.87.67l3.1-2C321.34,236.25,318.67,235.16,316.8,235.64Zm-4.77-2c-1.86,3.25-5,4.14-7.21.72-1.59-2.43-1.84-5.52-1.62-8.33.17-2.25.53-6.37,3-7.37,3.38-1.34,5.42,2.63,5.82,5.26,0,0,0,0,0,0,0,3.2,0,6.41,0,9.61Z" transform="translate(-140.91 -115.74)"/><path class="cls-2" d="M217.49,193.6l-2.57,2-5.55-43.08q-.44-3.3-.85-6.6c-.33-2.54-5.08-.47-5.61,1q-5.57,15.87-11.15,31.72c-6.3-1.67-11.29-3.91-9.92-6.65s-4.29-2.35-5.27-.4c-2.8,5.56,5,9.05,13.74,11.19q-2.85,8.1-5.69,16.19l-.73,2.08a8.44,8.44,0,0,1-5.2,5.5c-2.33,1.07-1.81,3.62.87,3.23l12.1-1.74L192,208a4.23,4.23,0,0,0,2.06-.83,1.74,1.74,0,0,0,.77-1.21,1.22,1.22,0,0,0-.74-1.26,2.3,2.3,0,0,0-.92-.28,3.37,3.37,0,0,0-.84,0h-.05c-1,0-2.45.11-3-.36-.86-.75-.13-2.37.16-3.28l6-16.92c5,.93,9.7,1.47,12.5,1.76.36,2.78.71,5.56,1.07,8.33q.44,3.3.85,6.61c.24,1.84,3.75,1,4.59.32l6.71-5.12C224.09,193.44,219.48,192.08,217.49,193.6Zm-20.71-13.8,7.56-21.51,3,23.31C204.47,181.2,200.62,180.6,196.78,179.8Z" transform="translate(-140.91 -115.74)"/><path class="cls-2" d="M209.28,285.31c-3,3.7-3.41-3.65-3.41-5.3V262.42l2.85-.48c.91-.15,2.51-.62,2.62-1.76s-1.27-1.43-2.1-1.29l-3.37.56v-6.77c0-2.24-4.72-1.38-4.72.46v7.11l-3,.5c-.91.15-2.51.61-2.62,1.75s1.27,1.44,2.1,1.3l3.47-.59v12.22c0,2.7-.09,5.42,0,8.13.19,6.52,8.3,7.35,12,2.85C215,284.18,210.47,283.85,209.28,285.31Z" transform="translate(-140.91 -115.74)"/><path class="cls-2" d="M182.42,272.21c-7-1-11.7,5.57-8.2,11.83,3.4,6.1,11.31,7.18,17.35,4.78a11.38,11.38,0,0,0,6-15.51c-1.77-3.74-5.78-5.89-9.32-7.68-3.27-1.64-6.46-2.85-7.37-6.78-.84-3.6.48-8.27,4.69-8.81a7.28,7.28,0,0,1,5.89,1.81c1.22,1.28,1.89,3.94-.16,4.8-3.16,1.32-.33,3.52,2.09,2.51,6.05-2.52,4.94-9.5-.78-11.58-5.34-1.94-12.29-.52-15.51,4.44a10.79,10.79,0,0,0-.87,9.27c1.1,3.09,3.47,4.66,6.28,6.07,3.6,1.81,8.26,3.65,10.16,7.47,1.37,2.76,1.4,7.57-.78,9.95-2.57,2.8-7.51,2.43-10.36.37a8.53,8.53,0,0,1-3.46-5.26c-.36-2,0-4.82,2.5-4.44,2.21.32,5.15-2.76,1.82-3.24Z" transform="translate(-140.91 -115.74)"/><path class="cls-2" d="M228.6,278.32c.07-4.95.24-9.94,0-14.86-.65-11.83-21.26-5.79-15.68,2.72,1,1.55,5.55-.1,4.33-2a2.86,2.86,0,0,1,1.52-4.29c2-.56,4.27,1.21,4.9,3a6.94,6.94,0,0,1,.3,2c-2.2,1-4.41,1.91-6.6,2.89-3,1.36-6.44,2.8-7.25,6.4-1,4.34,1.34,8.45,6,8.78a10.2,10.2,0,0,0,7.78-3v1.7c0,1.91,2.87,1.33,3.87.67l2.93-1.94C232.88,279,230.46,278,228.6,278.32Zm-12.77.72a5.18,5.18,0,0,1-1.11-4.57c.33-2.13,1.59-2.82,3.36-3.66s3.83-1.74,5.77-2.57v6.44C222,277.14,218.83,282,215.83,279Z" transform="translate(-140.91 -115.74)"/><path class="cls-2" d="M247.38,214.41c-12.06,0-13.52,22.82-1.42,23.63h.6C258.51,237.23,259.57,214.37,247.38,214.41Zm0,20.52c-3.68-.49-5-5.56-5-8.69,0-2.3.73-8.64,3.91-8.71C252.47,217.4,253.2,233.94,247.4,234.93Z" transform="translate(-140.91 -115.74)"/><path class="cls-2" d="M273.07,280.33l-.75.32,0-16.54c0-5.05.81-10.16,1.26-15.19.12-1.36-1.85-1.49-2.74-1.18l-4.45,1.57c-2.75,1-2.08,3.81.76,2.81l1.48-.52c-.28,2.68-.61,5.38-.82,8.07a9.69,9.69,0,0,0-6.1-.78c-5.41,1-7.82,5.47-8.33,10.61-.47,4.72.18,11.17,4.87,13.71a9.39,9.39,0,0,0,9.31-.57c0,.28,0,.57,0,.85,0,1.68,2.32,1.4,3.36,1l4.1-1.74C278,281.45,275.35,279.36,273.07,280.33ZM267.54,278c-2,3.45-5.63,4.09-7.84.51-1.69-2.75-1.86-6.31-1.56-9.43.21-2.23.75-6.1,3.2-7.07,3.36-1.34,5.79,2.37,6.28,5.13,0,3.59,0,7.19,0,10.78Z" transform="translate(-140.91 -115.74)"/><path class="cls-2" d="M253.47,284.59l-2.58.75q-.09-9.27-.28-18.55c-.08-3.31.64-7.23-2.84-9-2.87-1.48-6-.73-8.69.92v-.62c0-1.68-2.32-1.4-3.35-1l-3.15,1.35c-2.89,1.23-.47,3.23,1.77,2.46v17.51h0c0,1.46,0,3-1.61,3.18-.91.1-2.25.56-2.55,1.55s.57,1.5,1.43,1.5h8.49a4.44,4.44,0,0,0,2.32-.57,2,2,0,0,0,.75-.79,1,1,0,0,0-.07-1.12,1.63,1.63,0,0,0-1.29-.58,2.6,2.6,0,0,1-2-.52c-.67-.73-.67-2.11-.69-3V263.16c1.31-1.66,3.56-4,5.58-2.57,1.27.9,1.12,2.14,1.15,3.49.06,2.75.13,5.5.19,8.26.1,5.14.14,10.28.18,15.43,0,1.37,1.73,1.47,2.74,1.17l5.31-1.53C257.06,286.59,256.34,283.76,253.47,284.59Z" transform="translate(-140.91 -115.74)"/><path class="cls-2" d="M204.33,229.9c-.2-1.88-4.92-.78-4.69,1.26.37,3.36-2,7.46-5.77,5.11-2.53-1.57-3.24-5.1-3.53-8l.19,0a72.9,72.9,0,0,0,10.5-2.61c.61-.2,2-.77,2-1.64-.19-5.95-4.3-10.8-10.66-9.34-5.39,1.25-6.89,6.23-6.91,11.13a2.86,2.86,0,0,1-2.23-1.29c-.89-1.59-5.43,0-4.33,2s4,2.52,6.71,2.4c.54,5.39,2.58,10.8,8.85,11.21A9,9,0,0,0,204.33,229.9Zm-11.75-12.32c3.24-1.45,5.15,3.1,5.6,5.84-1.81.54-3.66,1-5.5,1.4-.62.13-1.52.36-2.53.57C190.05,222.71,190.24,218.62,192.58,217.58Z" transform="translate(-140.91 -115.74)"/><path class="cls-2" d="M331.48,262.61c.13-1.76-.92-3.71-2-4.18s-2.93-.86-3.38-1.48l0,0a19.41,19.41,0,0,0-10.59-6.82,26.66,26.66,0,0,0-24.93,7.12,20.42,20.42,0,0,0-6,14c-.12,1.24-2.72,3.25-2.73,5a4.18,4.18,0,0,0,1.63,3.73c.71.56,2,.47,3,.67a4.71,4.71,0,0,1,2,1.29l0-.07c5.94,7,16.68,8.1,25.07,5.18a.78.78,0,0,0,.21-.09l.26-.07c7.94-3.07,15.05-10.08,15.53-19a17.57,17.57,0,0,0,0-2.3A5,5,0,0,0,331.48,262.61ZM290,265.41c-.23-1.11,1.77-1.6,2.06-.49S290.28,266.54,290,265.41Zm.85-3.84c-.33-1.65,2.44-2.29,2.89-.66C294,262.55,291.23,263.24,290.89,261.57Zm3.93,2.6c-.41-2,2.9-2.75,3.44-.77C298.56,265.4,295.23,266.2,294.82,264.17Zm1.09-5.59c-.46-2.18,3.13-3,3.71-.84C300,259.92,296.36,260.79,295.91,258.58Zm4.41,1.4c-.3-1.47,2.22-2.06,2.61-.6C303.15,260.85,300.62,261.48,300.32,260Zm1.4-4.82c-.52-2.55,3.6-3.47,4.27-.95C306.38,256.75,302.25,257.73,301.72,255.16Zm6.87-.15c-.41-2,2.92-2.77,3.44-.78C312.34,256.23,309,257,308.59,255Zm7.62,24.76c-1.4.56-3-.72-1.2-1.46a12,12,0,0,0,7.44-10.47c.09-1.14,3-1.62,2.89-.28A14.43,14.43,0,0,1,316.21,279.77Z" transform="translate(-140.91 -115.74)"/><path class="cls-2" d="M185,316.82V303.48h8.43v2.38h-5.69v3.49h5v2.31h-5v5.16Z" transform="translate(-140.91 -115.74)"/><path class="cls-2" d="M194.49,311.54c0-3.55,2-5.43,5-5.43s5,1.88,5,5.43-2,5.55-5,5.55S194.49,315.1,194.49,311.54Zm2.67,0c0,2.31.75,3.42,2.29,3.42s2.31-1.11,2.31-3.42-.77-3.29-2.31-3.29S197.16,309.32,197.16,311.57Z" transform="translate(-140.91 -115.74)"/><path class="cls-2" d="M212.63,314.9c-.41,1.45-1.41,2.19-3.24,2.19s-3.15-.95-3.15-3.39v-7.34h2.7V313c0,1.33.45,2,1.58,2s2.06-.89,2.06-2.9v-5.8h2.7v10.46H213Z" transform="translate(-140.91 -115.74)"/><path class="cls-2" d="M220.38,308.37a3.25,3.25,0,0,1,3.35-2.26,2.94,2.94,0,0,1,3.1,3.28v7.43h-2.69v-6.48c0-1.2-.41-1.94-1.54-1.94s-2.11.59-2.11,2.58v5.84h-2.7V306.36h2.27Z" transform="translate(-140.91 -115.74)"/><path class="cls-2" d="M236.16,301.69h2.7v15.13H236.5l-.32-1.81c-.45,1.58-1.74,2.08-3.28,2.08-2.29,0-4.17-1.81-4.17-5.3s1.68-5.68,4.67-5.68a2.77,2.77,0,0,1,2.76,1.63Zm0,8.77a2.16,2.16,0,0,0-2.24-2.34c-1.31,0-2.49.93-2.49,3.56,0,2.15,1,3.33,2.47,3.33a2.32,2.32,0,0,0,2.26-2.47Z" transform="translate(-140.91 -115.74)"/><path class="cls-2" d="M249.38,313.88c0,.74.31,1,.77,1a1.47,1.47,0,0,0,.63-.16v2a3,3,0,0,1-1.52.31,2.12,2.12,0,0,1-2.38-1.65,2.92,2.92,0,0,1-3,1.74,2.78,2.78,0,0,1-3.11-2.85c0-2.33,1.86-3.62,6-3.4v-1.11c0-1-.5-1.56-1.43-1.56s-1.45.59-1.51,1.59l-2.65-.48c.15-2.22,2.06-3.17,4.3-3.17,2.4,0,4,1,4,3.37Zm-2.7-1.52c-2.36-.07-3.26.52-3.26,1.58a1.18,1.18,0,0,0,1.34,1.21,1.73,1.73,0,0,0,1.92-1.57Z" transform="translate(-140.91 -115.74)"/><path class="cls-2" d="M258.79,316.44a6.45,6.45,0,0,1-3,.65c-2,0-3.3-1-3.3-3.24v-5.39H251v-2.1h1.54v-2.22l2.7-.32v2.54h3.1v2.1h-3.13v4.81c0,1.13.48,1.51,1.32,1.51a3.1,3.1,0,0,0,1.81-.61Z" transform="translate(-140.91 -115.74)"/><path class="cls-2" d="M261.6,301.49a1.61,1.61,0,1,1,0,3.21,1.61,1.61,0,1,1,0-3.21Zm1.36,4.87v10.46h-2.7V306.36Z" transform="translate(-140.91 -115.74)"/><path class="cls-2" d="M264.85,311.54c0-3.55,2-5.43,5-5.43s5,1.88,5,5.43-2,5.55-5,5.55S264.85,315.1,264.85,311.54Zm2.67,0c0,2.31.75,3.42,2.29,3.42s2.31-1.11,2.31-3.42-.77-3.29-2.31-3.29S267.52,309.32,267.52,311.57Z" transform="translate(-140.91 -115.74)"/><path class="cls-2" d="M279.31,308.37a3.26,3.26,0,0,1,3.35-2.26,2.94,2.94,0,0,1,3.11,3.28v7.43h-2.7v-6.48c0-1.2-.41-1.94-1.54-1.94s-2.11.59-2.11,2.58v5.84h-2.69V306.36H279Z" transform="translate(-140.91 -115.74)"/><path class="cls-2" d="M292,308.46v-2.1h1.54v-.91c0-2.92,1.84-3.94,4-3.94a6,6,0,0,1,2.42.48l-.43,2.26a3.36,3.36,0,0,0-1.74-.45c-.93,0-1.54.41-1.54,1.74v.82h2.67v2.1h-2.67v8.36h-2.7v-8.36Z" transform="translate(-140.91 -115.74)"/><path class="cls-2" d="M299.46,311.54c0-3.55,2-5.43,5-5.43s5,1.88,5,5.43-2,5.55-5,5.55S299.46,315.1,299.46,311.54Zm2.68,0c0,2.31.74,3.42,2.28,3.42s2.31-1.11,2.31-3.42-.77-3.29-2.31-3.29S302.14,309.32,302.14,311.57Z" transform="translate(-140.91 -115.74)"/><path class="cls-2" d="M317.89,309.12a4,4,0,0,0-1.09-.13,2.64,2.64,0,0,0-2.76,2.87v5h-2.7V306.36h2.33l.32,2.85a3.64,3.64,0,0,1,4.17-3.08Z" transform="translate(-140.91 -115.74)"/><path class="cls-2" d="M178.36,335.27c-1.22,2-2.76,3-5.61,3-3.58,0-6-2.49-6-6.93s2.47-6.95,6.43-6.95a5.29,5.29,0,0,1,5.28,3.33L175.8,329a2.73,2.73,0,0,0-2.76-2.2c-2.17,0-3.49,1.75-3.49,4.6s1.16,4.46,3.47,4.46a3.2,3.2,0,0,0,3.06-2Z" transform="translate(-140.91 -115.74)"/><path class="cls-2" d="M182.72,329.49a3.13,3.13,0,0,1,3.24-2.24,2.94,2.94,0,0,1,3.1,3.28V338h-2.69v-6.48c0-1.2-.41-1.94-1.54-1.94s-2.11.56-2.11,2.58V338H180V322.83h2.7Z" transform="translate(-140.91 -115.74)"/><path class="cls-2" d="M192.84,322.63a1.61,1.61,0,1,1,0,3.22,1.61,1.61,0,1,1,0-3.22Zm1.36,4.87V338h-2.7V327.5Z" transform="translate(-140.91 -115.74)"/><path class="cls-2" d="M200.9,337.92a6,6,0,0,1-1.59.25,2.43,2.43,0,0,1-2.74-2.54v-12.8h2.69v12.05a.86.86,0,0,0,1,.93,1.86,1.86,0,0,0,.79-.16Z" transform="translate(-140.91 -115.74)"/><path class="cls-2" d="M209.52,322.83h2.69V338h-2.35l-.32-1.81c-.45,1.59-1.74,2.08-3.28,2.08-2.29,0-4.17-1.81-4.17-5.3s1.68-5.68,4.66-5.68a2.79,2.79,0,0,1,2.77,1.63Zm0,8.77a2.16,2.16,0,0,0-2.24-2.34c-1.32,0-2.49.93-2.49,3.56,0,2.15.95,3.33,2.47,3.33a2.32,2.32,0,0,0,2.26-2.47Z" transform="translate(-140.91 -115.74)"/><path class="cls-2" d="M217.43,329.49a3.13,3.13,0,0,1,3.24-2.24,2.94,2.94,0,0,1,3.1,3.28V338h-2.7v-6.48c0-1.2-.4-1.94-1.54-1.94s-2.1.56-2.1,2.58V338h-2.7V322.83h2.7Z" transform="translate(-140.91 -115.74)"/><path class="cls-2" d="M225.63,332.68c0-3.55,2-5.43,5-5.43s5,1.88,5,5.43-2,5.55-5,5.55S225.63,336.24,225.63,332.68Zm2.68,0c0,2.31.74,3.42,2.28,3.42s2.31-1.11,2.31-3.42-.77-3.29-2.31-3.29S228.31,330.47,228.31,332.71Z" transform="translate(-140.91 -115.74)"/><path class="cls-2" d="M236.94,332.68c0-3.55,2-5.43,5-5.43s5,1.88,5,5.43-2,5.55-5,5.55S236.94,336.24,236.94,332.68Zm2.67,0c0,2.31.75,3.42,2.29,3.42s2.31-1.11,2.31-3.42-.77-3.29-2.31-3.29S239.61,330.47,239.61,332.71Z" transform="translate(-140.91 -115.74)"/><path class="cls-2" d="M255.68,322.83h2.69V338H256l-.32-1.81c-.45,1.59-1.74,2.08-3.28,2.08-2.29,0-4.17-1.81-4.17-5.3s1.68-5.68,4.66-5.68a2.79,2.79,0,0,1,2.77,1.63Zm0,8.77a2.16,2.16,0,0,0-2.24-2.34c-1.32,0-2.49.93-2.49,3.56,0,2.15.95,3.33,2.46,3.33a2.32,2.32,0,0,0,2.27-2.47Z" transform="translate(-140.91 -115.74)"/><path class="cls-2" d="M277,335.27c-1.22,2-2.76,3-5.61,3-3.58,0-6-2.49-6-6.93s2.47-6.95,6.43-6.95a5.29,5.29,0,0,1,5.28,3.33L274.45,329a2.73,2.73,0,0,0-2.76-2.2c-2.17,0-3.49,1.75-3.49,4.6s1.16,4.46,3.47,4.46a3.2,3.2,0,0,0,3.06-2Z" transform="translate(-140.91 -115.74)"/><path class="cls-2" d="M286.9,335c0,.75.32,1,.77,1a1.43,1.43,0,0,0,.63-.16v2a3,3,0,0,1-1.51.31,2.1,2.1,0,0,1-2.38-1.65,2.94,2.94,0,0,1-3.06,1.74,2.78,2.78,0,0,1-3.1-2.85c0-2.33,1.85-3.62,5.95-3.4v-1.11c0-1-.49-1.56-1.42-1.56s-1.45.59-1.52,1.59l-2.65-.48c.16-2.22,2.06-3.17,4.3-3.17,2.4,0,4,1,4,3.37Zm-2.7-1.52c-2.35-.07-3.26.52-3.26,1.59a1.19,1.19,0,0,0,1.34,1.2,1.73,1.73,0,0,0,1.92-1.57Z" transform="translate(-140.91 -115.74)"/><path class="cls-2" d="M292.46,329.51a3.27,3.27,0,0,1,3.36-2.26,2.94,2.94,0,0,1,3.1,3.28V338h-2.7v-6.48c0-1.2-.4-1.94-1.54-1.94s-2.1.59-2.1,2.58V338h-2.7V327.5h2.27Z" transform="translate(-140.91 -115.74)"/><path class="cls-2" d="M310,335.2c-.38,2.11-2.15,3-4.3,3-2.94,0-4.91-2-4.91-5.45s2-5.53,5-5.53c2.4,0,3.94,1.29,4.07,3.37l-2.3.62c-.19-1.18-.75-1.84-1.82-1.84-1.51,0-2.31,1.31-2.31,3.35s.89,3.38,2.36,3.38a1.77,1.77,0,0,0,1.86-1.63Z" transform="translate(-140.91 -115.74)"/><path class="cls-2" d="M318.11,334.63l2.31.75c-.5,2.11-2.35,2.85-4.39,2.85-2.92,0-4.92-1.94-4.92-5.36,0-3.58,1.93-5.62,5-5.62,2.87,0,4.32,1.93,4.32,4.57a5.2,5.2,0,0,1-.16,1.41h-6.54c.07,1.74.88,2.92,2.4,2.92A1.88,1.88,0,0,0,318.11,334.63Zm-.29-3a2.62,2.62,0,0,0,0-.38,1.79,1.79,0,0,0-1.86-1.95c-1.24,0-2,.9-2.19,2.33Z" transform="translate(-140.91 -115.74)"/><path class="cls-2" d="M329,330.26a4,4,0,0,0-1.09-.13,2.64,2.64,0,0,0-2.76,2.87v5h-2.7V327.5h2.34l.31,2.85a3.65,3.65,0,0,1,4.17-3.08Z" transform="translate(-140.91 -115.74)"/><path class="cls-2" d="M331,327.56v-2.67h-1v-.8h2.92v.8h-1v2.67Zm5.64,0v-2h-.07l-.6,1.25h-.65l-.6-1.25h-.07v2h-1v-3.47h1.1l.84,1.61h0l.84-1.61h1.09v3.47Z" transform="translate(-140.91 -115.74)"/></svg>
