<svg id="Layer_1" data-name="Layer 1" xmlns="http://www.w3.org/2000/svg" viewBox="0 0 352.31 97.2"><defs><style>.cls-1{fill:#003595;}</style></defs><path class="cls-1" d="M337,251.14c-12.48-1.83-20.71,9.87-14.52,21,6,10.8,20,12.72,30.73,8.47a20.17,20.17,0,0,0,10.69-27.47c-3.14-6.63-10.26-10.44-16.52-13.6-5.79-2.92-11.44-5.05-13.06-12-1.48-6.38.87-14.66,8.32-15.62,3.47-.44,8,.59,10.44,3.2,2.14,2.28,3.33,7-.3,8.5-5.59,2.34-.58,6.25,3.7,4.46,10.71-4.47,8.76-16.83-1.38-20.51-9.46-3.43-21.76-.92-27.46,7.87a19.07,19.07,0,0,0-1.55,16.4c2,5.48,6.15,8.27,11.12,10.77,6.39,3.2,14.64,6.45,18,13.22,2.43,4.89,2.49,13.4-1.38,17.62-4.55,5-13.29,4.31-18.35.66a15.07,15.07,0,0,1-6.12-9.32c-.64-3.54-.09-8.53,4.43-7.87,3.91.58,9.11-4.87,3.21-5.74Z" transform="translate(-73.49 -201.4)"/><path class="cls-1" d="M303.66,263.08c-1.76,4.11-4.26,8.92-9.23,9.13-1.58,0-3.76.11-4.75-.7s-1.26-2.51-1.34-4.24V208.4c0-3.15-4.34-2.61-6.28-1.79l-9.46,4c-1.55.65-3.3,2.35-2.2,4.07s4.45,1,5.9.39l3.18-1.33v50.58c-.09,1.57,0,4.68-1.32,5.81-1.05.89-4.23,1-5.57,1.43-3,.87-5.78,5.19-.9,5.5L301.3,279c1.78.12,5-.63,5.75-2.56L312,263.71C313.67,259.29,305,260,303.66,263.08Z" transform="translate(-73.49 -201.4)"/><path class="cls-1" d="M255.55,275l-3.07,2.34q-4.54-35.22-9.08-70.45c-.52-4-8-.74-8.82,1.61L218.8,253.41c-8.62-2.34-15.34-5.4-13.52-9.09,2.05-4.17-6.79-3.7-8.31-.63-4,8.12,7,13.16,19.54,16.24q-4,11.38-8,22.77c-.37,1-.73,2.07-1.09,3.1-1.61,4.17-3.21,5.83-7.2,7.66-3.67,1.68-2.86,5.69,1.36,5.08l17.29-2.49.45-.08a7.18,7.18,0,0,0,2.87-1l.15-.1.15-.1a2.83,2.83,0,0,0,1.29-2,2,2,0,0,0-1.36-2.08,3.68,3.68,0,0,0-1.24-.34,5,5,0,0,0-1.34,0l-.12,0c-1.38.06-3.22.13-3.93-.47-1.12-1-.07-3.33.31-4.48q4.18-11.9,8.36-23.79c6.81,1.24,13.24,2,17.2,2.39l2.74,21.2c.37,2.9,5.88,1.52,7.22.5l9.58-7.31C265.94,274.79,258.68,272.64,255.55,275ZM226.7,255.26q5.06-14.4,10.12-28.81,2,15.63,4,31.24C236.9,257.13,231.8,256.32,226.7,255.26Z" transform="translate(-73.49 -201.4)"/><path class="cls-1" d="M420.67,201.59l-37.33,7c-4.29.8-4.93,6.37.22,5.49.43-.07.83-.15,1.2-.23h0l2-.37c1,0,1.5.5,1.52,2.69Q388.12,229.1,388,242c-1.21.62-2.41,1.27-3.59,2-3.13,1.82-7.43,4.3-8.84,7.87-1.74,4.38,7,3.81,8.3.63.45-1.13,1.95-2.52,4.07-3.94q-.17,16-.32,32c-.65,3.43-2.23,4.1-6.38,3.79-3.64-.28-8.69,4.89-3,5.43l22.9,2.18c.52.07,1.06.12,1.6.16,2.53.24,5.69-2.18,5.56-3.88,0-.8-.7-1.43-2.52-1.56l-1.08-.1c-3.11-.38-5.68-1.47-7.13-3.66a6.86,6.86,0,0,1-1-3.9l.34-35.15c8.21-3.47,17.4-5.39,18.22-1.11.69,3.57,9.51,1.37,8.79-2.36-1.83-9.48-18-5.1-23.72-3.26-1.08.35-2.16.72-3.23,1.11.08-7.64.27-26.64.27-26.64s9.53-1.84,12.57-2.41l.74-.06c4.78-.34,5.87,6.21,6.53,9.68s8.82,1.47,8.82-1.61V203.8C425.8,201.09,422.56,201.24,420.67,201.59Z" transform="translate(-73.49 -201.4)"/><path class="cls-1" d="M174.38,228.11c-2.31-1-6.22-1.81-7.16-3.13l0,.08a41,41,0,0,0-22.44-14.44c-18.5-4.66-39.46,1.47-52.79,15.07-7.87,8-12.72,18.8-12.73,29.62-.27,2.63-5.77,6.87-5.8,10.61,0,4.36,1.6,6.45,3.47,7.91,1.51,1.17,4.31,1,6.44,1.4,1.64.33,3.15,1.79,4.21,2.75l-.06-.15c12.57,14.89,35.32,17.15,53.1,11l.45-.19a5.6,5.6,0,0,0,.54-.17c16.82-6.49,31.9-21.34,32.89-40.22a34.14,34.14,0,0,0-.08-4.86c1.31-1.06,4-3.59,4.21-6.4C178.93,233.25,176.7,229.12,174.38,228.11Zm-83.5,14.78c-.49-2.35,3.73-3.38,4.35-1C95.6,244.22,91.38,245.28,90.88,242.89Zm1.8-8.14c-.71-3.48,5.16-4.84,6.11-1.39C99.31,236.85,93.39,238.31,92.68,234.75Zm8.31,5.52c-.87-4.26,6.15-5.83,7.29-1.63C108.92,242.88,101.86,244.57,101,240.27Zm2.3-11.84c-1-4.63,6.65-6.35,7.87-1.77C111.87,231.27,104.27,233.11,103.29,228.43Zm9.36,3c-.63-3.12,4.69-4.36,5.52-1.28C118.65,233.24,113.29,234.56,112.65,231.4Zm3-10.22c-1.11-5.39,7.62-7.34,9-2C125.48,224.55,116.74,226.63,115.62,221.18Zm14.55-.32c-.87-4.24,6.18-5.86,7.28-1.64C138.11,223.46,131.05,225.16,130.17,220.86Zm16.14,52.45c-3,1.2-6.44-1.51-2.55-3.08,9.25-3.72,15-12.33,15.77-22.18.18-2.42,6.32-3.43,6.11-.6A30.53,30.53,0,0,1,146.31,273.31Z" transform="translate(-73.49 -201.4)"/></svg>
