<?xml version="1.0" encoding="UTF-8"?>
<svg width="24px" height="24px" viewBox="0 0 24 24" version="1.1" xmlns="http://www.w3.org/2000/svg" xmlns:xlink="http://www.w3.org/1999/xlink">
    <!-- Generator: Sketch 53.2 (72643) - https://sketchapp.com -->
    <title>icons/check</title>
    <desc>Created with Sketch.</desc>
    <defs>
        <path d="M12,0 C5.37321429,0 0,5.37321429 0,12 C0,18.6267857 5.37321429,24 12,24 C18.6267857,24 24,18.6267857 24,12 C24,5.37321429 18.6267857,0 12,0 Z M18.1553571,7.9875 L10.7035714,17.55 C10.6446429,17.6089286 10.5482143,17.7375 10.4303571,17.7375 C10.3071429,17.7375 10.2267857,17.6517857 10.1571429,17.5821429 C10.0875,17.5125 5.93035714,13.5160714 5.93035714,13.5160714 L5.85,13.4357143 C5.81785714,13.3875 5.79107143,13.3285714 5.79107143,13.2642857 C5.79107143,13.2 5.81785714,13.1410714 5.85,13.0928571 C5.87142857,13.0714286 5.8875,13.0553571 5.90892857,13.0285714 C6.32142857,12.5946429 7.15714286,11.7160714 7.21071429,11.6625 C7.28035714,11.5928571 7.33928571,11.5017857 7.46785714,11.5017857 C7.60178571,11.5017857 7.6875,11.6142857 7.75178571,11.6785714 C7.81607143,11.7428571 10.1625,13.9982143 10.1625,13.9982143 L16.125,6.3375 C16.1785714,6.29464286 16.2428571,6.2625 16.3125,6.2625 C16.3821429,6.2625 16.4464286,6.28928571 16.5,6.33214286 L18.1392857,7.62321429 C18.1821429,7.67678571 18.2089286,7.74107143 18.2089286,7.81071429 C18.2142857,7.88035714 18.1875,7.93928571 18.1553571,7.9875 Z" id="path-1"></path>
    </defs>
    <g id="Guidelines" stroke="none" stroke-width="1" fill="none" fill-rule="evenodd">
        <g id="icons-badges-variations" transform="translate(-405.000000, -239.000000)">
            <g id="icons/check" transform="translate(405.000000, 239.000000)">
                <g id="color/gray/70-4A4A4A">
                    <mask id="mask-2" fill="white">
                        <use xlink:href="#path-1"></use>
                    </mask>
                    <use id="Mask" fill="#FDFDFD" fill-rule="nonzero" xlink:href="#path-1"></use>
                    <g id="color/black-tint/0-000000" mask="url(#mask-2)" fill="#000000">
                        <rect id="gray-70-4A4A4A" x="0" y="0" width="24" height="24"></rect>
                    </g>
                </g>
            </g>
        </g>
    </g>
</svg>
