<svg width="429" height="264" viewBox="0 0 429 264" fill="none" xmlns="http://www.w3.org/2000/svg">
<g clip-path="url(#clip0_1598_30253)">
<path opacity="0.1" d="M429 169.561C429.007 176.714 428.142 183.841 426.425 190.784C425.847 193.123 425.175 195.414 424.41 197.656C423.475 200.424 422.39 203.139 421.162 205.79C420.542 207.131 419.888 208.445 419.198 209.733C419.21 217.068 417.7 224.325 414.766 231.047C409.461 243.107 400.001 252.858 388.111 258.523C380.677 262.072 372.553 263.938 364.316 263.989H81.4384C68.8526 264.016 56.4842 260.708 45.5907 254.402L45.4231 254.307C43.8715 253.398 42.3587 252.436 40.8848 251.421C37.5685 249.129 34.4528 246.559 31.5714 243.739C27.6713 239.926 24.2347 235.666 21.3328 231.047C14.5173 220.22 10.9067 207.682 10.9194 194.887C4.0172 182.771 -0.00756836 168.256 -0.00756836 152.66C-0.00756836 132.982 6.38835 115.031 16.8965 101.443C19.0872 98.6038 21.4869 95.9326 24.0755 93.4514C26.6296 90.9961 29.3748 88.7479 32.2853 86.7281C34.6138 85.1104 37.0474 83.6496 39.5699 82.3553C40.6225 81.8196 41.6788 81.3131 42.7533 80.843C43.6967 80.4239 44.651 80.034 45.6162 79.666C46.7744 79.2263 47.9473 78.8218 49.1347 78.4525C50.3221 78.0832 51.4937 77.7601 52.6495 77.4832C54.3492 77.0678 56.0781 76.7301 57.8362 76.4701C59.2931 76.2551 60.75 76.1057 62.2069 75.9928C63.3652 75.9053 64.5344 75.858 65.7109 75.8434H66.3483C67.6449 75.8434 68.9343 75.8944 70.2128 75.9818C70.3475 75.7122 70.4932 75.4389 70.628 75.1729C71.1379 74.1999 71.6661 73.2306 72.1978 72.2831C72.1966 72.2747 72.1966 72.2661 72.1978 72.2576C72.2889 72.09 72.38 71.926 72.4747 71.7657C72.9044 70.9895 73.3525 70.2206 73.8114 69.459C74.0226 69.0946 74.2303 68.7521 74.4452 68.4095C74.4906 68.3244 74.5405 68.2417 74.5945 68.1617C74.813 67.7973 75.0352 67.4329 75.261 67.0685C76.3853 65.2708 77.5545 63.5046 78.7686 61.7701L79.0782 61.3255C79.2676 61.0558 79.4424 60.7935 79.6537 60.5238C80.1563 59.8205 80.6735 59.1136 81.1944 58.4212C81.5586 57.9256 81.9228 57.4337 82.3162 56.9636C83.2632 55.7489 84.2345 54.5342 85.2301 53.3195C86.2256 52.1049 87.2601 50.906 88.3333 49.7229C88.479 49.5589 88.6247 49.3986 88.7777 49.2382L90.333 47.5401C90.4094 47.4599 90.475 47.387 90.5479 47.3142C90.7336 47.1137 90.9121 46.9133 91.1124 46.7202C91.9465 45.8347 92.8025 44.9674 93.662 44.1038C98.0367 39.7446 102.697 35.6821 107.612 31.9436C107.805 31.7905 108.002 31.6448 108.195 31.499C109.12 30.803 110.06 30.1143 110.999 29.4365C116.168 25.7267 121.571 22.355 127.175 19.3425C127.561 19.1202 127.955 18.9125 128.352 18.7084C133.375 16.0494 138.542 13.6699 143.828 11.5807C146.709 10.4401 149.655 9.36874 152.62 8.38849C154.594 7.73985 156.576 7.12401 158.583 6.54461C161.72 5.64088 164.879 4.83069 168.06 4.11403C177.432 2.01027 186.965 0.710699 196.558 0.229478C199.472 0.081287 202.418 0.00476308 205.398 -9.56445e-05C219.774 -0.0191372 234.094 1.79316 248.013 5.39309C248.157 5.61067 248.354 5.78805 248.585 5.90853C248.816 6.02902 249.074 6.08865 249.335 6.08181H250.559C251.091 6.22757 251.619 6.37333 252.15 6.52638C255.12 7.38152 258.047 8.31561 260.932 9.32865L261.661 9.59103C268.78 12.124 275.708 15.1686 282.389 18.7011C288.411 21.8778 294.21 25.4622 299.745 29.4292C300.597 30.0414 301.437 30.6585 302.265 31.2804C303.27 30.6366 304.293 30.0195 305.332 29.4292C309.345 27.1423 313.608 25.3242 318.036 24.0105C327.294 21.2695 337.09 20.8862 346.534 22.8954C358.645 25.4645 369.608 31.8416 378.463 40.9116C382.068 44.6226 385.277 48.6992 388.038 53.0754C388.239 53.3888 388.439 53.7058 388.632 54.0265C391.005 57.8997 393.045 61.9678 394.729 66.1867C394.791 66.3434 394.853 66.4891 394.908 66.6422C396.463 70.5927 397.717 74.6553 398.659 78.795C398.703 79.0064 398.754 79.2141 398.798 79.4255C399.679 83.4318 400.278 87.4952 400.59 91.5856C400.59 91.7314 400.59 91.8808 400.619 92.0339C400.772 94.1498 400.849 96.2877 400.852 98.4474C400.852 100.379 400.786 102.295 400.666 104.198C400.666 104.405 400.637 104.62 400.619 104.835C400.586 105.386 400.539 105.929 400.491 106.482C403.273 108.727 405.877 111.185 408.279 113.833C409.34 114.991 410.367 116.194 411.36 117.44C414.385 121.233 417.044 125.305 419.3 129.6C425.459 141.232 429 154.915 429 169.561Z" fill="#003595"/>
<path opacity="0.1" d="M387.842 257.175C387.842 259.664 379.271 261.996 364.316 264H81.4386C68.8529 264.027 56.4844 260.719 45.5909 254.412L45.4233 254.318C49.7213 252.751 57.4794 251.289 68.0385 249.97L68.512 249.912C73.247 249.333 78.5393 248.782 84.3233 248.261C84.469 248.261 84.6184 248.239 84.7641 248.221C89.3534 247.813 94.2353 247.43 99.4098 247.073C99.5737 247.073 99.734 247.044 99.8979 247.037C101.894 246.894 103.931 246.758 106.01 246.629L106.811 246.578C121.945 245.638 139.148 244.887 157.804 244.391H157.825C160.438 244.318 163.079 244.254 165.747 244.198C168.715 244.128 171.718 244.066 174.759 244.012C177.079 243.961 179.428 243.925 181.785 243.888H181.839C192.471 243.728 203.456 243.648 214.689 243.648C242.466 243.648 268.72 244.154 291.983 245.065H292.049C295.625 245.204 299.137 245.357 302.56 245.514L305.474 245.652C309.338 245.837 313.101 246.035 316.765 246.246C359.854 248.699 387.842 252.682 387.842 257.175Z" fill="#003595"/>
<g opacity="0.2">
<path d="M247.78 241.975C247.768 242.368 247.723 242.76 247.645 243.145C245.11 242.742 242.561 242.377 239.996 242.052C239.996 241.95 239.996 241.844 239.996 241.739C240.02 240.646 240.334 239.579 240.907 238.648C241.657 237.46 242.797 236.717 244.054 236.757C245.31 236.797 246.4 237.61 247.073 238.838C247.583 239.802 247.827 240.885 247.78 241.975Z" fill="#3F3D56"/>
<path d="M247.989 235.748C248.078 232.93 246.406 230.59 244.255 230.522C242.104 230.454 240.288 232.684 240.199 235.502C240.11 238.32 241.781 240.66 243.933 240.728C246.084 240.796 247.9 238.566 247.989 235.748Z" fill="#3F3D56"/>
<path d="M248.188 229.51C248.277 226.691 246.605 224.352 244.454 224.284C242.302 224.216 240.486 226.445 240.397 229.263C240.308 232.081 241.98 234.421 244.131 234.489C246.283 234.557 248.099 232.328 248.188 229.51Z" fill="#3F3D56"/>
<path d="M248.383 223.271C248.472 220.453 246.8 218.113 244.649 218.045C242.498 217.977 240.681 220.206 240.592 223.024C240.503 225.843 242.175 228.182 244.326 228.25C246.478 228.318 248.294 226.089 248.383 223.271Z" fill="#3F3D56"/>
<path d="M248.578 217.032C248.667 214.214 246.995 211.874 244.844 211.806C242.693 211.738 240.876 213.967 240.787 216.786C240.698 219.604 242.37 221.944 244.522 222.012C246.673 222.08 248.489 219.85 248.578 217.032Z" fill="#3F3D56"/>
<path d="M231.426 173.744C230.913 173.049 230.45 172.319 230.042 171.558L240.335 170.199L229.255 169.933C228.266 167.586 227.766 165.063 227.786 162.516C227.805 159.97 228.344 157.454 229.368 155.123L243.981 163.304L230.595 152.795C231.946 150.61 233.732 148.727 235.842 147.263C237.953 145.8 240.342 144.788 242.861 144.29C245.38 143.792 247.975 143.819 250.483 144.369C252.991 144.919 255.359 145.981 257.438 147.488C259.518 148.995 261.264 150.914 262.569 153.127C263.874 155.34 264.708 157.798 265.021 160.347C265.333 162.897 265.117 165.484 264.385 167.947C263.654 170.409 262.422 172.694 260.768 174.659C261.566 175.74 262.244 176.904 262.79 178.132L249.281 184.618L263.606 180.307C264.508 183.285 264.653 186.442 264.029 189.49C263.404 192.538 262.029 195.383 260.029 197.766C262.109 200.589 263.353 203.941 263.618 207.438C263.883 210.935 263.16 214.436 261.53 217.541C259.9 220.646 257.43 223.23 254.401 224.996C251.373 226.762 247.909 227.641 244.405 227.53C240.901 227.42 237.499 226.325 234.588 224.371C231.677 222.417 229.374 219.683 227.943 216.482C226.512 213.28 226.011 209.74 226.496 206.267C226.981 202.793 228.433 199.527 230.686 196.84C228.202 193.466 226.923 189.355 227.055 185.166C227.187 180.977 228.722 176.955 231.415 173.744H231.426Z" fill="#003595"/>
<path opacity="0.1" d="M264.4 186.345C264.272 190.537 262.732 194.561 260.029 197.766C262.109 200.589 263.353 203.941 263.618 207.438C263.883 210.935 263.16 214.436 261.53 217.541C259.9 220.646 257.43 223.23 254.401 224.996C251.373 226.762 247.909 227.641 244.405 227.53C240.901 227.42 237.499 226.325 234.588 224.371C231.677 222.417 229.374 219.683 227.943 216.482C226.512 213.28 226.011 209.74 226.496 206.267C226.981 202.793 228.433 199.527 230.686 196.84C228.293 193.586 264.465 184.25 264.4 186.345Z" fill="black"/>
</g>
<g opacity="0.2">
<path d="M192.417 241.975C192.405 242.368 192.36 242.76 192.282 243.145C189.747 242.742 187.197 242.377 184.633 242.052C184.633 241.95 184.633 241.844 184.633 241.739C184.657 240.646 184.971 239.579 185.544 238.648C186.294 237.46 187.434 236.717 188.691 236.757C189.947 236.797 191.036 237.61 191.71 238.838C192.22 239.802 192.464 240.885 192.417 241.975Z" fill="#3F3D56"/>
<path d="M192.622 235.75C192.711 232.932 191.039 230.592 188.888 230.524C186.736 230.456 184.92 232.686 184.831 235.504C184.742 238.322 186.414 240.662 188.565 240.73C190.717 240.798 192.533 238.568 192.622 235.75Z" fill="#3F3D56"/>
<path d="M192.82 229.511C192.91 226.693 191.238 224.353 189.086 224.285C186.935 224.217 185.119 226.447 185.03 229.265C184.941 232.083 186.613 234.423 188.764 234.491C190.915 234.559 192.731 232.329 192.82 229.511Z" fill="#3F3D56"/>
<path d="M193.016 223.272C193.105 220.454 191.433 218.115 189.281 218.047C187.13 217.979 185.314 220.208 185.225 223.026C185.136 225.844 186.808 228.184 188.959 228.252C191.11 228.32 192.927 226.091 193.016 223.272Z" fill="#3F3D56"/>
<path d="M193.211 217.033C193.3 214.215 191.628 211.876 189.476 211.808C187.325 211.74 185.509 213.969 185.42 216.787C185.331 219.605 187.003 221.945 189.154 222.013C191.305 222.081 193.122 219.852 193.211 217.033Z" fill="#3F3D56"/>
<path d="M176.063 173.744C175.55 173.049 175.087 172.319 174.678 171.558L184.972 170.199L173.892 169.933C172.903 167.586 172.403 165.063 172.422 162.516C172.442 159.97 172.98 157.454 174.005 155.123L188.618 163.304L175.232 152.795C176.582 150.61 178.369 148.727 180.479 147.263C182.589 145.8 184.979 144.788 187.498 144.29C190.017 143.792 192.611 143.819 195.119 144.369C197.628 144.919 199.995 145.981 202.075 147.488C204.154 148.995 205.901 150.914 207.206 153.127C208.51 155.34 209.345 157.798 209.658 160.347C209.97 162.897 209.754 165.484 209.022 167.947C208.29 170.409 207.059 172.694 205.405 174.659C206.203 175.74 206.881 176.904 207.427 178.132L193.917 184.618L208.243 180.307C209.145 183.285 209.29 186.442 208.665 189.49C208.041 192.538 206.666 195.383 204.666 197.766C206.746 200.589 207.989 203.941 208.255 207.438C208.52 210.935 207.797 214.436 206.167 217.541C204.537 220.646 202.066 223.23 199.038 224.996C196.01 226.762 192.546 227.641 189.042 227.53C185.538 227.42 182.136 226.325 179.225 224.371C176.314 222.417 174.011 219.683 172.58 216.482C171.149 213.28 170.647 209.74 171.132 206.267C171.617 202.793 173.07 199.527 175.323 196.84C172.838 193.466 171.559 189.355 171.691 185.166C171.824 180.977 173.359 176.955 176.052 173.744H176.063Z" fill="#003595"/>
<path opacity="0.1" d="M209.037 186.345C208.909 190.537 207.369 194.561 204.666 197.766C206.746 200.589 207.989 203.941 208.255 207.438C208.52 210.935 207.797 214.436 206.167 217.541C204.537 220.646 202.066 223.23 199.038 224.996C196.01 226.762 192.546 227.641 189.042 227.53C185.538 227.42 182.136 226.325 179.225 224.371C176.314 222.417 174.011 219.683 172.58 216.482C171.149 213.28 170.647 209.74 171.132 206.267C171.617 202.793 173.07 199.527 175.323 196.84C172.93 193.586 209.102 184.25 209.037 186.345Z" fill="black"/>
</g>
<g opacity="0.2">
<path d="M343.646 245.962C343.618 246.707 343.529 247.448 343.38 248.178C338.499 247.398 333.583 246.701 328.632 246.086C328.632 245.889 328.632 245.689 328.632 245.485C328.678 243.38 329.284 241.326 330.388 239.534C331.845 237.249 334.03 235.817 336.445 235.89C338.86 235.963 340.961 237.533 342.273 239.898C343.261 241.761 343.735 243.855 343.646 245.962Z" fill="#3F3D56"/>
<path d="M344.042 233.964C344.214 228.537 340.993 224.031 336.849 223.9C332.706 223.769 329.207 228.063 329.036 233.49C328.865 238.917 332.085 243.423 336.229 243.554C340.372 243.685 343.871 239.392 344.042 233.964Z" fill="#3F3D56"/>
<path d="M344.421 221.953C344.592 216.526 341.372 212.02 337.228 211.889C333.084 211.758 329.586 216.052 329.414 221.479C329.243 226.906 332.463 231.412 336.607 231.543C340.751 231.674 344.249 227.381 344.421 221.953Z" fill="#3F3D56"/>
<path d="M344.803 209.943C344.974 204.515 341.754 200.01 337.61 199.879C333.466 199.748 329.968 204.041 329.797 209.468C329.625 214.895 332.846 219.401 336.989 219.532C341.133 219.663 344.631 215.37 344.803 209.943Z" fill="#3F3D56"/>
<path d="M344.754 197.385C344.917 191.955 341.688 187.453 337.542 187.328C333.396 187.204 329.903 191.505 329.741 196.934C329.578 202.364 332.807 206.867 336.953 206.991C341.099 207.116 344.591 202.815 344.754 197.385Z" fill="#3F3D56"/>
<path d="M312.158 114.609C311.175 113.271 310.286 111.867 309.495 110.407L329.31 107.791L307.984 107.277C306.079 102.76 305.115 97.9019 305.152 92.9996C305.188 88.0973 306.223 83.254 308.195 78.7659L336.332 94.5118L310.566 74.2801C313.171 70.0836 316.613 66.4689 320.675 63.6613C324.738 60.8537 329.335 58.9134 334.18 57.9612C339.026 57.009 344.015 57.0654 348.837 58.1269C353.66 59.1883 358.212 61.2321 362.21 64.1309C366.208 67.0296 369.567 70.7211 372.077 74.9754C374.587 79.2297 376.194 83.9556 376.798 88.8585C377.402 93.7614 376.99 98.7363 375.589 103.473C374.187 108.21 371.825 112.607 368.65 116.391C370.185 118.473 371.49 120.715 372.544 123.077L346.534 135.573L374.11 127.264C375.848 132.991 376.131 139.06 374.934 144.924C373.736 150.787 371.096 156.259 367.252 160.844C371.255 166.279 373.648 172.732 374.159 179.464C374.669 186.196 373.276 192.936 370.138 198.913C367 204.89 362.245 209.863 356.415 213.263C350.585 216.663 343.917 218.354 337.172 218.141C330.427 217.928 323.878 215.821 318.274 212.06C312.67 208.299 308.237 203.036 305.482 196.873C302.726 190.71 301.76 183.896 302.693 177.21C303.627 170.523 306.422 164.234 310.759 159.062C305.978 152.567 303.517 144.654 303.771 136.592C304.025 128.53 306.978 120.786 312.158 114.605V114.609Z" fill="#003595"/>
<path opacity="0.1" d="M375.644 138.863C375.405 146.927 372.453 154.675 367.266 160.852C371.27 166.287 373.663 172.739 374.174 179.471C374.684 186.203 373.291 192.943 370.153 198.92C367.015 204.897 362.259 209.87 356.43 213.27C350.6 216.671 343.931 218.361 337.186 218.148C330.442 217.935 323.893 215.828 318.289 212.067C312.685 208.306 308.252 203.043 305.496 196.88C302.741 190.717 301.775 183.903 302.708 177.217C303.641 170.53 306.437 164.242 310.774 159.07C306.134 152.798 375.771 134.829 375.644 138.863Z" fill="black"/>
</g>
<path d="M57.4832 246.603L61.3039 246.592H66.6909L73.5021 135.894L140.954 23.2818L138.022 20.1333V12.1602L65.0738 133.285L57.4832 246.603Z" fill="#F1C0C0"/>
<path opacity="0.1" d="M61.7119 246.592H66.691L73.5021 135.894L140.954 23.2818L138.022 20.1333L68.4466 134.206L61.7119 246.592Z" fill="black"/>
<path d="M46.2246 247.525L221.001 260.906L221.151 260.917L390.297 250.51L390.424 250.503V243.357L204.046 239.935L48.5521 239.785H47.4156L47.2918 240.587L46.2246 247.525Z" fill="#F1C0C0"/>
<path opacity="0.1" d="M46.2246 247.525L221.001 260.906L221.151 260.917L390.297 250.51L390.424 250.371V243.506H390.275L221.001 249.162L48.5521 239.785H48.5266L48.2206 239.986L47.2918 240.587L46.2246 247.525Z" fill="black"/>
<path opacity="0.1" d="M46.2246 247.525L221.001 260.906V249.162L48.2206 239.986L47.2918 240.587L46.2246 247.525Z" fill="black"/>
<path d="M138 19.9838L215.054 102.725L212.672 248.269L219.217 249.059L219.326 249.074H225.871L226.654 108.975L370.938 157.193L373.371 243.047L378.638 243.637L380.422 243.837L376.292 151.239L225.463 98.2615L142.761 12.2439H138V19.9838Z" fill="#F1C0C0"/>
<path opacity="0.1" d="M226.061 106.297L226.654 108.975L370.938 157.193L373.371 243.047L378.638 243.637L374.507 155.408L226.061 106.297Z" fill="black"/>
<path opacity="0.1" d="M138 19.9838L215.054 102.725L212.672 248.269L219.217 249.059L221.001 97.9627L138 12.2439V19.9838Z" fill="black"/>
<path d="M226.341 164.707L279.261 175.133L279.279 175.136L371.965 193.404L376.208 191.702L376.194 191.403L375.917 185.482L226.396 155.254L226.341 164.707Z" fill="#F1C0C0"/>
<path opacity="0.1" d="M279.279 175.136L371.965 193.404L376.208 191.702L376.194 191.403L279.279 175.136Z" fill="black"/>
<path d="M282.823 127.746L284.254 206.581L284.994 247.026L291.51 246.807L295.611 246.669L294.336 128.886L291.51 127.946L290.891 127.746H282.823Z" fill="#F1C0C0"/>
<path opacity="0.1" d="M282.881 127.727V127.746L284.254 206.581L284.993 247.026L291.51 246.807V127.727H282.881Z" fill="black"/>
<path d="M180.754 147.879C181.136 148.087 181.501 148.324 181.847 148.589C182.255 148.947 182.621 149.349 182.939 149.788C184.502 151.811 185.944 154.161 185.791 156.712C185.794 157.083 185.724 157.451 185.585 157.795C185.446 158.139 185.24 158.452 184.979 158.716C184.334 159.266 183.409 159.292 182.564 159.292C181.646 159.292 180.681 159.292 179.887 158.818C179.093 158.345 178.43 157.423 177.49 157.444C177.358 157.466 177.222 157.466 177.09 157.444C176.765 157.339 176.7 156.912 176.489 156.643C176.124 156.158 175.356 156.278 174.784 156.49C174.212 156.701 173.578 157.018 173.014 156.774C172.686 156.601 172.418 156.333 172.245 156.005C170.894 153.819 170.606 151.191 170.351 148.651C170.195 147.106 169 141.837 172.296 143.036C173.753 143.561 175.116 144.61 176.441 145.379L180.754 147.879Z" fill="#3F3D56"/>
<path d="M177.498 148.4C177.792 148.612 178.149 148.719 178.511 148.705C178.874 148.69 179.221 148.555 179.497 148.32C180.04 147.83 180.385 147.159 180.47 146.432C180.834 146.319 181.02 146.797 181.253 147.088C181.661 147.584 182.491 147.576 182.863 148.105C183.122 148.469 183.063 148.976 183.245 149.388C183.482 149.92 184.069 150.197 184.469 150.627C184.847 151.096 185.121 151.642 185.27 152.226L185.868 154.019C186.154 154.765 186.337 155.546 186.414 156.34C186.452 156.738 186.41 157.139 186.291 157.52C186.172 157.901 185.979 158.254 185.722 158.56C184.921 159.423 183.606 159.514 182.444 159.489C182.056 159.497 181.669 159.452 181.293 159.354C180.262 159.033 179.603 157.995 179.33 156.949C179.057 155.903 179.086 154.806 178.926 153.735C178.752 152.683 178.446 151.656 178.015 150.681C177.694 149.923 176.813 148.794 176.828 147.988C177.09 147.988 177.279 148.229 177.498 148.4Z" fill="#3F3D56"/>
<path d="M178.805 144.709C178.635 144.191 178.536 143.653 178.51 143.109C178.51 142.016 179.009 140.988 179.512 140.011L175.349 140.576C174.846 140.646 174.285 140.748 174.001 141.167C173.893 141.374 173.837 141.605 173.837 141.839C173.837 142.073 173.893 142.304 174.001 142.511C174.21 142.927 174.376 143.363 174.497 143.812C174.506 144.205 174.551 144.597 174.631 144.982C174.761 145.265 174.942 145.521 175.167 145.736C176.358 147.055 177.25 148.611 178.139 150.153C178.113 150.109 180.648 148.145 180.546 147.504C180.488 147.139 179.756 146.702 179.523 146.352C179.201 145.844 178.959 145.29 178.805 144.709Z" fill="#BE6F72"/>
<path d="M214.5 130.471V134.061L153.065 146.05L149.878 147.981H138.882V145.959L199.242 131.368L214.5 130.471Z" fill="#F1C0C0"/>
<path opacity="0.1" d="M214.5 134.061L153.065 146.05L149.878 147.981H138.882L199.69 134.961L214.5 134.061Z" fill="black"/>
<path d="M165.176 232.366C164.491 231.537 163.546 230.963 162.495 230.74C161.443 230.516 160.347 230.655 159.384 231.134C159.178 231.231 158.997 231.373 158.853 231.55C158.488 232.06 158.721 232.763 158.754 233.394C158.838 234.931 157.614 236.181 156.514 237.256C155.924 237.832 155.323 238.448 155.057 239.231C154.791 240.015 154.988 241.01 155.702 241.418C156.013 241.574 156.352 241.668 156.7 241.695C157.864 241.922 159.058 241.955 160.233 241.793C161.395 241.571 162.535 240.911 163.038 239.84C163.135 239.549 163.295 239.284 163.507 239.064C164.148 238.557 165.132 239.151 165.86 238.79C166.461 238.492 166.487 238.022 166.494 237.402C166.516 235.689 166.261 233.751 165.176 232.366Z" fill="#003595"/>
<path d="M173.917 232.301C174.365 233.481 174.427 234.768 174.486 236.028C174.518 236.757 174.54 237.537 174.147 238.153C173.753 238.769 172.985 239.093 172.249 239.246C170.73 239.559 168.971 239.264 167.991 238.058C167.241 237.136 167.084 235.872 167.223 234.676C167.339 233.696 167.587 232.548 166.884 231.852C166.702 231.666 166.465 231.535 166.298 231.335C165.933 230.89 165.992 230.22 166.188 229.673C166.445 229.15 166.637 228.599 166.76 228.03C166.789 227.76 171.692 228.219 172.144 228.442C172.759 228.744 172.664 229.25 172.85 229.863C173.109 230.715 173.604 231.484 173.917 232.301Z" fill="#003595"/>
<path d="M174.817 179.95C175.778 180.573 176.15 181.798 176.299 182.935C176.711 186.05 175.99 189.199 175.935 192.344C175.884 196.749 177.159 201.235 176.07 205.502C175.418 208.053 175.972 210.968 175.36 213.545C175.178 214.31 174.842 215.031 174.668 215.797C174.303 217.455 174.686 219.189 175.199 220.811C175.363 221.248 175.467 221.705 175.509 222.17C175.484 222.886 175.303 223.587 174.977 224.225L172.792 229.396C172.548 229.976 171.586 230.07 170.971 230.147C169.812 230.285 168.519 230.384 167.598 229.666C166.676 228.948 166.454 227.745 166.312 226.623C166.04 224.468 165.918 222.297 165.948 220.126C165.988 219.559 165.937 218.989 165.799 218.439C165.598 217.815 165.157 217.276 165.037 216.617C164.884 215.764 165.318 214.926 165.478 214.066C165.588 213.28 165.576 212.482 165.442 211.701C165.3 210.535 165.136 209.369 164.95 208.21C164.688 206.588 165.063 204.988 165.314 203.363C165.551 201.836 165.249 200.28 164.95 198.764C164.976 199.995 164.822 201.222 164.495 202.408C164.302 202.988 164.025 203.542 163.857 204.132C163.11 206.781 164.702 209.562 164.476 212.306C164.371 213.588 163.868 214.856 164.01 216.121C164.108 217.047 164.538 217.896 164.833 218.777C165.128 219.659 165.281 220.669 164.833 221.492C163.65 223.73 164.535 226.772 165.595 229.068C165.81 229.475 165.997 229.897 166.155 230.329C166.469 231.364 166.206 232.475 166.29 233.554C165.985 233.604 165.673 233.584 165.377 233.495C165.081 233.406 164.809 233.25 164.582 233.04C164.422 232.873 164.291 232.676 164.134 232.501C163.696 232.084 163.178 231.76 162.612 231.55C162.279 231.363 161.9 231.276 161.519 231.298C161.119 231.41 160.758 231.634 160.481 231.943C160.121 232.26 159.738 232.551 159.337 232.814C159.166 232.946 158.966 233.034 158.754 233.073C158.648 233.089 158.539 233.072 158.442 233.023C158.346 232.974 158.268 232.896 158.219 232.8C158.196 232.739 158.183 232.675 158.179 232.61C158.044 231.51 157.972 230.403 157.964 229.294C157.964 227.388 155.684 226.076 155.396 224.192C155.167 222.673 155.593 221.124 155.451 219.594C155.381 218.807 155.163 218.034 155.178 217.247C155.178 216.737 155.294 216.238 155.334 215.731C155.368 215.169 155.359 214.605 155.309 214.044L155.196 212.284C155.086 210.546 154.966 208.771 154.282 207.182C153.47 205.327 152.989 203.344 152.861 201.322C152.788 200.047 152.836 198.772 152.69 197.493C152.559 196.337 152.267 195.19 152.351 194.031C152.42 193.134 152.715 192.267 152.785 191.371C152.927 189.647 152.271 187.971 151.757 186.32C151.244 184.669 150.865 182.84 151.539 181.247C151.635 180.986 151.795 180.753 152.005 180.57C152.263 180.399 152.557 180.289 152.865 180.249C159.114 178.936 165.519 178.527 171.885 179.035C172.923 179.094 173.93 179.409 174.817 179.95Z" fill="#3F3D56"/>
<path d="M154.139 141.247C157.362 141.247 159.974 138.633 159.974 135.409C159.974 132.185 157.362 129.571 154.139 129.571C150.917 129.571 148.304 132.185 148.304 135.409C148.304 138.633 150.917 141.247 154.139 141.247Z" fill="#BE6F72"/>
<path d="M153.01 142.701C153.094 143.034 153.094 143.384 153.01 143.717C152.918 143.951 152.789 144.167 152.628 144.359C152.063 145.088 151.438 145.768 150.759 146.392C151.105 147.165 151.727 147.78 152.504 148.116C153.275 148.444 154.084 148.675 154.912 148.804C155.325 148.913 155.755 148.943 156.179 148.892C156.57 148.794 156.94 148.626 157.272 148.396L160.513 146.454C161.003 146.189 161.455 145.862 161.861 145.481C162.456 144.87 162.792 144.053 162.801 143.2C162.816 143.047 162.774 142.894 162.684 142.77C162.56 142.662 162.404 142.596 162.24 142.584C161.1 142.333 160.2 141.407 159.69 140.358C159.229 139.282 158.931 138.143 158.805 136.979L155.349 138.802C154.835 139.075 154.325 139.348 153.793 139.585C153.455 139.738 152.77 139.866 152.529 140.175C152.071 140.747 152.89 142.012 153.01 142.701Z" fill="#BE6F72"/>
<path d="M150.781 145.332C150.289 145.735 149.905 146.255 149.663 146.844C149.437 147.573 149.663 148.342 149.867 149.063C150.823 152.138 151.553 155.279 152.052 158.461C152.358 160.648 152.471 162.867 152.621 165.079C152.926 169.59 153.371 176.783 153.965 181.266C156.15 181.364 158.281 180.726 160.448 180.493C164.498 180.063 168.669 181.047 172.635 180.129C171.674 176.328 170.712 169.838 169.75 166.041C169.325 164.545 169.03 163.015 168.869 161.467C168.785 160.356 168.836 159.241 168.851 158.122C168.883 155.936 168.763 153.749 168.643 151.563C168.505 149.012 168.366 146.461 167.762 143.965C167.72 143.647 167.571 143.353 167.339 143.131C166.975 142.865 166.501 142.959 166.068 143.018C164.741 143.186 163.398 142.868 162.287 142.121C161.806 141.793 161.162 141.392 160.714 141.757C160.523 141.977 160.396 142.245 160.35 142.533C160.151 143.049 159.845 143.516 159.452 143.904C159.059 144.291 158.588 144.591 158.069 144.781C157.031 145.157 155.944 145.381 154.842 145.445C154.505 145.517 154.153 145.477 153.841 145.332C153.323 145.015 153.287 143.874 152.635 143.797C152.063 143.732 151.167 144.964 150.781 145.332Z" fill="#3F3D56"/>
<path d="M159.399 154.23C158.055 152.944 157.465 151.078 156.485 149.493C155.818 148.427 154.966 147.489 153.968 146.724C153.467 146.392 153.007 146.002 152.599 145.561C152.253 145.135 151.99 144.566 151.466 144.402C151.249 144.355 151.024 144.361 150.81 144.421C150.597 144.48 150.4 144.59 150.238 144.741C149.917 145.047 149.613 145.371 149.328 145.711C147.784 147.31 145.07 147.533 143.846 149.384C143.516 149.776 143.292 150.247 143.194 150.75C142.842 153.445 143.538 156.171 145.139 158.366C145.449 158.875 145.925 159.261 146.487 159.46C146.411 160.139 146.501 160.827 146.749 161.464C147.424 163.77 148.252 166.029 149.23 168.224C148.996 169.082 148.833 169.958 148.741 170.844C148.487 173.07 148.723 175.329 148.483 177.56C148.286 179.382 147.754 181.156 147.736 182.982C147.736 183.273 147.762 183.62 148.013 183.769C148.147 183.838 148.296 183.869 148.446 183.86L152.927 183.995C155.527 184.072 158.153 184.148 160.714 183.667C161.055 183.617 161.386 183.512 161.694 183.357C162.56 182.873 162.848 181.779 162.987 180.806C163.167 179.544 163.239 178.269 163.201 176.995C163.744 178.711 164.389 180.486 166.028 181.229C166.895 181.623 167.886 181.594 168.836 181.568C170.885 181.477 172.927 181.266 174.952 180.938C175.076 180.953 175.203 180.939 175.321 180.897C175.44 180.855 175.547 180.785 175.633 180.694C175.72 180.603 175.784 180.493 175.821 180.373C175.858 180.252 175.865 180.125 175.844 180.001L175.866 178.011C175.91 173.97 174.908 170.108 174.518 166.085C174.394 164.816 174.405 163.534 174.096 162.291C173.968 161.77 173.782 161.26 173.67 160.735C173.572 160.221 173.511 159.701 173.487 159.179L173.203 155.171C173.069 153.316 172.875 151.527 172.733 149.675C172.655 147.873 172.394 146.083 171.954 144.333C171.637 143.24 170.978 142.001 169.838 141.866C169.23 141.797 168.639 142.063 168.06 142.249C166.637 142.697 165.109 142.691 163.69 142.231C163.251 142.057 162.794 141.935 162.327 141.866C162.092 141.834 161.853 141.865 161.634 141.956C161.416 142.047 161.225 142.195 161.082 142.384C160.94 142.668 160.874 142.984 160.889 143.302C160.717 146.942 160.401 150.692 159.399 154.23Z" fill="#003595"/>
<path d="M153.538 154.34C151.859 152.569 150.137 150.765 147.973 149.639C147.121 149.194 146.152 148.859 145.208 149.027C144.265 149.194 143.387 150.014 143.431 150.973C143.46 151.567 143.821 152.091 143.934 152.675C144.065 153.33 143.875 154.03 144.079 154.664C144.245 155.082 144.493 155.462 144.808 155.783L147.387 158.84C148.479 160.116 149.572 161.409 150.978 162.291C152.384 163.173 154.205 163.585 155.749 162.958C156.848 162.447 157.762 161.608 158.365 160.557C159.006 159.536 159.457 158.421 160.058 157.368C160.994 155.685 162.228 154.187 163.701 152.948C162.943 152.751 161.992 152.474 161.515 151.855C161.379 151.658 161.263 151.448 161.169 151.228L160.579 149.952C160.378 149.942 160.178 149.973 159.99 150.044C159.802 150.115 159.63 150.224 159.486 150.364C159.233 150.657 158.962 150.933 158.674 151.191C158.161 151.578 157.465 151.683 156.999 152.124C156.818 152.314 156.655 152.518 156.511 152.736C156.158 153.2 155.71 153.583 155.198 153.86C154.685 154.136 154.119 154.3 153.538 154.34Z" fill="#3F3D56"/>
<path d="M163.835 146.72C165.099 144.413 165.041 141.648 165.401 139.042C165.44 138.352 165.683 137.689 166.097 137.136C166.826 136.313 168.111 136.302 169.211 136.407C169.535 136.444 169.94 136.597 169.922 136.921C169.896 137.037 169.839 137.144 169.758 137.231C168.691 138.608 168.064 140.274 167.958 142.012C168.53 142.409 169.415 141.593 169.965 142.012C170.329 142.318 170.162 142.923 169.943 143.36C169.436 144.373 168.913 145.379 168.374 146.378C167.943 147.258 167.382 148.067 166.709 148.779C166.246 149.224 165.704 149.573 165.234 150.011C164.141 151.035 163.482 152.481 162.353 153.48C162.257 153.583 162.128 153.649 161.989 153.666C161.845 153.655 161.709 153.595 161.606 153.494C161.042 153.035 160.574 152.469 160.229 151.829C159.8 151.035 159.865 150.801 160.543 150.24C161.81 149.238 163.045 148.163 163.835 146.72Z" fill="#BE6F72"/>
<path d="M151.426 152.773C151.644 152.908 151.914 153.061 152.154 152.948C152.253 152.888 152.336 152.807 152.398 152.711C152.815 152.155 153.162 151.551 153.433 150.911C153.479 150.82 153.506 150.721 153.509 150.619C153.509 150.386 153.302 150.215 153.109 150.08C152.074 149.42 150.962 148.892 149.798 148.506C148.836 148.141 147.831 147.824 146.811 147.915C146.428 147.941 146.054 148.044 145.711 148.218C145.369 148.392 145.065 148.634 144.819 148.928C144.09 149.865 145.31 150.149 146.075 150.488C147.846 151.293 149.761 151.76 151.426 152.773Z" fill="#003595"/>
<path opacity="0.1" d="M150.279 158.968C150.266 159.051 150.274 159.136 150.3 159.216C150.327 159.295 150.372 159.368 150.432 159.427C150.537 158.909 150.399 158.363 150.508 157.842C150.668 157.058 151.43 156.468 151.495 155.681C150.1 155.408 150.29 158.122 150.279 158.968Z" fill="black"/>
<path opacity="0.2" d="M214.5 130.471V134.061L199.69 134.961L199.242 131.368L214.5 130.471Z" fill="black"/>
<path d="M148.887 136.276C149.812 135.522 149.277 133.94 149.903 132.927C150.268 132.374 150.883 132.082 151.488 131.834C152.217 131.493 152.999 131.276 153.801 131.193C154.202 131.154 154.607 131.207 154.985 131.346C155.363 131.485 155.706 131.708 155.986 131.998C156.223 132.268 156.383 132.596 156.605 132.876C156.88 133.204 157.239 133.45 157.643 133.59C158.047 133.73 158.481 133.758 158.9 133.671C159.384 133.561 159.887 133.193 159.854 132.698C159.799 132.396 159.646 132.122 159.417 131.918L158.375 130.763C157.192 129.451 155.877 128.059 154.139 127.731C152.93 127.501 151.692 127.826 150.526 128.216C150.056 128.372 149.528 128.606 149.397 129.083C149.31 129.411 149.441 129.768 149.364 130.1C149.215 130.759 148.37 130.981 147.977 131.535C147.583 132.089 147.703 132.745 147.59 133.357C147.478 133.97 147.15 134.567 147.11 135.201C147.084 135.584 147.277 136.294 147.707 136.433C148.137 136.571 148.621 135.821 148.887 136.276Z" fill="#3F3D56"/>
<path d="M159.501 132.173C159.194 130.57 158.532 129.056 157.563 127.742C156.702 126.514 155.504 125.563 154.114 125.002C153.419 124.73 152.672 124.619 151.928 124.678C151.184 124.737 150.463 124.963 149.82 125.34C148.864 126.023 148.12 126.961 147.674 128.048C146.731 130.081 146.381 132.567 147.478 134.52C147.915 133.988 148.665 134.228 149.328 134.035C150.158 133.798 150.861 133.244 151.652 132.898C154.037 131.845 156.951 132.698 159.501 132.173Z" fill="#FED253"/>
<path opacity="0.1" d="M148.035 132.06C147.951 131.404 147.896 130.643 148.363 130.176C148.386 130.148 148.415 130.125 148.449 130.11C148.482 130.095 148.519 130.087 148.556 130.089C148.588 130.099 148.618 130.116 148.644 130.139C148.67 130.162 148.69 130.189 148.705 130.22C148.974 130.645 149.203 131.094 149.39 131.561C149.118 131.498 148.834 131.519 148.575 131.619C148.315 131.72 148.091 131.897 147.933 132.126" fill="black"/>
<path opacity="0.1" d="M156.547 130.209L156.416 128.908C156.395 128.801 156.403 128.69 156.441 128.587C156.496 128.501 156.581 128.439 156.679 128.412C156.777 128.385 156.882 128.396 156.973 128.441C157.152 128.541 157.3 128.689 157.399 128.868C157.702 129.333 157.954 129.831 158.15 130.351C157.563 130.238 156.959 130.245 156.376 130.373" fill="black"/>
<path opacity="0.1" d="M159.807 183.008V185.981L157.297 186.149H144.098V183.008H159.807Z" fill="black"/>
<path d="M159.807 183.007V186.149H144.097L102.364 133.846V131.375H111.113L159.807 183.007Z" fill="#F1C0C0"/>
<path opacity="0.1" d="M159.807 183.007V186.149H144.097L102.364 133.846V131.375H111.113L159.807 183.007Z" fill="black"/>
<path opacity="0.1" d="M159.807 183.007V186.149H144.097L102.364 133.846V131.375L144.323 183.007H159.807Z" fill="black"/>
<path d="M107.835 235.431C107.862 235.579 107.859 235.73 107.825 235.877C107.791 236.023 107.727 236.161 107.638 236.282C107.548 236.403 107.435 236.504 107.304 236.579C107.174 236.653 107.03 236.701 106.88 236.717C105.868 237.06 104.793 237.399 104.076 238.175C103.358 238.951 103.216 240.39 104.076 241.021C104.515 241.286 105.02 241.423 105.533 241.418C107.183 241.531 108.902 241.509 110.399 240.809C111.47 240.314 112.479 239.468 113.655 239.545C114.263 239.581 114.912 239.866 115.454 239.589C115.997 239.312 116.15 238.539 116.154 237.894C116.168 236.548 115.965 235.208 115.553 233.926C115.498 233.751 113.182 233.616 112.905 233.561L110.097 233.197C109.565 233.128 108.417 232.727 107.999 233.171C107.58 233.616 107.835 234.902 107.835 235.431Z" fill="#003595"/>
<path d="M124.593 226.335C124.712 226.991 124.905 227.632 125.168 228.245C125.558 229.236 126.057 230.289 127.011 230.77C127.878 231.204 128.942 231.047 129.823 230.635C130.191 230.483 130.514 230.238 130.759 229.925C131.044 229.429 131.171 228.858 131.124 228.288C131.124 226.878 131.04 225.421 130.395 224.167C129.842 223.074 128.876 222.134 128.862 220.924L125.544 221.565C125.366 221.582 125.197 221.649 125.056 221.758C124.95 221.869 124.877 222.006 124.844 222.156C124.49 223.519 124.405 224.939 124.593 226.335Z" fill="#003595"/>
<path d="M84.9682 191.717C84.8298 192.89 84.888 194.147 85.5 195.16C86.1119 196.173 87.4012 196.844 88.5158 196.439C88.5729 196.425 88.6265 196.399 88.6734 196.363C88.7203 196.328 88.7596 196.283 88.789 196.232C88.8186 196.109 88.8018 195.979 88.7416 195.867C88.2496 194.554 88.2901 193.099 88.8545 191.815C88.9274 191.648 89.084 191.451 89.2552 191.516C89.3268 191.553 89.3844 191.612 89.4191 191.684C89.5954 191.989 89.6837 192.337 89.6741 192.69C89.6226 193.009 89.6128 193.334 89.6449 193.655C89.7141 193.969 90.0492 194.264 90.3406 194.129C90.4248 194.077 90.4977 194.009 90.5546 193.928C90.6116 193.847 90.6516 193.756 90.6721 193.659C91.4843 191.309 91.1164 188.74 90.7449 186.28C90.748 186.223 90.7387 186.167 90.7176 186.114C90.6965 186.062 90.6641 186.015 90.6227 185.976C90.5814 185.938 90.5321 185.909 90.4783 185.891C90.4245 185.874 90.3676 185.868 90.3115 185.875C88.5923 185.704 87.6526 185.292 86.6691 186.892C85.8241 188.24 84.9682 190.095 84.9682 191.717Z" fill="#003595"/>
<path d="M105.067 185.737C104.557 187.858 104.043 190.004 104.01 192.183C104.019 193.541 104.121 194.896 104.316 196.239L104.699 199.395C104.83 200.459 104.957 201.519 105.143 202.572C105.262 203.115 105.326 203.668 105.336 204.223C105.3 204.77 105.214 205.313 105.077 205.845C104.848 206.961 104.72 208.095 104.695 209.234C104.655 211.056 104.881 212.878 105.023 214.7C105.306 218.331 105.264 221.979 104.895 225.603C104.748 226.581 104.96 227.579 105.493 228.412C105.709 228.675 105.886 228.967 106.021 229.28C106.294 230.114 105.657 230.948 105.493 231.805C105.388 232.473 105.552 233.155 105.95 233.701C106.347 234.248 106.945 234.614 107.613 234.72C110.526 235.066 113.52 234.91 116.146 236.243C116.423 235.434 115.819 234.516 116.095 233.692C116.27 233.182 116.751 232.851 117.079 232.421C117.519 231.766 117.739 230.987 117.705 230.198C117.718 229.168 117.535 228.145 117.166 227.184C116.857 226.383 116.412 225.592 116.438 224.732C116.438 224.309 116.587 223.864 116.416 223.475C116.299 223.251 116.139 223.051 115.946 222.888C114.858 221.695 114.189 220.178 114.041 218.57C113.899 216.973 113.951 215.365 114.194 213.781C114.373 212.273 114.613 210.68 115.571 209.503C115.127 205.934 115.388 202.313 116.34 198.844C116.434 198.524 116.584 198.152 116.911 198.076C117.042 198.062 117.173 198.08 117.295 198.129C117.417 198.177 117.525 198.254 117.611 198.353C118.183 198.888 118.456 199.664 118.703 200.408C118.977 201.213 119.253 202.073 119.046 202.897C118.958 203.261 118.784 203.582 118.682 203.932C118.46 204.635 118.499 205.394 118.791 206.071C118.933 206.318 119.022 206.592 119.053 206.876C119.019 207.12 118.945 207.356 118.835 207.576C118.699 208.007 118.657 208.462 118.709 208.911C118.761 209.359 118.907 209.792 119.137 210.181C119.601 210.955 120.174 211.658 120.838 212.269C120.521 213.668 120.603 215.127 121.075 216.482C121.109 216.543 121.13 216.61 121.138 216.679C121.147 216.749 121.141 216.819 121.122 216.886C121.056 217.025 120.889 217.076 120.758 217.174C120.393 217.473 120.619 218.038 120.863 218.428C121.532 219.498 122.271 220.523 123.074 221.496C123.803 222.367 123.737 224.047 124.822 224.36C125.279 224.459 125.75 224.459 126.207 224.36C127.277 224.196 128.472 223.886 128.997 222.939C129.211 222.549 129.299 222.075 129.634 221.784C129.969 221.492 130.403 221.441 130.588 221.091C130.774 220.742 130.566 220.282 130.628 219.878C130.69 219.473 131.044 219.149 131.156 218.723C131.426 217.739 130.279 216.93 130.122 215.924C129.896 214.466 131.732 213.373 131.655 211.916C131.495 208.749 131.393 205.568 131.229 202.401C131.024 199.564 130.994 196.718 131.142 193.878C131.269 192.11 131.506 190.259 130.858 188.616C129.925 186.298 127.354 184.997 124.866 184.749C122.378 184.502 119.898 185.092 117.432 185.478C113.34 186.109 109.182 186.196 105.067 185.737Z" fill="#3F3D56"/>
<path d="M112.46 150.907C115.683 150.907 118.295 148.294 118.295 145.069C118.295 141.845 115.683 139.232 112.46 139.232C109.238 139.232 106.625 141.845 106.625 145.069C106.625 148.294 109.238 150.907 112.46 150.907Z" fill="#FBBEBE"/>
<path d="M110.086 151.997C109.887 152.458 109.554 152.849 109.13 153.118C108.705 153.387 108.209 153.52 107.707 153.502C107.496 154.376 108.002 155.258 108.581 155.947C109.784 157.347 111.338 158.401 113.083 159C114.829 159.599 116.702 159.721 118.51 159.354C119.214 159.228 119.882 158.949 120.466 158.538C121.254 157.879 121.784 156.963 121.96 155.95C122.127 154.945 122.175 153.924 122.102 152.908C122.122 152.707 122.065 152.506 121.941 152.347C121.796 152.234 121.616 152.174 121.431 152.179C120.2 152.07 118.915 152.022 117.833 151.417C116.751 150.812 115.983 149.446 116.503 148.323C116.42 148.498 114.292 148.582 114.012 148.619C113.134 148.743 112.256 148.881 111.382 149.041C110.962 149.064 110.547 149.143 110.148 149.275C109.619 149.548 109.816 149.413 109.94 149.909C110.126 150.667 110.399 151.21 110.086 151.997Z" fill="#FBBEBE"/>
<path d="M114.526 155.546C113.74 155.555 112.956 155.468 112.191 155.287C111.419 155.107 110.738 154.652 110.275 154.008C110.005 153.6 109.831 153.086 109.401 152.857C108.698 152.492 107.897 153.108 107.336 153.673C106.825 154.23 106.233 154.707 105.58 155.087C104.801 155.499 103.89 155.644 103.154 156.129C102.579 156.564 102.086 157.097 101.697 157.703L96.5362 164.736C94.4637 167.564 92.6607 170.6 90.8141 173.584C89.2151 176.168 88.3774 179.141 87.1718 181.929C87.0763 182.1 87.0368 182.296 87.0589 182.49C87.1026 182.68 87.332 182.833 87.4923 182.723C86.9496 183.263 87.4267 184.181 87.2992 184.939C87.1543 185.469 86.8521 185.943 86.4324 186.298C87.2341 186.194 88.0479 186.232 88.8363 186.411C89.6511 186.642 90.4199 187.012 91.1091 187.504C91.5498 187.435 91.5098 186.652 91.8376 186.36C92.0343 186.189 92.3257 186.211 92.5843 186.16C93.5568 185.97 93.9428 184.8 94.6895 184.141C95.3124 183.591 96.1938 183.412 96.8531 182.895C97.9239 182.053 98.1534 180.555 98.7143 179.313C99.1914 178.259 99.9417 177.341 100.361 176.262C100.634 175.563 100.765 174.805 101.155 174.16C101.777 173.118 102.95 172.564 104.068 172.065C104.775 171.747 105.525 171.42 106.287 171.471C106.247 173.165 106.032 174.834 106.4 176.488C106.527 177.071 106.706 177.64 106.859 178.219C107.554 180.828 107.718 183.547 107.751 186.236C109.424 185.853 111.134 185.648 112.85 185.624C114.201 185.584 115.549 185.759 116.9 185.733C118.503 185.704 120.087 185.394 121.69 185.285C123.293 185.176 124.968 185.285 126.385 186.014C126.27 183.704 126.334 181.39 126.578 179.09L126.964 175.468C127.051 174.416 127.213 173.371 127.449 172.341C127.66 171.511 127.966 170.709 128.199 169.882C129.018 166.967 128.869 163.854 128.712 160.819C128.632 159.259 128.031 157.725 127.325 156.337C127.069 155.821 126.777 155.324 126.451 154.85C125.597 153.673 124.459 152.732 123.143 152.113C121.827 151.495 120.376 151.221 118.926 151.315C118.74 151.321 118.558 151.361 118.386 151.432C118.079 151.629 117.839 151.915 117.698 152.252C116.944 153.607 115.851 154.742 114.526 155.546Z" fill="#3F3D56"/>
<path d="M107.328 147.004C107.492 146.64 107.933 146.505 108.202 146.213C108.72 145.66 108.487 144.774 108.567 144.027C108.698 142.934 109.605 142.019 110.643 141.629C111.701 141.289 112.828 141.218 113.921 141.422C114.447 141.46 114.955 141.629 115.4 141.914C115.589 142.052 115.764 142.231 115.942 142.358C116.268 142.555 116.657 142.617 117.027 142.53C117.397 142.444 117.719 142.216 117.924 141.895C116.634 140.343 115.207 138.703 113.247 138.226C112.575 138.088 111.89 138.024 111.204 138.033C110.297 138.014 109.361 138 108.523 138.346C107.383 138.816 106.582 139.898 106.17 141.064C105.81 142.246 105.618 143.473 105.598 144.708C105.524 145.533 105.524 146.362 105.598 147.186C105.739 148.312 106.157 149.385 106.815 150.309C106.904 150.453 107.029 150.57 107.179 150.648C108.84 151.377 107.194 147.307 107.328 147.004Z" fill="#3F3D56"/>
<path d="M117.735 140.995C117.534 139.279 116.31 137.862 115.01 136.721C113.962 135.732 112.714 134.98 111.35 134.516C109.976 134.112 108.396 134.199 107.219 135.019C106.272 135.679 105.671 136.728 105.209 137.785C104.601 139.032 104.3 140.406 104.331 141.793C104.422 143.171 105.092 144.567 106.287 145.263C106.716 144.629 107.463 144.301 108.181 144.042C111.308 142.855 114.497 141.838 117.735 140.995Z" fill="#FED253"/>
<path opacity="0.1" d="M106.687 140.281C106.804 140.281 106.88 140.401 106.938 140.5C107.235 140.962 107.49 141.45 107.7 141.957C107.274 142.049 106.541 142.151 106.33 141.775C106.217 141.586 106.352 140.263 106.687 140.281Z" fill="black"/>
<path opacity="0.1" d="M114.988 139.458C114.901 139.541 114.799 139.37 114.799 139.246V137.832C114.796 137.793 114.805 137.754 114.824 137.719C114.839 137.702 114.858 137.688 114.878 137.678C114.899 137.668 114.922 137.662 114.944 137.661C115.239 137.628 115.483 137.88 115.673 138.12C115.96 138.51 116.21 138.926 116.42 139.363L114.879 139.315" fill="black"/>
<path d="M134.216 162.871C134.551 162.552 134.909 162.259 135.287 161.992C136.296 161.318 137.516 161.052 138.649 160.622C139.781 160.192 140.932 159.496 141.373 158.366C141.594 157.66 141.666 156.916 141.584 156.18C141.595 155.872 141.54 155.565 141.424 155.28C141.285 155.028 141.088 154.813 140.848 154.653C139.311 153.516 137.25 153.425 135.341 153.542C131.134 153.803 127.009 154.833 123.172 156.581C122.969 156.648 122.792 156.775 122.662 156.945C122.588 157.103 122.554 157.277 122.564 157.452C122.496 158.526 122.636 159.604 122.976 160.626C123.478 161.923 124.513 162.969 124.946 164.292C125.143 164.886 125.208 165.516 125.38 166.114C125.52 166.731 125.885 167.274 126.403 167.637C127.842 168.497 129.2 167.342 130.198 166.445L134.216 162.871Z" fill="#3F3D56"/>
<path d="M115.374 167.917L113.528 163.887C113.257 163.329 113.023 162.753 112.828 162.164C112.617 161.46 112.515 160.731 112.318 160.024C111.67 157.67 110.035 155.71 109.237 153.403C109.186 153.195 109.084 153.003 108.938 152.846C108.822 152.763 108.689 152.708 108.548 152.682C108.408 152.657 108.264 152.663 108.126 152.7C107.011 152.893 106.141 153.742 105.121 154.223C104.648 154.442 104.138 154.588 103.664 154.839C103.427 154.951 103.218 155.113 103.049 155.314C102.881 155.514 102.758 155.749 102.688 156.001C102.575 156.559 102.852 157.095 103.085 157.638C104.076 159.875 104.302 162.375 104.345 164.824C104.378 166.471 104.294 168.238 103.322 169.561C101.453 172.112 102.648 175.858 103.347 178.944C103.431 179.309 103.529 179.702 103.588 180.089C103.649 180.572 103.677 181.059 103.671 181.546C103.671 183.182 103.58 184.87 102.896 186.353C103.572 186.713 104.317 186.924 105.081 186.972C107.196 187.242 109.319 187.431 111.451 187.541C112.119 187.603 112.793 187.569 113.451 187.439C114.233 187.227 114.921 186.761 115.409 186.115C115.896 185.468 116.155 184.677 116.143 183.867C116.259 184.877 116.474 185.974 117.206 186.673C117.938 187.373 119.006 187.479 120 187.533C122.806 187.682 125.62 187.603 128.414 187.296C128.592 187.288 128.767 187.248 128.931 187.176C129.47 186.907 129.499 186.163 129.455 185.566C129.375 184.447 129.291 183.328 129.157 182.217C129.042 181.508 128.984 180.792 128.982 180.074C129.037 179.336 129.159 178.604 129.346 177.888C129.834 175.614 130.22 173.292 130.056 170.964C129.992 170.397 129.968 169.825 129.987 169.255C130.082 167.968 130.759 166.744 130.632 165.465C130.268 161.704 129.973 157.845 128.924 154.216C128.734 153.567 128.494 152.871 127.929 152.5C127.201 152.011 126.177 152.266 125.343 151.957C124.952 151.774 124.58 151.553 124.232 151.297C123.478 150.825 122.612 150.558 121.723 150.524C121.053 150.499 120.306 150.648 119.902 151.188C119.714 151.491 119.59 151.83 119.537 152.182C119.009 154.405 118.39 156.603 117.771 158.8L117.177 160.906L115.585 166.562C115.429 167.163 115.534 167.349 115.374 167.917Z" fill="#003595"/>
<path d="M124.688 145.853L159.92 182.894V186.036H144.21L117.734 151.465" fill="#F1C0C0"/>
<path opacity="0.1" d="M124.688 145.853L159.92 182.894V186.036H144.21L117.734 151.465" fill="black"/>
<path opacity="0.1" d="M118.295 150.976L118.408 151.016L144.436 182.894H159.92V186.036H144.21L117.734 151.465L118.295 150.976Z" fill="black"/>
<path d="M122.349 151.756C121.074 152.314 119.658 153.028 119.275 154.369C119.2 154.604 119.183 154.855 119.228 155.098C119.321 155.384 119.499 155.635 119.737 155.817C119.976 156 120.264 156.106 120.565 156.122C121.164 156.136 121.761 156.027 122.317 155.801L129.838 153.316C130.042 153.25 130.275 153.152 130.326 152.951C130.339 152.825 130.314 152.698 130.253 152.587C130.02 152.019 129.791 150.856 129.302 150.459C128.902 150.138 128.108 150.251 127.623 150.259C125.759 150.273 124.007 151.027 122.349 151.756Z" fill="#003595"/>
<path d="M129.055 153.611C130.322 153.607 131.582 153.803 132.788 154.19C134 154.584 135.073 155.318 135.88 156.304C136.116 156.58 136.283 156.907 136.369 157.259C136.441 157.623 137.629 157.842 137.367 158.09C138.164 157.962 137.975 158.337 138.783 158.33C139.592 158.323 140.466 158.115 140.951 157.47C141.287 156.94 141.437 156.313 141.377 155.688C141.387 155.256 141.305 154.826 141.136 154.427C140.772 153.662 139.934 153.25 139.162 152.897L132.657 149.92C132.28 149.719 131.875 149.575 131.455 149.493C131.102 149.46 130.746 149.469 130.395 149.519L127.448 149.858C128.093 150.275 128.618 150.853 128.971 151.535C129.324 152.217 129.493 152.979 129.463 153.746" fill="#3F3D56"/>
</g>
<defs>
<clipPath id="clip0_1598_30253">
<rect width="429" height="264" fill="white"/>
</clipPath>
</defs>
</svg>
