<svg width="220" height="228" viewBox="0 0 220 228" fill="none" xmlns="http://www.w3.org/2000/svg">
<g opacity="0.7">
<path d="M181.762 109.401L109.437 92.1575V227.118L181.762 208.375V109.401Z" fill="url(#paint0_linear_1513_18696)"/>
<g opacity="0.1">
<path d="M181.763 109.401L109.437 92.157V227.118L181.763 208.375V109.401Z" fill="url(#paint1_linear_1513_18696)"/>
</g>
<path d="M37.1079 109.401L109.436 92.157V227.118L37.1079 208.747V109.401Z" fill="url(#paint2_linear_1513_18696)"/>
<g opacity="0.17">
<path d="M37.1079 109.401L109.436 92.157V227.118L37.1079 208.747V109.401Z" fill="url(#paint3_linear_1513_18696)"/>
</g>
<path d="M109.437 92.1571L146.924 61.4163L219.25 79.7868L181.762 109.401L109.437 92.1571Z" fill="url(#paint4_linear_1513_18696)"/>
<path d="M0 80.1597L37.1082 109.401L109.437 92.1573L72.7049 61.4165L0 80.1597Z" fill="url(#paint5_linear_1513_18696)"/>
<g opacity="0.05">
<path d="M0 80.1597L37.1082 109.401L109.437 92.1573L72.7049 61.4165L0 80.1597Z" fill="url(#paint6_linear_1513_18696)"/>
</g>
<g opacity="0.5">
<rect x="55.7925" y="76.5576" width="53.6833" height="49.0374" rx="4.5" fill="url(#paint7_linear_1513_18696)"/>
</g>
<rect x="56.4458" y="76.9365" width="52.4467" height="47.8486" rx="4.5" fill="url(#paint8_linear_1513_18696)"/>
<rect x="60.4873" y="84.8174" width="8.84466" height="7.88112" rx="3.94056" fill="url(#paint9_linear_1513_18696)"/>
<rect x="71.9849" y="84.8174" width="35.1606" height="0.875351" rx="0.437676" fill="url(#paint10_linear_1513_18696)"/>
<rect x="71.9849" y="87.4436" width="35.1606" height="0.875351" rx="0.437676" fill="url(#paint11_linear_1513_18696)"/>
<rect x="59.6035" y="96.9807" width="47.5419" height="0.875351" rx="0.437676" fill="url(#paint12_linear_1513_18696)"/>
<rect x="59.6035" y="99.6067" width="47.5419" height="0.875351" rx="0.437676" fill="url(#paint13_linear_1513_18696)"/>
<rect x="59.6035" y="103.108" width="47.5419" height="0.875351" rx="0.437676" fill="url(#paint14_linear_1513_18696)"/>
<rect x="59.6035" y="105.737" width="27.4182" height="0.875351" rx="0.437676" fill="url(#paint15_linear_1513_18696)"/>
<rect x="59.6035" y="109.23" width="47.5419" height="0.875351" rx="0.437676" fill="url(#paint16_linear_1513_18696)"/>
<rect x="59.6035" y="111.856" width="47.5419" height="0.875351" rx="0.437676" fill="url(#paint17_linear_1513_18696)"/>
<rect x="59.6035" y="115.36" width="47.5419" height="0.875351" rx="0.437676" fill="url(#paint18_linear_1513_18696)"/>
<rect x="59.6035" y="117.986" width="27.4182" height="0.875351" rx="0.437676" fill="url(#paint19_linear_1513_18696)"/>
<g opacity="0.5">
<rect x="63.8931" y="87.8867" width="53.6833" height="49.0374" rx="4.5" fill="url(#paint20_linear_1513_18696)"/>
</g>
<rect x="64.5474" y="88.2683" width="52.4467" height="47.8486" rx="4.5" fill="url(#paint21_linear_1513_18696)"/>
<rect x="68.5889" y="96.1497" width="8.84466" height="7.88112" rx="3.94056" fill="url(#paint22_linear_1513_18696)"/>
<rect x="80.0894" y="96.1497" width="35.1606" height="0.875351" rx="0.437676" fill="url(#paint23_linear_1513_18696)"/>
<rect x="80.0894" y="98.7756" width="35.1606" height="0.875351" rx="0.437676" fill="url(#paint24_linear_1513_18696)"/>
<rect x="67.7046" y="108.31" width="47.5419" height="0.875351" rx="0.437676" fill="url(#paint25_linear_1513_18696)"/>
<rect x="67.7046" y="110.939" width="47.5419" height="0.875351" rx="0.437676" fill="url(#paint26_linear_1513_18696)"/>
<rect x="67.7046" y="114.44" width="47.5419" height="0.875351" rx="0.437676" fill="url(#paint27_linear_1513_18696)"/>
<rect x="67.7046" y="117.066" width="27.4182" height="0.875351" rx="0.437676" fill="url(#paint28_linear_1513_18696)"/>
<rect x="67.7046" y="120.562" width="47.5419" height="0.875351" rx="0.437676" fill="url(#paint29_linear_1513_18696)"/>
<rect x="67.7046" y="123.188" width="47.5419" height="0.875351" rx="0.437676" fill="url(#paint30_linear_1513_18696)"/>
<rect x="67.7046" y="126.692" width="47.5419" height="0.875351" rx="0.437676" fill="url(#paint31_linear_1513_18696)"/>
<rect x="67.7046" y="129.318" width="27.4182" height="0.875351" rx="0.437676" fill="url(#paint32_linear_1513_18696)"/>
<g opacity="0.5">
<rect x="95.1108" y="94.2332" width="46.5144" height="54.1062" fill="url(#paint33_linear_1513_18696)"/>
</g>
<rect x="96.542" y="95.1057" width="44.0949" height="52.0391" fill="url(#paint34_linear_1513_18696)"/>
<g opacity="0.5">
<path fill-rule="evenodd" clip-rule="evenodd" d="M120.991 102.073V103.38H124.354V109.801H112.824V103.38H116.197V102.073H120.991ZM120.378 102.543H116.794V103.374H120.378V102.543Z" fill="url(#paint35_linear_1513_18696)"/>
</g>
<rect x="113.311" y="103.596" width="10.5562" height="5.87905" fill="url(#paint36_linear_1513_18696)"/>
<path d="M116.391 102.398V103.924H116.94V102.836H120.238V103.924H120.788V102.398H116.391Z" fill="url(#paint37_linear_1513_18696)"/>
<rect x="103.14" y="117.936" width="31.0086" height="1.30711" fill="url(#paint38_linear_1513_18696)"/>
<rect x="103.14" y="126.536" width="31.0086" height="1.30711" fill="url(#paint39_linear_1513_18696)"/>
<rect x="103.14" y="128.822" width="31.0086" height="1.30711" fill="url(#paint40_linear_1513_18696)"/>
<rect x="103.14" y="124.25" width="13.0863" height="1.30711" fill="url(#paint41_linear_1513_18696)"/>
<g opacity="0.6">
<rect x="124.363" y="124.25" width="9.78559" height="1.30711" fill="url(#paint42_linear_1513_18696)"/>
</g>
<rect x="114.025" y="134.156" width="9.78559" height="1.30711" fill="url(#paint43_linear_1513_18696)"/>
<path d="M37.1079 109.401V208.748L109.436 227.118V128.523L37.1079 109.401Z" fill="url(#paint44_linear_1513_18696)"/>
<path d="M181.762 208.375L109.437 227.118V128.523L181.762 109.401V208.375Z" fill="url(#paint45_linear_1513_18696)"/>
<g opacity="0.07">
<path d="M181.763 208.375L109.437 227.118V128.523L181.763 109.401V208.375Z" fill="url(#paint46_linear_1513_18696)"/>
</g>
<g opacity="0.07">
<path d="M152.982 175.384V207.999L181.762 200.127V167.511L152.982 175.384Z" fill="url(#paint47_linear_1513_18696)"/>
</g>
<rect x="143.91" y="101.115" width="21.3305" height="20.2898" fill="url(#paint48_linear_1513_18696)"/>
<rect x="144.245" y="101.612" width="20.6614" height="19.379" fill="url(#paint49_linear_1513_18696)"/>
<g opacity="0.5">
<path fill-rule="evenodd" clip-rule="evenodd" d="M156.402 104.022V105.009H158.961V109.901H150.188V105.015H152.748V104.022H156.402ZM155.948 104.376H153.206V105.009H155.948V104.376Z" fill="url(#paint50_linear_1513_18696)"/>
</g>
<g opacity="0.6">
<rect x="150.56" y="105.175" width="8.0292" height="4.47139" fill="url(#paint51_linear_1513_18696)"/>
</g>
<g opacity="0.6">
<path d="M152.901 104.261V105.423H153.323V104.595H155.832V105.423H156.25V104.261H152.901Z" fill="url(#paint52_linear_1513_18696)"/>
</g>
<g opacity="0.6">
<rect x="151.02" y="113.124" width="7.44374" height="0.993642" fill="url(#paint53_linear_1513_18696)"/>
</g>
<rect x="148.217" y="114.946" width="12.7159" height="0.993642" fill="url(#paint54_linear_1513_18696)"/>
<g opacity="0.5">
<rect x="93.3423" y="39.092" width="27.6362" height="22.4752" fill="url(#paint55_linear_1513_18696)"/>
</g>
<rect x="93.665" y="39.5178" width="26.9402" height="21.6768" fill="url(#paint56_linear_1513_18696)"/>
<rect x="93.665" y="39.5178" width="26.9402" height="4.83513" fill="url(#paint57_linear_1513_18696)"/>
<g opacity="0.1">
<rect x="93.665" y="39.5178" width="26.9402" height="4.83513" fill="url(#paint58_linear_1513_18696)"/>
</g>
<rect x="95.813" y="46.1067" width="22.6478" height="2.81532" fill="url(#paint59_linear_1513_18696)"/>
<rect x="95.813" y="51.0481" width="16.5303" height="0.955198" fill="url(#paint60_linear_1513_18696)"/>
<rect x="95.813" y="52.6956" width="10.7325" height="0.955198" fill="url(#paint61_linear_1513_18696)"/>
<rect x="95.813" y="54.3425" width="14.1676" height="0.955198" fill="url(#paint62_linear_1513_18696)"/>
<rect x="95.813" y="55.9871" width="16.5303" height="0.955198" fill="url(#paint63_linear_1513_18696)"/>
<rect x="95.813" y="57.6343" width="5.52605" height="0.955198" fill="url(#paint64_linear_1513_18696)"/>
<g opacity="0.5">
<rect x="133.975" y="55.9692" width="34.2555" height="27.8545" fill="url(#paint65_linear_1513_18696)"/>
</g>
<rect x="134.376" y="56.4956" width="33.3923" height="26.8668" fill="url(#paint66_linear_1513_18696)"/>
<rect x="134.376" y="56.4956" width="33.3923" height="5.99143" fill="url(#paint67_linear_1513_18696)"/>
<rect x="137.034" y="64.6604" width="28.0693" height="3.48958" fill="url(#paint68_linear_1513_18696)"/>
<rect x="137.034" y="70.7852" width="20.4882" height="1.18586" fill="url(#paint69_linear_1513_18696)"/>
<rect x="137.034" y="72.8254" width="13.3043" height="1.18586" fill="url(#paint70_linear_1513_18696)"/>
<rect x="137.034" y="74.8691" width="17.5609" height="1.18586" fill="url(#paint71_linear_1513_18696)"/>
<rect x="137.034" y="76.9094" width="20.4882" height="1.18586" fill="url(#paint72_linear_1513_18696)"/>
<rect x="137.034" y="78.95" width="6.8523" height="1.18586" fill="url(#paint73_linear_1513_18696)"/>
<rect x="138.498" y="65.8462" width="7.9814" height="1.05279" fill="url(#paint74_linear_1513_18696)"/>
<g opacity="0.1">
<path d="M36.1641 160.949L76.6804 171.072L109.245 144.829V128.709L36.9198 110.714L36.1641 160.949Z" fill="url(#paint75_linear_1513_18696)"/>
</g>
<g opacity="0.1">
<path d="M182.33 160.949L141.81 171.072L109.246 144.829V128.709L181.571 110.714L182.33 160.949Z" fill="url(#paint76_linear_1513_18696)"/>
</g>
<path d="M37.1082 109.401L0 139.77L72.3255 157.765L109.437 128.523L37.1082 109.401Z" fill="url(#paint77_linear_1513_18696)"/>
<path d="M181.762 109.401L219.25 139.77L147.303 157.765L109.437 128.523L181.762 109.401Z" fill="url(#paint78_linear_1513_18696)"/>
<g opacity="0.07">
<path d="M181.763 109.401L219.25 139.77L147.304 157.765L109.437 128.523L181.763 109.401Z" fill="url(#paint79_linear_1513_18696)"/>
</g>
</g>
<path d="M180.978 109.743L109.185 92.7322V225.848L180.978 207.361V109.743Z" fill="#535461"/>
<path opacity="0.1" d="M180.978 109.743L109.185 92.7322V225.848L180.978 207.361V109.743Z" fill="black"/>
<path d="M38.8877 109.743L110.681 92.7327V225.849L38.8877 207.729V109.743Z" fill="#535461"/>
<path opacity="0.17" d="M38.8877 108.363L110.681 91.2366V225.848L38.8877 207.606V108.363Z" fill="black"/>
<path d="M109.185 90.699L147.367 59.8274L219.866 77.9255L181.684 107.689L109.185 90.699Z" fill="#BEBEBE"/>
<path d="M2.9917 79.4337L39.5097 107.689L110.681 91.0253L74.5365 61.323L2.9917 79.4337Z" fill="#BEBEBE"/>
<g opacity="0.5">
<rect x="57.0845" y="74.8579" width="53.3002" height="50.6683" rx="4.5" fill="url(#paint80_linear_1513_18696)"/>
</g>
<rect x="58.3315" y="77.7756" width="52.3489" height="46.3662" rx="4.5" fill="#F5F5F5"/>
<rect x="61.3232" y="83.7581" width="8.9741" height="8.9741" rx="4.48705" fill="#145ECC"/>
<rect x="73.2886" y="83.7581" width="34.4007" height="1.49568" rx="0.747842" fill="#E0E0E0"/>
<rect x="73.2886" y="85.2539" width="34.4007" height="1.49568" rx="0.747842" fill="#E0E0E0"/>
<rect x="59.8276" y="95.7239" width="47.8619" height="1.49568" rx="0.747842" fill="#E0E0E0"/>
<rect x="59.8276" y="98.7156" width="47.8619" height="1.49568" rx="0.747842" fill="#E0E0E0"/>
<rect x="59.8276" y="101.706" width="47.8619" height="1.49568" rx="0.747842" fill="#E0E0E0"/>
<rect x="61.3232" y="103.202" width="26.9223" height="1.49568" rx="0.747842" fill="#E0E0E0"/>
<rect x="59.8276" y="107.689" width="47.8619" height="1.49568" rx="0.747842" fill="#E0E0E0"/>
<rect x="59.8276" y="110.681" width="47.8619" height="1.49568" rx="0.747842" fill="#E0E0E0"/>
<rect x="59.8276" y="113.672" width="47.8619" height="1.49568" rx="0.747842" fill="#E0E0E0"/>
<rect x="61.3232" y="115.168" width="26.9223" height="1.49568" rx="0.747842" fill="#E0E0E0"/>
<g opacity="0.5">
<rect x="64.5312" y="85.3245" width="53.598" height="50.6683" rx="4.5" fill="url(#paint81_linear_1513_18696)"/>
</g>
<rect x="65.8101" y="86.7498" width="52.3489" height="46.3662" rx="4.5" fill="white"/>
<rect x="70.2974" y="94.228" width="8.9741" height="8.9741" rx="4.48705" fill="#145ECC"/>
<rect x="80.7671" y="95.7239" width="34.4007" height="1.49568" rx="0.747842" fill="#E0E0E0"/>
<rect x="80.7671" y="97.2195" width="34.4007" height="1.49568" rx="0.747842" fill="#E0E0E0"/>
<rect x="68.8018" y="107.689" width="47.8619" height="1.49568" rx="0.747842" fill="#E0E0E0"/>
<rect x="68.8018" y="109.185" width="47.8619" height="1.49568" rx="0.747842" fill="#E0E0E0"/>
<rect x="68.8018" y="113.672" width="47.8619" height="1.49568" rx="0.747842" fill="#E0E0E0"/>
<rect x="70.2974" y="115.168" width="26.9223" height="1.49568" rx="0.747842" fill="#E0E0E0"/>
<rect x="68.8018" y="118.159" width="47.8619" height="1.49568" rx="0.747842" fill="#E0E0E0"/>
<rect x="68.8018" y="122.646" width="47.8619" height="1.49568" rx="0.747842" fill="#E0E0E0"/>
<rect x="68.8018" y="125.637" width="47.8619" height="1.49568" rx="0.747842" fill="#E0E0E0"/>
<rect x="70.2974" y="127.133" width="26.9223" height="1.49568" rx="0.747842" fill="#E0E0E0"/>
<g opacity="0.5">
<rect x="97.3184" y="91.3916" width="44.6939" height="55.1548" fill="url(#paint82_linear_1513_18696)"/>
</g>
<rect x="98.7153" y="92.7322" width="43.3748" height="52.3489" fill="white"/>
<g opacity="0.5">
<path fill-rule="evenodd" clip-rule="evenodd" d="M122.03 100.47V101.93H125.454V109.086H113.712V101.93H117.136V100.47H122.03ZM121.417 101.002H117.735V101.93H121.417V101.002Z" fill="url(#paint83_linear_1513_18696)"/>
</g>
<rect x="115.167" y="103.202" width="10.4698" height="4.48705" fill="#145ECC"/>
<path d="M116.664 100.211V101.706H117.036V100.638H119.28V101.706H119.655V100.211H116.664Z" fill="#145ECC"/>
<rect x="103.202" y="115.168" width="31.4094" height="1.49568" fill="#E0E0E0"/>
<rect x="103.202" y="125.637" width="31.4094" height="1.49568" fill="#E0E0E0"/>
<rect x="103.202" y="127.133" width="31.4094" height="1.49568" fill="#E0E0E0"/>
<rect x="103.202" y="122.646" width="13.4612" height="1.49568" fill="#E0E0E0"/>
<rect opacity="0.6" x="124.142" y="122.646" width="10.4698" height="1.49568" fill="#3AD29F"/>
<rect x="115.167" y="131.62" width="10.4698" height="1.49568" fill="#145ECC"/>
<path d="M38.8877 109.185V207.641L111.2 225.848L112.176 128.134L38.8877 109.185Z" fill="#BEBEBE"/>
<path d="M180.978 207.272L109.185 225.848V128.134L180.978 109.185V207.272Z" fill="#BEBEBE"/>
<path opacity="0.07" d="M152.56 172.38V204.909L180.978 197.058V164.525L152.56 172.38Z" fill="#BEBEBE"/>
<rect x="145.082" y="100.211" width="20.9396" height="19.4439" fill="url(#paint84_linear_1513_18696)"/>
<rect x="145.082" y="100.211" width="19.4439" height="19.4439" fill="#F5F5F5"/>
<g opacity="0.5">
<path fill-rule="evenodd" clip-rule="evenodd" d="M157.281 103.259V104.017H159.82V107.683H151.112V104.008H153.652V103.259H157.281ZM156.829 103.541H154.106V104.017H156.829V103.541Z" fill="url(#paint85_linear_1513_18696)"/>
</g>
<rect opacity="0.6" x="149.568" y="103.202" width="8.9741" height="2.99137" fill="#145ECC"/>
<path opacity="0.6" d="M154.056 101.707V103.202H154.43V102.134H156.675V103.202H157.047V101.707H154.056Z" fill="#145ECC"/>
<g opacity="0.6">
<rect x="149.882" y="112.427" width="8.52885" height="0.996126" fill="#145ECC"/>
</g>
<rect x="148.073" y="113.672" width="13.4612" height="1.49568" fill="#BDBDBD"/>
<rect x="125.638" width="20.9396" height="19.4439" fill="url(#paint86_linear_1513_18696)"/>
<rect x="125.638" width="19.4439" height="19.4439" fill="#F5F5F5"/>
<g opacity="0.5">
<path fill-rule="evenodd" clip-rule="evenodd" d="M136.38 3.14551V3.85703H138.919V7.35693H130.211V3.85703H132.751V3.14551H136.38ZM135.927 3.40397H133.205V3.85695H135.927V3.40397Z" fill="url(#paint87_linear_1513_18696)"/>
</g>
<rect opacity="0.6" x="130.125" y="4.48706" width="8.9741" height="2.99137" fill="#145ECC"/>
<path opacity="0.6" d="M133.116 2.99121V4.48689H133.49V3.418H135.735V4.48689H136.107V2.99121H133.116Z" fill="#145ECC"/>
<g opacity="0.6">
<rect x="131.634" y="12.0625" width="8.87" height="1.24516" fill="#145ECC"/>
</g>
<rect x="128.629" y="13.4609" width="13.4612" height="1.49568" fill="#BDBDBD"/>
<g opacity="0.5">
<rect x="94.3638" y="37.5811" width="26.5547" height="22.2434" fill="url(#paint88_linear_1513_18696)"/>
</g>
<rect x="94.228" y="37.3921" width="26.9223" height="22.4353" fill="#F2F2F2"/>
<rect x="94.228" y="38.8877" width="26.9223" height="4.48705" fill="#145ECC"/>
<rect opacity="0.1" x="94.228" y="38.8877" width="26.9223" height="4.48705" fill="black"/>
<rect x="97.2197" y="44.8706" width="20.9396" height="2.99137" fill="#E0E0E0"/>
<rect x="97.2197" y="47.8618" width="16.4525" height="1.49568" fill="#E0E0E0"/>
<rect x="95.7236" y="52.3489" width="10.4698" height="1.49568" fill="#E0E0E0"/>
<rect x="97.2197" y="52.3489" width="14.9568" height="1.49568" fill="#E0E0E0"/>
<rect x="97.2197" y="53.8447" width="16.4525" height="1.49568" fill="#E0E0E0"/>
<rect x="97.2197" y="55.3401" width="5.98274" height="1.49568" fill="#E0E0E0"/>
<g opacity="0.5">
<rect x="134.706" y="53.9111" width="32.5331" height="28.2336" fill="url(#paint89_linear_1513_18696)"/>
</g>
<rect x="134.612" y="55.3401" width="32.905" height="26.9223" fill="white"/>
<rect x="134.612" y="55.3401" width="32.905" height="4.48705" fill="#145ECC"/>
<rect x="137.603" y="64.3142" width="26.9223" height="2.99137" fill="#F5F5F5"/>
<rect x="137.603" y="70.2974" width="19.4439" height="1.49568" fill="#E0E0E0"/>
<rect x="137.603" y="71.7927" width="13.4612" height="1.49568" fill="#E0E0E0"/>
<rect x="136.107" y="73.2883" width="17.9482" height="1.49568" fill="#E0E0E0"/>
<rect x="137.603" y="74.7839" width="19.4439" height="1.49568" fill="#E0E0E0"/>
<rect x="137.603" y="76.2798" width="5.98274" height="1.49568" fill="#E0E0E0"/>
<rect x="137.603" y="62.8188" width="8.9741" height="1.49568" fill="#69F0AE"/>
<path opacity="0.1" d="M37.3921 158.98L78.023 169.012L110.681 143V127.022L38.1504 109.185L37.3921 158.98Z" fill="black"/>
<path opacity="0.1" d="M183.969 158.98L143.338 169.012L110.68 143V127.022L183.21 109.185L183.969 158.98Z" fill="black"/>
<path d="M38.0137 107.689L1.49561 137.741L72.6668 155.551L109.185 126.612L38.0137 107.689Z" fill="#BEBEBE"/>
<path d="M181.606 107.689L218.369 137.742L147.816 155.551L110.68 126.612L181.606 107.689Z" fill="#BEBEBE"/>
<defs>
<linearGradient id="paint0_linear_1513_18696" x1="109.437" y1="227.12" x2="181.762" y2="227.12" gradientUnits="userSpaceOnUse">
<stop stop-color="#808080" stop-opacity="0.25"/>
<stop offset="0.54" stop-color="#808080" stop-opacity="0.12"/>
<stop offset="1" stop-color="#808080" stop-opacity="0.1"/>
</linearGradient>
<linearGradient id="paint1_linear_1513_18696" x1="109.437" y1="227.119" x2="181.763" y2="227.119" gradientUnits="userSpaceOnUse">
<stop stop-color="#808080" stop-opacity="0.25"/>
<stop offset="0.54" stop-color="#808080" stop-opacity="0.12"/>
<stop offset="1" stop-color="#808080" stop-opacity="0.1"/>
</linearGradient>
<linearGradient id="paint2_linear_1513_18696" x1="37.1079" y1="227.119" x2="109.436" y2="227.119" gradientUnits="userSpaceOnUse">
<stop stop-color="#808080" stop-opacity="0.25"/>
<stop offset="0.54" stop-color="#808080" stop-opacity="0.12"/>
<stop offset="1" stop-color="#808080" stop-opacity="0.1"/>
</linearGradient>
<linearGradient id="paint3_linear_1513_18696" x1="37.1079" y1="227.119" x2="109.436" y2="227.119" gradientUnits="userSpaceOnUse">
<stop stop-color="#808080" stop-opacity="0.25"/>
<stop offset="0.54" stop-color="#808080" stop-opacity="0.12"/>
<stop offset="1" stop-color="#808080" stop-opacity="0.1"/>
</linearGradient>
<linearGradient id="paint4_linear_1513_18696" x1="109.437" y1="109.401" x2="219.25" y2="109.401" gradientUnits="userSpaceOnUse">
<stop stop-color="#808080" stop-opacity="0.25"/>
<stop offset="0.54" stop-color="#808080" stop-opacity="0.12"/>
<stop offset="1" stop-color="#808080" stop-opacity="0.1"/>
</linearGradient>
<linearGradient id="paint5_linear_1513_18696" x1="0" y1="109.401" x2="109.437" y2="109.401" gradientUnits="userSpaceOnUse">
<stop stop-color="#808080" stop-opacity="0.25"/>
<stop offset="0.54" stop-color="#808080" stop-opacity="0.12"/>
<stop offset="1" stop-color="#808080" stop-opacity="0.1"/>
</linearGradient>
<linearGradient id="paint6_linear_1513_18696" x1="0" y1="109.401" x2="109.437" y2="109.401" gradientUnits="userSpaceOnUse">
<stop stop-color="#808080" stop-opacity="0.25"/>
<stop offset="0.54" stop-color="#808080" stop-opacity="0.12"/>
<stop offset="1" stop-color="#808080" stop-opacity="0.1"/>
</linearGradient>
<linearGradient id="paint7_linear_1513_18696" x1="109.474" y1="125.592" x2="109.474" y2="76.5576" gradientUnits="userSpaceOnUse">
<stop stop-color="#808080" stop-opacity="0.25"/>
<stop offset="0.54" stop-color="#808080" stop-opacity="0.12"/>
<stop offset="1" stop-color="#808080" stop-opacity="0.1"/>
</linearGradient>
<linearGradient id="paint8_linear_1513_18696" x1="56.4458" y1="124.785" x2="108.892" y2="124.785" gradientUnits="userSpaceOnUse">
<stop stop-color="#808080" stop-opacity="0.25"/>
<stop offset="0.54" stop-color="#808080" stop-opacity="0.12"/>
<stop offset="1" stop-color="#808080" stop-opacity="0.1"/>
</linearGradient>
<linearGradient id="paint9_linear_1513_18696" x1="60.4873" y1="92.697" x2="69.332" y2="92.697" gradientUnits="userSpaceOnUse">
<stop stop-color="#808080" stop-opacity="0.25"/>
<stop offset="0.54" stop-color="#808080" stop-opacity="0.12"/>
<stop offset="1" stop-color="#808080" stop-opacity="0.1"/>
</linearGradient>
<linearGradient id="paint10_linear_1513_18696" x1="71.9849" y1="85.6927" x2="107.145" y2="85.6927" gradientUnits="userSpaceOnUse">
<stop stop-color="#808080" stop-opacity="0.25"/>
<stop offset="0.54" stop-color="#808080" stop-opacity="0.12"/>
<stop offset="1" stop-color="#808080" stop-opacity="0.1"/>
</linearGradient>
<linearGradient id="paint11_linear_1513_18696" x1="71.9849" y1="88.319" x2="107.145" y2="88.319" gradientUnits="userSpaceOnUse">
<stop stop-color="#808080" stop-opacity="0.25"/>
<stop offset="0.54" stop-color="#808080" stop-opacity="0.12"/>
<stop offset="1" stop-color="#808080" stop-opacity="0.1"/>
</linearGradient>
<linearGradient id="paint12_linear_1513_18696" x1="59.6035" y1="97.8561" x2="107.145" y2="97.8561" gradientUnits="userSpaceOnUse">
<stop stop-color="#808080" stop-opacity="0.25"/>
<stop offset="0.54" stop-color="#808080" stop-opacity="0.12"/>
<stop offset="1" stop-color="#808080" stop-opacity="0.1"/>
</linearGradient>
<linearGradient id="paint13_linear_1513_18696" x1="59.6035" y1="100.482" x2="107.145" y2="100.482" gradientUnits="userSpaceOnUse">
<stop stop-color="#808080" stop-opacity="0.25"/>
<stop offset="0.54" stop-color="#808080" stop-opacity="0.12"/>
<stop offset="1" stop-color="#808080" stop-opacity="0.1"/>
</linearGradient>
<linearGradient id="paint14_linear_1513_18696" x1="59.6035" y1="103.984" x2="107.145" y2="103.984" gradientUnits="userSpaceOnUse">
<stop stop-color="#808080" stop-opacity="0.25"/>
<stop offset="0.54" stop-color="#808080" stop-opacity="0.12"/>
<stop offset="1" stop-color="#808080" stop-opacity="0.1"/>
</linearGradient>
<linearGradient id="paint15_linear_1513_18696" x1="59.6035" y1="106.612" x2="87.0217" y2="106.612" gradientUnits="userSpaceOnUse">
<stop stop-color="#808080" stop-opacity="0.25"/>
<stop offset="0.54" stop-color="#808080" stop-opacity="0.12"/>
<stop offset="1" stop-color="#808080" stop-opacity="0.1"/>
</linearGradient>
<linearGradient id="paint16_linear_1513_18696" x1="59.6035" y1="110.105" x2="107.145" y2="110.105" gradientUnits="userSpaceOnUse">
<stop stop-color="#808080" stop-opacity="0.25"/>
<stop offset="0.54" stop-color="#808080" stop-opacity="0.12"/>
<stop offset="1" stop-color="#808080" stop-opacity="0.1"/>
</linearGradient>
<linearGradient id="paint17_linear_1513_18696" x1="59.6035" y1="112.731" x2="107.145" y2="112.731" gradientUnits="userSpaceOnUse">
<stop stop-color="#808080" stop-opacity="0.25"/>
<stop offset="0.54" stop-color="#808080" stop-opacity="0.12"/>
<stop offset="1" stop-color="#808080" stop-opacity="0.1"/>
</linearGradient>
<linearGradient id="paint18_linear_1513_18696" x1="59.6035" y1="116.235" x2="107.145" y2="116.235" gradientUnits="userSpaceOnUse">
<stop stop-color="#808080" stop-opacity="0.25"/>
<stop offset="0.54" stop-color="#808080" stop-opacity="0.12"/>
<stop offset="1" stop-color="#808080" stop-opacity="0.1"/>
</linearGradient>
<linearGradient id="paint19_linear_1513_18696" x1="59.6035" y1="118.861" x2="87.0217" y2="118.861" gradientUnits="userSpaceOnUse">
<stop stop-color="#808080" stop-opacity="0.25"/>
<stop offset="0.54" stop-color="#808080" stop-opacity="0.12"/>
<stop offset="1" stop-color="#808080" stop-opacity="0.1"/>
</linearGradient>
<linearGradient id="paint20_linear_1513_18696" x1="117.576" y1="136.924" x2="117.576" y2="87.8867" gradientUnits="userSpaceOnUse">
<stop stop-color="#808080" stop-opacity="0.25"/>
<stop offset="0.54" stop-color="#808080" stop-opacity="0.12"/>
<stop offset="1" stop-color="#808080" stop-opacity="0.1"/>
</linearGradient>
<linearGradient id="paint21_linear_1513_18696" x1="64.5474" y1="136.117" x2="116.994" y2="136.117" gradientUnits="userSpaceOnUse">
<stop stop-color="#808080" stop-opacity="0.25"/>
<stop offset="0.54" stop-color="#808080" stop-opacity="0.12"/>
<stop offset="1" stop-color="#808080" stop-opacity="0.1"/>
</linearGradient>
<linearGradient id="paint22_linear_1513_18696" x1="68.5889" y1="104.029" x2="77.4335" y2="104.029" gradientUnits="userSpaceOnUse">
<stop stop-color="#808080" stop-opacity="0.25"/>
<stop offset="0.54" stop-color="#808080" stop-opacity="0.12"/>
<stop offset="1" stop-color="#808080" stop-opacity="0.1"/>
</linearGradient>
<linearGradient id="paint23_linear_1513_18696" x1="80.0894" y1="97.025" x2="115.25" y2="97.025" gradientUnits="userSpaceOnUse">
<stop stop-color="#808080" stop-opacity="0.25"/>
<stop offset="0.54" stop-color="#808080" stop-opacity="0.12"/>
<stop offset="1" stop-color="#808080" stop-opacity="0.1"/>
</linearGradient>
<linearGradient id="paint24_linear_1513_18696" x1="80.0894" y1="99.651" x2="115.25" y2="99.651" gradientUnits="userSpaceOnUse">
<stop stop-color="#808080" stop-opacity="0.25"/>
<stop offset="0.54" stop-color="#808080" stop-opacity="0.12"/>
<stop offset="1" stop-color="#808080" stop-opacity="0.1"/>
</linearGradient>
<linearGradient id="paint25_linear_1513_18696" x1="67.7046" y1="109.185" x2="115.25" y2="109.185" gradientUnits="userSpaceOnUse">
<stop stop-color="#808080" stop-opacity="0.25"/>
<stop offset="0.54" stop-color="#808080" stop-opacity="0.12"/>
<stop offset="1" stop-color="#808080" stop-opacity="0.1"/>
</linearGradient>
<linearGradient id="paint26_linear_1513_18696" x1="67.7046" y1="111.814" x2="115.25" y2="111.814" gradientUnits="userSpaceOnUse">
<stop stop-color="#808080" stop-opacity="0.25"/>
<stop offset="0.54" stop-color="#808080" stop-opacity="0.12"/>
<stop offset="1" stop-color="#808080" stop-opacity="0.1"/>
</linearGradient>
<linearGradient id="paint27_linear_1513_18696" x1="67.7046" y1="115.316" x2="115.25" y2="115.316" gradientUnits="userSpaceOnUse">
<stop stop-color="#808080" stop-opacity="0.25"/>
<stop offset="0.54" stop-color="#808080" stop-opacity="0.12"/>
<stop offset="1" stop-color="#808080" stop-opacity="0.1"/>
</linearGradient>
<linearGradient id="paint28_linear_1513_18696" x1="67.7046" y1="117.942" x2="95.1227" y2="117.942" gradientUnits="userSpaceOnUse">
<stop stop-color="#808080" stop-opacity="0.25"/>
<stop offset="0.54" stop-color="#808080" stop-opacity="0.12"/>
<stop offset="1" stop-color="#808080" stop-opacity="0.1"/>
</linearGradient>
<linearGradient id="paint29_linear_1513_18696" x1="67.7046" y1="121.437" x2="115.25" y2="121.437" gradientUnits="userSpaceOnUse">
<stop stop-color="#808080" stop-opacity="0.25"/>
<stop offset="0.54" stop-color="#808080" stop-opacity="0.12"/>
<stop offset="1" stop-color="#808080" stop-opacity="0.1"/>
</linearGradient>
<linearGradient id="paint30_linear_1513_18696" x1="67.7046" y1="124.063" x2="115.25" y2="124.063" gradientUnits="userSpaceOnUse">
<stop stop-color="#808080" stop-opacity="0.25"/>
<stop offset="0.54" stop-color="#808080" stop-opacity="0.12"/>
<stop offset="1" stop-color="#808080" stop-opacity="0.1"/>
</linearGradient>
<linearGradient id="paint31_linear_1513_18696" x1="67.7046" y1="127.568" x2="115.25" y2="127.568" gradientUnits="userSpaceOnUse">
<stop stop-color="#808080" stop-opacity="0.25"/>
<stop offset="0.54" stop-color="#808080" stop-opacity="0.12"/>
<stop offset="1" stop-color="#808080" stop-opacity="0.1"/>
</linearGradient>
<linearGradient id="paint32_linear_1513_18696" x1="67.7046" y1="130.194" x2="95.1227" y2="130.194" gradientUnits="userSpaceOnUse">
<stop stop-color="#808080" stop-opacity="0.25"/>
<stop offset="0.54" stop-color="#808080" stop-opacity="0.12"/>
<stop offset="1" stop-color="#808080" stop-opacity="0.1"/>
</linearGradient>
<linearGradient id="paint33_linear_1513_18696" x1="141.625" y1="148.339" x2="141.625" y2="94.2332" gradientUnits="userSpaceOnUse">
<stop stop-color="#808080" stop-opacity="0.25"/>
<stop offset="0.54" stop-color="#808080" stop-opacity="0.12"/>
<stop offset="1" stop-color="#808080" stop-opacity="0.1"/>
</linearGradient>
<linearGradient id="paint34_linear_1513_18696" x1="96.542" y1="147.143" x2="140.637" y2="147.143" gradientUnits="userSpaceOnUse">
<stop stop-color="#808080" stop-opacity="0.25"/>
<stop offset="0.54" stop-color="#808080" stop-opacity="0.12"/>
<stop offset="1" stop-color="#808080" stop-opacity="0.1"/>
</linearGradient>
<linearGradient id="paint35_linear_1513_18696" x1="124.354" y1="109.801" x2="124.354" y2="102.073" gradientUnits="userSpaceOnUse">
<stop stop-color="#808080" stop-opacity="0.25"/>
<stop offset="0.54" stop-color="#808080" stop-opacity="0.12"/>
<stop offset="1" stop-color="#808080" stop-opacity="0.1"/>
</linearGradient>
<linearGradient id="paint36_linear_1513_18696" x1="113.311" y1="109.475" x2="123.867" y2="109.475" gradientUnits="userSpaceOnUse">
<stop stop-color="#808080" stop-opacity="0.25"/>
<stop offset="0.54" stop-color="#808080" stop-opacity="0.12"/>
<stop offset="1" stop-color="#808080" stop-opacity="0.1"/>
</linearGradient>
<linearGradient id="paint37_linear_1513_18696" x1="116.391" y1="103.924" x2="120.788" y2="103.924" gradientUnits="userSpaceOnUse">
<stop stop-color="#808080" stop-opacity="0.25"/>
<stop offset="0.54" stop-color="#808080" stop-opacity="0.12"/>
<stop offset="1" stop-color="#808080" stop-opacity="0.1"/>
</linearGradient>
<linearGradient id="paint38_linear_1513_18696" x1="103.14" y1="119.243" x2="134.149" y2="119.243" gradientUnits="userSpaceOnUse">
<stop stop-color="#808080" stop-opacity="0.25"/>
<stop offset="0.54" stop-color="#808080" stop-opacity="0.12"/>
<stop offset="1" stop-color="#808080" stop-opacity="0.1"/>
</linearGradient>
<linearGradient id="paint39_linear_1513_18696" x1="103.14" y1="127.843" x2="134.149" y2="127.843" gradientUnits="userSpaceOnUse">
<stop stop-color="#808080" stop-opacity="0.25"/>
<stop offset="0.54" stop-color="#808080" stop-opacity="0.12"/>
<stop offset="1" stop-color="#808080" stop-opacity="0.1"/>
</linearGradient>
<linearGradient id="paint40_linear_1513_18696" x1="103.14" y1="130.129" x2="134.149" y2="130.129" gradientUnits="userSpaceOnUse">
<stop stop-color="#808080" stop-opacity="0.25"/>
<stop offset="0.54" stop-color="#808080" stop-opacity="0.12"/>
<stop offset="1" stop-color="#808080" stop-opacity="0.1"/>
</linearGradient>
<linearGradient id="paint41_linear_1513_18696" x1="103.14" y1="125.557" x2="116.226" y2="125.557" gradientUnits="userSpaceOnUse">
<stop stop-color="#808080" stop-opacity="0.25"/>
<stop offset="0.54" stop-color="#808080" stop-opacity="0.12"/>
<stop offset="1" stop-color="#808080" stop-opacity="0.1"/>
</linearGradient>
<linearGradient id="paint42_linear_1513_18696" x1="124.363" y1="125.557" x2="134.149" y2="125.557" gradientUnits="userSpaceOnUse">
<stop stop-color="#808080" stop-opacity="0.25"/>
<stop offset="0.54" stop-color="#808080" stop-opacity="0.12"/>
<stop offset="1" stop-color="#808080" stop-opacity="0.1"/>
</linearGradient>
<linearGradient id="paint43_linear_1513_18696" x1="114.025" y1="135.464" x2="123.813" y2="135.464" gradientUnits="userSpaceOnUse">
<stop stop-color="#808080" stop-opacity="0.25"/>
<stop offset="0.54" stop-color="#808080" stop-opacity="0.12"/>
<stop offset="1" stop-color="#808080" stop-opacity="0.1"/>
</linearGradient>
<linearGradient id="paint44_linear_1513_18696" x1="37.1079" y1="227.118" x2="109.436" y2="227.118" gradientUnits="userSpaceOnUse">
<stop stop-color="#808080" stop-opacity="0.25"/>
<stop offset="0.54" stop-color="#808080" stop-opacity="0.12"/>
<stop offset="1" stop-color="#808080" stop-opacity="0.1"/>
</linearGradient>
<linearGradient id="paint45_linear_1513_18696" x1="109.437" y1="227.118" x2="181.762" y2="227.118" gradientUnits="userSpaceOnUse">
<stop stop-color="#808080" stop-opacity="0.25"/>
<stop offset="0.54" stop-color="#808080" stop-opacity="0.12"/>
<stop offset="1" stop-color="#808080" stop-opacity="0.1"/>
</linearGradient>
<linearGradient id="paint46_linear_1513_18696" x1="109.437" y1="227.118" x2="181.763" y2="227.118" gradientUnits="userSpaceOnUse">
<stop stop-color="#808080" stop-opacity="0.25"/>
<stop offset="0.54" stop-color="#808080" stop-opacity="0.12"/>
<stop offset="1" stop-color="#808080" stop-opacity="0.1"/>
</linearGradient>
<linearGradient id="paint47_linear_1513_18696" x1="152.982" y1="207.998" x2="181.762" y2="207.998" gradientUnits="userSpaceOnUse">
<stop stop-color="#808080" stop-opacity="0.25"/>
<stop offset="0.54" stop-color="#808080" stop-opacity="0.12"/>
<stop offset="1" stop-color="#808080" stop-opacity="0.1"/>
</linearGradient>
<linearGradient id="paint48_linear_1513_18696" x1="165.242" y1="121.405" x2="165.242" y2="101.115" gradientUnits="userSpaceOnUse">
<stop stop-color="#808080" stop-opacity="0.25"/>
<stop offset="0.54" stop-color="#808080" stop-opacity="0.12"/>
<stop offset="1" stop-color="#808080" stop-opacity="0.1"/>
</linearGradient>
<linearGradient id="paint49_linear_1513_18696" x1="144.245" y1="120.992" x2="164.907" y2="120.992" gradientUnits="userSpaceOnUse">
<stop stop-color="#808080" stop-opacity="0.25"/>
<stop offset="0.54" stop-color="#808080" stop-opacity="0.12"/>
<stop offset="1" stop-color="#808080" stop-opacity="0.1"/>
</linearGradient>
<linearGradient id="paint50_linear_1513_18696" x1="158.965" y1="109.895" x2="158.965" y2="104.013" gradientUnits="userSpaceOnUse">
<stop stop-color="#808080" stop-opacity="0.25"/>
<stop offset="0.54" stop-color="#808080" stop-opacity="0.12"/>
<stop offset="1" stop-color="#808080" stop-opacity="0.1"/>
</linearGradient>
<linearGradient id="paint51_linear_1513_18696" x1="150.56" y1="109.647" x2="158.592" y2="109.647" gradientUnits="userSpaceOnUse">
<stop stop-color="#808080" stop-opacity="0.25"/>
<stop offset="0.54" stop-color="#808080" stop-opacity="0.12"/>
<stop offset="1" stop-color="#808080" stop-opacity="0.1"/>
</linearGradient>
<linearGradient id="paint52_linear_1513_18696" x1="152.904" y1="105.424" x2="156.25" y2="105.424" gradientUnits="userSpaceOnUse">
<stop stop-color="#808080" stop-opacity="0.25"/>
<stop offset="0.54" stop-color="#808080" stop-opacity="0.12"/>
<stop offset="1" stop-color="#808080" stop-opacity="0.1"/>
</linearGradient>
<linearGradient id="paint53_linear_1513_18696" x1="151.02" y1="114.118" x2="158.466" y2="114.118" gradientUnits="userSpaceOnUse">
<stop stop-color="#808080" stop-opacity="0.25"/>
<stop offset="0.54" stop-color="#808080" stop-opacity="0.12"/>
<stop offset="1" stop-color="#808080" stop-opacity="0.1"/>
</linearGradient>
<linearGradient id="paint54_linear_1513_18696" x1="148.217" y1="115.939" x2="160.933" y2="115.939" gradientUnits="userSpaceOnUse">
<stop stop-color="#808080" stop-opacity="0.25"/>
<stop offset="0.54" stop-color="#808080" stop-opacity="0.12"/>
<stop offset="1" stop-color="#808080" stop-opacity="0.1"/>
</linearGradient>
<linearGradient id="paint55_linear_1513_18696" x1="120.981" y1="61.5673" x2="120.981" y2="39.092" gradientUnits="userSpaceOnUse">
<stop stop-color="#808080" stop-opacity="0.25"/>
<stop offset="0.54" stop-color="#808080" stop-opacity="0.12"/>
<stop offset="1" stop-color="#808080" stop-opacity="0.1"/>
</linearGradient>
<linearGradient id="paint56_linear_1513_18696" x1="93.665" y1="61.1946" x2="120.605" y2="61.1946" gradientUnits="userSpaceOnUse">
<stop stop-color="#808080" stop-opacity="0.25"/>
<stop offset="0.54" stop-color="#808080" stop-opacity="0.12"/>
<stop offset="1" stop-color="#808080" stop-opacity="0.1"/>
</linearGradient>
<linearGradient id="paint57_linear_1513_18696" x1="93.665" y1="44.3515" x2="120.605" y2="44.3515" gradientUnits="userSpaceOnUse">
<stop stop-color="#808080" stop-opacity="0.25"/>
<stop offset="0.54" stop-color="#808080" stop-opacity="0.12"/>
<stop offset="1" stop-color="#808080" stop-opacity="0.1"/>
</linearGradient>
<linearGradient id="paint58_linear_1513_18696" x1="93.665" y1="44.3515" x2="120.605" y2="44.3515" gradientUnits="userSpaceOnUse">
<stop stop-color="#808080" stop-opacity="0.25"/>
<stop offset="0.54" stop-color="#808080" stop-opacity="0.12"/>
<stop offset="1" stop-color="#808080" stop-opacity="0.1"/>
</linearGradient>
<linearGradient id="paint59_linear_1513_18696" x1="95.813" y1="48.9218" x2="118.458" y2="48.9218" gradientUnits="userSpaceOnUse">
<stop stop-color="#808080" stop-opacity="0.25"/>
<stop offset="0.54" stop-color="#808080" stop-opacity="0.12"/>
<stop offset="1" stop-color="#808080" stop-opacity="0.1"/>
</linearGradient>
<linearGradient id="paint60_linear_1513_18696" x1="95.813" y1="52.0017" x2="112.34" y2="52.0017" gradientUnits="userSpaceOnUse">
<stop stop-color="#808080" stop-opacity="0.25"/>
<stop offset="0.54" stop-color="#808080" stop-opacity="0.12"/>
<stop offset="1" stop-color="#808080" stop-opacity="0.1"/>
</linearGradient>
<linearGradient id="paint61_linear_1513_18696" x1="95.813" y1="53.6493" x2="106.545" y2="53.6493" gradientUnits="userSpaceOnUse">
<stop stop-color="#808080" stop-opacity="0.25"/>
<stop offset="0.54" stop-color="#808080" stop-opacity="0.12"/>
<stop offset="1" stop-color="#808080" stop-opacity="0.1"/>
</linearGradient>
<linearGradient id="paint62_linear_1513_18696" x1="95.813" y1="55.2962" x2="109.981" y2="55.2962" gradientUnits="userSpaceOnUse">
<stop stop-color="#808080" stop-opacity="0.25"/>
<stop offset="0.54" stop-color="#808080" stop-opacity="0.12"/>
<stop offset="1" stop-color="#808080" stop-opacity="0.1"/>
</linearGradient>
<linearGradient id="paint63_linear_1513_18696" x1="95.813" y1="56.9437" x2="112.34" y2="56.9437" gradientUnits="userSpaceOnUse">
<stop stop-color="#808080" stop-opacity="0.25"/>
<stop offset="0.54" stop-color="#808080" stop-opacity="0.12"/>
<stop offset="1" stop-color="#808080" stop-opacity="0.1"/>
</linearGradient>
<linearGradient id="paint64_linear_1513_18696" x1="95.813" y1="58.591" x2="101.339" y2="58.591" gradientUnits="userSpaceOnUse">
<stop stop-color="#808080" stop-opacity="0.25"/>
<stop offset="0.54" stop-color="#808080" stop-opacity="0.12"/>
<stop offset="1" stop-color="#808080" stop-opacity="0.1"/>
</linearGradient>
<linearGradient id="paint65_linear_1513_18696" x1="168.231" y1="83.8238" x2="168.231" y2="55.9692" gradientUnits="userSpaceOnUse">
<stop stop-color="#808080" stop-opacity="0.25"/>
<stop offset="0.54" stop-color="#808080" stop-opacity="0.12"/>
<stop offset="1" stop-color="#808080" stop-opacity="0.1"/>
</linearGradient>
<linearGradient id="paint66_linear_1513_18696" x1="134.376" y1="83.3597" x2="167.765" y2="83.3597" gradientUnits="userSpaceOnUse">
<stop stop-color="#808080" stop-opacity="0.25"/>
<stop offset="0.54" stop-color="#808080" stop-opacity="0.12"/>
<stop offset="1" stop-color="#808080" stop-opacity="0.1"/>
</linearGradient>
<linearGradient id="paint67_linear_1513_18696" x1="134.376" y1="62.4868" x2="167.765" y2="62.4868" gradientUnits="userSpaceOnUse">
<stop stop-color="#808080" stop-opacity="0.25"/>
<stop offset="0.54" stop-color="#808080" stop-opacity="0.12"/>
<stop offset="1" stop-color="#808080" stop-opacity="0.1"/>
</linearGradient>
<linearGradient id="paint68_linear_1513_18696" x1="137.034" y1="68.15" x2="165.104" y2="68.15" gradientUnits="userSpaceOnUse">
<stop stop-color="#808080" stop-opacity="0.25"/>
<stop offset="0.54" stop-color="#808080" stop-opacity="0.12"/>
<stop offset="1" stop-color="#808080" stop-opacity="0.1"/>
</linearGradient>
<linearGradient id="paint69_linear_1513_18696" x1="137.034" y1="71.9695" x2="157.522" y2="71.9695" gradientUnits="userSpaceOnUse">
<stop stop-color="#808080" stop-opacity="0.25"/>
<stop offset="0.54" stop-color="#808080" stop-opacity="0.12"/>
<stop offset="1" stop-color="#808080" stop-opacity="0.1"/>
</linearGradient>
<linearGradient id="paint70_linear_1513_18696" x1="137.034" y1="74.0128" x2="150.339" y2="74.0128" gradientUnits="userSpaceOnUse">
<stop stop-color="#808080" stop-opacity="0.25"/>
<stop offset="0.54" stop-color="#808080" stop-opacity="0.12"/>
<stop offset="1" stop-color="#808080" stop-opacity="0.1"/>
</linearGradient>
<linearGradient id="paint71_linear_1513_18696" x1="137.034" y1="76.0535" x2="154.595" y2="76.0535" gradientUnits="userSpaceOnUse">
<stop stop-color="#808080" stop-opacity="0.25"/>
<stop offset="0.54" stop-color="#808080" stop-opacity="0.12"/>
<stop offset="1" stop-color="#808080" stop-opacity="0.1"/>
</linearGradient>
<linearGradient id="paint72_linear_1513_18696" x1="137.034" y1="78.0938" x2="157.522" y2="78.0938" gradientUnits="userSpaceOnUse">
<stop stop-color="#808080" stop-opacity="0.25"/>
<stop offset="0.54" stop-color="#808080" stop-opacity="0.12"/>
<stop offset="1" stop-color="#808080" stop-opacity="0.1"/>
</linearGradient>
<linearGradient id="paint73_linear_1513_18696" x1="137.034" y1="80.1373" x2="143.886" y2="80.1373" gradientUnits="userSpaceOnUse">
<stop stop-color="#808080" stop-opacity="0.25"/>
<stop offset="0.54" stop-color="#808080" stop-opacity="0.12"/>
<stop offset="1" stop-color="#808080" stop-opacity="0.1"/>
</linearGradient>
<linearGradient id="paint74_linear_1513_18696" x1="138.498" y1="66.899" x2="146.479" y2="66.899" gradientUnits="userSpaceOnUse">
<stop stop-color="#808080" stop-opacity="0.25"/>
<stop offset="0.54" stop-color="#808080" stop-opacity="0.12"/>
<stop offset="1" stop-color="#808080" stop-opacity="0.1"/>
</linearGradient>
<linearGradient id="paint75_linear_1513_18696" x1="36.1641" y1="171.072" x2="109.245" y2="171.072" gradientUnits="userSpaceOnUse">
<stop stop-color="#808080" stop-opacity="0.25"/>
<stop offset="0.54" stop-color="#808080" stop-opacity="0.12"/>
<stop offset="1" stop-color="#808080" stop-opacity="0.1"/>
</linearGradient>
<linearGradient id="paint76_linear_1513_18696" x1="109.246" y1="171.072" x2="182.33" y2="171.072" gradientUnits="userSpaceOnUse">
<stop stop-color="#808080" stop-opacity="0.25"/>
<stop offset="0.54" stop-color="#808080" stop-opacity="0.12"/>
<stop offset="1" stop-color="#808080" stop-opacity="0.1"/>
</linearGradient>
<linearGradient id="paint77_linear_1513_18696" x1="0" y1="157.765" x2="109.437" y2="157.765" gradientUnits="userSpaceOnUse">
<stop stop-color="#808080" stop-opacity="0.25"/>
<stop offset="0.54" stop-color="#808080" stop-opacity="0.12"/>
<stop offset="1" stop-color="#808080" stop-opacity="0.1"/>
</linearGradient>
<linearGradient id="paint78_linear_1513_18696" x1="109.437" y1="157.765" x2="219.25" y2="157.765" gradientUnits="userSpaceOnUse">
<stop stop-color="#808080" stop-opacity="0.25"/>
<stop offset="0.54" stop-color="#808080" stop-opacity="0.12"/>
<stop offset="1" stop-color="#808080" stop-opacity="0.1"/>
</linearGradient>
<linearGradient id="paint79_linear_1513_18696" x1="109.437" y1="157.765" x2="219.25" y2="157.765" gradientUnits="userSpaceOnUse">
<stop stop-color="#808080" stop-opacity="0.25"/>
<stop offset="0.54" stop-color="#808080" stop-opacity="0.12"/>
<stop offset="1" stop-color="#808080" stop-opacity="0.1"/>
</linearGradient>
<linearGradient id="paint80_linear_1513_18696" x1="110.385" y1="125.526" x2="110.385" y2="74.8579" gradientUnits="userSpaceOnUse">
<stop stop-color="#808080" stop-opacity="0.25"/>
<stop offset="0.54" stop-color="#808080" stop-opacity="0.12"/>
<stop offset="1" stop-color="#808080" stop-opacity="0.1"/>
</linearGradient>
<linearGradient id="paint81_linear_1513_18696" x1="118.132" y1="135.993" x2="118.132" y2="85.3245" gradientUnits="userSpaceOnUse">
<stop stop-color="#808080" stop-opacity="0.25"/>
<stop offset="0.54" stop-color="#808080" stop-opacity="0.12"/>
<stop offset="1" stop-color="#808080" stop-opacity="0.1"/>
</linearGradient>
<linearGradient id="paint82_linear_1513_18696" x1="142.014" y1="146.546" x2="142.014" y2="91.3916" gradientUnits="userSpaceOnUse">
<stop stop-color="#808080" stop-opacity="0.25"/>
<stop offset="0.54" stop-color="#808080" stop-opacity="0.12"/>
<stop offset="1" stop-color="#808080" stop-opacity="0.1"/>
</linearGradient>
<linearGradient id="paint83_linear_1513_18696" x1="125.455" y1="109.086" x2="125.455" y2="100.47" gradientUnits="userSpaceOnUse">
<stop stop-color="#808080" stop-opacity="0.25"/>
<stop offset="0.54" stop-color="#808080" stop-opacity="0.12"/>
<stop offset="1" stop-color="#808080" stop-opacity="0.1"/>
</linearGradient>
<linearGradient id="paint84_linear_1513_18696" x1="166.021" y1="119.655" x2="166.021" y2="100.211" gradientUnits="userSpaceOnUse">
<stop stop-color="#808080" stop-opacity="0.25"/>
<stop offset="0.54" stop-color="#808080" stop-opacity="0.12"/>
<stop offset="1" stop-color="#808080" stop-opacity="0.1"/>
</linearGradient>
<linearGradient id="paint85_linear_1513_18696" x1="159.816" y1="107.692" x2="159.816" y2="103.27" gradientUnits="userSpaceOnUse">
<stop stop-color="#808080" stop-opacity="0.25"/>
<stop offset="0.54" stop-color="#808080" stop-opacity="0.12"/>
<stop offset="1" stop-color="#808080" stop-opacity="0.1"/>
</linearGradient>
<linearGradient id="paint86_linear_1513_18696" x1="146.577" y1="19.4439" x2="146.577" y2="0" gradientUnits="userSpaceOnUse">
<stop stop-color="#808080" stop-opacity="0.25"/>
<stop offset="0.54" stop-color="#808080" stop-opacity="0.12"/>
<stop offset="1" stop-color="#808080" stop-opacity="0.1"/>
</linearGradient>
<linearGradient id="paint87_linear_1513_18696" x1="138.918" y1="7.35693" x2="138.918" y2="3.14551" gradientUnits="userSpaceOnUse">
<stop stop-color="#808080" stop-opacity="0.25"/>
<stop offset="0.54" stop-color="#808080" stop-opacity="0.12"/>
<stop offset="1" stop-color="#808080" stop-opacity="0.1"/>
</linearGradient>
<linearGradient id="paint88_linear_1513_18696" x1="120.92" y1="59.8244" x2="120.92" y2="37.5811" gradientUnits="userSpaceOnUse">
<stop stop-color="#808080" stop-opacity="0.25"/>
<stop offset="0.54" stop-color="#808080" stop-opacity="0.12"/>
<stop offset="1" stop-color="#808080" stop-opacity="0.1"/>
</linearGradient>
<linearGradient id="paint89_linear_1513_18696" x1="167.239" y1="82.1447" x2="167.239" y2="53.9111" gradientUnits="userSpaceOnUse">
<stop stop-color="#808080" stop-opacity="0.25"/>
<stop offset="0.54" stop-color="#808080" stop-opacity="0.12"/>
<stop offset="1" stop-color="#808080" stop-opacity="0.1"/>
</linearGradient>
</defs>
</svg>
