<svg width="650" height="155" viewBox="0 0 650 155" fill="none" xmlns="http://www.w3.org/2000/svg">
<g clip-path="url(#clip0_3875_7560)">
<path d="M24 86.0358C24.1727 82.7273 25.6054 79.6115 28.0026 77.3309C30.3998 75.0503 33.5786 73.7789 36.8835 73.7788C37.2755 73.7788 37.6627 73.7992 38.0459 73.8324C39.553 71.2333 41.714 69.0761 44.313 67.5761C46.9121 66.0762 49.8582 65.286 52.8572 65.2846C55.8562 65.2832 58.803 66.0706 61.4035 67.5681C64.0039 69.0656 66.1669 71.2208 67.6765 73.8185C67.9997 73.7941 68.3251 73.7777 68.6548 73.7777C71.9596 73.7778 75.1384 75.0492 77.5356 77.3298C79.9327 79.6103 81.3654 82.7261 81.5382 86.0344" fill="#B9BCDF"/>
<path d="M26.6868 85.0412C26.8595 81.7327 28.2922 78.6169 30.6894 76.3363C33.0865 74.0557 36.2654 72.7843 39.5702 72.7842C39.9623 72.7842 40.3495 72.8046 40.7326 72.8378C42.2397 70.2387 44.4007 68.0814 46.9998 66.5815C49.5988 65.0815 52.545 64.2914 55.544 64.29C58.5429 64.2886 61.4898 65.0759 64.0903 66.5734C66.6907 68.0709 68.8537 70.2262 70.3633 72.8239C70.6865 72.7995 71.0119 72.7831 71.3415 72.7831C74.6464 72.7832 77.8252 74.0546 80.2223 76.3351C82.6195 78.6157 84.0522 81.7314 84.225 85.0398" stroke="#3F3D56" stroke-miterlimit="10"/>
<path d="M41.6675 132.969C42.2392 122.019 46.981 111.706 54.9152 104.158C62.8493 96.6098 73.3705 92.4016 84.3089 92.4014C85.6067 92.4014 86.8882 92.4692 88.1566 92.583C93.1447 83.9805 100.297 76.8404 108.899 71.8759C117.501 66.9115 127.252 64.2963 137.178 64.2916C147.104 64.2869 156.858 66.8928 165.465 71.8492C174.072 76.8055 181.231 83.9388 186.227 92.5366C187.297 92.4561 188.374 92.4024 189.465 92.4024C200.403 92.4026 210.924 96.6107 218.858 104.159C226.792 111.707 231.534 122.019 232.106 132.969" fill="#F2F2F2"/>
<path d="M50.5613 129.677C51.1332 118.727 55.8752 108.414 63.8093 100.866C71.7434 93.3181 82.2645 89.11 93.2027 89.1098C94.5005 89.1098 95.782 89.1777 97.0504 89.2914C102.039 80.6889 109.191 73.5489 117.793 68.5844C126.395 63.6199 136.146 61.0047 146.072 61C155.998 60.9953 165.752 63.6013 174.358 68.5576C182.965 73.514 190.124 80.6472 195.121 89.245C196.191 89.1645 197.268 89.1109 198.358 89.1109C209.297 89.111 219.818 93.319 227.752 100.867C235.686 108.415 240.428 118.727 241 129.677" stroke="#3F3D56" stroke-miterlimit="10"/>
<path d="M68.679 144.387C68.9126 139.911 70.8511 135.695 74.0947 132.609C77.3382 129.523 81.6394 127.803 86.1111 127.803C86.6418 127.803 87.1654 127.829 87.684 127.877C89.7232 124.36 92.6471 121.441 96.1637 119.412C99.6804 117.382 103.667 116.313 107.724 116.311C111.782 116.309 115.769 117.375 119.288 119.401C122.806 121.427 125.733 124.343 127.776 127.858C128.213 127.825 128.653 127.803 129.099 127.803C133.571 127.803 137.872 129.523 141.115 132.609C144.359 135.694 146.297 139.91 146.531 144.387" fill="#B9CFF0"/>
<path d="M72.3149 143.041C72.5486 138.564 74.4871 134.348 77.7307 131.262C80.9743 128.176 85.2756 126.456 89.7474 126.456C90.278 126.456 90.8017 126.483 91.3202 126.53C93.3594 123.014 96.2834 120.095 99.8 118.065C103.317 116.036 107.303 114.967 111.361 114.965C115.419 114.963 119.406 116.028 122.924 118.054C126.443 120.08 129.37 122.997 131.412 126.511C131.85 126.478 132.29 126.456 132.736 126.456C137.207 126.456 141.509 128.176 144.752 131.262C147.996 134.348 149.935 138.564 150.168 143.041" stroke="#3F3D56" stroke-miterlimit="10"/>
<path d="M208 23.768C208.164 20.6271 209.521 17.669 211.792 15.5039C214.063 13.3388 217.074 12.1317 220.205 12.1317C220.577 12.1317 220.943 12.151 221.306 12.1826C222.734 9.7151 224.781 7.66708 227.244 6.24309C229.706 4.81909 232.497 4.06897 235.338 4.06763C238.179 4.06629 240.971 4.81378 243.434 6.23545C245.898 7.65712 247.947 9.7032 249.377 12.1694C249.683 12.1462 249.991 12.1307 250.304 12.1307C253.435 12.1307 256.446 13.3378 258.717 15.5028C260.988 17.6679 262.345 20.6258 262.509 23.7667" fill="#B9CFF0"/>
<path d="M210.545 22.8237C210.709 19.6828 212.066 16.7248 214.337 14.5596C216.608 12.3945 219.62 11.1875 222.751 11.1874C223.122 11.1874 223.489 11.2068 223.852 11.2383C225.28 8.77083 227.327 6.7228 229.789 5.29881C232.251 3.87482 235.042 3.12469 237.883 3.12335C240.724 3.12201 243.516 3.86951 245.98 5.29118C248.443 6.71285 250.492 8.75893 251.922 11.2251C252.229 11.2019 252.537 11.1864 252.849 11.1864C255.98 11.1865 258.991 12.3935 261.262 14.5585C263.533 16.7236 264.891 19.6816 265.054 22.8224" stroke="#3F3D56" stroke-miterlimit="10"/>
<path d="M224.737 68.3247C225.279 57.929 229.771 48.1386 237.287 40.9725C244.804 33.8065 254.771 29.8114 265.133 29.8112C266.363 29.8112 267.577 29.8756 268.778 29.9836C273.504 21.8167 280.28 15.0383 288.429 10.3252C296.578 5.6121 305.816 3.12934 315.219 3.12488C324.623 3.12042 333.863 5.59441 342.016 10.2998C350.17 15.0051 356.952 21.7772 361.685 29.9395C362.699 29.8631 363.719 29.8122 364.753 29.8122C375.115 29.8124 385.082 33.8073 392.599 40.9732C400.115 48.139 404.607 57.9292 405.149 68.3247" fill="#B9BCDF"/>
<path d="M233.163 65.1988C233.704 54.8033 238.197 45.0131 245.713 37.8473C253.229 30.6815 263.197 26.6865 273.559 26.6863C274.788 26.6863 276.002 26.7507 277.204 26.8587C281.93 18.6919 288.705 11.9134 296.855 7.20031C305.004 2.48722 314.242 0.00446499 323.645 6.01678e-06C333.048 -0.00445296 342.288 2.46954 350.442 7.17489C358.596 11.8803 365.378 18.6523 370.111 26.8147C371.125 26.7383 372.145 26.6873 373.178 26.6873C383.54 26.6875 393.507 30.6823 401.024 37.8479C408.54 45.0135 413.033 54.8035 413.575 65.1988" stroke="#3F3D56" stroke-miterlimit="10"/>
<path d="M250.327 79.1644C250.548 74.9146 252.385 70.9121 255.457 67.9826C258.53 65.0531 262.605 63.4198 266.841 63.4198C267.344 63.4198 267.84 63.4452 268.331 63.4903C270.263 60.1517 273.033 57.3806 276.365 55.4539C279.696 53.5272 283.472 52.5122 287.317 52.5104C291.161 52.5086 294.938 53.5199 298.271 55.4435C301.605 57.367 304.377 60.1354 306.312 63.4722C306.727 63.4409 307.144 63.4198 307.566 63.4198C311.802 63.4198 315.877 65.053 318.95 67.9824C322.022 70.9119 323.859 74.9142 324.08 79.1639" fill="#F2F2F2"/>
<path d="M253.771 77.8863C253.993 73.6364 255.829 69.6338 258.902 66.7042C261.975 63.7746 266.049 62.1414 270.286 62.1414C270.789 62.1414 271.285 62.1669 271.776 62.2119C273.708 58.8732 276.478 56.1021 279.809 54.1754C283.141 52.2486 286.917 51.2336 290.761 51.2318C294.605 51.23 298.383 52.2414 301.716 54.165C305.049 56.0885 307.822 58.857 309.757 62.1939C310.171 62.1625 310.588 62.1414 311.011 62.1414C315.247 62.1413 319.322 63.7745 322.395 66.7041C325.468 69.6336 327.304 73.6361 327.526 77.8861" stroke="#3F3D56" stroke-miterlimit="10"/>
<path d="M431 70.0889C431.173 66.7735 432.605 63.651 435.003 61.3656C437.4 59.0802 440.579 57.806 443.883 57.8059C444.276 57.8059 444.663 57.8264 445.046 57.8597C446.553 55.255 448.714 53.0932 451.313 51.5901C453.912 50.0869 456.858 49.2951 459.857 49.2937C462.856 49.2923 465.803 50.0813 468.404 51.582C471.004 53.0827 473.167 55.2425 474.677 57.8457C475 57.8212 475.325 57.8049 475.655 57.8049C478.96 57.8049 482.138 59.079 484.536 61.3644C486.933 63.6498 488.366 66.7722 488.538 70.0876" fill="#B9CFF0"/>
<path d="M433.687 69.0922C433.859 65.7767 435.292 62.6543 437.689 60.3689C440.086 58.0834 443.265 56.8093 446.57 56.8092C446.962 56.8092 447.349 56.8296 447.732 56.863C449.24 54.2583 451.401 52.0965 454 50.5933C456.599 49.0902 459.545 48.2984 462.544 48.297C465.543 48.2956 468.49 49.0846 471.09 50.5853C473.691 52.086 475.854 54.2458 477.363 56.849C477.686 56.8245 478.012 56.8081 478.341 56.8081C481.646 56.8082 484.825 58.0823 487.222 60.3677C489.619 62.6531 491.052 65.7754 491.225 69.0909" stroke="#3F3D56" stroke-miterlimit="10"/>
<path d="M448.667 117.122C449.239 106.149 453.981 95.814 461.915 88.2497C469.849 80.6854 480.37 76.4682 491.309 76.468C492.607 76.468 493.888 76.536 495.156 76.65C500.145 68.0293 507.297 60.8741 515.899 55.899C524.501 50.924 534.252 48.3033 544.178 48.2986C554.104 48.2939 563.858 50.9053 572.465 55.8722C581.071 60.8391 588.231 67.9875 593.227 76.6035C594.297 76.5229 595.374 76.4691 596.465 76.4691C607.403 76.4693 617.924 80.6863 625.858 88.2504C633.792 95.8145 638.534 106.149 639.106 117.122" fill="#F2F2F2"/>
<path d="M457.561 113.822C458.133 102.849 462.875 92.5148 470.809 84.9507C478.743 77.3867 489.264 73.1697 500.203 73.1695C501.5 73.1695 502.782 73.2375 504.05 73.3515C509.038 64.7307 516.191 57.5755 524.793 52.6005C533.395 47.6255 543.146 45.0047 553.072 45C562.998 44.9953 572.751 47.6068 581.358 52.5737C589.965 57.5405 597.124 64.6889 602.121 73.305C603.191 73.2243 604.268 73.1706 605.358 73.1706C616.297 73.1707 626.817 77.3876 634.752 84.9514C642.686 92.5153 647.428 102.849 648 113.822" stroke="#3F3D56" stroke-miterlimit="10"/>
<path d="M475.679 128.564C475.913 124.078 477.851 119.853 481.095 116.761C484.338 113.669 488.64 111.945 493.111 111.944C493.642 111.944 494.166 111.971 494.684 112.019C496.723 108.495 499.647 105.57 503.164 103.536C506.681 101.502 510.667 100.431 514.725 100.429C518.782 100.427 522.77 101.494 526.288 103.525C529.807 105.555 532.733 108.478 534.776 112C535.213 111.967 535.654 111.944 536.099 111.944C540.571 111.945 544.872 113.668 548.116 116.761C551.359 119.853 553.298 124.078 553.532 128.564" fill="#B9BCDF"/>
<path d="M479.315 127.215C479.549 122.729 481.487 118.504 484.731 115.412C487.974 112.319 492.276 110.595 496.747 110.595C497.278 110.595 497.802 110.622 498.32 110.67C500.359 107.145 503.283 104.22 506.8 102.186C510.317 100.152 514.303 99.0811 518.361 99.0792C522.419 99.0772 526.406 100.145 529.924 102.175C533.443 104.206 536.37 107.128 538.412 110.65C538.85 110.617 539.29 110.595 539.736 110.595C544.208 110.595 548.509 112.319 551.753 115.411C554.996 118.504 556.935 122.729 557.168 127.215" stroke="#3F3D56" stroke-miterlimit="10"/>
</g>
<defs>
<clipPath id="clip0_3875_7560">
<rect width="650" height="155" fill="white"/>
</clipPath>
</defs>
</svg>
