<?xml version="1.0" encoding="UTF-8"?>
<svg width="24px" height="25px" viewBox="0 0 24 25" version="1.1" xmlns="http://www.w3.org/2000/svg" xmlns:xlink="http://www.w3.org/1999/xlink">
    <!-- Generator: Sketch 53.2 (72643) - https://sketchapp.com -->
    <title>(Logo) Github</title>
    <desc>Created with Sketch.</desc>
    <g id="Guidelines" stroke="none" stroke-width="1" fill="none" fill-rule="evenodd">
        <g id="export" transform="translate(-573.000000, -377.000000)" fill="#000000" fill-rule="nonzero">
            <g id="(Logo)-Github" transform="translate(573.000000, 377.710167)">
                <path d="M12.0000994,0 C5.37349618,0 0,5.50847378 0,12.3038066 C0,17.7399506 3.43839372,22.3519425 8.20640034,23.9788534 C8.80612709,24.0927473 9.02630512,23.7119463 9.02630512,23.3869716 C9.02630512,23.0935775 9.01517698,22.1243583 9.01001034,21.0962566 C5.67157111,21.8405403 4.96712069,19.6445671 4.96712069,19.6445671 C4.4212461,18.2224209 3.63472575,17.8442685 3.63472575,17.8442685 C2.54595736,17.0806289 3.71679568,17.0963173 3.71679568,17.0963173 C4.9218133,17.183113 5.55631547,18.364228 5.55631547,18.364228 C6.6266032,20.24521 8.36358518,19.7014122 9.04836267,19.3870323 C9.15606708,18.5918121 9.46705866,18.0490331 9.81024216,17.7417843 C7.14485616,17.4306642 4.34295178,16.3756681 4.34295178,11.661192 C4.34295178,10.3178953 4.81172426,9.22031636 5.5793666,8.35867499 C5.45477126,8.04877749 5.04402402,6.79737026 5.69561582,5.10261199 C5.69561582,5.10261199 6.70330782,4.7719324 8.99649761,6.363799 C9.95371566,6.09118702 10.9802857,5.95447353 12.0000994,5.94978738 C13.0199131,5.95447353 14.047278,6.09118702 15.0062843,6.363799 C17.2966922,4.7719324 18.3029931,5.10261199 18.3029931,5.10261199 C18.9561747,6.79737026 18.5452287,8.04877749 18.4206334,8.35867499 C19.1900642,9.22031636 19.6556572,10.3178953 19.6556572,11.661192 C19.6556572,16.3868742 16.8483875,17.4274044 14.1762451,17.7320045 C14.6066653,18.1138244 14.9901883,18.8625903 14.9901883,20.0104948 C14.9901883,21.6567616 14.9762782,22.981721 14.9762782,23.3869716 C14.9762782,23.7143913 15.1922831,24.0980447 15.8005547,23.9772234 C20.565978,22.3484787 24,17.7381169 24,12.3038066 C24,5.50847378 18.6272988,0 12.0000994,0 Z M4.49442743,17.5270322 C4.46799811,17.588156 4.37420386,17.6064931 4.28875572,17.5645215 C4.20171783,17.5243835 4.15283357,17.4410514 4.18105132,17.379724 C4.20688447,17.3167664 4.30087744,17.2992443 4.38771659,17.3414197 C4.47495321,17.3815576 4.52463235,17.4657047 4.49442743,17.5270322 Z M5.08469899,18.0670536 C5.02746861,18.1214537 4.91559115,18.0961892 4.83968139,18.0102085 C4.76118832,17.9244315 4.74648331,17.8097225 4.80450855,17.7545074 C4.86352738,17.7001072 4.97202667,17.7255755 5.05071846,17.8113525 C5.12921149,17.8981482 5.14451268,18.0120422 5.08469899,18.0670536 Z M5.48964762,18.7579924 C5.41612249,18.8103552 5.29589893,18.7612523 5.22157891,18.6518409 C5.14805375,18.5424293 5.14805375,18.4112169 5.22316866,18.3586505 C5.29768735,18.3060841 5.41612249,18.3533532 5.49143607,18.4619497 C5.56476252,18.5731949 5.56476252,18.7044072 5.48964762,18.7579924 Z M6.17450242,19.5581972 C6.10872723,19.6325646 5.96863203,19.6125975 5.86609422,19.5111321 C5.76117187,19.4119077 5.73196052,19.2711193 5.79793445,19.196752 C5.86450449,19.1221811 6.00539458,19.1431669 6.10872723,19.2438174 C6.21285474,19.342838 6.2446494,19.4846451 6.17450242,19.5581972 Z M7.05961079,19.8283373 C7.03059819,19.9247092 6.89566959,19.9685145 6.75974741,19.9275616 C6.62402396,19.8853863 6.53519764,19.7725111 6.56262053,19.6751206 C6.59083828,19.5781376 6.72636301,19.5324984 6.86327877,19.5763037 C6.99880351,19.6182754 7.08782857,19.7303356 7.05961079,19.8283373 Z M8.06690128,19.9429238 C8.07027943,20.0443891 7.95502379,20.1285362 7.81234527,20.13037 C7.66887187,20.1336299 7.55282137,20.0515204 7.55123164,19.9516849 C7.55123164,19.8492007 7.66390395,19.7658686 7.80737735,19.7634237 C7.95005589,19.7605712 8.06690128,19.8420695 8.06690128,19.9429238 Z M9.05645129,19.9040321 C9.07354093,20.0030527 8.97438132,20.1047218 8.83269637,20.13182 C8.69339603,20.1578995 8.56442893,20.0967757 8.54674315,19.9985702 C8.52945483,19.8971048 8.63040287,19.7954356 8.7695045,19.7691525 C8.91138816,19.743888 9.03836809,19.8033817 9.05645129,19.9040321 Z" id="Shape"></path>
            </g>
        </g>
    </g>
</svg>