<svg width="222" height="193" viewBox="0 0 222 193" fill="none" xmlns="http://www.w3.org/2000/svg">
<g clip-path="url(#clip0_1514_19024)">
<path d="M222 190.607L63.0819 193L0 181.834H98.4795L222 190.607Z" fill="#E6E6E6"/>
<path d="M183.003 50.7755C197.043 50.7755 208.424 39.409 208.424 25.3877C208.424 11.3665 197.043 0 183.003 0C168.963 0 157.581 11.3665 157.581 25.3877C157.581 39.409 168.963 50.7755 183.003 50.7755Z" fill="#FF6584"/>
<path d="M44.9717 183.162C44.9717 183.162 45.3435 175.38 52.9665 176.285L44.9717 183.162Z" fill="#3F3D56"/>
<path d="M42.8177 175.757C44.9248 175.757 46.633 174.051 46.633 171.947C46.633 169.842 44.9248 168.136 42.8177 168.136C40.7106 168.136 39.0024 169.842 39.0024 171.947C39.0024 174.051 40.7106 175.757 42.8177 175.757Z" fill="#003595"/>
<path d="M43.2737 178.363H42.1968V185.891H43.2737V178.363Z" fill="#3F3D56"/>
<path d="M170.615 184.491C170.615 184.491 170.987 176.709 178.61 177.614L170.615 184.491Z" fill="#3F3D56"/>
<path d="M168.462 177.086C170.569 177.086 172.277 175.38 172.277 173.276C172.277 171.171 170.569 169.466 168.462 169.466C166.355 169.466 164.646 171.171 164.646 173.276C164.646 175.38 166.355 177.086 168.462 177.086Z" fill="#003595"/>
<path d="M168.918 179.692H167.841V187.221H168.918V179.692Z" fill="#3F3D56"/>
<path d="M188.983 185.82C188.983 185.82 189.355 178.039 196.978 178.943L188.983 185.82Z" fill="#3F3D56"/>
<path d="M186.829 178.415C188.936 178.415 190.644 176.709 190.644 174.605C190.644 172.501 188.936 170.795 186.829 170.795C184.722 170.795 183.014 172.501 183.014 174.605C183.014 176.709 184.722 178.415 186.829 178.415Z" fill="#003595"/>
<path d="M187.285 181.021H186.208V188.55H187.285V181.021Z" fill="#3F3D56"/>
<path d="M75.0518 179.44C75.0518 179.44 75.4236 171.659 83.0466 172.563L75.0518 179.44Z" fill="#3F3D56"/>
<path d="M72.8978 172.035C75.0049 172.035 76.713 170.329 76.713 168.225C76.713 166.12 75.0049 164.415 72.8978 164.415C70.7907 164.415 69.0825 166.12 69.0825 168.225C69.0825 170.329 70.7907 172.035 72.8978 172.035Z" fill="#003595"/>
<path d="M73.3538 174.641H72.2769V182.17H73.3538V174.641Z" fill="#3F3D56"/>
<path d="M18.3521 180.769C18.3521 180.769 18.7239 172.988 26.3469 173.892L18.3521 180.769Z" fill="#3F3D56"/>
<path d="M16.1981 173.364C18.3052 173.364 20.0133 171.658 20.0133 169.554C20.0133 167.45 18.3052 165.744 16.1981 165.744C14.091 165.744 12.3828 167.45 12.3828 169.554C12.3828 171.658 14.091 173.364 16.1981 173.364Z" fill="#003595"/>
<path d="M16.6546 175.97H15.5776V183.499H16.6546V175.97Z" fill="#3F3D56"/>
<path d="M110.568 167.025C133.525 167.025 152.135 148.439 152.135 125.512C152.135 102.586 133.525 84 110.568 84C87.6105 84 69 102.586 69 125.512C69 148.439 87.6105 167.025 110.568 167.025Z" fill="#145ECC"/>
<path d="M84.4283 129.068C85.4607 127.833 86.7518 126.84 88.2105 126.159C89.6693 125.478 91.26 125.125 92.8703 125.125C94.4807 125.125 96.0714 125.478 97.5301 126.159C98.9889 126.84 100.28 127.833 101.312 129.068C103.079 127.383 104.3 125.21 104.818 122.826C105.336 120.443 105.127 117.959 104.219 115.695C103.311 113.431 101.744 111.491 99.7215 110.124C97.6988 108.757 95.3125 108.027 92.8703 108.027C90.4281 108.027 88.0419 108.757 86.0192 110.124C83.9965 111.491 82.43 113.431 81.5217 115.695C80.6133 117.959 80.4047 120.443 80.9228 122.826C81.4408 125.21 82.6618 127.383 84.4283 129.068Z" fill="white"/>
<path d="M117.438 129.068C118.47 127.833 119.761 126.84 121.22 126.159C122.679 125.478 124.269 125.125 125.88 125.125C127.49 125.125 129.081 125.478 130.539 126.159C131.998 126.84 133.289 127.833 134.322 129.068C136.088 127.383 137.309 125.21 137.827 122.826C138.345 120.443 138.137 117.959 137.228 115.695C136.32 113.431 134.753 111.491 132.731 110.124C130.708 108.757 128.322 108.027 125.88 108.027C123.437 108.027 121.051 108.757 119.028 110.124C117.006 111.491 115.439 113.431 114.531 115.695C113.623 117.959 113.414 120.443 113.932 122.826C114.45 125.21 115.671 127.383 117.438 129.068Z" fill="white"/>
<path d="M88.6997 120.279C91.0223 120.279 92.9052 118.398 92.9052 116.079C92.9052 113.759 91.0223 111.879 88.6997 111.879C86.377 111.879 84.4941 113.759 84.4941 116.079C84.4941 118.398 86.377 120.279 88.6997 120.279Z" fill="#3F3D56"/>
<path d="M121.708 120.279C124.031 120.279 125.914 118.398 125.914 116.079C125.914 113.759 124.031 111.879 121.708 111.879C119.385 111.879 117.502 113.759 117.502 116.079C117.502 118.398 119.385 120.279 121.708 120.279Z" fill="#3F3D56"/>
<path d="M80.6442 140.997C83.3451 140.997 85.5345 138.811 85.5345 136.113C85.5345 133.416 83.3451 131.229 80.6442 131.229C77.9434 131.229 75.7539 133.416 75.7539 136.113C75.7539 138.811 77.9434 140.997 80.6442 140.997Z" fill="#FF6584"/>
<path d="M136.883 140.997C139.584 140.997 141.773 138.811 141.773 136.113C141.773 133.416 139.584 131.229 136.883 131.229C134.182 131.229 131.993 133.416 131.993 136.113C131.993 138.811 134.182 140.997 136.883 140.997Z" fill="#FF6584"/>
<path d="M108.764 126.345L105.096 142.218L111.209 136.113L108.764 126.345Z" fill="#FF6584"/>
<path d="M127.609 187.393L123.445 183.903L123.542 187.393H122.249L122.146 183.703L116.524 187.393H114.17L122.104 182.185L121.796 171.25L121.567 162.991L122.857 162.956L123.09 171.25L123.397 182.176L129.62 187.393H127.609Z" fill="#3F3D56"/>
<path d="M108.047 187.393L103.882 183.903L103.98 187.393H102.69L102.586 183.703L96.964 187.393H94.6104L102.541 182.185L102.234 171.25L102.004 162.991L103.297 162.956L103.53 171.25L103.834 182.176L110.058 187.393H108.047Z" fill="#3F3D56"/>
<path d="M111.209 81.1704C110.068 81.1704 109.062 82.0552 108.389 83.4143C107.796 81.3707 106.551 79.9495 105.096 79.9495C104.997 79.9593 104.899 79.9758 104.802 79.9987C104.243 77.8168 102.943 76.2866 101.428 76.2866C99.4023 76.2866 97.7603 79.0198 97.7603 82.3914C97.7603 85.7629 99.4023 88.4962 101.428 88.4962C101.527 88.4863 101.625 88.4699 101.722 88.4469C102.281 90.6288 103.58 92.159 105.096 92.159C106.236 92.159 107.242 91.2742 107.915 89.9152C108.508 91.9588 109.754 93.3799 111.209 93.3799C113.234 93.3799 114.876 90.6467 114.876 87.2752C114.876 83.9036 113.234 81.1704 111.209 81.1704Z" fill="#3F3D56"/>
<path d="M71.5811 141.467C69.9755 141.467 68.3857 141.151 66.9024 140.537C65.4191 139.924 64.0714 139.024 62.9361 137.89C61.8008 136.757 60.9003 135.411 60.2859 133.929C59.6715 132.448 59.3553 130.86 59.3553 129.257V123.152C59.3553 119.914 60.6433 116.809 62.9361 114.519C65.2289 112.229 68.3386 110.943 71.5811 110.943V141.467Z" fill="#FFDD00"/>
<path d="M149.614 110.943C151.22 110.943 152.81 111.258 154.293 111.872C155.776 112.486 157.124 113.385 158.259 114.519C159.394 115.652 160.295 116.998 160.909 118.48C161.524 119.961 161.84 121.549 161.84 123.152V129.257C161.84 130.86 161.524 132.448 160.909 133.929C160.295 135.411 159.394 136.757 158.259 137.89C157.124 139.024 155.776 139.923 154.293 140.537C152.81 141.151 151.22 141.466 149.614 141.466L149.614 110.943Z" fill="#FFDD00"/>
<path d="M156.021 124.112H154.081C154.081 99.5437 134.067 79.5561 109.466 79.5561C84.8656 79.5561 64.8514 99.5437 64.8514 124.112H62.9116C62.9116 98.4754 83.796 77.6189 109.466 77.6189C135.137 77.6189 156.021 98.4754 156.021 124.112Z" fill="#FFDD00"/>
<path d="M42.8977 86.7749L42.8981 86.7741L41.9867 86.3951L38.1416 84.7718L36.7634 84.1899L36.6576 84.4566L34.8062 89.1251L40.0167 91.3275L40.044 91.3523L39.6929 92.1791C39.6448 92.2547 39.6038 92.3346 39.5704 92.4177C39.3244 93.0379 39.789 93.6549 40.2282 93.8285C40.6673 94.0022 41.2227 93.6403 41.4687 93.0201C41.7113 92.4083 41.4742 91.6311 41.0462 91.4433L41.0466 91.4426L40.1353 91.0636L37.0178 89.8533L38.7991 85.3618L38.5351 85.2574L36.7532 89.7506L36.3677 89.6009L38.1565 85.0902L38.2037 85.1101L41.8681 86.659L41.8955 86.6838L41.5444 87.5106C41.4963 87.5862 41.4553 87.6661 41.4219 87.7492C41.1759 88.3694 41.6404 88.9864 42.0796 89.16C42.5187 89.3337 43.0742 88.9718 43.3201 88.3516C43.5627 87.7398 43.3256 86.9626 42.8977 86.7749Z" fill="#3F3D56"/>
<path d="M60.9324 98.2361C59.0409 97.1562 59.4194 94.7861 59.4194 94.7861C59.3718 93.2465 58.0981 93.4644 58.0981 93.4644L57.6345 93.57C57.4192 93.4702 57.182 93.4264 56.9452 93.4427L56.24 93.5612C57.8457 93.938 57.7138 95.2795 57.7138 95.2795L57.9388 96.8481L53.7313 95.153L54.2143 94.0154C54.2811 93.9104 54.3381 93.7995 54.3845 93.684C54.7261 92.8226 54.0809 91.9657 53.471 91.7245C52.861 91.4832 52.0896 91.986 51.748 92.8474C51.411 93.6971 51.7403 94.7765 52.3347 95.0373L52.3342 95.0383L53.5999 95.5647L53.6094 95.5349L60.9324 98.2361ZM58.7958 95.4801L58.9307 96.9815C58.4543 96.3139 58.2305 95.4992 58.2991 94.6823C58.2879 94.3917 58.1898 94.1111 58.0173 93.8768C58.2824 94.0465 58.4954 94.286 58.6328 94.5689C58.7702 94.8518 58.8266 95.1672 58.7958 95.4801Z" fill="#3F3D56"/>
<path d="M28.8373 76.0321L28.8378 76.0311L27.5721 75.5047L22.2821 73.4511L23.6172 72.2648C23.8784 71.9171 24.2642 71.6836 24.6937 71.6134C25.1233 71.5431 25.5634 71.6414 25.922 71.8877L25.5077 71.2728C25.5077 71.2728 24.7288 70.2429 23.6385 71.3325C23.6385 71.3325 22.2894 73.3187 20.1704 72.8124L27.4073 75.8713L27.4453 75.9057L26.9577 77.0541C26.8909 77.1591 26.8339 77.27 26.7875 77.3855C26.4459 78.2469 27.0911 79.1037 27.701 79.345C28.311 79.5862 29.0824 79.0835 29.424 78.2221C29.761 77.3724 29.4317 76.293 28.8373 76.0321Z" fill="#3F3D56"/>
<path d="M48.2036 69.3108L47.7159 70.4592C47.6492 70.5642 47.5922 70.6752 47.5458 70.7906C47.2042 71.652 47.8494 72.5089 48.4593 72.7501C49.0693 72.9914 49.8407 72.4886 50.1823 71.6272C50.5193 70.7775 50.19 69.6981 49.5956 69.4373L49.5961 69.4363L48.3304 68.9099L44.0005 67.2289L46.4745 60.9907L46.1078 60.8456L43.6329 67.0862L43.0975 66.8784L45.582 60.6134L45.6475 60.6411L50.7371 62.7924L50.7751 62.8268L50.2874 63.9751C50.2206 64.0801 50.1637 64.1911 50.1173 64.3065C49.7756 65.168 50.4208 66.0248 51.0308 66.266C51.6407 66.5073 52.4122 66.0046 52.7538 65.1431C53.0908 64.2935 52.7614 63.214 52.1671 62.9532L52.1676 62.9522L50.9018 62.4258L45.7293 60.2421L45.5613 60.1712L43.6471 59.363L40.9287 66.2175L48.1656 69.2765L48.2036 69.3108Z" fill="#3F3D56"/>
<path d="M25.2701 34.2062L25.271 34.2044L23.0921 33.2983L13.9857 29.763L16.2841 27.7209C16.2841 27.7209 17.8129 25.6025 20.2517 27.0718L19.5385 26.0132C19.5385 26.0132 18.1976 24.2404 16.3207 26.1161C16.3207 26.1161 13.9984 29.5351 10.3506 28.6636L22.8085 33.9293L22.8739 33.9885L22.0344 35.9653C21.9195 36.1461 21.8214 36.3371 21.7415 36.5359C21.1534 38.0187 22.2641 39.4937 23.3141 39.9091C24.3641 40.3244 25.6921 39.4589 26.2802 37.976C26.8602 36.5134 26.2933 34.6552 25.2701 34.2062Z" fill="#3F3D56"/>
<path d="M31.9568 63.9025C27.4344 61.3203 28.3394 55.6538 28.3394 55.6538C28.2256 51.9726 25.1801 52.4937 25.1801 52.4937L24.0717 52.7463C23.5568 52.5077 22.9899 52.4029 22.4236 52.4419L20.7375 52.7253C24.5768 53.6261 24.2613 56.8335 24.2613 56.8335L24.7992 60.5838L14.7394 56.5309L15.8944 53.8111C16.054 53.56 16.1902 53.2948 16.3012 53.0187C17.118 50.9591 15.5754 48.9105 14.117 48.3337C12.6587 47.7569 10.8143 48.9589 9.99753 51.0185C9.19186 53.0499 9.97922 55.6308 11.4003 56.2544L11.3991 56.2568L14.4254 57.5154L14.4479 57.4441L31.9568 63.9025ZM26.8482 57.3131L27.1719 60.9152C25.2725 58.3972 25.6607 55.4055 25.6607 55.4055C25.634 54.7108 25.3993 54.04 24.987 53.4798C27.1689 54.7837 26.8482 57.3131 26.8482 57.3131Z" fill="#3F3D56"/>
</g>
<defs>
<clipPath id="clip0_1514_19024">
<rect width="222" height="193" fill="white"/>
</clipPath>
</defs>
</svg>
