<?xml version="1.0" encoding="UTF-8"?>
<svg width="24px" height="24px" viewBox="0 0 24 24" version="1.1" xmlns="http://www.w3.org/2000/svg" xmlns:xlink="http://www.w3.org/1999/xlink">
    <!-- Generator: Sketch 53.2 (72643) - https://sketchapp.com -->
    <title>[Logo] Instagram</title>
    <desc>Created with Sketch.</desc>
    <g id="Guidelines" stroke="none" stroke-width="1" fill="none" fill-rule="evenodd">
        <g id="export" transform="translate(-649.000000, -378.000000)" fill="#000000" fill-rule="nonzero">
            <g id="[Logo]-Instagram" transform="translate(649.000000, 378.000000)">
                <path d="M11.9999762,2.16220594 C15.2041298,2.16220594 15.5836306,2.17440025 16.8489821,2.23213276 C18.0189703,2.28553056 18.6543612,2.48102079 19.0772565,2.64531072 C19.6373379,2.86299845 20.0371308,3.12308049 20.4570251,3.54297487 C20.8769195,3.96286924 21.1370016,4.36266203 21.3546416,4.92274348 C21.5189792,5.3456388 21.7144694,5.98102972 21.7678672,7.15097025 C21.8255997,8.41636945 21.8377941,8.79587013 21.8377941,12.0000238 C21.8377941,15.2041775 21.8255997,15.5836782 21.7678672,16.8490297 C21.7144694,18.0190179 21.5189792,18.6544088 21.3546416,19.0773041 C21.1370016,19.6373856 20.8769195,20.0371784 20.4570251,20.4570727 C20.0371308,20.8769671 19.6373379,21.1370492 19.0772565,21.3546892 C18.6543612,21.5190268 18.0189703,21.7145171 16.8489821,21.7679149 C15.5838211,21.8256473 15.2043204,21.8378417 11.9999762,21.8378417 C8.79563196,21.8378417 8.41613128,21.8256473 7.15097025,21.7679149 C5.9809821,21.7145171 5.34559117,21.5190268 4.92274348,21.3546892 C4.3626144,21.1370492 3.9628216,20.8769671 3.54292723,20.4570727 C3.12303286,20.0371784 2.86295081,19.6373856 2.64531072,19.0773041 C2.48097317,18.6544088 2.28548292,18.0190179 2.23208512,16.8490774 C2.17435262,15.5836782 2.1621583,15.2041775 2.1621583,12.0000238 C2.1621583,8.79587013 2.17435262,8.41636945 2.23208512,7.15101788 C2.28548292,5.98102972 2.48097317,5.3456388 2.64531072,4.92274348 C2.86295081,4.36266203 3.12303286,3.96286924 3.54292723,3.54297487 C3.9628216,3.12308049 4.3626144,2.86299845 4.92274348,2.64531072 C5.34559117,2.48102079 5.9809821,2.28553056 7.15092262,2.23213276 C8.41632182,2.17440025 8.79582249,2.16220594 11.9999762,2.16220594 L11.9999762,2.16220594 Z M11.9999762,0 C8.74094804,0 8.33234294,0.0138138817 7.05241535,0.0722132577 C5.77510763,0.130517365 4.90283244,0.333343257 4.13949638,0.630008276 C3.35039031,0.936676451 2.68117918,1.34699637 2.01406396,2.01411159 C1.34694874,2.68122682 0.936628818,3.35043793 0.629960643,4.13954402 C0.333295623,4.90288008 0.130469732,5.77515526 0.0721656237,7.05246298 C0.0137662477,8.33234294 0,8.74099568 0,12.0000238 C0,15.259052 0.0137662477,15.6677047 0.0721656237,16.9475846 C0.130469732,18.2248924 0.333295623,19.0971676 0.629960643,19.8605036 C0.936628818,20.649562 1.34694874,21.3188208 2.01406396,21.985936 C2.68117918,22.6530513 3.35039031,23.0633712 4.13949638,23.3700394 C4.90283244,23.6667044 5.77510763,23.8695303 7.05241535,23.9278343 C8.33234294,23.9862338 8.74094804,24 11.9999762,24 C15.2590043,24 15.667657,23.9862338 16.947537,23.9278343 C18.2248448,23.8695303 19.09712,23.6667044 19.860456,23.3700394 C20.649562,23.0633712 21.3187732,22.6530513 21.9858884,21.985936 C22.6530037,21.3188208 23.0633236,20.6496097 23.3699918,19.8605036 C23.6666568,19.0971676 23.8694827,18.2248924 23.9277867,16.9475846 C23.9861861,15.6677047 24,15.259052 24,12.0000238 C24,8.74099568 23.9861861,8.33234294 23.9277867,7.05246298 C23.8694827,5.77515526 23.6666568,4.90288008 23.3699918,4.13954402 C23.0633236,3.35043793 22.6530037,2.68122682 21.9858884,2.01411159 C21.3187732,1.34699637 20.649562,0.936676451 19.860456,0.630008276 C19.09712,0.333343257 18.2248448,0.130517365 16.947537,0.0722132577 C15.667657,0.0138138817 15.2590043,0 11.9999762,0 Z M11.9999762,5.8378417 C8.59671206,5.8378417 5.83779407,8.59675969 5.83779407,12.0000238 C5.83779407,15.4032879 8.59671206,18.162206 11.9999762,18.162206 C15.4032403,18.162206 18.1621583,15.4032879 18.1621583,12.0000238 C18.1621583,8.59675969 15.4032403,5.8378417 11.9999762,5.8378417 Z M11.9999762,16.0000477 C9.79085072,16.0000477 7.99995236,14.2091493 7.99995236,12.0000238 C7.99995236,9.79089834 9.79085072,8 11.9999762,8 C14.2091017,8 16,9.79089834 16,12.0000238 C16,14.2091493 14.2091017,16.0000477 11.9999762,16.0000477 Z M19.8455942,5.59438394 C19.8455942,6.38968246 19.2009145,7.03440967 18.405616,7.03440967 C17.6103175,7.03440967 16.9655903,6.38968246 16.9655903,5.59438394 C16.9655903,4.79908542 17.6103175,4.15440585 18.405616,4.15440585 C19.2009145,4.15440585 19.8455942,4.79908542 19.8455942,5.59438394 Z" id="Shape"></path>
            </g>
        </g>
    </g>
</svg>