<svg width="292" height="227" viewBox="0 0 292 227" fill="none" xmlns="http://www.w3.org/2000/svg">
<g clip-path="url(#clip0_564_14670)">
<path d="M210.649 42.0275H189.262V7.9043L210.649 14.7289V42.0275Z" fill="#2F2E41"/>
<path d="M214.445 215.282L210.032 215.386L207.572 195.56L214.085 195.406L214.445 215.282Z" fill="#A0616A"/>
<path d="M199.303 224.488C199.303 225.234 199.832 225.838 200.485 225.838H209.245C209.245 225.838 210.108 222.373 213.622 220.882L213.865 225.838H218.384L217.837 217.869C217.837 217.869 219.046 213.605 216.535 211.426C214.024 209.247 216.058 209.55 216.058 209.55L215.07 204.618L208.241 205.421L208.191 213.163L204.877 220.849L200.016 223.249C199.583 223.463 199.303 223.95 199.303 224.488Z" fill="#2F2E41"/>
<path d="M191.826 215.282L187.413 215.386L184.953 195.56L191.466 195.406L191.826 215.282Z" fill="#A0616A"/>
<path d="M176.684 224.488C176.684 225.234 177.213 225.838 177.866 225.838H186.626C186.626 225.838 187.488 222.373 191.003 220.882L191.246 225.838H195.765L195.218 217.869C195.218 217.869 196.426 213.605 193.916 211.426C191.405 209.247 193.439 209.55 193.439 209.55L192.451 204.618L185.622 205.421L185.572 213.163L182.258 220.849L177.397 223.249C176.964 223.463 176.684 223.95 176.684 224.488Z" fill="#2F2E41"/>
<path d="M212.014 79.3359L183.802 96.1701L177.431 122.104L180.616 202.18H194.586L197.68 125.061L203.873 202.18H218.062L221.65 115.578C222.639 109.285 221.859 102.84 219.397 96.9642L212.014 79.3359Z" fill="#2F2E41"/>
<path d="M205.643 27.9236L193.813 27.0137L190.627 33.3833L181.527 35.6582L179.251 63.8668C183.752 75.5589 186.578 86.7321 183.802 96.1701L218.384 94.3502L212.61 78.7395C212.61 78.7395 212.469 72.9663 215.654 65.2317C218.839 57.4971 213.834 37.4781 213.834 37.4781L206.553 35.6582L205.643 27.9236Z" fill="#145ECC"/>
<path d="M125.983 38.8967C127.135 38.9324 128.2 38.705 129.037 38.2976L139.99 39.3307L140.329 34.1052L129.182 33.6198C128.372 33.1613 127.323 32.8684 126.171 32.8328C123.539 32.7512 121.364 34.0426 121.312 35.7171C121.26 37.3916 123.351 38.8152 125.983 38.8967Z" fill="#A0616A"/>
<path d="M190.773 54.8489C190.773 54.8489 190.387 38.202 186.735 35.7034C185.229 34.673 162.074 34.4389 161.23 34.3515C156.028 33.8124 152.326 31.7473 147.946 31.5209C137.271 30.9693 131.875 33.5593 131.875 33.5593L131.687 38.9039L190.773 54.8489Z" fill="#145ECC"/>
<path d="M198.72 26.5822C203.938 26.5822 208.167 22.3532 208.167 17.1366C208.167 11.9199 203.938 7.69092 198.72 7.69092C193.503 7.69092 189.273 11.9199 189.273 17.1366C189.273 22.3532 193.503 26.5822 198.72 26.5822Z" fill="#A0616A"/>
<path d="M195.855 3.07145C193.823 4.35215 192.335 3.43524 190.884 4.08115C188.048 5.34312 183.261 14.2068 183.692 17.9177C184.304 23.1732 186.236 23.3896 186.178 27.1603C186.086 33.215 185.604 33.1899 186.844 35.3041C188.224 37.6555 196.036 37.017 197.486 33.8284C197.773 33.1993 194.594 33.4467 191.083 25.1936C189.32 21.0522 190.477 17.2784 191.083 15.6391C191.224 15.2553 191.289 12.5305 191.592 12.8329C194.243 15.4844 195.73 13.5462 197.331 13.3238C200.617 12.8673 203.092 15.5182 204.089 14.5665C204.831 13.8583 203.885 11.9859 204.245 11.848C204.628 11.7011 205.899 13.7552 206.73 15.9645C207.267 17.3892 207.535 18.1016 207.507 18.9159C207.421 21.4308 206.78 28.5612 205.644 30.6533C203.19 35.1714 206.28 36.8761 208.206 36.5468C209.763 36.2807 216.643 37.3284 217.02 36.568C217.355 35.8907 216.589 28.9234 215.783 22.446C214.816 14.6607 210.937 7.50637 204.854 2.55034C204.497 2.2597 204.231 2.06029 204.089 1.9841C203.752 1.80362 200.279 0.000252366 197.72 1.44042C196.777 1.9706 196.931 2.39356 195.855 3.07145Z" fill="#2F2E41"/>
<path d="M77.8481 222.656L72.6067 222.655L70.1133 202.44L77.8492 202.441L77.8481 222.656Z" fill="#FFB6B6"/>
<path d="M59.8904 222.537C59.7272 222.812 59.6411 223.699 59.6411 224.018C59.6411 225.001 60.4376 225.797 61.4201 225.797H77.6522C78.3225 225.797 78.8658 225.254 78.8658 224.584V223.908C78.8658 223.908 79.6688 221.877 78.0156 219.374C78.0156 219.374 75.9609 221.334 72.8906 218.264L71.9852 216.624L65.4314 221.417L61.7987 221.864C61.0039 221.961 60.2992 221.848 59.8904 222.537Z" fill="#2F2E41"/>
<path d="M99.9467 222.656L94.7053 222.655L92.2119 202.44L99.9478 202.441L99.9467 222.656Z" fill="#FFB6B6"/>
<path d="M81.9891 222.537C81.8259 222.812 81.7397 223.699 81.7397 224.018C81.7397 225.001 82.5362 225.797 83.5187 225.797H99.7508C100.421 225.797 100.964 225.254 100.964 224.584V223.908C100.964 223.908 101.767 221.877 100.114 219.374C100.114 219.374 98.0595 221.334 94.9892 218.264L94.0838 216.624L87.53 221.417L83.8973 221.864C83.1026 221.961 82.3979 221.848 81.9891 222.537Z" fill="#2F2E41"/>
<path d="M100.986 95.0298L62.5344 94.5879L58.5566 119.777L68.2801 206.835H81.0278L83.9702 125.743L89.2739 208.382H102.326L108.279 114.253L100.986 95.0298Z" fill="#2F2E41"/>
<path d="M264.001 219.184C264.914 219.241 265.419 218.106 264.728 217.445L264.659 217.172C264.668 217.15 264.677 217.128 264.687 217.107C265.61 214.905 268.74 214.92 269.655 217.125C270.468 219.082 271.502 221.042 271.757 223.111C271.871 224.025 271.82 224.955 271.617 225.851C273.521 221.693 274.523 217.151 274.523 212.585C274.523 211.437 274.46 210.29 274.332 209.145C274.226 208.209 274.081 207.278 273.892 206.357C272.873 201.373 270.667 196.626 267.484 192.662C265.953 191.825 264.677 190.518 263.907 188.951C263.63 188.386 263.413 187.778 263.31 187.159C263.484 187.181 263.967 184.53 263.835 184.367C264.078 183.999 264.512 183.816 264.777 183.456C266.095 181.67 267.911 181.982 268.86 184.41C270.885 185.432 270.904 187.127 269.662 188.757C268.871 189.794 268.762 191.197 268.069 192.308C268.14 192.399 268.214 192.487 268.286 192.579C269.594 194.257 270.726 196.061 271.681 197.956C271.411 195.85 271.809 193.313 272.488 191.677C273.26 189.813 274.709 188.244 275.984 186.632C277.516 184.697 280.657 185.542 280.927 187.995C280.93 188.019 280.932 188.042 280.935 188.066C280.745 188.173 280.56 188.287 280.378 188.406C279.344 189.09 279.702 190.693 280.927 190.882L280.955 190.886C280.886 191.568 280.769 192.245 280.598 192.91C282.234 199.236 278.702 201.541 273.658 201.644C273.547 201.701 273.438 201.758 273.327 201.812C273.838 203.251 274.246 204.727 274.549 206.222C274.82 207.544 275.009 208.88 275.114 210.221C275.245 211.914 275.234 213.615 275.091 215.305L275.1 215.245C275.462 213.384 276.473 211.646 277.94 210.441C280.126 208.646 283.214 207.985 285.572 206.541C286.708 205.847 288.162 206.744 287.964 208.06L287.954 208.123C287.603 208.266 287.261 208.432 286.93 208.617C286.74 208.724 286.555 208.838 286.373 208.957C285.339 209.641 285.697 211.244 286.922 211.433L286.95 211.437C286.97 211.44 286.987 211.443 287.007 211.446C286.404 212.876 285.565 214.203 284.514 215.348C283.491 220.87 279.098 221.394 274.398 219.786H274.395C273.881 222.024 273.13 224.21 272.165 226.294H264.201C264.172 226.205 264.147 226.114 264.121 226.026C264.857 226.071 265.6 226.028 266.325 225.894C265.734 225.169 265.143 224.439 264.552 223.714C264.538 223.699 264.526 223.685 264.515 223.671C264.215 223.3 263.912 222.931 263.613 222.56L263.612 222.56C263.594 221.421 263.731 220.285 264.001 219.184Z" fill="#F2F2F2"/>
<path d="M0 226.474C0 226.766 0.23426 227 0.525977 227H291.474C291.766 227 292 226.766 292 226.474C292 226.182 291.766 225.948 291.474 225.948H0.525977C0.23426 225.948 0 226.182 0 226.474Z" fill="#CCCCCC"/>
<path d="M87.948 28.9629H74.2624L71.5949 34.2659L58.5566 40.2527L63.1974 74.4806L59.6616 97.0185H103.83L99.8814 70.9453L105.185 39.569L90.5999 33.824L87.948 28.9629Z" fill="#E6E6E6"/>
<path d="M133.758 111.903C133.161 110.686 132.888 109.434 132.919 108.339L126.5 97.0991L131.939 94.2017L137.865 105.916C138.749 106.562 139.572 107.544 140.169 108.762C141.532 111.543 141.202 114.501 139.432 115.369C137.662 116.237 135.121 114.685 133.758 111.903Z" fill="#FFB6B6"/>
<path d="M91.4486 38.0606C91.4486 38.0606 95.7787 33.6059 100.636 36.7059C105.494 39.8059 123.214 71.5286 123.214 71.5286L136.883 98.8005L127.234 103.295L115.594 77.1798L91.1484 50.8761L91.4486 38.0606Z" fill="#E6E6E6"/>
<path d="M80.5258 26.3782C87.3509 26.3782 92.8837 20.846 92.8837 14.0218C92.8837 7.19764 87.3509 1.66553 80.5258 1.66553C73.7008 1.66553 68.168 7.19764 68.168 14.0218C68.168 20.846 73.7008 26.3782 80.5258 26.3782Z" fill="#FFB6B6"/>
<path d="M76.6476 23.9662C76.7048 25.1768 76.7334 25.7821 76.5474 25.8552C75.9876 26.0754 68.7777 21.818 67.9288 18.9839C67.5328 17.6621 67.8672 17.6358 67.5782 13.8752C67.3017 10.2786 66.9918 10.2499 67.3582 9.36006C67.7654 8.37105 69.0091 7.15251 71.4963 4.71543C72.4368 3.79395 72.907 3.33321 73.2038 3.09499C74.1035 2.373 77.455 -0.316666 80.5282 0.0308291C81.8164 0.17649 81.5963 0.690743 86.4086 3.30012C86.8231 3.52487 87.379 3.82156 88.1466 4.1622C90.0136 4.99067 91.1719 5.20546 91.7816 5.43649C95.4769 6.83669 94.3925 14.6365 94.0749 14.6812C93.9592 14.6975 93.9278 13.6861 93.3214 13.6024C92.7755 13.5272 92.428 14.2952 91.9318 14.3231C90.577 14.3995 92.0816 13.1027 88.7657 11.6625C87.4767 11.1026 91.0634 13.627 87.649 13.5861C82.3095 13.522 85.7245 13.8618 83.6967 14.9268C82.2179 15.7036 76.2688 11.4291 76.5105 12.7949C76.681 13.7583 77.3801 14.0357 77.2793 15.1149C77.1816 16.1605 76.3957 17.2875 75.7024 17.3289C75.0635 17.3671 74.7134 16.4706 74.5002 16.5564C74.2684 16.6497 74.523 17.7747 75.0229 18.9305C75.6576 20.3979 76.0364 20.4094 76.3711 21.5379C76.5636 22.187 76.5916 22.7801 76.6476 23.9662Z" fill="#2F2E41"/>
<path d="M174.048 108.275L94.4222 88.019C89.3323 86.7241 86.2448 81.5301 87.5398 76.4408L97.4457 37.5117C98.7407 32.4223 103.935 29.3353 109.025 30.6301L188.651 50.8864C193.741 52.1812 196.828 57.3752 195.533 62.4646L185.627 101.394C184.332 106.483 179.138 109.57 174.048 108.275Z" fill="white"/>
<path d="M174.048 108.275L94.4224 88.0192C91.8774 87.3717 89.833 85.7495 88.3726 83.5985C86.2478 80.4689 85.6934 76.5287 86.6262 72.8629L94.933 40.2181C95.8658 36.5523 98.2361 33.3562 101.598 31.6225C103.909 30.4309 106.481 29.9828 109.025 30.6303L188.651 50.8865C193.749 52.1835 196.83 57.3672 195.533 62.4647L185.627 101.394C184.332 106.483 179.138 109.57 174.048 108.275ZM108.808 31.4868C104.182 30.3102 105.391 34.4984 104.215 39.1229C98.4735 61.6849 110.348 85.0107 131.974 93.6372C143.648 98.2939 153.359 102.1 153.359 102.1C169.53 106.214 185.976 96.4411 190.09 80.2714L194.677 62.2468C195.853 57.6223 193.058 52.9196 188.433 51.7431L108.808 31.4868Z" fill="#3F3D56"/>
<path d="M146.063 62.1643C145.508 57.6035 141.361 54.356 136.8 54.9108C132.281 55.4604 129.054 59.5345 129.533 64.044L129.4 64.0601L131.41 80.5762L146.609 78.7274C147.09 78.7534 147.579 78.7405 148.073 78.6804C152.634 78.1256 155.882 73.9786 155.327 69.4178C154.772 64.857 150.625 61.6095 146.063 62.1643Z" fill="#145ECC"/>
<path d="M116.929 218.186C116.285 216.527 114.419 215.704 112.76 216.348C111.117 216.986 110.295 218.823 110.905 220.469L110.857 220.488L113.188 226.494L118.716 224.349C118.898 224.313 119.081 224.262 119.26 224.192C120.919 223.548 121.742 221.682 121.098 220.023C120.454 218.365 118.588 217.542 116.929 218.186Z" fill="#E6E6E6"/>
<path d="M240.682 218.186C240.038 216.527 238.172 215.704 236.513 216.348C234.87 216.986 234.048 218.823 234.658 220.469L234.61 220.488L236.941 226.494L242.469 224.349C242.651 224.313 242.834 224.262 243.013 224.192C244.672 223.548 245.495 221.682 244.851 220.023C244.207 218.365 242.341 217.542 240.682 218.186Z" fill="#E6E6E6"/>
<path d="M139.537 109.767C145.395 109.767 150.144 105.018 150.144 99.1608C150.144 93.3032 145.395 88.5547 139.537 88.5547C133.678 88.5547 128.929 93.3032 128.929 99.1608C128.929 105.018 133.678 109.767 139.537 109.767Z" fill="#145ECC"/>
<path d="M91.3169 56.147C90.1788 56.8843 88.9684 57.3034 87.8772 57.403L77.4783 65.1114L73.9546 60.0565L84.8827 52.7813C85.4195 51.8262 86.2968 50.893 87.435 50.1557C90.0351 48.4714 93.012 48.4472 94.0839 50.1016C95.1559 51.7561 93.9171 54.4626 91.3169 56.147Z" fill="#FFB6B6"/>
<path d="M66.9609 38.1589C66.9609 38.1589 59.0054 37.275 57.6794 40.3685C56.3535 43.4619 53.7017 74.3963 53.7017 74.3963L58.1214 81.9089L87.1056 59.9754L81.236 54.1066L68.8141 59.9754L66.9609 38.1589Z" fill="#E6E6E6"/>
<path d="M182.19 48.1549C183.135 49.1271 184.222 49.8052 185.263 50.1452L193.684 59.9757L198.245 55.8323L189.212 46.3064C188.902 45.2558 188.254 44.1507 187.309 43.1785C185.149 40.9575 182.252 40.271 180.839 41.6452C179.425 43.0194 180.03 45.9338 182.19 48.1549Z" fill="#A0616A"/>
<path d="M209.941 36.042C209.941 36.042 217.894 36.9518 218.497 40.2629C219.101 43.5739 214.796 74.3219 214.796 74.3219L208.814 80.6617L185.443 52.825L192.472 48.4105L203.275 56.898L209.941 36.042Z" fill="#145ECC"/>
<path d="M102.712 71.7425C106.374 71.7425 109.343 68.7738 109.343 65.1117C109.343 61.4496 106.374 58.481 102.712 58.481C99.0491 58.481 96.0801 61.4496 96.0801 65.1117C96.0801 68.7738 99.0491 71.7425 102.712 71.7425Z" fill="#E6E6E6"/>
</g>
<defs>
<clipPath id="clip0_564_14670">
<rect width="292" height="227" fill="white"/>
</clipPath>
</defs>
</svg>
