<?xml version="1.0" encoding="UTF-8"?>
<svg width="24px" height="14px" viewBox="0 0 24 14" version="1.1" xmlns="http://www.w3.org/2000/svg" xmlns:xlink="http://www.w3.org/1999/xlink">
    <!-- Generator: Sketch 53.2 (72643) - https://sketchapp.com -->
    <title>icons/view</title>
    <desc>Created with Sketch.</desc>
    <defs>
        <path d="M23.7933579,11.4407713 C20.7232472,7.42975207 16.5510455,5 11.9852399,5 C7.41943419,5 3.24723247,7.46831956 0.177121771,11.4407713 C-0.0590405904,11.7878788 -0.0590405904,12.2121212 0.177121771,12.5592287 C3.24723247,16.5702479 7.41943419,19 11.9852399,19 C16.5510455,19 20.7232472,16.5316804 23.7933579,12.5592287 C24.0688807,12.2121212 24.0688807,11.7493113 23.7933579,11.4407713 Z M17.0233702,12.2892562 C16.8659287,14.7575758 14.8191882,16.7630854 12.300123,16.9173554 C9.26937269,17.1101928 6.7503075,14.6418733 6.94710947,11.6721763 C7.10455105,9.20385675 9.15129151,7.19834711 11.6703567,7.04407713 C14.701107,6.85123967 17.2201722,9.31955923 17.0233702,12.2892562 Z M14.701107,12.1349862 C14.6223862,13.446281 13.5202952,14.5261708 12.1820418,14.6033058 C10.5289053,14.7190083 9.19065191,13.369146 9.30873309,11.7878788 C9.38745387,10.476584 10.4895449,9.39669421 11.8277983,9.31955923 C13.4415744,9.20385675 14.8191882,10.553719 14.701107,12.1349862 Z" id="path-1"></path>
    </defs>
    <g id="Guidelines" stroke="none" stroke-width="1" fill="none" fill-rule="evenodd">
        <g id="icons-badges-variations" transform="translate(-295.000000, -242.000000)">
            <g id="icons/view" transform="translate(295.000000, 237.000000)">
                <mask id="mask-2" fill="white">
                    <use xlink:href="#path-1"></use>
                </mask>
                <use id="Shape" fill="#1A1A1A" fill-rule="nonzero" xlink:href="#path-1"></use>
                <g id="color/black-tint/0-000000" mask="url(#mask-2)" fill="#000000" fill-rule="evenodd">
                    <rect id="gray-70-4A4A4A" x="0" y="0" width="24" height="24"></rect>
                </g>
            </g>
        </g>
    </g>
</svg>