<?xml version="1.0" encoding="UTF-8"?>
<svg width="16px" height="24px" viewBox="0 0 16 24" version="1.1" xmlns="http://www.w3.org/2000/svg" xmlns:xlink="http://www.w3.org/1999/xlink">
    <title>access</title>
    <g id="Guidelines" stroke="none" stroke-width="1" fill="none" fill-rule="evenodd">
        <g id="export" transform="translate(-347.000000, -248.000000)">
            <g id="access" transform="translate(343.000000, 248.000000)">
                <path d="M10.5500427,3.88002276e-05 C10.3728139,0.0027691192 10.2313055,0.146903667 10.2338083,0.322141999 L10.2338083,2.77087338 C10.2323443,2.88530944 10.2932512,2.99167762 10.3932467,3.04931759 C10.4932423,3.10695757 10.616866,3.10695757 10.7168616,3.04931759 C10.8168571,2.99167762 10.877764,2.88530944 10.8763,2.77087338 L10.8763,0.322141999 C10.8775266,0.2362648 10.8435311,0.153556208 10.7820636,0.0928712997 C10.720596,0.0321863918 10.6368953,-0.00130260336 10.5500427,3.88002276e-05 L10.5500427,3.88002276e-05 Z M6.48384131,1.2685806 C6.35332236,1.27057142 6.23699649,1.35044728 6.18952423,1.47067518 C6.14205198,1.59090309 6.17287171,1.72757949 6.2675015,1.8164813 L8.04188366,3.52523419 C8.12371062,3.60644543 8.24344399,3.63776529 8.35518227,3.60718686 C8.46692056,3.57660843 8.55332809,3.48887581 8.58127932,3.37762254 C8.60923054,3.26636928 8.57438895,3.1488558 8.49011156,3.07013256 L6.71572941,1.36137966 C6.65428729,1.3007346 6.57063757,1.26725764 6.48383103,1.26857298 L6.48384131,1.2685806 Z M14.5823206,1.2685806 C14.4989922,1.26989341 14.4194405,1.30317083 14.3604605,1.36138729 L12.5860783,3.07014018 C12.501801,3.14886342 12.4669594,3.2663769 12.4949106,3.37763017 C12.5228618,3.48888343 12.6092693,3.57661605 12.7210076,3.60719448 C12.8327459,3.63777291 12.9524793,3.60645305 13.0343062,3.52524182 L14.8086884,1.81648892 C14.9046468,1.72634055 14.9348647,1.5872289 14.8848061,1.46607243 C14.8347474,1.34491595 14.7146598,1.26651681 14.5823103,1.26858823 L14.5823206,1.2685806 Z M10.5703455,3.82538274 C9.72963224,3.82538274 9.02283997,4.47152034 9.02535854,5.28597693 L9.0499539,13.7578298 L6.35097479,11.2217372 C6.08418654,10.9711721 5.7392713,10.8442137 5.39877641,10.8445441 C5.05828151,10.8448744 4.72179576,10.9728873 4.47217489,11.2326383 L4.32761426,11.3830175 C4.07718385,11.6436019 3.97704509,11.9874311 4.00436384,12.3106015 C4.03166716,12.6337719 4.1720002,12.9412895 4.38232885,13.2049232 L8.8872236,18.8518934 C8.88963937,18.8550443 8.90460685,18.8748822 8.92486847,18.9045007 C8.94669006,18.936401 8.97059075,18.9854051 8.9620122,18.9625687 C8.95820094,18.9524096 8.97559319,19.0253555 8.98209007,19.0806868 C8.98822972,19.1329917 8.99035071,19.1704798 8.99062313,19.1749825 L8.99062313,20.1397929 L8.24021853,20.1397929 C7.9852804,20.1397929 7.78564281,20.3029078 7.67151059,20.4852229 C7.55736808,20.6675304 7.50135052,20.8869117 7.50135052,21.1244488 L7.50135052,23.015344 C7.50135052,23.2528761 7.55736808,23.4722752 7.67151059,23.65457 C7.78565309,23.8368774 7.98527783,24 8.24021853,24 L18.6897034,24 C18.9446415,24 19.1442791,23.8368851 19.2584114,23.65457 C19.3725539,23.4722625 19.4285714,23.2528812 19.4285714,23.015344 L19.4285714,21.1244488 C19.4285714,20.8869168 19.3725539,20.6675177 19.2584114,20.4852229 C19.1442689,20.3029154 18.9446441,20.1397929 18.6897034,20.1397929 L17.9869717,20.1397929 C17.9758165,19.8795642 17.950766,19.2105318 18.0115671,18.8796874 C18.0563719,18.6357798 18.0908248,18.6014681 18.1867463,18.4141674 C18.2826677,18.2268668 18.4144916,17.9376702 18.5792573,17.3347304 C18.7706401,16.6343923 18.7941605,15.2254067 18.7971031,13.9198165 C18.8000457,12.6141245 18.7624677,11.4571856 18.7624677,11.4571856 C18.8114512,10.6450159 18.1105185,10.0005554 17.3228751,10.0005554 C16.9605612,10.0005554 16.631554,10.1384886 16.379209,10.362858 C16.149035,9.87276612 15.6683562,9.527082 15.1012416,9.527082 C14.7435279,9.527082 14.4203546,9.66501261 14.1721472,9.88938457 C13.9409684,9.40201163 13.4617056,9.05858905 12.8966984,9.05858905 C12.6062408,9.05858905 12.338553,9.15001848 12.1151715,9.30425753 L12.1151715,5.28533658 C12.1151715,4.47202346 11.4108978,3.82573341 10.5701846,3.82573341 L10.5703455,3.82538274 Z M10.5703455,4.46064465 C11.0856238,4.46064465 11.4728407,4.83293354 11.4728407,5.28498592 L11.4728407,12.1973978 C11.4713767,12.3118339 11.5322836,12.4182021 11.6322791,12.475842 C11.7322747,12.533482 11.8558984,12.533482 11.955894,12.475842 C12.0558895,12.4182021 12.1167964,12.3118339 12.1153324,12.1973978 L12.1153324,10.9382833 C12.1157645,10.9308469 12.1159319,10.9233978 12.1158343,10.9159498 L12.1158343,10.5437371 C12.1158343,10.0560847 12.4706182,9.69357881 12.8968729,9.69357881 C13.3231276,9.69357881 13.6783998,10.0560847 13.6783998,10.5437371 L13.6783998,10.9566574 C13.6783472,10.9634437 13.6785146,10.9702299 13.6789017,10.9770056 C13.6786378,10.9886636 13.677396,11.000033 13.677396,11.0117468 L13.677396,12.6574817 C13.6759319,12.7719177 13.7368389,12.8782859 13.8368344,12.9359259 C13.9368299,12.9935659 14.0604537,12.9935659 14.1604492,12.9359259 C14.2604448,12.8782859 14.3213517,12.7719177 14.3198877,12.6574817 L14.3198877,11.0117468 C14.3198877,10.5240943 14.6751599,10.1620713 15.1014146,10.1620713 C15.5276692,10.1620713 15.8829414,10.5240943 15.8829414,11.0117468 L15.8829414,11.4440298 C15.8830062,11.4486649 15.8831735,11.4532981 15.8834434,11.457926 C15.8834254,11.4609361 15.8829414,11.4638456 15.8829414,11.4668596 L15.8829414,13.0872857 C15.8814774,13.2017217 15.9423843,13.3080899 16.0423799,13.3657299 C16.1423754,13.4233698 16.2659992,13.4233698 16.3659947,13.3657299 C16.4659903,13.3080899 16.5268972,13.2017217 16.5254331,13.0872857 L16.5254331,11.4668596 C16.5254331,10.9942247 16.8824015,10.6355558 17.3230223,10.6355558 C17.7626151,10.6355558 18.1604974,11.0015938 18.1216138,11.4390605 C18.1205035,11.4517673 18.1201682,11.4645287 18.1206097,11.4772753 C18.1206097,11.4772753 18.1576558,12.6251936 18.1547414,13.9180786 C18.1518271,15.2109383 18.0891533,16.6944273 17.9594831,17.1688409 C17.8031983,17.7407291 17.6988884,17.9607076 17.6136426,18.127197 C17.528384,18.2936763 17.4364537,18.4576603 17.3797346,18.766423 C17.3013711,19.193319 17.3198903,19.8064992 17.3375717,20.1396813 L9.6330683,20.1396813 L9.6330683,19.1619624 C9.63307053,19.1560033 9.63290316,19.1500454 9.63256639,19.1440956 C9.63256639,19.1440956 9.62934751,19.0823329 9.62051967,19.0071178 C9.61169183,18.9319028 9.60492768,18.84986 9.56430165,18.7416038 C9.56430178,18.7414384 9.56430178,18.7412729 9.56430165,18.7411075 C9.52852771,18.6458563 9.49002447,18.5969869 9.45688475,18.5485444 C9.42374502,18.5001019 9.39464272,18.4621894 9.39464272,18.4621894 C9.39364936,18.4608582 9.3926455,18.4595347 9.39163123,18.458219 L4.88673649,12.8112489 C4.74254079,12.6305092 4.65879328,12.4294565 4.6442961,12.2578849 C4.62979892,12.0862981 4.66971564,11.9493255 4.79337473,11.8206468 C4.79337486,11.8204814 4.79337486,11.820316 4.79337473,11.8201506 L4.93793536,11.6697714 C5.18682122,11.4107878 5.61183205,11.4038253 5.90820062,11.6821788 L8.79196033,14.3914438 C8.80678364,14.4165923 8.82095726,14.4422419 8.84466521,14.471347 C8.91007343,14.5516518 9.04836848,14.6748748 9.25375252,14.6649037 C9.36180163,14.6595142 9.45716539,14.6024117 9.50924319,14.5497638 C9.56152917,14.4969049 9.58643728,14.4483455 9.60561695,14.4053408 C9.64397627,14.3193314 9.65811109,14.2463119 9.66936497,14.177541 C9.69187274,14.0399966 9.6929565,13.9164991 9.6929565,13.9164991 C9.69298591,13.9140177 9.69298591,13.911536 9.6929565,13.9090546 L9.66785897,5.28448482 C9.6678591,5.2843194 9.6678591,5.28415398 9.66785897,5.28398856 C9.66647119,4.83310506 10.0550759,4.4606383 10.5703542,4.4606383 L10.5703455,4.46064465 Z M5.43735084,5.47012665 C5.32161241,5.4686791 5.21403368,5.52890064 5.15573771,5.62777096 C5.09744174,5.72664127 5.09744174,5.84887393 5.15573771,5.94774425 C5.21403368,6.04661457 5.32161241,6.1068361 5.43735084,6.10538856 L7.91395071,6.10538856 C8.02968914,6.1068361 8.13726788,6.04661457 8.19556384,5.94774425 C8.25385981,5.84887393 8.25385981,5.72664127 8.19556384,5.62777096 C8.13726788,5.52890064 8.02968914,5.4686791 7.91395071,5.47012665 L5.43735084,5.47012665 Z M13.1829737,5.47012665 C13.0672353,5.4686791 12.9596565,5.52890064 12.9013606,5.62777096 C12.8430646,5.72664127 12.8430646,5.84887393 12.9013606,5.94774425 C12.9596565,6.04661457 13.0672353,6.1068361 13.1829737,6.10538856 L15.6595736,6.10538856 C15.775312,6.1068361 15.8828907,6.04661457 15.9411867,5.94774425 C15.9994826,5.84887393 15.9994826,5.72664127 15.9411867,5.62777096 C15.8828907,5.52890064 15.775312,5.4686791 15.6595736,5.47012665 L13.1829737,5.47012665 Z M8.24041359,20.7748566 L18.6898985,20.7748566 C18.6663216,20.7748566 18.6756585,20.760703 18.7124862,20.8195231 C18.7493138,20.8783433 18.7862725,20.9922508 18.7862725,21.1242456 L18.7862725,23.0151408 C18.7862725,23.1471406 18.7493138,23.2615436 18.7124862,23.3203714 C18.6940724,23.3497815 18.6823456,23.3608528 18.6783544,23.3645424 L8.25199926,23.3645424 C8.24800861,23.3608526 8.23628057,23.349783 8.21786753,23.3203714 C8.18103991,23.2615512 8.14408121,23.1471482 8.14408121,23.0151408 L8.14408121,21.1242456 C8.14408121,20.9922458 8.18103991,20.8783408 8.21786753,20.8195231 C8.25469515,20.760703 8.26403184,20.7748566 8.24045523,20.7748566 L8.24041359,20.7748566 Z" id="Shape" fill="#1A1A1A" fill-rule="nonzero"></path>
            </g>
        </g>
    </g>
</svg>