<svg width="22" height="24" viewBox="0 0 28 24" fill="none" xmlns="http://www.w3.org/2000/svg">
<path d="M6.06937 1.6155C9.2795 3.96159 12.7324 8.71849 14.0001 11.2713C15.2679 8.71867 18.7206 3.96154 21.9308 1.6155C24.2471 -0.0773515 28 -1.38718 28 2.78076C28 3.61316 27.5098 9.77331 27.2222 10.7734C26.2228 14.2504 22.5808 15.1372 19.3412 14.6004C25.004 15.5387 26.4445 18.6464 23.3335 21.7542C17.425 27.6564 14.8413 20.2733 14.179 18.3815C14.0576 18.0346 14.0008 17.8724 14 18.0103C13.9992 17.8724 13.9424 18.0346 13.821 18.3815C13.159 20.2733 10.5753 27.6566 4.66651 21.7542C1.55544 18.6464 2.99593 15.5385 8.65876 14.6004C5.41908 15.1372 1.77707 14.2503 0.777768 10.7734C0.490229 9.77322 0 3.61306 0 2.78076C0 -1.38718 3.75304 -0.0773515 6.06921 1.6155H6.06937Z" fill="#000000"/>
</svg>
