<svg width="193" height="201" viewBox="0 0 193 201" fill="none" xmlns="http://www.w3.org/2000/svg">
<g clip-path="url(#clip0_563_14638)">
<path d="M177.012 171.962L168.172 180.099L175.198 168.313C169.662 158.278 160.61 149.605 160.61 149.605C160.61 149.605 141.828 167.595 141.828 181.736C141.828 195.876 150.237 200.814 160.61 200.814C170.982 200.814 179.391 195.876 179.391 181.736C179.391 178.588 178.459 175.25 177.012 171.962Z" fill="#F2F2F2"/>
<path d="M165.899 180.539V181.236C165.857 189.338 164.49 195.66 161.809 200.111C161.771 200.177 161.729 200.239 161.691 200.304L161.391 200.122L161.104 199.942C164.08 195.135 165.132 188.341 165.17 181.274C165.174 181.046 165.177 180.815 165.174 180.584C165.163 177.592 164.981 174.566 164.687 171.626C164.666 171.398 164.642 171.167 164.618 170.936C164.211 167.057 163.624 163.351 163.024 160.132C162.982 159.904 162.937 159.677 162.892 159.452C161.853 154.007 160.794 150.063 160.552 149.19C160.525 149.083 160.507 149.024 160.504 149.011L160.832 148.917L160.835 148.914L161.167 148.821C161.17 148.835 161.229 149.031 161.325 149.397C161.695 150.764 162.654 154.473 163.596 159.366C163.638 159.587 163.683 159.815 163.724 160.042C164.214 162.654 164.694 165.574 165.074 168.638C165.17 169.407 165.257 170.167 165.333 170.915C165.36 171.146 165.384 171.378 165.405 171.605C165.723 174.783 165.887 177.761 165.899 180.539Z" fill="white"/>
<path d="M163.596 159.366C163.365 159.397 163.13 159.428 162.892 159.452C162.245 159.519 161.596 159.552 160.945 159.552C158.175 159.556 155.438 158.938 152.938 157.744C152.793 157.927 152.648 158.11 152.5 158.296C155.13 159.58 158.019 160.245 160.945 160.242C161.639 160.242 162.333 160.205 163.023 160.132C163.258 160.108 163.493 160.077 163.724 160.042C165.633 159.769 167.489 159.207 169.229 158.376C169.081 158.186 168.936 157.999 168.794 157.817C167.147 158.586 165.396 159.108 163.596 159.366Z" fill="white"/>
<path d="M165.333 170.915C165.094 170.929 164.856 170.936 164.618 170.936C164.546 170.939 164.47 170.939 164.397 170.939C161.395 170.939 158.437 170.214 155.776 168.824C153.115 167.434 150.829 165.422 149.114 162.958C148.976 163.162 148.838 163.365 148.703 163.572C150.491 166.065 152.847 168.096 155.576 169.497C158.305 170.898 161.329 171.629 164.397 171.629C164.494 171.629 164.59 171.629 164.687 171.626C164.929 171.623 165.167 171.616 165.405 171.605C169.09 171.417 172.643 170.171 175.639 168.017C175.528 167.813 175.418 167.609 175.304 167.406C172.392 169.521 168.927 170.74 165.333 170.915Z" fill="white"/>
<path d="M165.899 180.539C165.657 180.56 165.415 180.574 165.174 180.584C164.915 180.594 164.656 180.601 164.397 180.601C160.363 180.597 156.438 179.286 153.212 176.865C149.985 174.444 147.629 171.043 146.498 167.171C146.342 167.451 146.187 167.727 146.039 168.006C147.314 171.869 149.774 175.231 153.07 177.616C156.365 180.001 160.329 181.287 164.397 181.291C164.656 181.291 164.915 181.288 165.17 181.274C165.415 181.267 165.657 181.253 165.899 181.236C170.779 180.855 175.331 178.633 178.635 175.022C178.562 174.766 178.479 174.514 178.397 174.259C175.206 177.898 170.723 180.15 165.899 180.539Z" fill="white"/>
<path d="M145.221 43.4604L49.066 31.2045C48.8069 31.1713 48.5461 31.1544 48.2849 31.1538C48.0275 31.1534 47.7703 31.1696 47.515 31.2024C47.2602 31.2352 47.0077 31.2846 46.7593 31.3503C46.5079 31.4174 46.2612 31.5006 46.0206 31.5995C45.7848 31.6962 45.5552 31.8072 45.333 31.9318C45.1077 32.0573 44.89 32.196 44.6811 32.3472C44.4673 32.5023 44.2626 32.6694 44.0678 32.8477C43.8667 33.0312 43.6756 33.2253 43.4953 33.4292C43.3102 33.6392 43.1361 33.8585 42.9735 34.0863C42.8092 34.317 42.6551 34.557 42.511 34.8062C42.367 35.0562 42.2334 35.3163 42.1101 35.5862C41.9868 35.8562 41.8744 36.1354 41.7727 36.4236C41.6675 36.7216 41.5753 37.0262 41.496 37.3374C41.4168 37.6487 41.3506 37.9653 41.2974 38.2874C41.2454 38.6092 41.2055 38.9362 41.1778 39.2685C41.1501 39.6008 41.1362 39.9371 41.1362 40.2774C41.1373 40.6175 41.1512 40.9564 41.1778 41.2943C41.2044 41.6321 41.2443 41.9672 41.2974 42.2995C41.3512 42.6332 41.4176 42.9635 41.4969 43.2906C41.5761 43.6176 41.6683 43.9409 41.7736 44.2604C41.8752 44.5692 41.9877 44.8709 42.1109 45.1655C42.2342 45.4605 42.3678 45.7473 42.5119 46.0262C42.6559 46.305 42.81 46.5759 42.9743 46.8387C43.1383 47.1026 43.3122 47.3565 43.4961 47.6004C43.68 47.8444 43.8709 48.0772 44.0687 48.2987C44.2664 48.5188 44.4708 48.7265 44.6819 48.9217C44.893 49.117 45.1103 49.2993 45.3338 49.4688C45.5549 49.6366 45.7844 49.7929 46.0214 49.9373C46.2601 50.0829 46.5067 50.2151 46.7601 50.3332C47.0059 50.4477 47.2583 50.5477 47.5159 50.6326C47.7681 50.7159 48.0252 50.7837 48.2857 50.8358C48.5437 50.8872 48.8045 50.9225 49.0668 50.9417L145.222 57.9735C145.502 57.9938 145.783 57.9657 146.053 57.8904C146.19 57.8522 146.325 57.8027 146.454 57.7425C146.589 57.6797 146.719 57.6068 146.843 57.5244C146.969 57.441 147.089 57.3494 147.203 57.2503C147.322 57.1463 147.436 57.0353 147.542 56.918C147.654 56.794 147.76 56.6643 147.859 56.5292C147.961 56.3902 148.059 56.2421 148.154 56.0848C148.248 55.9275 148.337 55.7634 148.421 55.5926C148.505 55.4217 148.583 55.2442 148.656 55.0601C148.73 54.8762 148.798 54.6859 148.86 54.4893C148.922 54.2927 148.979 54.0903 149.03 53.8821C149.084 53.6666 149.131 53.4473 149.17 53.2241C149.209 53.0009 149.242 52.7744 149.27 52.5446C149.297 52.3147 149.317 52.0819 149.33 51.8459C149.344 51.61 149.35 51.3714 149.35 51.1302C149.349 50.8893 149.343 50.6495 149.33 50.4108C149.318 50.1721 149.298 49.9352 149.27 49.7001C149.243 49.465 149.21 49.2319 149.17 49.0006C149.13 48.7694 149.083 48.5407 149.03 48.3144C148.979 48.0957 148.922 47.8819 148.86 47.6731C148.798 47.4671 148.73 47.2641 148.656 47.0642C148.582 46.8642 148.504 46.6704 148.421 46.4827C148.337 46.2952 148.248 46.1133 148.154 45.9369C148.059 45.7605 147.961 45.5927 147.859 45.4334C147.757 45.2742 147.651 45.1233 147.542 44.9807C147.433 44.8381 147.32 44.7046 147.203 44.5802C147.089 44.4584 146.969 44.3428 146.843 44.2338C146.72 44.1271 146.59 44.0282 146.454 43.9377C146.326 43.8522 146.192 43.7758 146.053 43.7092C145.92 43.6455 145.783 43.5922 145.642 43.5497C145.504 43.5085 145.364 43.4786 145.221 43.4604Z" fill="#145ECC"/>
<path d="M145.221 71.1021L49.066 68.7997C48.5444 68.7868 48.0233 68.84 47.515 68.958C47.2586 69.0177 47.0062 69.0933 46.7593 69.1844C46.5067 69.2774 46.2601 69.3856 46.0206 69.5084C45.7841 69.6295 45.5545 69.7637 45.3329 69.9104C45.1071 70.0599 44.8895 70.2215 44.6811 70.3943C44.4672 70.5718 44.2625 70.76 44.0678 70.9584C43.8698 71.16 43.6789 71.3743 43.4953 71.6014C43.3117 71.829 43.1377 72.0662 42.9735 72.3129C42.8092 72.5597 42.6551 72.8155 42.511 73.0805C42.367 73.3455 42.2334 73.6194 42.1101 73.9021C41.9868 74.1849 41.8744 74.4756 41.7727 74.7744C41.6675 75.0837 41.5752 75.398 41.496 75.7173C41.4168 76.0366 41.3506 76.36 41.2974 76.6876C41.2454 77.0152 41.2055 77.3465 41.1778 77.6816C41.1501 78.0167 41.1362 78.3544 41.1362 78.6947C41.1373 79.035 41.1512 79.3726 41.1778 79.7074C41.2044 80.0422 41.2443 80.3732 41.2974 80.7005C41.3512 81.0262 41.4176 81.3484 41.4969 81.6671C41.5761 81.9858 41.6683 82.2996 41.7736 82.6083C41.8752 82.9079 41.9877 83.1987 42.1109 83.4806C42.2342 83.7625 42.3678 84.0355 42.5119 84.2997C42.6559 84.5639 42.81 84.8188 42.9743 85.0644C43.1383 85.3092 43.3122 85.5446 43.4961 85.7705C43.68 85.9965 43.8709 86.2096 44.0687 86.4098C44.2633 86.607 44.468 86.794 44.6819 86.9701C44.8904 87.1417 45.108 87.3018 45.3338 87.4499C45.5554 87.5951 45.7849 87.7278 46.0214 87.8474C46.261 87.9687 46.5076 88.0753 46.7601 88.1668C47.0072 88.2563 47.2596 88.3302 47.5159 88.3882C47.7696 88.446 48.0267 88.4876 48.2857 88.5128C48.5453 88.5376 48.8062 88.5461 49.0668 88.5382L145.221 85.6135C145.362 85.6092 145.503 85.593 145.642 85.5649C145.782 85.5365 145.919 85.4966 146.053 85.4457C146.191 85.3929 146.325 85.3295 146.454 85.2563C146.589 85.1792 146.72 85.0929 146.843 84.9979C146.969 84.9013 147.089 84.7973 147.203 84.6864C147.322 84.5701 147.436 84.4475 147.542 84.3192C147.651 84.1885 147.757 84.048 147.859 83.8976C147.961 83.7473 148.059 83.589 148.154 83.4229C148.248 83.2556 148.337 83.0823 148.421 82.9028C148.505 82.7234 148.583 82.5378 148.656 82.3462C148.73 82.1516 148.798 81.9534 148.86 81.7518C148.922 81.5502 148.979 81.3426 149.03 81.1288C149.084 80.91 149.131 80.687 149.17 80.4596C149.209 80.2323 149.242 80.0023 149.27 79.7697C149.297 79.5362 149.317 79.3009 149.33 79.0636C149.344 78.8262 149.35 78.587 149.35 78.3458C149.349 78.1068 149.343 77.8681 149.33 77.6297C149.318 77.3913 149.298 77.1559 149.27 76.9236C149.243 76.6904 149.21 76.4607 149.17 76.2345C149.13 76.0082 149.083 75.7843 149.03 75.5628C148.979 75.349 148.922 75.1408 148.86 74.9381C148.797 74.7354 148.729 74.5385 148.656 74.3474C148.584 74.1564 148.505 73.9713 148.421 73.7921C148.337 73.6129 148.248 73.4403 148.154 73.2741C148.06 73.1077 147.961 72.9499 147.859 72.8006C147.758 72.6513 147.652 72.5114 147.542 72.3807C147.436 72.253 147.323 72.1311 147.203 72.0155C147.09 71.9055 146.97 71.8023 146.844 71.7065C146.72 71.6124 146.59 71.5269 146.454 71.4506C146.326 71.3785 146.191 71.3162 146.053 71.2646C145.919 71.2144 145.782 71.1754 145.642 71.1478C145.503 71.1208 145.362 71.1055 145.221 71.1021Z" fill="#E4E4E4"/>
<path d="M145.221 97.0157L49.066 104.046C48.8037 104.065 48.5428 104.101 48.2849 104.152C48.0244 104.204 47.7673 104.272 47.515 104.355C47.2575 104.44 47.0051 104.54 46.7593 104.655C46.5059 104.773 46.2592 104.905 46.0206 105.051C45.7835 105.195 45.554 105.351 45.333 105.519C45.1092 105.69 44.8919 105.872 44.6811 106.066C44.4703 106.261 44.2659 106.469 44.0678 106.689C43.8698 106.91 43.6789 107.143 43.4953 107.388C43.3117 107.633 43.1377 107.887 42.9735 108.15C42.8092 108.413 42.6551 108.684 42.511 108.963C42.367 109.242 42.2334 109.529 42.1101 109.823C41.9868 110.118 41.8744 110.42 41.7727 110.728C41.6675 111.047 41.5753 111.371 41.496 111.698C41.4168 112.026 41.3506 112.356 41.2974 112.688C41.2454 113.021 41.2055 113.356 41.1778 113.694C41.1501 114.031 41.1362 114.37 41.1362 114.711C41.1373 115.051 41.1512 115.387 41.1778 115.719C41.2044 116.052 41.2443 116.379 41.2974 116.701C41.3512 117.024 41.4176 117.341 41.4969 117.651C41.5761 117.962 41.6683 118.267 41.7736 118.565C41.8752 118.854 41.9877 119.133 42.1109 119.403C42.2342 119.673 42.3678 119.933 42.5119 120.183C42.6559 120.433 42.81 120.673 42.9743 120.902C43.1369 121.13 43.3111 121.35 43.4961 121.56C43.6764 121.763 43.8676 121.958 44.0687 122.141C44.2634 122.319 44.4682 122.487 44.6819 122.642C44.8908 122.793 45.1085 122.931 45.3338 123.057C45.556 123.182 45.7857 123.293 46.0214 123.389C46.262 123.488 46.5088 123.571 46.7601 123.639C47.0085 123.704 47.261 123.754 47.5159 123.786C47.7712 123.819 48.0283 123.835 48.2857 123.835C48.5469 123.834 48.8078 123.818 49.0668 123.784L145.221 111.531C145.364 111.513 145.504 111.483 145.642 111.442C145.783 111.399 145.92 111.346 146.053 111.282C146.192 111.216 146.326 111.139 146.454 111.054C146.59 110.964 146.72 110.865 146.843 110.758C146.969 110.649 147.089 110.533 147.203 110.411C147.318 110.287 147.431 110.153 147.542 110.011C147.651 109.869 147.757 109.718 147.859 109.558C147.961 109.399 148.059 109.231 148.154 109.055C148.248 108.88 148.337 108.698 148.421 108.509C148.505 108.32 148.583 108.126 148.656 107.928C148.73 107.728 148.798 107.524 148.86 107.315C148.922 107.106 148.979 106.892 149.03 106.674C149.084 106.447 149.131 106.218 149.17 105.987C149.209 105.756 149.242 105.523 149.27 105.287C149.297 105.052 149.317 104.815 149.33 104.577C149.344 104.338 149.35 104.098 149.35 103.857C149.349 103.617 149.342 103.379 149.33 103.143C149.317 102.907 149.297 102.674 149.27 102.445C149.243 102.214 149.21 101.987 149.17 101.764C149.13 101.541 149.083 101.321 149.03 101.106C148.979 100.897 148.922 100.695 148.86 100.499C148.798 100.302 148.731 100.112 148.657 99.9279C148.583 99.7437 148.504 99.5662 148.421 99.3954C148.337 99.2259 148.247 99.0622 148.153 98.9044C148.058 98.7466 147.96 98.5984 147.858 98.46C147.759 98.3249 147.654 98.1951 147.541 98.0712C147.435 97.9538 147.322 97.8429 147.202 97.7389C147.088 97.6398 146.968 97.5482 146.842 97.4647C146.718 97.3824 146.588 97.3095 146.453 97.2466C146.324 97.1865 146.19 97.137 146.052 97.0988C145.782 97.0235 145.501 96.9954 145.221 97.0157Z" fill="#E4E4E4"/>
<path d="M92.8114 98.3038C93.4205 99.3163 94.3803 100.07 95.5085 100.422C96.6367 100.773 97.8548 100.698 98.9315 100.211C100.008 99.7245 100.869 98.8592 101.349 97.7799C101.83 96.7006 101.898 95.4824 101.539 94.3566L120.175 56.0801L111.255 50.6738L95.1604 91.3312C95.0989 91.3551 95.0383 91.3801 94.9787 91.4063C94.919 91.4325 94.8596 91.4599 94.8004 91.4884C94.7412 91.5169 94.6824 91.5469 94.6241 91.5784C94.5658 91.6099 94.5079 91.643 94.4504 91.6777C93.3543 92.3391 92.5659 93.4086 92.2585 94.6512C91.951 95.8937 92.1498 97.2074 92.8111 98.3034L92.8114 98.3038Z" fill="#9E616A"/>
<path d="M116.618 70.8401L103.379 67.4477C103.379 67.4477 103.811 66.4708 104.514 64.8524C105.216 63.234 106.198 60.9772 107.302 58.415C108.406 55.8528 109.631 52.9899 110.828 50.16C112.024 47.3301 113.188 44.5341 114.168 42.1106C115.148 39.687 116.262 38.2356 117.381 37.4221C118.307 36.7184 119.473 36.4084 120.627 36.5594C121.523 36.6929 122.38 37.019 123.139 37.5153C123.498 37.7386 123.835 37.9947 124.147 38.2804L127.216 43.8611L116.618 70.8401Z" fill="#CCCCCC"/>
<path d="M10.6659 67.8089C10.3453 67.8325 10.0262 67.8741 9.71027 67.9335C9.39228 67.993 9.07784 68.0701 8.76839 68.1645C8.45423 68.2604 8.14549 68.3732 7.84354 68.5026C7.5345 68.6349 7.2326 68.7832 6.93905 68.947C6.65182 69.1085 6.3711 69.284 6.09688 69.4737C5.82266 69.6634 5.55634 69.8672 5.29792 70.0851C5.03977 70.3025 4.78924 70.5343 4.54632 70.7805C4.30341 71.0266 4.06936 71.2862 3.84418 71.5593C3.61899 71.8323 3.40557 72.1152 3.20392 72.4079C3.00227 72.7006 2.81309 73.0021 2.63638 73.3126C2.46133 73.6235 2.29762 73.9429 2.14528 74.2708C1.99294 74.5986 1.85445 74.9341 1.72981 75.2772C1.59991 75.6331 1.4862 75.9926 1.3887 76.356C1.2912 76.7193 1.20991 77.0856 1.14482 77.455C1.07945 77.8244 1.03042 78.1963 0.997741 78.5707C0.965058 78.9451 0.948721 79.321 0.94873 79.6984C0.94873 80.0759 0.965067 80.4485 0.997741 80.8162C1.03042 81.184 1.07944 81.546 1.14482 81.9024C1.20991 82.2588 1.2912 82.6088 1.3887 82.9525C1.4862 83.2961 1.59949 83.6327 1.72857 83.9622C1.85431 84.2804 1.9928 84.5882 2.14404 84.8856C2.29353 85.18 2.4577 85.4667 2.63596 85.7446C2.81142 86.0172 3.00087 86.2807 3.20351 86.5338C3.40422 86.7854 3.61807 87.0262 3.84417 87.2553C4.06653 87.4805 4.30093 87.6935 4.54632 87.8933C4.78662 88.089 5.03768 88.2711 5.29833 88.4387C5.81271 88.7697 6.36336 89.0406 6.93946 89.2462C7.53004 89.4571 8.14378 89.5966 8.76755 89.6615C9.08043 89.6938 9.39493 89.7077 9.70944 89.7031C10.029 89.6986 10.348 89.676 10.665 89.6354C10.9849 89.5946 11.3022 89.5363 11.6156 89.4605C11.93 89.3845 12.24 89.2914 12.5442 89.1818C12.8519 89.0708 13.1536 88.9437 13.4479 88.8009C13.7478 88.6555 14.0401 88.4949 14.3237 88.3199C14.5999 88.1477 14.8688 87.963 15.1306 87.7658C15.3923 87.5686 15.6459 87.3585 15.8913 87.1353C16.1367 86.9121 16.3737 86.6767 16.6022 86.4291C16.8307 86.1816 17.0503 85.9218 17.2611 85.6499C17.4733 85.3782 17.673 85.0984 17.8602 84.8104C18.0475 84.5224 18.2228 84.2268 18.3863 83.9236C18.5497 83.6204 18.7009 83.3101 18.8399 82.9928C18.979 82.6754 19.1057 82.3514 19.2201 82.0208C19.3387 81.6785 19.4424 81.3334 19.5313 80.9853C19.6202 80.6372 19.6944 80.2866 19.754 79.9336C19.8133 79.5802 19.8579 79.2251 19.8878 78.8681C19.9177 78.5112 19.9327 78.1527 19.9326 77.7927C19.9324 77.4328 19.9174 77.0772 19.8878 76.7261C19.8581 76.3749 19.8135 76.0288 19.754 75.6876C19.6947 75.347 19.6205 75.0114 19.5313 74.6808C19.4421 74.3501 19.3384 74.0257 19.2201 73.7076C19.1052 73.3996 18.9784 73.101 18.8399 72.8116C18.6995 72.5231 18.5476 72.2431 18.3842 71.9717C18.0607 71.4354 17.6844 70.9327 17.2611 70.471C17.0534 70.2439 16.834 70.0278 16.6039 69.8234C16.3772 69.6229 16.1399 69.4348 15.893 69.2598C15.6484 69.0865 15.3944 68.9269 15.1322 68.7817C14.8702 68.6366 14.6003 68.5062 14.3237 68.3912C13.7527 68.1535 13.1555 67.9841 12.5447 67.8866C12.2372 67.8376 11.9271 67.8066 11.6161 67.7939C11.2992 67.7811 10.9818 67.7864 10.6655 67.8097" fill="#E4E4E4"/>
<path d="M10.6659 106.853C10.3453 106.877 10.0262 106.919 9.71027 106.978C9.39228 107.037 9.07784 107.115 8.76839 107.209C8.45423 107.305 8.14549 107.418 7.84354 107.547C7.5345 107.679 7.2326 107.828 6.93905 107.991C6.65182 108.153 6.3711 108.328 6.09688 108.518C5.82266 108.708 5.55634 108.912 5.29792 109.13C5.03977 109.347 4.78924 109.579 4.54632 109.825C4.30341 110.071 4.06936 110.331 3.84418 110.604C3.61899 110.877 3.40557 111.16 3.20392 111.452C3.00227 111.745 2.81309 112.047 2.63638 112.357C2.46133 112.668 2.29762 112.987 2.14528 113.315C1.99294 113.643 1.85445 113.979 1.72981 114.322C1.59991 114.678 1.4862 115.037 1.3887 115.4C1.2912 115.764 1.20991 116.13 1.14482 116.499C1.07945 116.869 1.03042 117.241 0.997741 117.615C0.965058 117.99 0.948721 118.365 0.94873 118.743C0.94873 119.12 0.965067 119.493 0.997741 119.861C1.03042 120.228 1.07944 120.59 1.14482 120.947C1.20991 121.303 1.2912 121.653 1.3887 121.997C1.4862 122.341 1.59949 122.677 1.72857 123.007C1.85431 123.325 1.9928 123.633 2.14404 123.93C2.29353 124.224 2.4577 124.511 2.63596 124.789C2.81142 125.062 3.00087 125.325 3.20351 125.578C3.40422 125.83 3.61807 126.071 3.84417 126.3C4.06653 126.525 4.30093 126.738 4.54632 126.938C4.78662 127.133 5.03768 127.315 5.29833 127.483C5.81271 127.814 6.36336 128.085 6.93946 128.291C7.53004 128.502 8.14378 128.641 8.76755 128.706C9.08043 128.738 9.39493 128.752 9.70944 128.748C10.029 128.743 10.348 128.72 10.665 128.68C10.9849 128.639 11.3022 128.581 11.6156 128.505C11.93 128.429 12.24 128.336 12.5442 128.226C12.8519 128.115 13.1536 127.988 13.4479 127.845C13.7478 127.7 14.0401 127.539 14.3237 127.364C14.5999 127.192 14.8688 127.007 15.1306 126.81C15.3923 126.613 15.6459 126.403 15.8913 126.18C16.1367 125.957 16.3737 125.721 16.6022 125.474C16.8307 125.226 17.0503 124.966 17.2611 124.694C17.4733 124.423 17.673 124.143 17.8602 123.855C18.0475 123.567 18.2228 123.271 18.3863 122.968C18.5497 122.665 18.7009 122.355 18.8399 122.037C18.979 121.72 19.1057 121.396 19.2201 121.065C19.3387 120.723 19.4424 120.378 19.5313 120.03C19.6202 119.682 19.6944 119.331 19.754 118.978C19.8133 118.625 19.8579 118.27 19.8878 117.913C19.9177 117.556 19.9327 117.197 19.9326 116.837C19.9324 116.477 19.9174 116.122 19.8878 115.77C19.8581 115.419 19.8135 115.073 19.754 114.732C19.6947 114.391 19.6205 114.056 19.5313 113.725C19.4421 113.395 19.3384 113.07 19.2201 112.752C19.1052 112.444 18.9784 112.145 18.8399 111.856C18.6995 111.568 18.5476 111.288 18.3842 111.016C18.0607 110.48 17.6844 109.977 17.2611 109.515C17.0534 109.288 16.834 109.072 16.6039 108.868C16.3772 108.667 16.1399 108.479 15.893 108.304C15.6484 108.131 15.3944 107.971 15.1322 107.826C14.8702 107.681 14.6003 107.551 14.3237 107.436C13.7527 107.198 13.1555 107.028 12.5447 106.931C12.2372 106.882 11.9271 106.851 11.6161 106.838C11.2992 106.826 10.9818 106.831 10.6655 106.854" fill="#E4E4E4"/>
<path d="M10.6675 25.5109C10.3487 25.5031 10.0296 25.5135 9.71196 25.542C9.39558 25.5704 9.0811 25.617 8.77008 25.6816C8.45729 25.7469 8.14849 25.8301 7.84522 25.9308C7.53728 26.0327 7.23532 26.1518 6.94074 26.2876C6.6524 26.4204 6.37128 26.5683 6.09857 26.7308C5.82316 26.8949 5.55648 27.0732 5.2996 27.265C5.03858 27.4598 4.78759 27.6678 4.54759 27.888C4.30357 28.112 4.06911 28.3495 3.8442 28.6004C3.61901 28.8515 3.40559 29.1138 3.20394 29.3871C3.00229 29.6604 2.81311 29.9437 2.6364 30.2369C2.46051 30.5341 2.2964 30.8385 2.14406 31.1503C1.99172 31.4621 1.85323 31.7842 1.72859 32.1165C1.59951 32.459 1.48622 32.8072 1.38872 33.1611C1.29122 33.515 1.20993 33.8735 1.14484 34.2365C1.07947 34.6007 1.03045 34.9679 0.997762 35.3381C0.965078 35.7083 0.948741 36.0822 0.948751 36.4596C0.948751 36.8365 0.965087 37.2103 0.997762 37.5811C1.03044 37.9519 1.07946 38.3187 1.14484 38.6814C1.20993 39.0442 1.29122 39.4021 1.38872 39.7551C1.48622 40.1082 1.59951 40.4557 1.72859 40.7977C1.85433 41.1281 1.99282 41.4493 2.14406 41.7614C2.2964 42.0724 2.46092 42.3741 2.63762 42.6665C2.81432 42.9589 3.00351 43.241 3.20517 43.5126C3.40654 43.7851 3.61995 44.0459 3.84542 44.2951C4.07089 44.5444 4.30494 44.7797 4.54757 45.0013C4.78631 45.2207 5.03606 45.4278 5.29584 45.6218C5.55275 45.8119 5.81944 45.9884 6.09481 46.1506C6.36757 46.3114 6.64869 46.4575 6.93698 46.5884C7.23163 46.7223 7.53361 46.8395 7.84147 46.9394C8.44726 47.1354 9.07364 47.2608 9.7082 47.3132C10.3436 47.3659 10.9829 47.3465 11.614 47.2555C11.9268 47.2103 12.2369 47.1473 12.5426 47.0669C12.8491 46.9862 13.1508 46.8883 13.4462 46.7737C13.7452 46.6578 14.0376 46.5256 14.3221 46.3778C14.5995 46.2337 14.8694 46.0756 15.1306 45.9039C15.3933 45.731 15.6472 45.5451 15.8913 45.3469C16.1367 45.1475 16.3737 44.9351 16.6022 44.7097C16.8307 44.4843 17.0504 44.2459 17.2611 43.9944C17.4733 43.743 17.673 43.4824 17.8603 43.2127C18.0475 42.943 18.2228 42.6644 18.3863 42.377C18.5502 42.0895 18.7015 41.7939 18.84 41.4901C18.9784 41.1864 19.1052 40.8753 19.2201 40.5568C19.3387 40.2262 19.4424 39.8911 19.5313 39.5516C19.6202 39.2121 19.6945 38.8687 19.754 38.5215C19.8133 38.1729 19.8579 37.8215 19.8878 37.4673C19.9177 37.1131 19.9327 36.756 19.9327 36.396C19.9324 36.0363 19.9174 35.6794 19.8878 35.3252C19.8582 34.971 19.8136 34.6206 19.754 34.2739C19.6947 33.9269 19.6205 33.5838 19.5313 33.2446C19.4421 32.9054 19.3384 32.5709 19.2201 32.2411C19.1052 31.9224 18.9785 31.6115 18.84 31.3086C18.7015 31.0056 18.5495 30.7106 18.3842 30.4234C18.2208 30.1388 18.0454 29.8618 17.8582 29.5927C17.6709 29.3235 17.4719 29.0643 17.2611 28.8151C17.0517 28.5662 16.8327 28.3295 16.6039 28.1052C16.3751 27.8809 16.1381 27.6701 15.893 27.4726C15.649 27.2755 15.3953 27.0909 15.1327 26.9194C14.8714 26.7492 14.6015 26.5927 14.3241 26.4504C14.0396 26.3043 13.7472 26.174 13.4483 26.06C13.1527 25.9472 12.851 25.8513 12.5447 25.7725C12.2389 25.694 11.9288 25.633 11.6161 25.5898C11.3009 25.5463 10.9835 25.5208 10.6655 25.5133M10.6655 24.4741C12.0611 24.5123 13.43 24.8665 14.669 25.51C15.9002 26.1537 16.9915 27.035 17.8798 28.1032C18.8083 29.2163 19.5314 30.4856 20.0153 31.8519C21.0518 34.7926 21.0518 37.9991 20.0153 40.9398C19.5309 42.31 18.8079 43.5837 17.8798 44.7022C16.9914 45.7754 15.9002 46.6631 14.6686 47.3145C13.4312 47.9657 12.0626 48.3288 10.665 48.3766C9.2589 48.4227 7.86105 48.1441 6.58008 47.5625C5.2869 46.9703 4.13001 46.1174 3.1819 45.0574C2.1751 43.9348 1.38712 42.6339 0.858565 41.2218C-0.286188 38.1477 -0.286188 34.7644 0.858565 31.6903C1.38764 30.274 2.17547 28.9683 3.1819 27.8398C4.12972 26.7739 5.28631 25.9137 6.58008 25.3127C7.86005 24.7229 9.25862 24.4354 10.6675 24.4724L10.6655 24.4741Z" fill="#145ECC"/>
<path d="M10.6667 39.363L7.39404 32.5468L8.17098 32.0409L10.8666 37.6405L22.185 24.3403L22.8701 25.0701L10.6667 39.363Z" fill="#145ECC"/>
<path d="M129.774 173.933L121.672 173.902L124.284 195.066L129.774 195.094V173.933Z" fill="#9E616A"/>
<path d="M131.174 200.419L113.483 200.326V200.102C113.483 199.648 113.527 199.195 113.616 198.75C113.789 197.872 114.136 197.037 114.635 196.293C115.143 195.54 115.793 194.893 116.549 194.39C117.295 193.894 118.132 193.551 119.011 193.381C119.457 193.295 119.91 193.254 120.365 193.256L131.174 193.31V200.419Z" fill="#2F2E41"/>
<path d="M103.832 173.833L95.7539 173.801L98.3581 194.937L103.832 194.964V173.833Z" fill="#9E616A"/>
<path d="M105.229 200.282L87.585 200.189V199.966C87.5848 199.512 87.6291 199.06 87.7171 198.616C87.8905 197.739 88.2362 196.905 88.7342 196.162C89.2397 195.409 89.8882 194.763 90.6429 194.261C91.3868 193.766 92.2218 193.424 93.0992 193.254C93.5439 193.168 93.9961 193.127 94.449 193.13L105.229 193.182V200.282Z" fill="#2F2E41"/>
<path d="M103.49 87.3286L89.9048 138.013L94.8772 186.598L105.887 186.901L103.49 143.032L117.225 121.139L120.204 187.2L130.191 186.494L135.747 129.695C137.634 125.26 139.018 120.628 139.873 115.885C140.545 112.161 140.871 108.384 140.849 104.601C140.837 102.054 140.642 99.5113 140.263 96.9926C140.128 96.054 139.944 95.1229 139.714 94.203L135.664 90.0979L103.49 87.3286Z" fill="#2F2E41"/>
<path d="M121.488 95.8055C119.204 95.8055 117.06 95.7322 115.116 95.5875C113.131 95.4513 111.156 95.1914 109.202 94.8092C107.539 94.4987 105.92 93.9889 104.379 93.291C103.138 92.7553 102.06 91.9043 101.25 90.8225L101.158 90.6879L104.871 66.5288L108.875 39.3647C109.139 37.5672 110.054 35.9292 111.447 34.7627C112.84 33.5962 114.614 32.9826 116.431 33.0387L128.971 33.4228C129.911 33.4517 130.836 33.669 131.691 34.0618C132.546 34.4547 133.313 35.0152 133.947 35.71C134.582 36.4048 135.07 37.2199 135.383 38.1068C135.696 38.9938 135.828 39.9345 135.771 40.8734L134.125 67.8883L140.197 94.5356L139.767 94.5956C139.594 94.6185 138.928 94.7065 137.884 94.8239C136.519 94.9772 135.126 95.1154 133.743 95.2347C131.786 95.4033 129.871 95.5359 128.051 95.6289C125.743 95.7465 123.531 95.8035 121.488 95.8055Z" fill="#CCCCCC"/>
<path d="M114.529 28.2384C114.526 28.2384 114.523 28.2384 114.519 28.2384C114.256 28.2382 113.996 28.1862 113.753 28.0854C113.51 27.9846 113.289 27.837 113.103 27.6508C112.917 27.4647 112.77 27.2438 112.669 27.0008C112.569 26.7577 112.517 26.4972 112.517 26.2342V15.0566C112.515 13.054 112.916 11.0715 113.696 9.22686C115.223 5.62718 118.08 2.75547 121.673 1.2102C123.945 0.235876 126.424 -0.159873 128.886 0.0583903C131.349 0.276654 133.719 1.10211 135.784 2.46086C137.85 3.81961 139.546 5.66922 140.72 7.84407C141.895 10.0189 142.512 12.4511 142.516 14.9228V26.1175C142.516 26.3869 142.462 26.6536 142.357 26.9017C142.152 27.3857 141.767 27.7714 141.283 27.9784C141.035 28.0842 140.768 28.1392 140.498 28.1399L114.528 28.2384H114.529Z" fill="#2F2E41"/>
<path d="M134.289 11.2229C135.335 13.1331 135.792 15.3104 135.601 17.4798C135.41 19.6492 134.58 21.7134 133.217 23.4116C131.853 25.1099 130.017 26.3661 127.939 27.0215C125.862 27.677 123.637 27.7023 121.545 27.0942C120.16 26.6963 118.868 26.0276 117.743 25.1268C116.619 24.226 115.684 23.111 114.993 21.8465C113.95 19.9371 113.495 17.7616 113.686 15.5941C113.878 13.4267 114.707 11.3645 116.069 9.66747C117.431 7.97042 119.265 6.71454 121.34 6.05819C123.415 5.40183 125.638 5.37438 127.728 5.97929C129.115 6.37574 130.409 7.04343 131.535 7.94363C132.661 8.84382 133.597 9.95862 134.289 11.2233V11.2229Z" fill="#9E616A"/>
<path d="M108.971 15.9662C108.97 14.3824 109.287 12.8145 109.904 11.3556C111.111 8.50918 113.371 6.23851 116.212 5.01706C117.669 4.39267 119.238 4.06778 120.823 4.06171L123.061 4.05049C123.086 4.05035 123.111 4.05028 123.137 4.0503C124.686 4.05125 126.22 4.35732 127.652 4.95103C129.083 5.54474 130.383 6.41447 131.478 7.51055C132.573 8.60664 133.441 9.90761 134.033 11.3392C134.626 12.7708 134.93 14.3049 134.929 15.8541V16.078L130.195 16.0971L128.581 11.5886L128.258 16.1058L125.813 16.1166L124.999 13.842L124.836 16.1195L108.973 16.1905L108.971 15.9662Z" fill="#2F2E41"/>
<path d="M89.9131 39.4804C89.1847 39.6586 88.5035 39.9924 87.9164 40.4588C87.4576 40.8217 87.0652 41.2615 86.7569 41.7586C86.1487 42.7423 85.8807 43.8986 85.9942 45.0495C86.0515 45.6309 86.2092 46.1979 86.4604 46.7254C86.7701 47.3828 87.2156 47.967 87.7678 48.4396C88.3199 48.9121 88.966 49.2622 89.6635 49.4667C90.3609 49.6712 91.0938 49.7254 91.8138 49.6259C92.5337 49.5264 93.2244 49.2753 93.8402 48.8892C93.8855 48.8599 93.9305 48.8302 93.975 48.8001C94.0195 48.7699 94.0632 48.7391 94.1061 48.7077C94.1493 48.6763 94.1917 48.6443 94.2334 48.6119C94.2751 48.5795 94.3165 48.5466 94.3576 48.5132L120.48 57.8078C121.283 58.0936 122.158 58.1107 122.972 57.8564C123.787 57.6022 124.496 57.0903 124.995 56.398L131.187 47.8256L123.7 42.785L119.771 47.2474L95.8649 42.4931C95.8388 42.4311 95.8118 42.3695 95.7839 42.3082C95.7559 42.2469 95.7268 42.1859 95.6964 42.1251C95.6655 42.0645 95.6337 42.0042 95.6009 41.9442C95.5682 41.8842 95.5335 41.8247 95.497 41.7657C94.9266 40.8444 94.0792 40.1272 93.0762 39.7167C92.0732 39.3062 90.966 39.2235 89.9131 39.4804Z" fill="#9E616A"/>
<path d="M120.193 44.433C120.974 43.4581 122.067 42.1922 123.177 40.9367C124.287 39.6812 125.413 38.4368 126.263 37.5059C127.113 36.575 127.684 35.9581 127.684 35.9581C128.469 34.7725 129.639 33.8948 130.997 33.4743C132.356 33.0537 133.817 33.1161 135.135 33.6509C136.452 34.1857 137.544 35.1599 138.224 36.4081C138.904 37.6562 139.131 39.1013 138.867 40.4979C138.716 41.3019 138.403 42.067 137.949 42.7472C137.949 42.7472 137.097 43.8621 135.81 45.5262C134.524 47.1904 132.803 49.4056 131.066 51.608C129.33 53.8103 127.577 56.0013 126.226 57.6185C124.874 59.2358 123.923 60.2806 123.789 60.1911L119.074 46.1797C118.94 46.0902 119.411 45.408 120.193 44.433Z" fill="#CCCCCC"/>
<path d="M122.991 27.8861C122.917 28.2474 122.946 28.6223 123.074 28.9681C123.138 29.1451 123.227 29.3122 123.338 29.4645C123.433 29.5943 123.543 29.7124 123.666 29.8163C124.029 30.1232 124.49 30.2907 124.965 30.2886C124.995 30.2883 125.025 30.2875 125.054 30.2861C125.084 30.2847 125.113 30.2826 125.143 30.2799C125.173 30.2774 125.203 30.2741 125.232 30.2699C125.262 30.2658 125.292 30.261 125.322 30.2558L127.002 29.9505L129.316 25.0076V29.5351L136.955 28.1602V8.94727L124.149 9.00874L124.465 9.37634C125.516 10.6098 126.206 12.1092 126.46 13.7095C126.708 15.3304 126.677 16.9818 126.367 18.5922C126.067 20.2216 125.61 21.8184 125.004 23.3606C124.474 24.7269 123.866 26.0614 123.182 27.3577C123.094 27.524 123.03 27.7019 122.991 27.8861Z" fill="#2F2E41"/>
<path d="M34.288 201H192.584C192.694 201 192.8 200.956 192.878 200.878C192.956 200.801 193 200.695 193 200.585C193 200.475 192.956 200.369 192.878 200.291C192.8 200.213 192.694 200.169 192.584 200.169H34.288C34.1778 200.169 34.0722 200.213 33.9942 200.291C33.9163 200.369 33.8726 200.475 33.8726 200.585C33.8726 200.695 33.9163 200.801 33.9942 200.878C34.0722 200.956 34.1778 201 34.288 201Z" fill="#CACACA"/>
</g>
<defs>
<clipPath id="clip0_563_14638">
<rect width="193" height="201" fill="white"/>
</clipPath>
</defs>
</svg>
