<?xml version="1.0" encoding="UTF-8"?>
<svg width="24px" height="23px" viewBox="0 0 24 23" version="1.1" xmlns="http://www.w3.org/2000/svg" xmlns:xlink="http://www.w3.org/1999/xlink">
    <!-- Generator: Sketch 53.2 (72643) - https://sketchapp.com -->
    <title>icons/cite copy</title>
    <desc>Created with Sketch.</desc>
    <defs>
        <path d="M14.24,9.62 C16,9.84 19.1,12.08 19.1,15.88 C19.1,18.56 17.54,19.8 15.72,19.8 C13.68,19.8 12.62,18.22 12.62,16.34 C12.62,13.86 14.48,13.24 15.64,13.14 C15.72,12.48 14.88,11.32 13.86,10.66 L14.24,9.62 Z M6.52,9.62 C8.28,9.84 11.38,12.08 11.38,15.88 C11.38,18.56 9.82,19.8 8,19.8 C5.96,19.8 4.9,18.22 4.9,16.34 C4.9,13.86 6.76,13.24 7.92,13.14 C8,12.48 7.16,11.32 6.14,10.66 L6.52,9.62 Z M0,1 L0,21 C0,22.94 1.06,24 3,24 L21,24 C22.94,24 24,22.94 24,21 L24,9 C24,7.06 22.94,6 21,6 L5,6 L0,1 Z" id="path-1"></path>
    </defs>
    <g id="Guidelines" stroke="none" stroke-width="1" fill="none" fill-rule="evenodd">
        <g id="icons-badges-variations" transform="translate(-219.000000, -946.000000)">
            <g id="icons/cite-copy" transform="translate(219.000000, 945.000000)">
                <mask id="mask-2" fill="white">
                    <use xlink:href="#path-1"></use>
                </mask>
                <use id="Shape" fill="#000000" fill-rule="nonzero" transform="translate(12.000000, 12.500000) scale(-1, 1) rotate(-180.000000) translate(-12.000000, -12.500000) " xlink:href="#path-1"></use>
            </g>
        </g>
    </g>
</svg>
