<?xml version="1.0" encoding="UTF-8"?>
<svg width="24px" height="24px" viewBox="0 0 24 24" version="1.1" xmlns="http://www.w3.org/2000/svg" xmlns:xlink="http://www.w3.org/1999/xlink">
<path stroke="none" d="M19.5 0H7.83333C6.45478 0 5.33333 1.15349 5.33333 2.57143V3.42857H4.5C3.12144 3.42857 2 4.58206 2 6V21.4286C2 22.8465 3.12144 24 4.5 24H16.1667C17.5452 24 18.6667 22.8465 18.6667 21.4286V20.5714H19.5C20.8786 20.5714 22 19.4179 22 18V2.57143C22 1.15349 20.8786 0 19.5 0ZM17 21.4286C17 21.9015 16.6265 22.2857 16.1667 22.2857H4.5C4.0402 22.2857 3.66667 21.9015 3.66667 21.4286V6C3.66667 5.52706 4.0402 5.14286 4.5 5.14286H16.1667C16.6265 5.14286 17 5.52706 17 6V21.4286ZM20.3333 18C20.3333 18.4729 19.9598 18.8571 19.5 18.8571H18.6667V12.4286V6C18.6667 4.58206 17.5452 3.42857 16.1667 3.42857H7V2.57143C7 2.09849 7.37353 1.71429 7.83333 1.71429H19.5C19.9598 1.71429 20.3333 2.09849 20.3333 2.57143V18Z"/>
</svg>
