<svg width="226" height="254" viewBox="0 0 226 254" fill="none" xmlns="http://www.w3.org/2000/svg">
<g clip-path="url(#clip0_1514_20130)">
<path d="M128.121 195.711C182.178 195.711 226 151.9 226 97.8556C226 43.8115 182.178 0 128.121 0C74.0637 0 30.2417 43.8115 30.2417 97.8556C30.2417 151.9 74.0637 195.711 128.121 195.711Z" fill="#F2F2F2"/>
<path d="M192.084 43.7609H12.7825C12.398 43.7527 12.093 43.4344 12.1012 43.05C12.1092 42.6772 12.4096 42.3769 12.7825 42.3689H192.084C192.468 42.3771 192.773 42.6954 192.765 43.0798C192.757 43.4526 192.456 43.7529 192.084 43.7609Z" fill="#CACACA"/>
<path d="M130.978 67.217H81.4119C77.689 67.217 74.6709 70.2344 74.6709 73.9564V73.9564C74.6709 77.6785 77.689 80.6958 81.4119 80.6958H130.978C134.701 80.6958 137.719 77.6785 137.719 73.9564C137.719 70.2344 134.701 67.217 130.978 67.217Z" fill="white"/>
<path d="M49.3924 94.1746H162.998C166.721 94.1746 169.739 97.1919 169.739 100.914C169.739 104.636 166.721 107.653 162.998 107.653H49.3924C45.6694 107.653 42.6514 104.636 42.6514 100.914C42.6514 97.1919 45.6694 94.1746 49.3924 94.1746Z" fill="white"/>
<path d="M49.3924 121.132H162.998C166.721 121.132 169.739 124.15 169.739 127.872C169.739 131.594 166.721 134.611 162.998 134.611H49.3924C45.6694 134.611 42.6514 131.594 42.6514 127.872C42.6514 124.15 45.6694 121.132 49.3924 121.132Z" fill="white"/>
<path d="M35.3137 253.407L35.0463 253.381C25.9749 252.445 17.7744 247.568 12.6233 240.044C11.2124 237.948 10.0712 235.682 9.22647 233.301L9.14528 233.073L9.38564 233.054C12.2553 232.823 15.2034 232.336 16.513 232.105L8.06817 229.244L8.01596 228.993C7.51529 226.642 8.49615 224.222 10.4932 222.883C12.4956 221.478 15.151 221.434 17.1998 222.769C18.1193 223.356 19.081 223.938 20.0109 224.5C23.2067 226.433 26.5113 228.431 28.989 231.166C32.7459 235.395 34.3927 241.094 33.4706 246.675L35.3137 253.407Z" fill="#F2F2F2"/>
<path d="M66.0104 249.209L70.1722 249.208L72.1525 233.158L66.0093 233.158L66.0104 249.209Z" fill="#A0616A"/>
<path d="M65.864 253.549L78.6632 253.549V253.387C78.663 250.636 76.4326 248.407 73.6814 248.407L71.3431 246.633L66.9811 248.407L65.8638 248.407L65.864 253.549Z" fill="#2F2E41"/>
<path d="M32.6553 237.683L35.9843 240.18L47.203 228.53L42.289 224.844L32.6553 237.683Z" fill="#A0616A"/>
<path d="M29.9321 241.068L40.1705 248.746L40.2677 248.617C41.9186 246.417 41.473 243.295 39.2724 241.644L38.4664 238.823L33.9126 237.624L33.0189 236.954L29.9321 241.068Z" fill="#2F2E41"/>
<path d="M46.4904 173.887C46.4904 173.887 46.7201 180.153 47.01 185.178C47.0575 186.003 45.1263 186.898 45.1763 187.794C45.2095 188.389 45.5725 188.967 45.6062 189.588C45.6418 190.242 45.1406 190.822 45.1763 191.498C45.2112 192.16 45.7829 192.918 45.8174 193.595C46.1886 200.88 47.534 209.601 46.1867 212.039C45.5228 213.241 37.0596 229.886 37.0596 229.886C37.0596 229.886 41.775 236.958 43.1222 234.6C44.9017 231.487 58.6157 216.922 58.6157 214.14C58.6157 211.362 61.7885 190.542 61.7885 190.542L64.0008 202.863L65.0152 205.304L64.6964 206.738L65.352 208.672L65.3874 210.586L66.0256 214.14C66.0256 214.14 64.1058 241.833 65.187 242.604C66.2715 243.379 71.5225 244.77 72.1422 243.379C72.7586 241.988 76.7705 214.477 76.7705 214.477C76.7705 214.477 77.4172 201.87 78.1178 190.151C78.1582 189.471 78.6365 188.65 78.6736 187.98C78.7174 187.202 78.4142 186.191 78.4546 185.437C78.4984 184.572 78.8824 183.962 78.9194 183.134C79.2057 176.733 77.5986 168.937 77.0867 168.17C75.5406 165.853 74.1496 164.001 74.1496 164.001C74.1496 164.001 53.3269 157.161 47.7628 164.111L46.4904 173.887Z" fill="#2F2E41"/>
<path d="M67.2582 109.453L59.0036 107.803L55.1515 113.029C47.9637 120.095 47.8554 126.331 49.1386 136.327V150.357L48.2099 159.762C48.2099 159.762 44.9222 166.637 48.3131 168.237C51.704 169.838 73.9769 169.702 76.1034 169.063C78.23 168.424 76.3867 167.639 75.8283 164.661C74.7793 159.068 75.481 161.766 75.5532 159.985C76.5882 134.437 74.1774 123.949 73.9326 121.192L69.7346 113.58L67.2582 109.453Z" fill="#3F3D56"/>
<path d="M110.765 130.052C109.905 131.682 107.886 132.306 106.256 131.446C106.082 131.354 105.917 131.247 105.762 131.126L87.9351 142.442L87.9864 136.281L105.304 126.234C106.537 124.852 108.658 124.73 110.041 125.964C111.198 126.996 111.497 128.686 110.765 130.052Z" fill="#A0616A"/>
<path d="M60.7408 116.588L58.7113 116.373C56.8361 116.179 54.9962 116.982 53.8638 118.489C53.4301 119.06 53.1186 119.715 52.9486 120.412L52.9474 120.418C52.4383 122.515 53.2368 124.714 54.9736 125.997L61.9832 131.163C66.9024 137.809 76.1474 142.217 86.9919 145.799L103.848 135.333L97.8861 128.114L86.3242 134.309L69.1382 121.008L69.1283 121L62.5873 116.787L60.7408 116.588Z" fill="#3F3D56"/>
<path d="M64.4692 105.401C69.7855 105.401 74.0952 101.092 74.0952 95.7772C74.0952 90.4622 69.7855 86.1536 64.4692 86.1536C59.153 86.1536 54.8433 90.4622 54.8433 95.7772C54.8433 101.092 59.153 105.401 64.4692 105.401Z" fill="#A0616A"/>
<path d="M64.6917 105.403C64.6141 105.406 64.5363 105.407 64.4587 105.409C64.4254 105.496 64.3895 105.581 64.3481 105.665L64.6917 105.403Z" fill="#2F2E41"/>
<path d="M67.3335 96.0442C67.3486 96.139 67.3717 96.2324 67.4025 96.3233C67.3898 96.228 67.3667 96.1344 67.3335 96.0442Z" fill="#2F2E41"/>
<path d="M74.2181 86.5652C73.8219 87.7953 73.4682 86.235 72.1648 86.5157C70.5969 86.8532 68.7723 86.7373 67.4883 85.7764C65.5751 84.373 63.0957 83.9952 60.8512 84.7651C58.6541 85.5422 54.9733 86.0901 54.4008 88.3487C54.2018 89.1338 54.1228 89.9858 53.6404 90.6364C53.2187 91.2053 52.5531 91.5297 51.9965 91.9675C50.1171 93.4459 51.5535 97.6461 52.4431 99.8655C53.3326 102.085 55.3731 103.702 57.6165 104.53C59.7871 105.331 62.143 105.472 64.4585 105.409C64.8613 104.365 64.6873 103.159 64.355 102.076C63.9952 100.904 63.4625 99.7733 63.3122 98.5566C63.1619 97.3399 63.492 95.9579 64.5124 95.2781C65.4503 94.6532 66.9766 95.0339 67.3334 96.0442C67.1252 94.7811 68.4049 93.5589 69.7245 93.344C71.1413 93.1132 72.558 93.6245 73.9706 93.8791C75.3833 94.1336 74.8819 88.1877 74.2181 86.5652Z" fill="#2F2E41"/>
<path d="M128.054 111.697C128.951 100.857 120.889 91.3421 110.047 90.445C99.2042 89.5478 89.6872 97.608 88.7898 108.448C87.8925 119.288 95.9546 128.802 106.797 129.7C117.64 130.597 127.157 122.537 128.054 111.697Z" fill="#DB3B28"/>
<path d="M113.596 101.866L108.422 107.04L103.247 101.866C102.409 101.029 101.051 101.029 100.214 101.866C99.376 102.704 99.376 104.062 100.214 104.899L105.388 110.072L100.214 115.246C99.3768 116.084 99.3781 117.442 100.217 118.278C101.054 119.114 102.41 119.114 103.247 118.278L108.422 113.105L113.596 118.278C114.435 119.115 115.793 119.114 116.63 118.276C117.465 117.438 117.465 116.083 116.63 115.246L111.455 110.072L116.63 104.899C117.467 104.062 117.467 102.704 116.63 101.866C115.792 101.029 114.434 101.029 113.596 101.866Z" fill="white"/>
<path d="M100.659 93.5191C101.239 95.268 100.292 97.1563 98.5428 97.7369C98.3563 97.7988 98.1647 97.8441 97.9703 97.8723L93.7967 118.567L89.3853 114.265L94.1222 94.816C93.9783 92.9689 95.3592 91.3549 97.2068 91.2109C98.7527 91.0905 100.18 92.0447 100.659 93.5191Z" fill="#A0616A"/>
<path d="M56.3096 120.287L54.7494 121.603C53.3108 122.821 52.6166 124.704 52.9204 126.564C53.0326 127.273 53.2894 127.951 53.6748 128.556L53.678 128.561C54.8397 130.38 56.9794 131.326 59.1075 130.961L67.6896 129.481C75.8916 130.533 85.4741 126.915 95.567 121.572L99.6824 102.165L90.3442 101.469L86.8113 114.098L65.3133 117.289L65.3006 117.29L57.7312 119.093L56.3096 120.287Z" fill="#3F3D56"/>
<path d="M105.176 253.882L0.457348 254C0.203946 253.999 -0.000818338 253.793 2.45903e-06 253.54C0.000815549 253.288 0.205098 253.083 0.457348 253.083L105.176 252.964C105.43 252.965 105.635 253.171 105.634 253.424C105.633 253.676 105.429 253.881 105.176 253.882Z" fill="#CACACA"/>
<path d="M21.8789 34.9441C23.6786 34.9441 25.1376 33.453 25.1376 31.6135C25.1376 29.7741 23.6786 28.283 21.8789 28.283C20.0791 28.283 18.6201 29.7741 18.6201 31.6135C18.6201 33.453 20.0791 34.9441 21.8789 34.9441Z" fill="#3F3D56"/>
<path d="M33.1362 34.9441C34.936 34.9441 36.395 33.453 36.395 31.6135C36.395 29.7741 34.936 28.283 33.1362 28.283C31.3364 28.283 29.8774 29.7741 29.8774 31.6135C29.8774 33.453 31.3364 34.9441 33.1362 34.9441Z" fill="#3F3D56"/>
<path d="M44.394 34.9441C46.1938 34.9441 47.6528 33.453 47.6528 31.6135C47.6528 29.7741 46.1938 28.283 44.394 28.283C42.5943 28.283 41.1353 29.7741 41.1353 31.6135C41.1353 33.453 42.5943 34.9441 44.394 34.9441Z" fill="#3F3D56"/>
<path d="M57.2307 34.246C57.1306 34.246 57.0307 34.2073 56.9552 34.1301L54.7564 31.8829C54.6098 31.7332 54.6098 31.4939 54.7564 31.3442L56.9552 29.0971C57.1045 28.9451 57.3487 28.9427 57.5002 29.0911C57.6524 29.2399 57.655 29.4839 57.5062 29.6359L55.571 31.6135L57.5062 33.5914C57.655 33.7434 57.6524 33.9874 57.5002 34.1362C57.4253 34.2095 57.328 34.246 57.2307 34.246Z" fill="#3F3D56"/>
<path d="M60.9254 34.2461C60.8281 34.2461 60.7309 34.2096 60.656 34.1362C60.5037 33.9874 60.5011 33.7436 60.65 33.5914L62.585 31.6136L60.65 29.6359C60.5011 29.4839 60.5037 29.24 60.656 29.0912C60.8078 28.9422 61.052 28.945 61.2009 29.0972L63.3995 31.3442C63.5461 31.4939 63.5461 31.7332 63.3995 31.883L61.2009 34.1302C61.1254 34.2073 61.0255 34.2461 60.9254 34.2461Z" fill="#3F3D56"/>
<path d="M175.956 28.6685H171.868C171.402 28.6685 171.024 29.046 171.024 29.5122V33.6036C171.024 34.0698 171.402 34.4473 171.868 34.4473H175.956C176.423 34.4473 176.804 34.0698 176.804 33.6036V29.5122C176.804 29.046 176.423 28.6685 175.956 28.6685Z" fill="#3F3D56"/>
<path d="M165.937 28.6685H161.849C161.383 28.6685 161.005 29.046 161.005 29.5122V33.6036C161.005 34.0698 161.383 34.4473 161.849 34.4473H165.937C166.404 34.4473 166.785 34.0698 166.785 33.6036V29.5122C166.785 29.046 166.404 28.6685 165.937 28.6685Z" fill="#3F3D56"/>
<path d="M185.397 28.8611H181.309C180.842 28.8611 180.465 29.2386 180.465 29.7048V33.7962C180.465 34.2624 180.842 34.64 181.309 34.64H185.397C185.864 34.64 186.245 34.2624 186.245 33.7962V29.7048C186.245 29.2386 185.864 28.8611 185.397 28.8611Z" fill="#3F3D56"/>
<path d="M123.772 30.4177H91.0899C90.5196 30.4177 90.061 30.88 90.061 31.4464C90.061 32.0127 90.5196 32.475 91.0899 32.475H123.772C124.338 32.475 124.8 32.0127 124.8 31.4464C124.8 30.8801 124.338 30.4177 123.772 30.4177Z" fill="#3F3D56"/>
</g>
<defs>
<clipPath id="clip0_1514_20130">
<rect width="226" height="254" fill="white"/>
</clipPath>
</defs>
</svg>
