<svg width="16" height="16" viewBox="0 0 16 16" fill="none" xmlns="http://www.w3.org/2000/svg">
<path fill-rule="evenodd" clip-rule="evenodd" d="M7.37267 1.34229C7.37267 0.995763 7.65359 0.714844 8.00012 0.714844C8.34665 0.714844 8.62757 0.995763 8.62757 1.34229V9.55884L10.6602 7.52614C10.8187 7.36764 11.0498 7.30575 11.2663 7.36379C11.4828 7.42183 11.6519 7.59098 11.7099 7.80752C11.7679 8.02406 11.706 8.25509 11.5475 8.41359L8.4438 11.5174C8.32613 11.635 8.16653 11.7011 8.00012 11.7011C7.8337 11.7011 7.6741 11.635 7.55643 11.5174L4.45275 8.41359C4.20768 8.16857 4.20765 7.77128 4.45267 7.52622C4.69769 7.28115 5.09498 7.28112 5.34004 7.52614L7.37267 9.55884V1.34229ZM14.6706 10.9424C14.6706 10.5958 14.9515 10.3149 15.2981 10.3149C15.4645 10.3149 15.6242 10.381 15.7419 10.4986C15.8596 10.6163 15.9257 10.7759 15.9257 10.9424V14.4228C15.9257 14.7693 15.6448 15.0502 15.2982 15.0502H0.702158C0.355626 15.0502 0.074707 14.7693 0.074707 14.4228V10.9424C0.074707 10.5958 0.355626 10.3149 0.702158 10.3149C1.04869 10.3149 1.32961 10.5958 1.32961 10.9424V13.7953H14.6706V10.9424Z" fill="#1A1A1A"/>
<mask id="mask0_543_4398" style="mask-type:alpha" maskUnits="userSpaceOnUse" x="0" y="0" width="16" height="16">
<path fill-rule="evenodd" clip-rule="evenodd" d="M7.37267 1.34229C7.37267 0.995763 7.65359 0.714844 8.00012 0.714844C8.34665 0.714844 8.62757 0.995763 8.62757 1.34229V9.55884L10.6602 7.52614C10.8187 7.36764 11.0498 7.30575 11.2663 7.36379C11.4828 7.42183 11.6519 7.59098 11.7099 7.80752C11.7679 8.02406 11.706 8.25509 11.5475 8.41359L8.4438 11.5174C8.32613 11.635 8.16653 11.7011 8.00012 11.7011C7.8337 11.7011 7.6741 11.635 7.55643 11.5174L4.45275 8.41359C4.20768 8.16857 4.20765 7.77128 4.45267 7.52622C4.69769 7.28115 5.09498 7.28112 5.34004 7.52614L7.37267 9.55884V1.34229ZM14.6706 10.9424C14.6706 10.5958 14.9515 10.3149 15.2981 10.3149C15.4645 10.3149 15.6242 10.381 15.7419 10.4986C15.8596 10.6163 15.9257 10.7759 15.9257 10.9424V14.4228C15.9257 14.7693 15.6448 15.0502 15.2982 15.0502H0.702158C0.355626 15.0502 0.074707 14.7693 0.074707 14.4228V10.9424C0.074707 10.5958 0.355626 10.3149 0.702158 10.3149C1.04869 10.3149 1.32961 10.5958 1.32961 10.9424V13.7953H14.6706V10.9424Z" fill="white"/>
</mask>
<g mask="url(#mask0_543_4398)">
<rect width="16" height="16" fill="#003595"/>
</g>
</svg>
