<?xml version="1.0" encoding="UTF-8"?>
<svg width="24px" height="24px" viewBox="0 0 24 24" version="1.1" xmlns="http://www.w3.org/2000/svg" xmlns:xlink="http://www.w3.org/1999/xlink">
    <!-- Generator: Sketch 53.2 (72643) - https://sketchapp.com -->
    <title>help-detached</title>
    <desc>Created with Sketch.</desc>
    <defs>
        <path d="M11,22 C4.92486775,22 0,17.0751322 0,11 C0,4.92486775 4.92486775,0 11,0 C17.0751322,0 22,4.92486775 22,11 C22,17.0751322 17.0751322,22 11,22 Z M11,21.12 C16.5891217,21.12 21.12,16.5891217 21.12,11 C21.12,5.41087833 16.5891217,0.88 11,0.88 C5.41087833,0.88 0.88,5.41087833 0.88,11 C0.88,16.5891217 5.41087833,21.12 11,21.12 Z M9.95367382,14.446017 C9.88684227,14.3748314 9.853427,14.2799185 9.853427,14.1612757 L9.853427,13.4316261 C9.87570418,12.8028192 10.0288575,12.2570705 10.3128916,11.7943636 C10.5969257,11.3316566 11.0006935,10.8155681 11.5242073,10.2460827 C11.9251966,9.80710427 12.2231495,9.44524914 12.4180748,9.1605064 C12.6130002,8.87576366 12.727169,8.56729699 12.7605848,8.23509713 C12.7717234,8.18764 12.7772926,8.11052334 12.7772926,8.00374481 C12.7772926,7.4579879 12.5600933,7.02494814 12.1256882,6.70461256 C11.6912832,6.38427699 11.1844849,6.2241116 10.6052781,6.2241116 C9.98151704,6.2241116 9.46079571,6.39910711 9.04309854,6.7491034 C8.62540137,7.09909968 8.35529458,7.64781443 8.23277008,8.39526412 C8.18821571,8.65627829 8.0434162,8.78678342 7.79836719,8.78678342 L7.06322385,8.78678342 C6.96297653,8.78678342 6.87665374,8.75119111 6.8042529,8.68000543 C6.73185205,8.60881975 6.69565217,8.51390692 6.69565217,8.39526412 C6.71792936,7.74272868 6.89335954,7.14062546 7.22194798,6.58893641 C7.55053642,6.03724735 8.01278102,5.59827555 8.60869565,5.27200783 C9.20461028,4.94574011 9.88683876,4.7826087 10.6554016,4.7826087 C11.4685187,4.7826087 12.1535318,4.93090998 12.7104614,5.227517 C13.2673909,5.52412402 13.6795126,5.91267338 13.9468388,6.39317675 C14.214165,6.87368012 14.3478261,7.38087052 14.3478261,7.91476315 C14.3478261,8.51984147 14.2197342,9.04186199 13.9635466,9.48084038 C13.707359,9.91981876 13.3230834,10.4299752 12.8107082,11.0113249 C12.3874417,11.4977604 12.0699966,11.910038 11.8583634,12.24817 C11.6467302,12.586302 11.5242075,12.9629873 11.4907917,13.3782371 C11.4685145,13.710437 11.4573761,13.9595831 11.4573761,14.1256831 C11.4016832,14.4104258 11.2624529,14.552795 11.039681,14.552795 L10.2209987,14.552795 C10.1096128,14.552795 10.0205054,14.5172027 9.95367382,14.446017 Z M10.1980233,17.1074238 C10.1304197,17.0341118 10.0966184,16.9410634 10.0966184,16.8282757 L10.0966184,15.8470275 C10.0966184,15.7342398 10.1304197,15.6383717 10.1980233,15.5594203 C10.265627,15.4804689 10.3514303,15.4409938 10.4554359,15.4409938 L11.4226832,15.4409938 C11.5266888,15.4409938 11.6150922,15.4804689 11.6878961,15.5594203 C11.7607,15.6383717 11.7971014,15.7342398 11.7971014,15.8470275 L11.7971014,16.8282757 C11.7971014,16.9410634 11.7607,17.0341118 11.6878961,17.1074238 C11.6150922,17.1807358 11.5266888,17.2173913 11.4226832,17.2173913 L10.4554359,17.2173913 C10.3514303,17.2173913 10.265627,17.1807358 10.1980233,17.1074238 Z" id="path-1"></path>
    </defs>
    <g id="help-detached" stroke="none" stroke-width="1" fill="none" fill-rule="evenodd">
        <g id="icons/help" transform="translate(1.000000, 1.000000)">
            <mask id="mask-2" fill="white">
                <use xlink:href="#path-1"></use>
            </mask>
            <use id="Combined-Shape" fill="#386DB0" fill-rule="nonzero" xlink:href="#path-1"></use>
            <g id="color/black-tint/0-000000" fill="#D8D8D8" mask="url(#mask-2)">
                <rect id="gray-70-4A4A4A" fill="#000000" x="0" y="0" width="22" height="22"></rect>
            </g>
        </g>
    </g>
</svg>