<?xml version="1.0" encoding="UTF-8"?>
<svg width="24px" height="24px" viewBox="0 0 24 24" version="1.1" xmlns="http://www.w3.org/2000/svg" xmlns:xlink="http://www.w3.org/1999/xlink">
    <!-- Generator: Sketch 53.2 (72643) - https://sketchapp.com -->
    <title>icons/info</title>
    <desc>Created with Sketch.</desc>
    <defs>
        <path d="M12,24 C5.372583,24 0,18.627417 0,12 C0,5.372583 5.372583,0 12,0 C18.627417,0 24,5.372583 24,12 C24,18.627417 18.627417,24 12,24 Z M12.0765662,7.32786885 C12.1461721,7.44262352 12.2442517,7.5 12.3708079,7.5 L14.1362581,7.5 C14.2628143,7.5 14.3798771,7.44262352 14.4874498,7.32786885 C14.5950226,7.21311418 14.6614636,7.07377131 14.6867749,6.90983607 L14.9905082,5.1147541 C15.0158195,4.93442533 14.9905086,4.78688582 14.9145749,4.67213115 C14.8386412,4.55737648 14.7373977,4.5 14.6108415,4.5 L12.8643747,4.5 C12.7251628,4.5 12.6017724,4.5614748 12.4941996,4.68442623 C12.3866268,4.80737766 12.3265135,4.95081885 12.3138579,5.1147541 L12.0101246,6.90983607 C11.9848133,7.07377131 12.0069603,7.21311418 12.0765662,7.32786885 Z M9.0775295,19.3586538 C9.14801111,19.4528851 9.25373195,19.5 9.39469518,19.5 L11.028579,19.5 C11.1567274,19.5 11.2720592,19.4528851 11.3745779,19.3586538 C11.4770966,19.2644226 11.5411699,19.1500007 11.5667995,19.0153846 L13.4890158,9.48461538 C13.5146455,9.34999933 13.4954235,9.23557739 13.4313493,9.14134615 C13.3672751,9.04711491 13.2711653,9 13.1430169,9 L11.5091331,9 C11.3809847,9 11.2624492,9.04374956 11.1535231,9.13125 C11.0445969,9.21875044 10.97732,9.33653772 10.9516903,9.48461538 L9.01025193,19.0153846 C8.98462225,19.1500007 9.00704788,19.2644226 9.0775295,19.3586538 Z" id="path-1"></path>
    </defs>
    <g id="Guidelines" stroke="none" stroke-width="1" fill="none" fill-rule="evenodd">
        <g id="icons-badges-variations" transform="translate(-496.000000, -237.000000)">
            <g id="icons/info" transform="translate(496.000000, 237.000000)">
                <g id="color/gray/70-4A4A4A">
                    <mask id="mask-2" fill="white">
                        <use xlink:href="#path-1"></use>
                    </mask>
                    <use id="Combined-Shape" fill="#002F6C" xlink:href="#path-1"></use>
                    <g id="color/black-tint/0-000000" mask="url(#mask-2)" fill="#000000">
                        <g transform="translate(0.000000, 0.000000)" id="gray-70-4A4A4A">
                            <rect x="0" y="0" width="24" height="24"></rect>
                        </g>
                    </g>
                </g>
            </g>
        </g>
    </g>
</svg>