<?xml version="1.0" encoding="UTF-8"?>
<svg width="24px" height="24px" viewBox="0 0 24 24" version="1.1" xmlns="http://www.w3.org/2000/svg" xmlns:xlink="http://www.w3.org/1999/xlink">
    <!-- Generator: Sketch 53.2 (72643) - https://sketchapp.com -->
    <title>icons/more-options</title>
    <desc>Created with Sketch.</desc>
    <defs>
        <path d="M9.06666667,12 C9.06666667,13.04 8.24,13.8666667 7.2,13.8666667 C6.16,13.8666667 5.33333333,13.04 5.33333333,12 C5.33333333,10.96 6.16,10.1333333 7.2,10.1333333 C8.24,10.1333333 9.06666667,10.96 9.06666667,12 Z M12,10.1333333 C10.96,10.1333333 10.1333333,10.96 10.1333333,12 C10.1333333,13.04 10.96,13.8666667 12,13.8666667 C13.04,13.8666667 13.8666667,13.04 13.8666667,12 C13.8666667,10.96 13.04,10.1333333 12,10.1333333 Z M16.8,10.1333333 C15.76,10.1333333 14.9333333,10.96 14.9333333,12 C14.9333333,13.04 15.76,13.8666667 16.8,13.8666667 C17.84,13.8666667 18.6666667,13.04 18.6666667,12 C18.6666667,10.96 17.84,10.1333333 16.8,10.1333333 Z M24,12 C24,18.6133333 18.6133333,24 12,24 C5.38666667,24 0,18.6133333 0,12 C0,5.38666667 5.38666667,0 12,0 C18.6133333,0 24,5.38666667 24,12 Z M22.9333333,12 C22.9333333,5.97333333 18.0266667,1.06666667 12,1.06666667 C5.97333333,1.06666667 1.06666667,5.97333333 1.06666667,12 C1.06666667,18.0266667 5.97333333,22.9333333 12,22.9333333 C18.0266667,22.9333333 22.9333333,18.0266667 22.9333333,12 Z" id="path-1"></path>
    </defs>
    <g id="Guidelines" stroke="none" stroke-width="1" fill="none" fill-rule="evenodd">
        <g id="icons-badges-variations" transform="translate(-327.000000, -237.000000)">
            <g id="icons/more-options" transform="translate(327.000000, 237.000000)">
                <mask id="mask-2" fill="white">
                    <use xlink:href="#path-1"></use>
                </mask>
                <use id="Shape" fill="#1A1A1A" fill-rule="nonzero" xlink:href="#path-1"></use>
                <g id="color/black-tint/0-000000" mask="url(#mask-2)" fill="#000000" fill-rule="evenodd">
                    <rect id="gray-70-4A4A4A" x="0" y="0" width="24" height="24"></rect>
                </g>
            </g>
        </g>
    </g>
</svg>