<?xml version="1.0" encoding="UTF-8"?>
<svg width="19px" height="24px" viewBox="0 0 19 24" version="1.1" xmlns="http://www.w3.org/2000/svg" xmlns:xlink="http://www.w3.org/1999/xlink">
    <title>open-source</title>
    <g id="Guidelines" stroke="none" stroke-width="1" fill="none" fill-rule="evenodd">
        <g id="export" transform="translate(-394.000000, -248.000000)">
            <g id="open-source" transform="translate(391.000000, 248.000000)">
                <g id="Group-2" transform="translate(3.000000, 0.000000)" fill="#1A1A1A" fill-rule="nonzero">
                    <path d="M16.1931818,10.2857143 L5.11363636,10.2857143 L5.11363636,6 C5.11363636,3.63306536 7.02151385,1.71428571 9.375,1.71428571 C11.7284861,1.71428571 13.6363636,3.63306536 13.6363636,6 L13.6363636,7.04571429 C13.6363636,7.51910121 14.0179391,7.90285714 14.4886364,7.90285714 C14.9593336,7.90285714 15.3409091,7.51910121 15.3409091,7.04571429 L15.3409091,6 C15.3409091,2.6862915 12.6698806,3.80647894e-16 9.375,0 C6.08011939,-3.80647894e-16 3.40909091,2.6862915 3.40909091,6 L3.40909091,10.2857143 L2.55681818,10.2857143 C1.14472649,10.2857143 0,11.4369821 0,12.8571429 L0,21.4285714 C0,22.8487322 1.14472649,24 2.55681818,24 L16.1931818,24 C17.6052735,24 18.75,22.8487322 18.75,21.4285714 L18.75,12.8571429 C18.75,11.4369821 17.6052735,10.2857143 16.1931818,10.2857143 Z M17.0454545,21.4285714 C17.0454545,21.9019584 16.663879,22.2857143 16.1931818,22.2857143 L2.55681818,22.2857143 C2.08612095,22.2857143 1.70454545,21.9019584 1.70454545,21.4285714 L1.70454545,12.8571429 C1.70454545,12.3837559 2.08612095,12 2.55681818,12 L16.1931818,12 C16.663879,12 17.0454545,12.3837559 17.0454545,12.8571429 L17.0454545,21.4285714 Z" id="Shape"></path>
                    <path d="M9.39960877,15.0002284 C8.54161421,14.9873502 7.78440126,15.5202562 7.56329941,16.2925734 C7.34219755,17.0648905 7.71400027,17.8782371 8.46495435,18.2650117 L8.46495435,19.3793911 C8.46495435,19.8602151 8.88341339,20.25 9.39960877,20.25 C9.91580415,20.25 10.3342632,19.8602151 10.3342632,19.3793911 L10.3342632,18.2650117 C11.055341,17.8665605 11.4034041,17.0696384 11.1857515,16.3154518 C10.9680989,15.5612652 10.2379769,15.0343174 9.39960877,15.0263467 L9.39960877,15.0002284 Z" id="Path"></path>
                </g>
            </g>
        </g>
    </g>
</svg>