<?xml version="1.0" encoding="UTF-8"?>
<svg width="20px" height="24px" viewBox="0 0 20 24" version="1.1" xmlns="http://www.w3.org/2000/svg" xmlns:xlink="http://www.w3.org/1999/xlink">
    <title>save-time</title>
    <g id="Guidelines" stroke="none" stroke-width="1" fill="none" fill-rule="evenodd">
        <g id="export" transform="translate(-474.000000, -253.000000)">
            <g id="save-time" transform="translate(472.000000, 253.000000)">
                <g id="Group-3" transform="translate(2.000000, 0.000000)" fill="#1A1A1A" fill-rule="nonzero">
                    <path d="M17.794751,20.8588957 L16.2590396,20.8588957 C16.5759324,20.0981595 16.746567,19.190184 16.746567,18.1104294 C16.746567,15.3374233 14.187048,13.2269939 12.212562,12.0245399 C14.1626717,10.8220859 16.746567,8.71165644 16.746567,5.96319018 C16.746567,4.85889571 16.5759324,3.92638037 16.2346632,3.16564417 L17.7703746,3.16564417 C18.6235476,3.16564417 19.3304623,2.45398773 19.3304623,1.59509202 C19.3304623,0.736196319 18.6479239,0 17.794751,0 L1.56008775,0 C0.706914764,0 -1.59872116e-13,0.711656442 -1.59872116e-13,1.57055215 C-1.59872116e-13,2.42944785 0.706914764,3.14110429 1.56008775,3.14110429 L3.09579914,3.14110429 C2.77890631,3.92638037 2.60827172,4.85889571 2.60827172,5.96319018 C2.60827172,8.73619632 5.16779069,10.8466258 7.14227675,12.0245399 C5.16779069,13.2269939 2.60827172,15.3374233 2.60827172,18.1104294 C2.60827172,19.190184 2.77890631,20.0981595 3.09579914,20.8588957 L1.58446413,20.8588957 C0.731291135,20.8588957 0.0243763712,21.5705521 0.0243763712,22.4294479 C0.0243763712,23.2883436 0.731291135,24 1.58446413,24 L17.794751,24 C18.6479239,24 19.3548387,23.2883436 19.3548387,22.4294479 C19.3548387,21.5705521 18.6479239,20.8588957 17.794751,20.8588957 Z M0.975054847,1.57055215 C0.975054847,1.25153374 1.24319493,0.981595092 1.56008775,0.981595092 L17.7703746,0.981595092 C18.0872674,0.981595092 18.3554075,1.25153374 18.3554075,1.57055215 C18.3554075,1.88957055 18.0872674,2.1595092 17.7703746,2.1595092 L1.56008775,2.1595092 C1.24319493,2.18404908 0.975054847,1.91411043 0.975054847,1.57055215 Z M3.58332656,18.1104294 C3.58332656,15.4846626 6.55724384,13.4478528 8.33671894,12.4662577 L9.11676282,12.0245399 L8.33671894,11.5828221 C6.55724384,10.6257669 3.58332656,8.58895706 3.58332656,5.96319018 C3.58332656,4.78527607 3.77833753,3.87730061 4.21711221,3.16564417 L15.1621029,3.16564417 C15.5765012,3.87730061 15.7958885,4.78527607 15.7958885,5.96319018 C15.7958885,8.58895706 12.8219712,10.6257669 11.0424961,11.607362 L10.2380759,12.0245399 L11.0181198,12.4662577 C12.7975949,13.4478528 15.7715121,15.4846626 15.7715121,18.1104294 C15.7715121,19.2638037 15.5765012,20.1717791 15.1864792,20.8588957 L4.19273584,20.8588957 C3.77833753,20.1472393 3.58332656,19.2638037 3.58332656,18.1104294 Z M17.794751,23.0429448 L1.56008775,23.0429448 C1.24319493,23.0429448 0.975054847,22.7730061 0.975054847,22.4539877 C0.975054847,22.1349693 1.24319493,21.8650307 1.56008775,21.8650307 L17.7703746,21.8650307 C18.0872674,21.8650307 18.3554075,22.1349693 18.3554075,22.4539877 C18.3554075,22.7730061 18.1116438,23.0429448 17.794751,23.0429448 Z" id="Shape"></path>
                    <path d="M10.0645161,10.8387097 L10.264308,10.7361675 C10.364204,10.6848964 12.6867846,9.63383892 14.0853278,7.78807947 L14.7096774,6.96774194 L5.41935484,6.96774194 L6.04370447,7.78807947 C7.44224766,9.63383892 9.7648283,10.6848964 9.86472425,10.7361675 L10.0645161,10.8387097 Z M12.5369407,7.99316385 C11.5879292,8.89040803 10.4890739,9.48002564 10.0645161,9.71074557 C9.61498439,9.48002564 8.51612903,8.89040803 7.59209157,7.99316385 L12.5369407,7.99316385 Z" id="Shape"></path>
                    <path d="M13.3917397,15.6478178 L13.2426503,15.483871 L6.13605534,15.483871 L5.98696593,15.6478178 C5.0924295,16.6041746 4.64516129,17.6151803 4.64516129,18.626186 C4.64516129,18.9814042 4.67000952,19.3366224 4.71970599,19.6645161 L4.7942507,20.1290323 L14.5596067,20.1290323 L14.6341514,19.6645161 C14.6838479,19.3366224 14.7086961,18.9814042 14.7086961,18.626186 C14.7335443,17.5878558 14.2862761,16.5768501 13.3917397,15.6478178 Z M13.7147667,19.0360531 L5.66393889,19.0360531 C5.66393889,18.8994307 5.63909066,18.7628083 5.63909066,18.626186 C5.63909066,17.943074 5.93726947,17.259962 6.53362708,16.5768501 L12.8450786,16.5768501 C13.4414362,17.259962 13.739615,17.943074 13.739615,18.626186 C13.739615,18.7628083 13.739615,18.8994307 13.7147667,19.0360531 Z" id="Shape"></path>
                </g>
            </g>
        </g>
    </g>
</svg>