<?xml version="1.0" encoding="UTF-8"?>
<svg width="24px" height="20px" viewBox="0 0 24 20" version="1.1" xmlns="http://www.w3.org/2000/svg" xmlns:xlink="http://www.w3.org/1999/xlink">
    <!-- Generator: Sketch 53.2 (72643) - https://sketchapp.com -->
    <title>(Logo) Twitter</title>
    <desc>Created with Sketch.</desc>
    <g id="Guidelines" stroke="none" stroke-width="1" fill="none" fill-rule="evenodd">
        <g id="export" transform="translate(-610.000000, -378.000000)" fill="#000000" fill-rule="nonzero">
            <g id="(Logo)-Twitter" transform="translate(610.000000, 378.000000)">
                <g id="Twitter-icon">
                    <path d="M23.953002,2.38170913 C23.0680388,2.78054032 22.1230782,3.05223766 21.1281197,3.17629569 C22.1420774,2.5498539 22.9220449,1.56251602 23.2910295,0.384477367 C22.3400692,0.95350387 21.2861131,1.36771415 20.1641598,1.59840057 C19.2681972,0.615163787 17.9912504,1.24011912e-13 16.5733094,1.24011912e-13 C13.8564226,1.24011912e-13 11.6535144,2.25867637 11.6535144,5.04126724 C11.6535144,5.4411237 11.6985126,5.82560107 11.7805091,6.19367407 C7.69067956,5.99579638 4.06583059,3.98216025 1.63993167,0.938124776 C1.21294946,1.67837187 0.973959418,2.5385759 0.973959418,3.4756754 C0.973959418,5.22889219 1.84392317,6.76987748 3.16186826,7.67519352 C2.35490188,7.64853642 1.5959335,7.42092582 0.933961085,7.04362537 L0.933961085,7.10616702 C0.933961085,9.55144307 2.62689055,11.590711 4.87979668,12.0551597 C4.46681388,12.168965 4.03083205,12.2304814 3.58385067,12.2304814 C3.26986376,12.2304814 2.9688763,12.1997232 2.66788884,12.1423079 C3.29886255,14.144666 5.11278697,15.6046547 7.27169701,15.6456657 C5.59176701,16.9980007 3.46285571,17.8038653 1.16995125,17.8038653 C0.779967501,17.8038653 0.390983709,17.780284 0,17.735172 C2.1889088,19.1644025 4.76780134,20 7.55668514,20 C16.6103079,20 21.5551019,12.3145537 21.5551019,5.66053212 C21.5551019,5.44625006 21.5551019,5.22991747 21.5401025,5.01461014 C22.5010625,4.30819706 23.3400275,3.41518429 24,2.40221459 L23.953002,2.38170913 Z" id="Shape"></path>
                </g>
            </g>
        </g>
    </g>
</svg>