<svg xmlns="http://www.w3.org/2000/svg" width="741.366" height="800.257" viewBox="0 0 741.366 800.257" xmlns:xlink="http://www.w3.org/1999/xlink" role="img" artist="Katerina Limpitsouni" source="https://undraw.co/"><g transform="translate(-889.765 -73.35)"><path d="M391.365,594.337c.154,0,.251,0,.284-.006l18.417,0v-2.715H391.582c-.428.015-9.159.262-17.2-9.5-11.988-14.548-21.833-50.561-.654-139.514,28.478-119.61,4.726-225.278-6.808-265.158a13.241,13.241,0,0,1,12.74-16.906H654.7A13.3,13.3,0,0,1,665.425,166c4.886,6.721,11.591,19.633,15.787,42.979l2.672-.48c-4.287-23.854-11.21-37.145-16.263-44.1a16.023,16.023,0,0,0-12.922-6.578H379.657A15.957,15.957,0,0,0,364.309,178.2c11.474,39.672,35.1,144.793,6.774,263.775-21.477,90.2-11.152,127,1.291,141.98C380.581,593.837,389.624,594.337,391.365,594.337Z" transform="translate(531.112 -84.476)" fill="#e6e6e6"/><path d="M354.864,630.837c.154,0,.251,0,.284-.006l18.417,0v-2.715H355.082c-.43.013-9.159.262-17.2-9.5-11.988-14.548-21.833-50.561-.654-139.514,28.478-119.61,4.726-225.278-6.808-265.158a13.241,13.241,0,0,1,12.74-16.906H618.2a13.3,13.3,0,0,1,10.726,5.459c4.886,6.721,11.591,19.633,15.787,42.979l2.673-.48c-4.287-23.854-11.21-37.145-16.263-44.1a16.023,16.023,0,0,0-12.922-6.578H343.157A15.957,15.957,0,0,0,327.809,214.7c11.474,39.672,35.1,144.793,6.774,263.775-21.477,90.2-11.152,127,1.291,141.98C344.081,630.337,353.124,630.837,354.864,630.837Z" transform="translate(617.169 -71.419)" fill="#ccc"/><path d="M315.518,667.337c.154,0,.251,0,.284-.006l270.8,0a15.953,15.953,0,0,0,14.838-21.862c-9.826-24.549-23.055-83.445-1.265-202.083,25.731-140.09,2.695-190.719-8.4-205.985a16.023,16.023,0,0,0-12.922-6.578H303.811A15.957,15.957,0,0,0,288.463,251.2c11.474,39.672,35.1,144.793,6.774,263.775-21.477,90.2-11.153,127,1.291,141.98C304.735,666.837,313.778,667.337,315.518,667.337Zm263.334-433.8A13.3,13.3,0,0,1,589.579,239c10.893,14.982,33.47,64.841,7.929,203.9-20.817,113.334-10.721,173.265,1.415,203.583a13.017,13.017,0,0,1-1.327,12.307,13.256,13.256,0,0,1-10.99,5.831H315.736c-.428.021-9.159.263-17.2-9.5-11.988-14.548-21.833-50.561-.654-139.514,28.478-119.61,4.726-225.278-6.808-265.158a13.241,13.241,0,0,1,12.74-16.906Z" transform="translate(706.072 -58.361)" fill="#3f3d56"/><path d="M535.008,326.549H319.129a10.862,10.862,0,1,1,0-21.724H535.008a10.862,10.862,0,1,1,0,21.724Z" transform="translate(722.968 -31.89)" fill="#003595"/><path d="M535.008,360.549H319.129a10.862,10.862,0,1,1,0-21.724H535.008a10.862,10.862,0,1,1,0,21.724Z" transform="translate(722.968 -19.727)" fill="#ccc"/><path d="M535.008,394.549H319.129a10.862,10.862,0,1,1,0-21.724H535.008a10.862,10.862,0,1,1,0,21.724Z" transform="translate(722.968 -7.564)" fill="#ccc"/><path d="M547.008,428.549H331.129a10.862,10.862,0,1,1,0-21.724H547.008a10.862,10.862,0,1,1,0,21.724Z" transform="translate(727.26 4.598)" fill="#ccc"/><path d="M547.008,462.549H331.129a10.862,10.862,0,1,1,0-21.724H547.008a10.862,10.862,0,1,1,0,21.724Z" transform="translate(727.26 16.761)" fill="#ccc"/><path d="M420.959,292.549H319.129a10.862,10.862,0,1,1,0-21.724h101.83a10.862,10.862,0,0,1,0,21.724Z" transform="translate(722.968 -44.053)" fill="#003595"/><path d="M382.634,520.686c2.192-9.28,12.488-12.322,20.907-11.982a89.24,89.24,0,0,1,15.764,2.495c5.409,1.21,10.766,2.643,16.1,4.163,9.774,2.787,19.446,6.158,29.381,8.337,8.271,1.814,17.258,2.878,25.506.374,7.928-2.408,14.654-8.318,16.812-16.489,2.033-7.7-.758-16.12-8.22-19.639-6.8-3.209-15.4-1.577-18.773,5.68-3.8,8.183,0,17.106,6.018,23.028a67.434,67.434,0,0,0,11.185,8.5,41.648,41.648,0,0,0,13.392,6c7.854,1.678,17.211-.794,21.261-8.3a14.025,14.025,0,0,0,1.591-5.481c.24-2.609-3.835-2.593-4.073,0-.687,7.472-9.437,10.971-15.981,10.152a32.483,32.483,0,0,1-12.39-4.809,72.6,72.6,0,0,1-10.262-7.241c-5.55-4.8-10.753-12.707-7.025-20.2,3.035-6.1,10.948-6.042,15.76-2.106,5.828,4.767,4.789,13.418.945,19.078-4.256,6.268-11.971,8.9-19.245,9.178-7.9.308-15.741-1.506-23.294-3.651-9.385-2.665-18.677-5.648-28.108-8.157-5.354-1.424-10.749-2.71-16.2-3.71a53.463,53.463,0,0,0-15.708-1.087c-8.5.982-17.175,5.929-19.268,14.791-.6,2.549,3.325,3.637,3.928,1.083Z" transform="translate(748.143 33.056)" fill="#3f3d56"/><path d="M492.133,514a3.394,3.394,0,0,1,1.849-5.987,56.058,56.058,0,0,1,21.985,2.253l72.388,22.356a7.467,7.467,0,0,1-4.407,14.27L511.561,524.54A56.065,56.065,0,0,1,492.133,514Z" transform="translate(788.304 40.704)" fill="#3f3d56"/><g transform="translate(1363.219 262.788)"><path d="M748.5,335.588s14.391,30.509,12.089,39.719A25.214,25.214,0,0,0,762.316,392l26.479-1.152,24.753-23.6s-37.415-25.9-35.114-38.568S748.5,335.588,748.5,335.588Z" transform="translate(-668.635 -261.563)" fill="#ed9da0"/><path d="M807.862,376.12,819.374,447.5s0,64.471-3.454,65.623-18.42,0-18.42,0v-72.53l4.606-63.321Z" transform="translate(-661.223 -253.742)" fill="#003595"/><path d="M807.862,376.12,819.374,447.5s0,64.471-3.454,65.623-18.42,0-18.42,0v-72.53l4.606-63.321Z" transform="translate(-661.223 -253.742)" opacity="0.1"/><path d="M706,644.026l9.21,35.69,13.815-10.362,12.664-28.782L725.572,621Z" transform="translate(-490.285 -102.581)" fill="#ed9da0"/><path d="M903.722,733.12s-14.966,11.512-14.966,23.026c0,0-8.058,12.664-17.269,11.512v24.177s-28.782,14.966-6.908,18.42,37.992-24.177,37.992-24.177,20.723-33.387,17.269-37.992S903.722,733.12,903.722,733.12Z" transform="translate(-652.317 -199.735)" fill="#090814"/><path d="M810.5,490.435s21.963,23.862,11.6,60.7c0,0-11.513,82.892,25.328,113.976s61.017,99.01,61.017,99.01l-27.631,25.328s-29.932-67.925-61.017-94.4-34.538-56.413-34.538-56.413V533.872L779.5,490.12Z" transform="translate(-663.945 -236.496)" fill="#090814"/><path d="M810.5,490.435s21.963,23.862,11.6,60.7c0,0-11.513,82.892,25.328,113.976s61.017,99.01,61.017,99.01l-27.631,25.328s-29.932-67.925-61.017-94.4-34.538-56.413-34.538-56.413V533.872L779.5,490.12Z" transform="translate(-663.945 -236.496)" fill="#6f6f6f" opacity="0.1"/><path d="M622.512,664,611,676.664l4.606,10.362,13.816,4.606,24.177-9.21-3.454-13.816Z" transform="translate(-504.656 -96.076)" fill="#ed9da0"/><path d="M820.694,774.789s-26.639,13.816-33.3,8.059a18.679,18.679,0,0,1-6.641-13.146s-13.338,1.634-22.218,7.386-19.808,7.752-26.639,12.664-6.66,13.815,14.43,14.966,74.367-1.152,74.367-6.908Z" transform="translate(-671.753 -194.202)" fill="#090814"/><path d="M744.054,504.028S729.088,570.8,755.566,646.79c0,0,12.664,42.6,18.42,55.261S785.5,804.515,783.2,807.969c0,0,18.42,14.966,34.538,4.605,0,0-1.152-52.959,1.152-57.563s4.606-44.9-9.21-78.287-2.3-113.976-2.3-113.976S835,521.3,814.281,497.12Z" transform="translate(-669.946 -235.437)" fill="#090814"/><ellipse cx="32.236" cy="32.236" rx="32.236" ry="32.236" transform="translate(59.142 17.613)" fill="#ed9da0"/><path d="M823.19,518.661s-9.21,13.816-16.118,6.908c-4.87-4.87-36.046,5.71-54.034,12.376-7.53,2.786-12.745,4.893-12.745,4.893s-.495-15.956-1.957-36.162c-1.681-23.187-4.628-51.993-9.556-68.6-9.21-31.085,13.816-43.749,13.816-43.749s19.573-23.024,18.425-26.479,51.807-20.723,51.807-20.723c5.756,1.152,10.362,52.959,10.362,52.959s-10.362,41.446-16.118,66.775S823.19,518.661,823.19,518.661Z" transform="translate(-671.946 -258.129)" fill="#003595"/><path d="M731.364,497.12s-25.328,25.328-37.992,32.236-19.572,29.932-9.21,34.538,33.387-25.328,33.387-25.328l33.387-27.631Z" transform="translate(-679.13 -235.437)" fill="#ed9da0"/><path d="M729.176,300.413c-2.945.262-4.628,3.971-3.677,6.771s3.682,4.631,6.472,5.609,5.773,1.314,8.566,2.284a25.211,25.211,0,0,1,7.614,4.422c7.957,6.517,12.67,16.447,14.169,26.623s0,20.6-2.823,30.493c-1.5,5.239-3.946,10.982-9.066,12.842a101.856,101.856,0,0,0,16.351-5.545c3.872-1.824,7.506-4.132,11.42-5.865a71.6,71.6,0,0,1,18.076-4.741c4.358-.68,8.965-1.2,13.058.448a26.249,26.249,0,0,1,6.844,4.615l13.168,11.063q.344-7.214.454-14.437c.064-4.185.048-8.491-1.495-12.381-1.523-3.842-4.414-6.973-6.348-10.624-4.787-9.038-3.227-19.917-3.138-30.14.092-10.585-1.611-21.374-6.511-30.757s-13.268-17.24-23.475-20.05c-13.756-3.79-28.259,1.846-40.9,8.455a37.1,37.1,0,0,0-8.248,5.369,40.087,40.087,0,0,0-6.706,9.143L726.718,304.5" transform="translate(-672.155 -269.821)" fill="#090814"/><path d="M808.985,408.717s-21.874,82.892-24.176,88.649c-1.658,4.133-21.161,26.123-33.306,37.707-7.53,2.783-12.745,4.888-12.745,4.888S738.263,524,736.8,503.8c9.371-10.4,19.227-20.251,19.227-20.251s10.362-63.321,9.21-87.5,23.026-29.932,23.026-29.932C815.892,369.574,808.985,408.717,808.985,408.717Z" transform="translate(-670.405 -255.255)" opacity="0.1"/><path d="M787.454,362.12s-24.177,5.756-23.026,29.932-9.21,87.5-9.21,87.5-39.143,39.143-35.69,43.749,18.252,13.658,21.79,14.888S781.7,499.119,784,493.365s24.177-88.648,24.177-88.648S815.084,365.574,787.454,362.12Z" transform="translate(-673.051 -255.86)" fill="#003595"/></g></g></svg>