<?xml version="1.0" encoding="UTF-8"?>
<svg width="24px" height="24px" viewBox="0 0 24 24" version="1.1" xmlns="http://www.w3.org/2000/svg" xmlns:xlink="http://www.w3.org/1999/xlink">
    <title>widely-avaiable</title>
    <g id="Guidelines" stroke="none" stroke-width="1" fill="none" fill-rule="evenodd">
        <g id="export" transform="translate(-430.000000, -248.000000)" fill="#1A1A1A" fill-rule="nonzero">
            <g id="widely-avaiable" transform="translate(430.000000, 248.000000)">
                <path d="M15.0697674,11.7209302 C15.0697674,10.1820381 13.8178597,8.93023256 12.2790698,8.93023256 C10.7402798,8.93023256 9.48837209,10.1820381 9.48837209,11.7209302 C9.48837209,13.2598111 10.7402798,14.5116279 12.2790698,14.5116279 C13.8178597,14.5116279 15.0697674,13.2598111 15.0697674,11.7209302 Z M12.2790698,13.7674419 C11.1506177,13.7674419 10.2325581,12.8493709 10.2325581,11.7209302 C10.2325581,10.5924782 11.1506177,9.6744186 12.2790698,9.6744186 C13.4075105,9.6744186 14.3255814,10.5924782 14.3255814,11.7209302 C14.3255814,12.8493709 13.4075105,13.7674419 12.2790698,13.7674419 Z" id="Shape"></path>
                <path d="M10.6790077,6.86547715 L11.6754397,8.21101894 C11.7503026,8.31213664 11.8712641,8.37209302 12.000004,8.37209302 C12.1287439,8.37209302 12.2497054,8.31213664 12.3245684,8.21101894 L13.3209881,6.86547715 C13.4490463,6.69237419 13.4075735,6.45197302 13.2283893,6.32848915 C13.04912,6.20500529 12.7999907,6.24486267 12.6718594,6.41777766 L12.3988835,6.78652594 L12.3988835,3.17562149 C12.3988835,2.96304881 12.2202837,2.79069767 12.000004,2.79069767 C11.7797243,2.79069767 11.6011245,2.96304881 11.6011245,3.17562149 L11.6011245,6.78652594 L11.3281486,6.41777766 C11.1999078,6.24486267 10.950815,6.20500529 10.7716187,6.32848915 C10.5924345,6.45197302 10.5509495,6.69237419 10.6790077,6.86547715 Z" id="Path"></path>
                <path d="M12.2790698,2.23255814 C12.8955305,2.23255814 13.3953488,1.73273983 13.3953488,1.11627907 C13.3953488,0.499806958 12.8955305,0 12.2790698,0 C11.662609,0 11.1627907,0.499806958 11.1627907,1.11627907 C11.1627907,1.73273983 11.662609,2.23255814 12.2790698,2.23255814 Z M12.2790698,0.744186047 C12.4842841,0.744186047 12.6511628,0.911155516 12.6511628,1.11627907 C12.6511628,1.32139126 12.4842841,1.48837209 12.2790698,1.48837209 C12.0738554,1.48837209 11.9069767,1.32139126 11.9069767,1.11627907 C11.9069767,0.911155516 12.0738554,0.744186047 12.2790698,0.744186047 Z" id="Shape"></path>
                <path d="M13.3209881,17.1345111 L12.3245683,15.7889811 C12.2497054,15.6878516 12.1287439,15.627907 12.000004,15.627907 C11.8712641,15.627907 11.7503026,15.6878516 11.6754397,15.7889811 L10.6790077,17.1345111 C10.5509495,17.3076141 10.5924345,17.5480152 10.7716187,17.6714991 C10.950815,17.7951592 11.1999078,17.7551256 11.3281486,17.5822223 L11.6011245,17.2134623 L11.6011245,20.8243785 C11.6011245,21.0369512 11.7797244,21.2093023 12.000004,21.2093023 C12.2202837,21.2093023 12.3988835,21.0369512 12.3988835,20.8243785 L12.3988835,17.2134623 L12.6718594,17.5822223 C12.7497534,17.687287 12.8723582,17.7432964 12.9967281,17.7432964 C13.0770566,17.7432964 13.1580669,17.7199787 13.2283894,17.6714991 C13.4075735,17.5480152 13.4490464,17.307614 13.3209881,17.1345111 Z" id="Path"></path>
                <path d="M12.2790698,21.7674419 C11.662609,21.7674419 11.1627907,22.2672488 11.1627907,22.8837209 C11.1627907,23.5001817 11.662609,24 12.2790698,24 C12.8955305,24 13.3953488,23.5001817 13.3953488,22.8837209 C13.3953488,22.2672488 12.8955305,21.7674419 12.2790698,21.7674419 Z M12.2790698,23.255814 C12.0738554,23.255814 11.9069767,23.0888331 11.9069767,22.8837209 C11.9069767,22.6785974 12.0738554,22.5116279 12.2790698,22.5116279 C12.4842841,22.5116279 12.6511628,22.6785974 12.6511628,22.8837209 C12.6511628,23.0888331 12.4842841,23.255814 12.2790698,23.255814 Z" id="Shape"></path>
                <path d="M20.8243785,11.6010676 L17.2134623,11.6010676 L17.5822223,11.3279909 C17.7551256,11.2000227 17.7951592,10.9508914 17.6716048,10.7715022 C17.5477333,10.59232 17.3073439,10.5510396 17.1345111,10.6790077 L15.7889811,11.67546 C15.6879573,11.7502542 15.627907,11.8712226 15.627907,11.9999699 C15.627907,12.1287172 15.6879573,12.2496856 15.7889811,12.3244797 L17.1345111,13.320932 C17.2023732,13.3711966 17.2805609,13.3953488 17.3580789,13.3953488 C17.4780974,13.3953488 17.5964127,13.3373054 17.6716048,13.2284254 C17.7951592,13.0490362 17.7551256,12.7999049 17.5822223,12.6719367 L17.2134623,12.3988722 L20.8243785,12.3988722 C21.0369512,12.3988722 21.2093023,12.2202621 21.2093023,11.9999699 C21.2093023,11.7796776 21.0369512,11.6010676 20.8243785,11.6010676 Z" id="Path"></path>
                <path d="M22.8837209,10.6046512 C22.2672602,10.6046512 21.7674419,11.1044581 21.7674419,11.7209302 C21.7674419,12.337391 22.2672602,12.8372093 22.8837209,12.8372093 C23.5001817,12.8372093 24,12.337391 24,11.7209302 C24,11.1044581 23.5001817,10.6046512 22.8837209,10.6046512 Z M22.8837209,12.0930233 C22.6785065,12.0930233 22.5116279,11.9260424 22.5116279,11.7209302 C22.5116279,11.5158067 22.6785065,11.3488372 22.8837209,11.3488372 C23.0889353,11.3488372 23.255814,11.5158067 23.255814,11.7209302 C23.255814,11.9260424 23.0889353,12.0930233 22.8837209,12.0930233 Z" id="Shape"></path>
                <path d="M6.7865377,12.3988722 L6.41777768,12.6719367 C6.24486268,12.7999049 6.20484085,13.0490362 6.32839519,13.2284254 C6.40358737,13.3373054 6.52190258,13.3953488 6.64192109,13.3953488 C6.71943917,13.3953488 6.79761508,13.3711965 6.86547716,13.320932 L8.21101896,12.3244797 C8.31204266,12.2496856 8.37209302,12.1287172 8.37209302,11.9999699 C8.37209302,11.8712226 8.31204266,11.7502542 8.21101894,11.67546 L6.86547715,10.6790077 C6.69255041,10.5510396 6.45217272,10.59232 6.32839518,10.7715022 C6.20484083,10.9508914 6.24486267,11.2000227 6.41777766,11.3279909 L6.7865377,11.6010676 L3.17562149,11.6010676 C2.96304881,11.6010676 2.79069767,11.7796776 2.79069767,11.9999699 C2.79069767,12.2202621 2.96304881,12.3988722 3.17562149,12.3988722 L6.7865377,12.3988722 Z" id="Path"></path>
                <path d="M1.11627907,10.6046512 C0.499818307,10.6046512 0,11.1044581 0,11.7209302 C0,12.337391 0.499818307,12.8372093 1.11627907,12.8372093 C1.73273983,12.8372093 2.23255814,12.337391 2.23255814,11.7209302 C2.23255814,11.1044581 1.73273983,10.6046512 1.11627907,10.6046512 Z M1.11627907,12.0930233 C0.911064688,12.0930233 0.744186047,11.9260424 0.744186047,11.7209302 C0.744186047,11.5158067 0.911064688,11.3488372 1.11627907,11.3488372 C1.32149345,11.3488372 1.48837209,11.5158067 1.48837209,11.7209302 C1.48837209,11.9260424 1.32149345,12.0930233 1.11627907,12.0930233 Z" id="Shape"></path>
                <path d="M16.7553366,15.1854684 C16.7880847,14.9890398 16.6553871,14.8033692 16.4589534,14.770809 L14.93121,14.5166738 C14.816212,14.4971267 14.699509,14.535143 14.6172372,14.6173247 C14.5349434,14.6995284 14.4973661,14.8165584 14.5165507,14.9313113 L14.7707915,16.4588281 C14.8000965,16.6351816 14.9528807,16.7601537 15.1258836,16.7601537 C15.1455083,16.7601537 15.165496,16.7585697 15.1854617,16.7552366 C15.3818734,16.7226654 15.514604,16.5367968 15.4818559,16.3405661 L15.4121575,15.9218476 L17.8032875,18.3130148 C17.87369,18.3834044 17.9659061,18.4186047 18.0581553,18.4186047 C18.1503714,18.4186047 18.2426866,18.3834044 18.313001,18.3130148 C18.4538059,18.1722136 18.4538059,17.9441047 18.313001,17.8033145 L15.92186,15.4121584 L16.3406883,15.4818439 C16.5365721,15.5140522 16.7226984,15.3818751 16.7553366,15.1854684 Z" id="Path"></path>
                <path d="M19.5348766,18.4186047 C19.2491754,18.4186047 18.9634515,18.527444 18.7454991,18.7454748 C18.3096398,19.1813886 18.3096398,19.8883902 18.7454991,20.3242927 C18.9634515,20.5421531 19.2491754,20.6511628 19.5348766,20.6511628 C19.8206006,20.6511628 20.1062109,20.5421531 20.3242428,20.3242927 C20.7601361,19.8883902 20.7601361,19.1813886 20.3242428,18.7454748 C20.1062109,18.527444 19.8206006,18.4186047 19.5348766,18.4186047 Z M19.7980706,19.7979027 C19.7032154,19.8927397 19.5923825,19.9069124 19.5348766,19.9069124 C19.4772685,19.9069124 19.3665379,19.8927397 19.2717735,19.7980844 C19.176941,19.7032361 19.1628598,19.592398 19.1628598,19.5347872 C19.1628598,19.4773694 19.176941,19.3665314 19.2717735,19.2716944 C19.3665379,19.1770278 19.4772685,19.1628551 19.5348766,19.1628551 C19.5923825,19.1628551 19.7032154,19.1770278 19.7979684,19.2716944 C19.8928009,19.3665314 19.9068935,19.4773694 19.9068935,19.5347872 C19.9068935,19.592398 19.8928009,19.7032361 19.7980706,19.7979027 Z" id="Shape"></path>
                <path d="M7.24467082,8.81462331 C7.2119227,9.01105637 7.34462019,9.1967201 7.54105383,9.2292921 L9.06879646,9.48343294 C9.08848712,9.48678804 9.10829879,9.48837209 9.12792347,9.48837209 C9.22271366,9.48837209 9.31466577,9.45088294 9.38276909,9.38277983 C9.46506287,9.3005743 9.50264014,9.18353068 9.4834445,9.06877515 L9.2292149,7.54122405 C9.1965548,7.34479099 9.01034051,7.21138988 8.81454488,7.2448199 C8.61812223,7.27739191 8.48540276,7.46325364 8.51815085,7.6594887 L8.58784922,8.07821661 L6.19672039,5.68700685 C6.05608063,5.54619151 5.82764692,5.54619151 5.68700716,5.68700685 C5.54619141,5.8278002 5.54619141,6.05591423 5.68700716,6.19670758 L8.07804798,8.58792833 L7.65931884,8.51823017 C7.4632702,8.48477813 7.27722091,8.61820124 7.24467082,8.81462331 Z" id="Path"></path>
                <path d="M3.67575765,3.67570565 C3.23986373,4.11161731 3.23986373,4.81861526 3.67575765,5.25451556 C3.89369893,5.47254521 4.1794005,5.58139535 4.4651248,5.58139535 C4.75082638,5.58139535 5.03655067,5.47254519 5.25449195,5.25451556 C5.69036315,4.81861526 5.69036315,4.11161731 5.25449195,3.67570565 C5.03655067,3.45784636 4.75082638,3.34883721 4.4651248,3.34883721 C4.1794005,3.34883721 3.89369893,3.45784634 3.67575765,3.67570565 Z M4.83714211,4.46520713 C4.83714211,4.52262461 4.82306087,4.63346211 4.72822825,4.72829859 C4.63346376,4.82296473 4.52273297,4.83714875 4.4651248,4.83714875 C4.40752798,4.83714875 4.29678582,4.82296473 4.20202135,4.72829859 C4.10720008,4.63346211 4.09310749,4.52262461 4.09310749,4.46520713 C4.09310749,4.40760797 4.10720008,4.29677047 4.20202135,4.20191127 C4.29678584,4.10726784 4.40752798,4.09308383 4.4651248,4.09308383 C4.52273297,4.09308383 4.63346378,4.10726784 4.72822825,4.20191127 C4.82306087,4.29677045 4.83714211,4.40760795 4.83714211,4.46520713 Z" id="Shape"></path>
                <path d="M8.81465857,16.7553906 C8.8346244,16.7587457 8.85461224,16.7603297 8.87423705,16.7603297 C9.04724128,16.7603297 9.20002666,16.6353686 9.22933187,16.4590152 L9.48347548,14.9313113 C9.50258328,14.8165583 9.46509372,14.6995284 9.38282127,14.6173247 C9.30061484,14.535143 9.18365796,14.4971267 9.06881317,14.5166738 L7.5412454,14.770809 C7.3448102,14.8033692 7.21211166,14.9890398 7.24483803,15.1854685 C7.27749839,15.3818751 7.46362616,15.5145912 7.65951135,15.4818439 L8.07815582,15.4123343 L5.687008,17.8033145 C5.54619113,17.9441047 5.54619113,18.1722136 5.687008,18.3130148 C5.75731194,18.3834044 5.84962779,18.4186047 5.94187764,18.4186047 C6.03409448,18.4186047 6.12641033,18.3834044 6.19672528,18.3130148 L8.5879611,15.9218476 L8.51826218,16.3407312 C8.48551383,16.5371598 8.61823436,16.7228414 8.81465857,16.7553906 Z" id="Path"></path>
                <path d="M5.25449195,18.7454748 C5.03655067,18.527444 4.75082638,18.4186047 4.4651248,18.4186047 C4.1794005,18.4186047 3.89369893,18.527444 3.67575765,18.7454748 C3.23986373,19.1813886 3.23986373,19.8883902 3.67575765,20.3242927 C3.89369893,20.5421531 4.1794005,20.6511628 4.4651248,20.6511628 C4.75082638,20.6511628 5.03655067,20.5421531 5.25449195,20.3242927 C5.69036315,19.8883902 5.69036315,19.1813886 5.25449195,18.7454748 Z M4.72822825,19.7980844 C4.63346376,19.8927396 4.52273297,19.9069124 4.4651248,19.9069124 C4.40752798,19.9069124 4.29678582,19.8927396 4.20202135,19.7980844 C4.10720008,19.7032361 4.09310749,19.592398 4.09310749,19.5347872 C4.09310749,19.4773694 4.10720008,19.3665314 4.20202135,19.2716944 C4.29678584,19.1770278 4.40752798,19.1628551 4.4651248,19.1628551 C4.52273297,19.1628551 4.63346378,19.1770278 4.72822825,19.2716944 C4.82306087,19.3665314 4.83714211,19.4773694 4.83714211,19.5347872 C4.83714211,19.592398 4.82306087,19.7032361 4.72822825,19.7980844 Z" id="Shape"></path>
                <path d="M15.1853414,7.24465491 C14.9892692,7.21138989 14.8032295,7.344626 14.7706681,7.54104804 L14.5165245,9.06877515 C14.4974167,9.1835307 14.5349063,9.3005743 14.6171787,9.38277983 C14.6853046,9.45088294 14.7772574,9.48837209 14.8720484,9.48837209 C14.8916732,9.48837209 14.911485,9.48678804 14.9311758,9.48343294 L16.4587546,9.2292921 C16.6551788,9.1967201 16.7878883,9.01105637 16.755162,8.81462331 C16.7225896,8.61820124 16.5363739,8.48566917 16.3404777,8.51823016 L15.9216572,8.58792832 L18.312992,6.19670757 C18.4538089,6.05591423 18.4538089,5.8278002 18.312992,5.68700685 C18.1723511,5.54619151 17.9439156,5.54619151 17.8032747,5.68700685 L15.4121269,8.07804061 L15.4817378,7.65933469 C15.5144862,7.46290164 15.3817546,7.27720491 15.1853414,7.24465491 Z" id="Path"></path>
                <path d="M20.3242428,5.25451556 C20.7601361,4.81861526 20.7601361,4.11161731 20.3242428,3.67570565 C20.1063018,3.45784636 19.8206006,3.34883721 19.5348766,3.34883721 C19.2491754,3.34883721 18.9634515,3.45784636 18.7454991,3.67570565 C18.3096398,4.11161731 18.3096398,4.81861526 18.7454991,5.25451556 C18.9634515,5.47254521 19.2491754,5.58139535 19.5348766,5.58139535 C19.8206006,5.58139535 20.1063018,5.47254519 20.3242428,5.25451556 Z M19.1628598,4.46520713 C19.1628598,4.40760797 19.176941,4.29677047 19.2717735,4.20191127 C19.3665379,4.10726784 19.4772685,4.09308383 19.5348766,4.09308383 C19.5924734,4.09308383 19.7032154,4.10726784 19.7979684,4.20191127 C19.8928009,4.29677047 19.9068935,4.40760797 19.9068935,4.46520713 C19.9068935,4.52262461 19.8928009,4.63346211 19.7979684,4.72829859 C19.7032154,4.82296473 19.5924734,4.83714875 19.5348766,4.83714875 C19.4772685,4.83714875 19.3665379,4.82296473 19.2717735,4.72829859 C19.176941,4.63346209 19.1628598,4.52262459 19.1628598,4.46520713 Z" id="Shape"></path>
            </g>
        </g>
    </g>
</svg>